<?xml version="1.0" standalone="no"?>
<!DOCTYPE svg PUBLIC "-//W3C//DTD SVG 1.1//EN" "http://www.w3.org/Graphics/SVG/1.1/DTD/svg11.dtd" >
<svg>
<metadata>
Created by FontForge 20120731 at Sat Aug 31 06:03:41 2019
 By www
Copyright (c) 2015 by Typesketchbook. All rights reserved.
</metadata>
<defs>
<font id="BreulGroteskA-Regular" horiz-adv-x="555" >
  <font-face 
    font-family="BreulGroteskA-Regular"
    font-weight="400"
    font-stretch="normal"
    units-per-em="1000"
    panose-1="2 0 0 0 0 0 0 0 0 0"
    ascent="745"
    descent="-255"
    x-height="425"
    cap-height="585"
    bbox="-62 -253 1196 934"
    underline-thickness="35"
    underline-position="-74"
    unicode-range="U+0020-FB02"
  />
<missing-glyph horiz-adv-x="567" 
 />
    <glyph glyph-name=".notdef" horiz-adv-x="567" 
 />
    <glyph glyph-name=".null" horiz-adv-x="0" 
 />
    <glyph glyph-name="nonmarkingreturn" horiz-adv-x="283" 
 />
    <glyph glyph-name="space" unicode=" " horiz-adv-x="189" 
 />
    <glyph glyph-name="exclam" unicode="!" horiz-adv-x="256" 
d="M56 585h144l-8 -399h-129zM60 111h135v-111h-135v111z" />
    <glyph glyph-name="quotedbl" unicode="&#x22;" horiz-adv-x="418" 
d="M56 585h116v-215h-116v215zM246 585h116v-215h-116v215z" />
    <glyph glyph-name="numbersign" unicode="#" horiz-adv-x="828" 
d="M442 117h-181l-42 -117h-116l43 117h-90v101h128l52 143h-110v102h147l45 122h116l-45 -122h180l44 122h117l-45 -122h87v-102h-126l-50 -143h106v-101h-146l-40 -117h-117zM300 218h180l52 143h-181z" />
    <glyph glyph-name="dollar" unicode="$" horiz-adv-x="655" 
d="M599 177q0 -37 -11 -68.5t-36.5 -55.5t-67 -39.5t-102.5 -19.5v-139h-125v144q-39 7 -75 20.5t-63.5 35t-44 51t-16.5 68.5h165q0 -44 32.5 -62t83.5 -18q69 0 95 16t26 56q0 17 -11.5 28t-32 19t-47.5 13.5t-57 11.5q-42 8 -87.5 18.5t-83 30.5t-61.5 52.5t-24 83.5
q0 32 10 60.5t33.5 51t62 38t95.5 20.5v143h125v-146q40 -6 76.5 -19t64.5 -34.5t44.5 -51.5t16.5 -71h-165q0 44 -26.5 62t-77.5 18q-37 0 -60.5 -6t-36.5 -15.5t-18 -20.5t-5 -22q0 -18 13.5 -31t36.5 -22t53.5 -15.5t63.5 -13.5q41 -8 83 -20t76 -32t56 -49t22 -70z" />
    <glyph glyph-name="percent" unicode="%" horiz-adv-x="845" 
d="M520 585h141l-336 -585h-139zM200 596q30 0 56.5 -11.5t46 -31t31 -46t11.5 -56.5t-11.5 -56t-31 -46t-46 -31.5t-56.5 -11.5t-56 11.5t-45.5 31.5t-31 46t-11.5 56t11.5 56.5t31 46t45.5 31t56 11.5zM200 405q21 0 35.5 13t14.5 33q0 22 -14.5 36t-35.5 14
q-18 0 -32 -14t-14 -36q0 -20 14 -33t32 -13zM645 285q30 0 56 -11.5t45.5 -31t31 -46t11.5 -56.5t-11.5 -56t-31 -46t-45.5 -31.5t-56 -11.5t-56.5 11.5t-46 31.5t-31 46t-11.5 56t11.5 56.5t31 46t46 31t56.5 11.5zM645 94q18 0 32 13t14 33q0 22 -14 36t-32 14
q-21 0 -35.5 -14t-14.5 -36q0 -20 14.5 -33t35.5 -13z" />
    <glyph glyph-name="ampersand" unicode="&#x26;" horiz-adv-x="739" 
d="M620 273q-4 -33 -23.5 -72.5t-51.5 -79.5l138 -121h-157l-55 49q-42 -28 -93 -45t-102 -17q-109 0 -164.5 31.5t-55.5 112.5q0 25 11 47.5t30 43t44 39t52 34.5q-45 40 -60 79.5t-15 70.5q0 23 6.5 49t26.5 49t56.5 38t95.5 15t95.5 -12.5t56.5 -34.5t27 -51.5t7 -62.5
q0 -44 -35 -82.5t-91 -71.5l100 -88q13 25 20.5 44.5t12.5 35.5h124zM181 130q0 -25 27 -36t59 -11q23 0 58 10.5t68 25.5q-30 26 -59.5 51.5t-59.5 53.5q-42 -25 -67.5 -48t-25.5 -46zM365 439q0 37 -17.5 48.5t-44.5 11.5q-9 0 -20 -1t-20 -6.5t-15 -17.5t-6 -34
q0 -20 8 -38t37 -48q43 27 60.5 44.5t17.5 40.5z" />
    <glyph glyph-name="quotesingle" unicode="'" horiz-adv-x="228" 
d="M56 585h116v-215h-116v215z" />
    <glyph glyph-name="parenleft" unicode="(" horiz-adv-x="347" 
d="M154 -171q-44 123 -71 237t-27 238q0 125 26.5 240t72.5 239h136q-48 -124 -72.5 -239.5t-24.5 -239.5q0 -62 6.5 -120.5t18.5 -116.5t30 -116.5t42 -121.5h-137z" />
    <glyph glyph-name="parenright" unicode=")" horiz-adv-x="347" 
d="M56 -171q24 63 42 121.5t30 116.5t18.5 116.5t6.5 120.5q0 124 -24.5 239.5t-72.5 239.5h136q46 -124 72.5 -239t26.5 -240q0 -124 -27 -238t-71 -237h-137z" />
    <glyph glyph-name="asterisk" unicode="*" horiz-adv-x="543" 
d="M334 585l-12 -138q25 14 58 29.5t60 31.5l47 -112l-136 -44l86 -111l-102 -67l-63 115l-65 -115l-102 67l87 111l-136 44l46 112q29 -16 62 -31.5t58 -29.5l-13 138h125z" />
    <glyph glyph-name="plus" unicode="+" horiz-adv-x="485" 
d="M182 133h-126v100h126v138h121v-138h126v-100h-126v-133h-121v133z" />
    <glyph glyph-name="comma" unicode="," horiz-adv-x="278" 
d="M94 105h128l-50 -212h-116z" />
    <glyph glyph-name="hyphen" unicode="-" horiz-adv-x="485" 
d="M429 233v-102h-373v102h373z" />
    <glyph glyph-name="period" unicode="." horiz-adv-x="244" 
d="M56 129h132v-129h-132v129z" />
    <glyph glyph-name="slash" unicode="/" horiz-adv-x="494" 
d="M352 782h138l-347 -953h-139z" />
    <glyph glyph-name="zero" unicode="0" horiz-adv-x="636" 
d="M318 95q80 0 116 53.5t36 138.5q0 45 -9 83.5t-27.5 66t-47 43t-68.5 15.5t-68.5 -15.5t-47 -43t-27.5 -66t-9 -83.5q0 -85 36.5 -138.5t115.5 -53.5zM318 -6q-84 0 -139.5 28.5t-88 72t-46 95t-13.5 97.5q0 49 13.5 103.5t46 100t88 75.5t139.5 30t139.5 -30t88 -75.5
t46 -100t13.5 -103.5q0 -46 -13.5 -97.5t-46 -95t-88 -72t-139.5 -28.5z" />
    <glyph glyph-name="one" unicode="1" horiz-adv-x="415" 
d="M229 466q-49 -37 -103 -52t-110 -26v118q100 18 190 79h158v-585h-135v466z" />
    <glyph glyph-name="two" unicode="2" horiz-adv-x="545" 
d="M48 0v111q0 38 40.5 69t113.5 76q83 52 127.5 87t44.5 75q0 45 -27 61t-73 16q-54 0 -77 -16t-25 -61h-136q0 47 18 80.5t49 55t73.5 32t91.5 10.5q74 0 120.5 -13t73.5 -36.5t37 -55t10 -69.5q0 -45 -19.5 -81.5t-60 -72.5t-102.5 -75.5t-146 -90.5h328v-102h-461z" />
    <glyph glyph-name="three" unicode="3" horiz-adv-x="551" 
d="M385 423q0 24 -10.5 38.5t-28 22t-38.5 9.5t-42 2q-20 0 -38.5 -2.5t-32.5 -9.5t-22.5 -19t-8.5 -30h-138q0 42 18.5 72.5t50.5 50.5t75.5 29.5t92.5 9.5q74 0 123 -11t79 -32t42.5 -52t12.5 -71q0 -16 -2.5 -34t-12 -36t-28 -35.5t-50.5 -34.5q31 -10 49.5 -26t28 -34.5
t12.5 -37.5t3 -34q0 -40 -13 -70.5t-43 -51.5t-79.5 -31.5t-123.5 -10.5q-48 0 -91 9.5t-74.5 29t-50 49.5t-18.5 71h138q0 -18 8 -29.5t21.5 -18t32 -8.5t39.5 -2t42 2.5t38.5 10t28 20.5t10.5 35q0 29 -10 45t-26.5 23.5t-37 9t-40.5 1.5h-52v102h71q42 0 68.5 20t26.5 59
z" />
    <glyph glyph-name="four" unicode="4" horiz-adv-x="587" 
d="M348 129h-332v132l234 324h233v-354h100v-102h-100v-129h-135v129zM348 231v259l-187 -259h187z" />
    <glyph glyph-name="five" unicode="5" horiz-adv-x="537" 
d="M186 333q21 15 42 23.5t39 12.5t31.5 5t18.5 1q67 0 106.5 -18t60 -47t26.5 -65.5t6 -74.5t-10.5 -70.5t-37 -56t-71 -36.5t-113.5 -13q-54 0 -95 11.5t-69.5 31t-44.5 45.5t-20 56h143q4 -15 12.5 -23.5t20 -13t24 -5.5t24.5 -1q21 0 40 2t32.5 9.5t21.5 22.5t8 41
q0 29 -3.5 48.5t-13.5 31t-27.5 16.5t-45.5 5h-6q-26 0 -47 -5.5t-36 -22.5h-151v342h434v-102h-299v-150z" />
    <glyph glyph-name="six" unicode="6" horiz-adv-x="549" 
d="M36 300q0 75 11 130.5t38.5 92t74.5 55t120 18.5q54 0 96 -13t70.5 -35.5t43.5 -52.5t15 -65h-133q0 31 -21.5 48t-75.5 17q-50 0 -77 -30.5t-27 -105.5v-44q16 12 36.5 19t40 10.5t34.5 4.5t19 1q68 0 110.5 -17t66 -43.5t32 -59t8.5 -63.5q0 -37 -12 -69t-40 -55
t-74 -36t-115 -13q-59 0 -104 11.5t-75.5 41.5t-46 82t-15.5 133v38zM274 248q-11 0 -28.5 -3t-34 -12t-28.5 -25t-12 -41q0 -29 28.5 -50.5t74.5 -21.5q49 0 79 13t30 57q0 28 -8 44.5t-22.5 25t-34.5 11t-44 2.5z" />
    <glyph glyph-name="seven" unicode="7" horiz-adv-x="483" 
d="M232 0h-144l232 483h-304v102h441v-114z" />
    <glyph glyph-name="eight" unicode="8" horiz-adv-x="556" 
d="M278 341q18 0 36.5 2.5t33.5 11t24.5 25.5t9.5 47q0 20 -9 33.5t-23.5 21t-33 10.5t-38.5 3t-38.5 -3t-33 -10.5t-23.5 -21t-9 -33.5q0 -30 9.5 -47t24.5 -25.5t33.5 -11t36.5 -2.5zM278 95q18 1 36.5 3t33.5 9.5t24.5 22.5t9.5 42q0 21 -9 35t-23.5 22.5t-33 12.5
t-38.5 4t-38.5 -4t-33 -12.5t-23.5 -22.5t-9 -35q0 -27 9.5 -42t24.5 -22.5t33.5 -9.5t36.5 -3zM278 -6q-120 0 -179.5 42.5t-59.5 123.5q0 15 4 34.5t14.5 38.5t29 34.5t47.5 22.5q-33 12 -52 29.5t-28.5 37t-12 38.5t-2.5 34q0 86 59.5 126.5t179.5 40.5t179.5 -40.5
t59.5 -126.5q0 -15 -2.5 -34t-12 -38.5t-28.5 -37t-52 -29.5q29 -7 47.5 -22.5t29 -34.5t14.5 -38.5t4 -34.5q0 -81 -59.5 -123.5t-179.5 -42.5z" />
    <glyph glyph-name="nine" unicode="9" horiz-adv-x="549" 
d="M513 290q0 -67 -10 -121.5t-37 -93.5t-73.5 -60t-119.5 -21q-109 0 -165 43.5t-56 113.5h133q0 -31 17.5 -43.5t71.5 -12.5t79 30.5t25 105.5v37q-21 -16 -44 -24.5t-43.5 -12.5t-35.5 -5t-19 -1q-61 0 -101 17.5t-63 45t-32 61t-9 64.5q0 35 12 68t40 58.5t74 41
t115 15.5q59 0 104 -10t75.5 -39.5t46 -83.5t15.5 -143v-30zM275 327q11 0 28.5 1.5t34 9.5t28.5 25t12 49q0 41 -28.5 62t-74.5 21q-49 0 -79 -17.5t-30 -62.5q0 -28 8 -45.5t22.5 -27t34.5 -12.5t44 -3z" />
    <glyph glyph-name="colon" unicode=":" horiz-adv-x="244" 
d="M56 129h132v-129h-132v129zM56 407h132v-130h-132v130z" />
    <glyph glyph-name="semicolon" unicode=";" horiz-adv-x="278" 
d="M89 407h132v-130h-132v130zM94 105h128l-50 -212h-116z" />
    <glyph glyph-name="less" unicode="&#x3c;" horiz-adv-x="378" 
d="M56 174v96q76 41 147.5 80t148.5 80v-121l-156 -84q39 -20 77.5 -46.5t78.5 -47.5v-115z" />
    <glyph glyph-name="equal" unicode="=" horiz-adv-x="395" 
d="M339 330v-102h-283v102h283zM339 134v-102h-283v102h283z" />
    <glyph glyph-name="greater" unicode="&#x3e;" horiz-adv-x="408" 
d="M56 16v115q40 21 78.5 47.5t77.5 46.5l-156 84v121q77 -41 148.5 -80t147.5 -80v-96z" />
    <glyph glyph-name="question" unicode="?" horiz-adv-x="585" 
d="M202 253q100 50 146 84t46 72q0 42 -30 64t-76 22q-26 0 -43.5 -6.5t-28 -17t-16 -25t-7.5 -30.5h-137q8 85 67.5 132.5t162.5 47.5q74 0 121 -17t74 -44.5t37.5 -61.5t10.5 -67q0 -31 -11.5 -56t-35.5 -47.5t-60 -45t-85 -50.5v-69h-135v115zM202 104h135v-104h-135v104
z" />
    <glyph glyph-name="at" unicode="@" horiz-adv-x="807" 
d="M436 596q84 0 144 -26.5t98 -68.5t55.5 -93.5t17.5 -101.5v-306h-127l-7 40q-21 -17 -40.5 -26.5t-38.5 -14t-36 -5t-32 -0.5q-72 0 -115 44t-43 130q0 43 12.5 76.5t35 56t53 34t66.5 11.5q30 0 62.5 -4.5t76.5 -29.5q0 45 -17.5 79t-45 56.5t-61 34t-65.5 11.5h-46
q-33 0 -67.5 -11t-62 -34t-45 -57t-17.5 -81v-252q0 -96 42 -143.5t114 -47.5h66v-102h-65q-84 0 -140 27t-89.5 70t-48 95t-14.5 101v252q0 48 18 99t56 92.5t98.5 68t145.5 26.5h62zM616 177q0 38 -25.5 53t-60.5 15q-34 0 -58.5 -15t-24.5 -56v-6q0 -34 24.5 -53.5
t58.5 -19.5q38 0 62 19.5t24 53.5v9z" />
    <glyph glyph-name="A" unicode="A" horiz-adv-x="639" 
d="M445 123h-250l-42 -123h-142l197 585h224l196 -585h-142zM409 228l-89 266l-90 -266h179z" />
    <glyph glyph-name="B" unicode="B" horiz-adv-x="582" 
d="M477 302q24 -8 40 -24t26 -35t14 -38.5t4 -34.5q0 -31 -12 -61.5t-40 -54.5t-73.5 -39t-113.5 -15h-271v585h242q68 0 113.5 -15t73.5 -39t40 -54.5t12 -62.5q0 -11 -2.5 -28t-8.5 -34t-16.5 -31t-27.5 -19zM186 338h107q45 0 72 16t27 56q0 37 -27 55t-72 18h-107v-145z
M323 102q45 0 72 14.5t27 53.5q0 41 -27 53.5t-72 12.5h-137v-134h137z" />
    <glyph glyph-name="C" unicode="C" horiz-adv-x="650" 
d="M31 297q0 51 15.5 104t51.5 96.5t94 71t143 27.5q64 0 113.5 -15t85 -41.5t57 -61.5t28.5 -75h-140q-5 46 -44 69t-100 23q-38 0 -69 -14.5t-53.5 -40.5t-34.5 -63.5t-12 -83.5q0 -45 12 -81.5t34.5 -62.5t53.5 -40t69 -14q61 0 100 23t44 69h140q-7 -40 -28.5 -75
t-57 -61t-85 -41.5t-113.5 -15.5q-85 0 -143 27.5t-94 71t-51.5 96.5t-15.5 104v4z" />
    <glyph glyph-name="D" unicode="D" horiz-adv-x="613" 
d="M51 585h230q84 0 142 -27t93 -69.5t50.5 -94t15.5 -101.5q0 -46 -15.5 -97.5t-50.5 -95t-93 -72t-142 -28.5h-230v585zM186 483v-381h113q74 0 111 52.5t37 138.5q0 190 -148 190h-113z" />
    <glyph glyph-name="E" unicode="E" horiz-adv-x="518" 
d="M51 585h431v-102h-296v-143h230v-102h-230v-136h296v-102h-431v585z" />
    <glyph glyph-name="F" unicode="F" horiz-adv-x="508" 
d="M51 585h431v-102h-296v-172h255v-102h-255v-209h-135v585z" />
    <glyph glyph-name="G" unicode="G" horiz-adv-x="665" 
d="M336 -6q-85 0 -143.5 27.5t-94.5 71t-51.5 96.5t-15.5 104v4q0 51 15.5 104t51.5 96.5t94 71t143 27.5q64 0 113.5 -15t85 -41.5t57 -61.5t28.5 -75h-140q-5 46 -44 69t-100 23q-38 0 -69 -14.5t-53.5 -40.5t-34.5 -63.5t-12 -83.5q0 -45 12 -81.5t34.5 -62.5t53.5 -40
t69 -14q69 0 108.5 26t60.5 89h-111v97h224v-307h-96l-6 56q-44 -38 -87.5 -50t-91.5 -12z" />
    <glyph glyph-name="H" unicode="H" horiz-adv-x="613" 
d="M186 0h-135v585h135v-252h241v252h135v-585h-135v229h-241v-229z" />
    <glyph glyph-name="I" unicode="I" horiz-adv-x="239" 
d="M52 585h135v-585h-135v585z" />
    <glyph glyph-name="J" unicode="J" horiz-adv-x="539" 
d="M256 -6q-65 0 -109.5 16.5t-73 43.5t-42 62t-15.5 72h141q1 -28 9 -46t21.5 -28.5t31 -14.5t37.5 -4q21 0 38.5 4.5t30.5 17t20.5 34t7.5 54.5v380h135v-380q0 -38 -11 -76t-37.5 -68t-71 -48.5t-112.5 -18.5z" />
    <glyph glyph-name="K" unicode="K" horiz-adv-x="638" 
d="M317 296l-131 -134v-162h-135v585h135v-246l239 246h172l-181 -188l211 -397h-152z" />
    <glyph glyph-name="L" unicode="L" horiz-adv-x="513" 
d="M51 585h135v-483h301v-102h-436v585z" />
    <glyph glyph-name="M" unicode="M" horiz-adv-x="850" 
d="M355 0l-149 468l-28 -468h-137q1 15 2 31t2.5 41.5t4 64.5t6 99t8.5 145.5t12 203.5h227l122 -384l122 384h227q7 -118 12 -203.5t8.5 -145.5t6 -99t4 -64.5t2.5 -41.5t2 -31h-137l-28 468l-149 -468h-140z" />
    <glyph glyph-name="N" unicode="N" horiz-adv-x="659" 
d="M186 389v-389h-135v585h163l259 -425v425h135v-585h-184z" />
    <glyph glyph-name="O" unicode="O" horiz-adv-x="664" 
d="M332 95q38 0 69 14t52.5 39.5t33 60.5t11.5 78q0 45 -11.5 83.5t-33 66t-52.5 43t-69 15.5t-69 -15.5t-52.5 -43t-33 -66t-11.5 -83.5q0 -43 11.5 -78t33 -60.5t52.5 -39.5t69 -14zM332 -6q-85 0 -142.5 28.5t-92.5 72t-50.5 95t-15.5 97.5q0 49 15.5 103.5t50.5 100
t92.5 75.5t142.5 30t142.5 -30t93 -75.5t50.5 -100t15 -103.5q0 -46 -15 -97.5t-50.5 -95t-93 -72t-142.5 -28.5z" />
    <glyph glyph-name="P" unicode="P" horiz-adv-x="576" 
d="M51 0v585h265q68 0 113.5 -19.5t73.5 -49.5t40 -66t12 -69t-12 -69t-40 -66.5t-73.5 -50.5t-113.5 -20h-130v-175h-135zM186 277h132q44 0 73 27.5t29 75.5t-29 75.5t-73 27.5h-132v-206z" />
    <glyph glyph-name="Q" unicode="Q" horiz-adv-x="670" 
d="M332 -6q-85 0 -142.5 28.5t-92.5 72t-50.5 95t-15.5 97.5q0 49 15.5 103.5t50.5 100t92.5 75.5t142.5 30t142.5 -30t93 -75.5t50.5 -100t15 -103.5q0 -45 -14.5 -94.5t-47.5 -92.5h83v-100h-253q-31 -6 -69 -6zM332 95q38 0 69 14t52.5 39.5t33 60.5t11.5 78
q0 45 -11.5 83.5t-33 66t-52.5 43t-69 15.5t-69 -15.5t-52.5 -43t-33 -66t-11.5 -83.5q0 -43 11.5 -78t33 -60.5t52.5 -39.5t69 -14z" />
    <glyph glyph-name="R" unicode="R" horiz-adv-x="577" 
d="M51 0v585h265q68 0 113.5 -19.5t73.5 -49.5t40 -66t12 -69q0 -23 -6 -48.5t-19.5 -49.5t-34.5 -45.5t-52 -36.5l94 -201h-149l-82 175h-120v-175h-135zM186 277h132q44 0 73 27.5t29 75.5t-29 75.5t-73 27.5h-132v-206z" />
    <glyph glyph-name="S" unicode="S" horiz-adv-x="615" 
d="M318 -6q-49 0 -99 10t-90 31.5t-65.5 56t-25.5 83.5h165q0 -44 32.5 -62t83.5 -18q69 0 95 16t26 56q0 17 -11.5 28t-32 19t-47.5 13.5t-57 11.5q-42 8 -87.5 18.5t-83 30.5t-61.5 52.5t-24 83.5q0 36 12.5 67t42.5 54.5t79.5 37t123.5 13.5q49 0 97.5 -10t86.5 -31.5
t62 -56t24 -83.5h-165q0 44 -26.5 62t-77.5 18q-37 0 -60.5 -6t-36.5 -15.5t-18 -20.5t-5 -22q0 -18 13.5 -31t36.5 -22t53.5 -15.5t63.5 -13.5q41 -8 83 -20t76 -32t56 -49t22 -70q0 -40 -13 -74t-44 -58.5t-80.5 -38t-123.5 -13.5z" />
    <glyph glyph-name="T" unicode="T" horiz-adv-x="521" 
d="M328 0h-135v483h-177v102h489v-102h-177v-483z" />
    <glyph glyph-name="U" unicode="U" horiz-adv-x="654" 
d="M327 -6q-84 0 -138.5 26t-86 66.5t-44 89.5t-12.5 95v314h135v-317q0 -36 8 -68t25.5 -55t45 -36.5t67.5 -13.5t67.5 13.5t45 36.5t25.5 55t8 68v317h135v-314q0 -46 -12.5 -95t-44 -89.5t-86 -66.5t-138.5 -26z" />
    <glyph glyph-name="V" unicode="V" horiz-adv-x="652" 
d="M438 0h-224l-203 585h142l173 -494l173 494h142z" />
    <glyph glyph-name="W" unicode="W" horiz-adv-x="841" 
d="M421 344l-88 -344h-202l-120 585h142l86 -473l117 473h129l117 -473l86 473h142l-120 -585h-202z" />
    <glyph glyph-name="X" unicode="X" horiz-adv-x="628" 
d="M167 0h-146l206 293l-206 292h146l147 -206l147 206h146l-206 -292l206 -293h-146l-147 204z" />
    <glyph glyph-name="Y" unicode="Y" horiz-adv-x="619" 
d="M451 586h152l-226 -404v-182h-135v181l-226 404h152l142 -258z" />
    <glyph glyph-name="Z" unicode="Z" horiz-adv-x="530" 
d="M36 104l300 379h-300v102h458v-104l-301 -379h301v-102h-458v104z" />
    <glyph glyph-name="bracketleft" unicode="[" horiz-adv-x="396" 
d="M56 783h284v-102h-146v-750h146v-102h-284v954z" />
    <glyph glyph-name="backslash" unicode="\" horiz-adv-x="494" 
d="M490 -171h-139l-347 953h138z" />
    <glyph glyph-name="bracketright" unicode="]" horiz-adv-x="396" 
d="M340 -171h-284v102h146v750h-146v102h284v-954z" />
    <glyph glyph-name="asciicircum" unicode="^" horiz-adv-x="499" 
d="M313 585q33 -60 65 -114t65 -114h-133l-60 108l-62 -108h-132q34 62 64.5 114t64.5 114h128z" />
    <glyph glyph-name="underscore" unicode="_" horiz-adv-x="395" 
d="M339 -43v-102h-283v102h283z" />
    <glyph glyph-name="grave" unicode="`" horiz-adv-x="345" 
d="M289 374h-130l-103 211h143z" />
    <glyph glyph-name="a" unicode="a" horiz-adv-x="514" 
d="M161 128q0 -13 8.5 -20.5t21 -11t28 -4.5t29.5 -1q3 0 13 1.5t23.5 5t29.5 10.5t29 18v56q-27 0 -58.5 -2.5t-59 -8.5t-46 -16.5t-18.5 -26.5zM343 264q0 44 -23.5 59t-60.5 15q-9 0 -23 -0.5t-27.5 -4.5t-23.5 -13t-11 -25h-122q6 39 24.5 66t45.5 43.5t61 23.5t70 7
q68 0 112 -14.5t69 -41.5t34.5 -64t9.5 -82v-233h-126l-9 47q-16 -20 -39.5 -30.5t-47.5 -15.5t-45.5 -6t-34.5 -1q-23 0 -49 6.5t-48.5 21.5t-37 40t-14.5 61q0 49 32 77t79.5 42.5t102.5 18t102 3.5z" />
    <glyph glyph-name="b" unicode="b" horiz-adv-x="568" 
d="M402 227q0 34 -10.5 55.5t-26 34t-35 17t-37.5 4.5q-19 0 -38.5 -6.5t-34.5 -18t-24.5 -27.5t-9.5 -36v-67q0 -19 9 -36t25 -29.5t37 -19.5t45 -7q20 0 38 8.5t31.5 24.5t22 39t8.5 53v11zM334 435q50 0 87.5 -16t63.5 -45t39 -69t13 -89q0 -46 -13.5 -86.5t-38 -70.5
t-58 -47.5t-73.5 -17.5q-16 0 -36.5 1t-43 6t-45.5 16t-43 32l-8 -49h-127v585h135v-201q20 19 40 29.5t39 15t36.5 5.5t32.5 1z" />
    <glyph glyph-name="c" unicode="c" horiz-adv-x="534" 
d="M166 214q0 -60 30 -91.5t87 -31.5q36 0 61.5 14.5t32.5 45.5h135q-5 -31 -17.5 -59.5t-38.5 -50.5t-68 -34.5t-105 -12.5q-71 0 -119.5 19.5t-78 51t-42 71t-12.5 78.5t12.5 78.5t42 71t78 51.5t119.5 20q63 0 105 -12.5t68 -34.5t38.5 -50t17.5 -60h-135
q-7 31 -32.5 45.5t-61.5 14.5q-57 0 -87 -32t-30 -92z" />
    <glyph glyph-name="d" unicode="d" horiz-adv-x="568" 
d="M166 216q0 -30 8.5 -53t22 -39t32 -24.5t37.5 -8.5q24 0 45 7t37 19.5t25 29.5t9 36v67q0 20 -9.5 36t-24.5 27.5t-34 18t-39 6.5q-18 0 -37.5 -4.5t-35 -17t-26 -34t-10.5 -55.5v-11zM234 435q15 0 32.5 -1t36.5 -5.5t39.5 -15t39.5 -29.5v201h135v-585h-127l-8 49
q-20 -21 -43 -32t-45.5 -16t-43 -6t-36.5 -1q-40 0 -73.5 17.5t-58 47.5t-38 70.5t-13.5 86.5q0 49 13 89t39 69t64 45t87 16z" />
    <glyph glyph-name="e" unicode="e" horiz-adv-x="534" 
d="M487 129q-3 -27 -19 -51t-43.5 -43t-65.5 -30t-84 -11q-71 0 -118 20.5t-75 52t-39.5 71t-11.5 76.5q0 38 11 77.5t38.5 71.5t74 52t117.5 20q70 0 115.5 -20t72.5 -51.5t37.5 -71t10.5 -78.5v-49h-342q6 -45 34.5 -59.5t73.5 -14.5q20 0 43 7.5t34 30.5h136zM271 338
q-16 0 -31.5 -2t-29 -10t-24.5 -23.5t-19 -42.5h208q-8 27 -19 42.5t-24.5 23.5t-29 10t-31.5 2z" />
    <glyph glyph-name="f" unicode="f" horiz-adv-x="373" 
d="M347 522q-5 2 -16.5 2h-16.5q-46 0 -61.5 -14.5t-15.5 -57.5v-27h110v-102h-110v-323h-135v323h-81v102h81v35q0 45 10.5 76t30 50t47.5 27.5t63 8.5q24 0 47 -1.5t47 -6.5v-92z" />
    <glyph glyph-name="g" unicode="g" horiz-adv-x="568" 
d="M166 216q0 -30 8.5 -53t22 -39t32 -24.5t37.5 -8.5q24 0 45 7t37 19.5t25 29.5t9 36v67q0 20 -9.5 36t-24.5 27.5t-34 18t-39 6.5q-18 0 -37.5 -4.5t-35 -17t-26 -34t-10.5 -55.5v-11zM382 49q-20 -21 -43 -32t-45.5 -16t-43 -6t-36.5 -1q-40 0 -73.5 17.5t-58 47.5
t-38 70.5t-13.5 86.5q0 49 13 89t39 69t64 45t87 16q15 0 32.5 -1t36.5 -5.5t39.5 -15t39.5 -29.5l8 41h127v-396q0 -54 -11.5 -97t-39 -73t-74 -46t-117.5 -16q-48 0 -86.5 13t-67 33t-46.5 44t-23 47h146q14 -26 35 -33t48 -7q54 0 77.5 26t23.5 74v55z" />
    <glyph glyph-name="h" unicode="h" 
d="M186 385q18 19 38.5 29t39.5 14.5t36 5.5t28 1q88 0 137 -49t49 -140v-246h-135v231q0 34 -7.5 55t-20 32.5t-29 15.5t-34.5 4t-36 -7.5t-32.5 -21t-24 -30.5t-9.5 -37v-242h-135v585h135v-200z" />
    <glyph glyph-name="i" unicode="i" horiz-adv-x="239" 
d="M52 425h135v-425h-135v425zM52 585h135v-111h-135v111z" />
    <glyph glyph-name="j" unicode="j" horiz-adv-x="239" 
d="M-62 -102q11 -4 26 -4.5t23 -0.5q22 0 35 5.5t19.5 14.5t8.5 21t2 25v466h135v-449q0 -89 -34.5 -139t-112.5 -50q-17 0 -46.5 1.5t-55.5 5.5v104zM52 585h135v-111h-135v111z" />
    <glyph glyph-name="k" unicode="k" horiz-adv-x="524" 
d="M188 191v-191h-137v585h137v-303h14l137 143h174l-190 -200l189 -225h-165z" />
    <glyph glyph-name="l" unicode="l" horiz-adv-x="264" 
d="M181 152q0 -25 13.5 -41.5t45.5 -19.5v-93q-17 -3 -31 -3.5t-23 -0.5q-76 0 -108 50.5t-32 138.5v402h135v-433z" />
    <glyph glyph-name="m" unicode="m" horiz-adv-x="820" 
d="M310 435q39 0 73 -23t55 -60q15 31 38 48t46.5 24.5t44 9t30.5 1.5q94 0 138 -51.5t44 -144.5v-239h-135v248q0 39 -18 64.5t-60 25.5q-23 0 -38.5 -10t-25.5 -26t-14 -36t-4 -39v-227h-136v248q0 39 -21.5 64.5t-56.5 25.5q-40 0 -61.5 -33.5t-21.5 -77.5v-227h-136v425
h130l6 -40q18 19 35.5 29t33 14.5t29.5 5.5t25 1z" />
    <glyph glyph-name="n" unicode="n" 
d="M186 385q18 19 38.5 29t39.5 14.5t36 5.5t28 1q88 0 137 -49t49 -140v-246h-135v231q0 34 -7.5 55t-20 32.5t-29 15.5t-34.5 4t-36 -7.5t-32.5 -21t-24 -30.5t-9.5 -37v-242h-135v425h127z" />
    <glyph glyph-name="o" unicode="o" horiz-adv-x="556" 
d="M525 214q0 -39 -12 -78.5t-40.5 -71t-76 -51t-118.5 -19.5t-118.5 19.5t-76 51t-40.5 71t-12 78.5t12 78.5t40.5 71t76 51.5t118.5 20t118.5 -20t76 -51.5t40.5 -71t12 -78.5zM390 214q0 66 -32.5 95t-79.5 29q-46 0 -79 -29t-33 -95t33 -94.5t79 -28.5q47 0 79.5 28.5
t32.5 94.5z" />
    <glyph glyph-name="p" unicode="p" horiz-adv-x="568" 
d="M402 227q0 34 -10.5 55.5t-26 34t-35 17t-37.5 4.5q-19 0 -38.5 -6.5t-34.5 -18t-24.5 -27.5t-9.5 -36v-67q0 -19 9 -36t25 -29.5t37 -19.5t45 -7q20 0 38 8.5t31.5 24.5t22 39t8.5 53v11zM334 435q50 0 87.5 -16t63.5 -45t39 -69t13 -89q0 -46 -13.5 -86.5t-38 -70.5
t-58 -47.5t-73.5 -17.5q-16 0 -36.5 1t-43 6t-45.5 16t-43 32v-220h-135v596h127l8 -41q20 19 40 29.5t39 15t36.5 5.5t32.5 1z" />
    <glyph glyph-name="q" unicode="q" horiz-adv-x="568" 
d="M166 216q0 -30 8.5 -53t22 -39t32 -24.5t37.5 -8.5q24 0 45 7t37 19.5t25 29.5t9 36v67q0 20 -9.5 36t-24.5 27.5t-34 18t-39 6.5q-18 0 -37.5 -4.5t-35 -17t-26 -34t-10.5 -55.5v-11zM234 435q15 0 32.5 -1t36.5 -5.5t39.5 -15t39.5 -29.5l8 41h127v-596h-135v220
q-20 -21 -43 -32t-45.5 -16t-43 -6t-36.5 -1q-40 0 -73.5 17.5t-58 47.5t-38 70.5t-13.5 86.5q0 49 13 89t39 69t64 45t87 16z" />
    <glyph glyph-name="r" unicode="r" horiz-adv-x="397" 
d="M190 382q12 20 31 30.5t39.5 15.5t38.5 6t29 1q14 0 31 -3t22 -5v-102q-15 4 -31 6t-27 2q-25 0 -50 -7t-44 -20.5t-31 -31.5t-12 -41v-233h-135v425h133z" />
    <glyph glyph-name="s" unicode="s" horiz-adv-x="481" 
d="M455 137q0 -30 -12 -56.5t-37.5 -45.5t-65 -30t-94.5 -11q-39 0 -74 6.5t-63.5 21.5t-48.5 40t-29 62h134q9 -17 26.5 -28.5t49.5 -11.5q26 0 41.5 3.5t23.5 9.5t11 13t3 13q0 17 -27.5 24t-69.5 15q-36 6 -70.5 16t-60.5 25.5t-42 38t-16 55.5q0 31 11 56.5t35 43.5
t62 28t93 10q78 0 131.5 -29t71.5 -101h-135q-8 19 -20.5 29.5t-47.5 10.5q-22 0 -35.5 -4.5t-20 -10.5t-8.5 -13t-2 -12q0 -14 18 -23.5t43.5 -16t53 -11.5t47.5 -9q53 -11 88.5 -35.5t35.5 -72.5z" />
    <glyph glyph-name="t" unicode="t" horiz-adv-x="381" 
d="M249 -6q-80 0 -113.5 46.5t-33.5 137.5v145h-81v102h81v127l136 36v-163h107v-102h-107v-157q0 -32 18 -50.5t58 -18.5q5 0 14 0.5t17 1.5v-95q-20 -5 -48.5 -7t-47.5 -3z" />
    <glyph glyph-name="u" unicode="u" 
d="M369 44q-18 -19 -38.5 -29t-39.5 -14.5t-36 -5.5t-28 -1q-88 0 -137 49t-49 140v242h135v-227q0 -34 7.5 -55t20 -32.5t29 -15.5t34.5 -4t36 7.5t32.5 21t24 31t9.5 36.5v238h135v-425h-127z" />
    <glyph glyph-name="v" unicode="v" horiz-adv-x="544" 
d="M178 0l-167 425h142l119 -330l119 330h142l-168 -425h-187z" />
    <glyph glyph-name="w" unicode="w" horiz-adv-x="730" 
d="M428 425l88 -324l63 324h140l-103 -425h-191l-60 232l-60 -232h-191l-103 425h140l63 -324l88 324h126z" />
    <glyph glyph-name="x" unicode="x" horiz-adv-x="502" 
d="M157 0h-141l139 212l-139 213h140l95 -145l95 145h140l-139 -213l139 -212h-141l-94 143z" />
    <glyph glyph-name="y" unicode="y" horiz-adv-x="538" 
d="M19 -93q16 -6 35 -9.5t31 -3.5q43 2 62.5 21t19.5 67q0 3 -1.5 9t-3 12.5t-3 12.5t-1.5 7l-147 402h147l111 -349l111 349h147l-152 -415q-27 -74 -59 -116t-63 -63t-58 -26.5t-44 -5.5q-41 0 -67 3t-40.5 6.5t-19.5 6.5l-5 3v89z" />
    <glyph glyph-name="z" unicode="z" horiz-adv-x="462" 
d="M36 425h390v-104l-230 -219h230v-102h-390v103l232 220h-232v102z" />
    <glyph glyph-name="braceleft" unicode="{" horiz-adv-x="454" 
d="M139 557q0 52 12 94t40 71t74 45t114 16h19v-102h-19q-55 0 -78.5 -26t-23.5 -98v-133q0 -12 -2 -27t-11 -31.5t-28 -33.5t-54 -31q35 -14 54 -30.5t28 -33t11 -32t2 -26.5v-124q0 -72 23.5 -98t78.5 -26h19v-102h-19q-68 0 -114 16t-74 45t-40 71t-12 94v109
q0 41 -25.5 60.5t-57.5 25.5v102q33 5 58 24t25 61v120z" />
    <glyph glyph-name="bar" unicode="|" horiz-adv-x="250" 
d="M56 783h138v-954h-138v954z" />
    <glyph glyph-name="braceright" unicode="}" horiz-adv-x="454" 
d="M315 437q0 -42 25 -61t58 -24v-102q-31 -6 -57 -25.5t-26 -60.5v-109q0 -52 -12 -94t-40 -71t-74 -45t-114 -16h-19v102h19q55 0 78.5 26t23.5 98v124q0 11 2 26.5t11 32t28.5 33t53.5 30.5q-35 14 -54 31t-28 33.5t-11 31.5t-2 27v133q0 72 -23.5 98t-78.5 26h-19v102
h19q68 0 114 -16t74 -45t40 -71t12 -94v-120z" />
    <glyph glyph-name="asciitilde" unicode="~" horiz-adv-x="435" 
d="M291 123q-16 0 -33 5.5t-43 15.5q-19 8 -36.5 12t-34.5 4q-9 0 -26.5 -3t-34.5 -8q-7 26 -13 46t-14 45q23 14 48.5 18t39.5 4q17 0 33 -5t32 -11q19 -8 39 -14.5t43 -6.5q11 0 27.5 2.5t33.5 7.5q8 -25 14 -45.5t13 -44.5q-23 -14 -48 -18t-40 -4z" />
    <glyph glyph-name="uni00A0" unicode="&#xa0;" horiz-adv-x="189" 
 />
    <glyph glyph-name="exclamdown" unicode="&#xa1;" horiz-adv-x="256" 
d="M63 399h129l8 -399h-144zM60 585h135v-111h-135v111z" />
    <glyph glyph-name="cent" unicode="&#xa2;" horiz-adv-x="700" 
d="M296 -1q-67 10 -112.5 40t-74 71.5t-41 89t-12.5 93.5v4q0 45 12.5 93t41 89t74 71.5t112.5 40.5v145h125v-144q98 -14 154 -67t69 -122h-140q-5 46 -44 69t-100 23q-38 0 -69 -14.5t-53.5 -40.5t-34.5 -63.5t-12 -83.5q0 -45 12 -81.5t34.5 -62.5t53.5 -40t69 -14
q61 0 100 23t44 69h140q-13 -70 -69 -122.5t-154 -66.5v-143h-125v144z" />
    <glyph glyph-name="sterling" unicode="&#xa3;" horiz-adv-x="684" 
d="M56 333h91v42q0 39 12.5 78.5t42 71t78 51.5t119.5 20q63 0 105 -12.5t68 -34.5t38.5 -50t17.5 -60h-135q-7 31 -32.5 45.5t-61.5 14.5q-57 0 -87 -32t-30 -92v-42h159v-102h-159v-129h301v-102h-527v102h91v129h-91v102z" />
    <glyph glyph-name="currency" unicode="&#xa4;" horiz-adv-x="554" 
d="M220 236q0 -22 17 -37.5t39 -15.5q23 0 40 15.5t17 37.5q0 23 -17 39t-40 16q-22 0 -39 -16t-17 -39zM435 236q0 -14 -3 -28.5t-9 -28.5l75 -73l-81 -86l-74 74q-16 -8 -31 -11.5t-35 -3.5q-19 0 -34.5 3.5t-31.5 11.5l-74 -74l-81 86l75 73q-6 14 -9 28.5t-3 28.5t3 29
t9 29l-75 73l81 86l74 -74q29 14 66 14t66 -14l74 74l81 -86l-75 -73q6 -14 9 -29t3 -29z" />
    <glyph glyph-name="yen" unicode="&#xa5;" horiz-adv-x="699" 
d="M221 291l-165 294h152l142 -258l141 259h152l-165 -295h59v-88h-108l-12 -21v-32h120v-88h-120v-62h-135v62h-118v88h118v31l-12 22h-106v88h57z" />
    <glyph glyph-name="brokenbar" unicode="&#xa6;" horiz-adv-x="247" 
d="M56 783h135v-362h-135v362zM56 190h135v-362h-135v362z" />
    <glyph glyph-name="section" unicode="&#xa7;" horiz-adv-x="536" 
d="M480 125q0 -30 -12 -56.5t-37.5 -45.5t-65 -30t-94.5 -11q-39 0 -74 6.5t-63.5 21.5t-48.5 40t-29 62h134q9 -17 26.5 -28.5t49.5 -11.5q26 0 41.5 3.5t23.5 9.5t11 13t3 13q0 17 -27.5 24t-69.5 15q-36 6 -70.5 16t-60.5 25.5t-42 38t-16 55.5q0 29 9 52.5t29 40.5
q-18 15 -28 34.5t-10 45.5q0 31 11 56.5t35 43.5t62 28t93 10q78 0 131.5 -29t71.5 -101h-135q-8 19 -20.5 29.5t-47.5 10.5q-22 0 -35.5 -4.5t-20 -10.5t-8.5 -13t-2 -12q0 -14 18 -23.5t43.5 -16t53 -11.5t47.5 -9q53 -11 88.5 -35.5t35.5 -72.5q0 -60 -42 -96
q20 -14 31 -32.5t11 -44.5zM345 284q0 17 -27.5 24t-69.5 15q-6 1 -12.5 2t-13.5 3q-18 -7 -23 -17.5t-5 -17.5q0 -9 8 -16t21.5 -13t30 -10.5t34.5 -7.5q37 3 47 15t10 23z" />
    <glyph glyph-name="dieresis" unicode="&#xa8;" horiz-adv-x="437" 
d="M56 585h132v-129h-132v129zM249 585h132v-129h-132v129z" />
    <glyph glyph-name="copyright" unicode="&#xa9;" horiz-adv-x="714" 
d="M355 596q63 0 118 -23.5t96.5 -64.5t65 -96t23.5 -118q0 -62 -23.5 -117t-65 -95.5t-96.5 -64t-118 -23.5q-61 0 -115.5 23.5t-95.5 64t-64.5 95.5t-23.5 117q0 63 23.5 118t64.5 96t95.5 64.5t115.5 23.5zM355 68q46 0 87.5 18.5t73 49.5t50 71.5t18.5 85.5
q0 46 -18.5 87.5t-50 73t-73 50t-87.5 18.5q-45 0 -85.5 -18.5t-71.5 -50t-49.5 -73t-18.5 -87.5q0 -45 18.5 -85.5t49.5 -71.5t71.5 -49.5t85.5 -18.5zM359 155q-42 0 -71 12.5t-47 32t-25.5 44t-7.5 48.5q0 23 7.5 47.5t25.5 44t47 32t71 12.5q35 0 60.5 -9.5t42.5 -25
t26 -35t11 -39.5h-91q-2 25 -15.5 35t-33.5 10q-27 0 -43.5 -18.5t-16.5 -53.5t16.5 -54t43.5 -19q20 0 33.5 10t15.5 34h91q-3 -19 -12 -38.5t-26.5 -35t-42.5 -25t-59 -9.5z" />
    <glyph glyph-name="ordfeminine" unicode="&#xaa;" horiz-adv-x="394" 
d="M197 507q-14 0 -22.5 -4t-13.5 -22h-94q8 59 43 81.5t89 22.5q45 0 72.5 -9t42 -27t19.5 -46t5 -66v-143h-108l-2 31q-24 -26 -50.5 -30t-42.5 -4q-31 0 -55 19t-24 69q0 31 16 48.5t41.5 26.5t56 11t58.5 2q-2 20 -8 30t-23 10zM155 390q0 -10 11.5 -11.5t21.5 -1.5
q6 0 16.5 1.5t18.5 5.5v29q-6 0 -17.5 -1t-23 -3.5t-19.5 -7t-8 -11.5z" />
    <glyph glyph-name="guillemotleft" unicode="&#xab;" horiz-adv-x="680" 
d="M206 420h137l-151 -210l150 -210h-136l-150 210zM487 420h137l-151 -210l150 -210h-136l-150 210z" />
    <glyph glyph-name="logicalnot" unicode="&#xac;" horiz-adv-x="548" 
d="M492 62h-135v142h-301v102h436v-244z" />
    <glyph glyph-name="uni00AD" unicode="&#xad;" horiz-adv-x="189" 
 />
    <glyph glyph-name="registered" unicode="&#xae;" horiz-adv-x="714" 
d="M355 596q63 0 118 -23.5t96.5 -64.5t65 -96t23.5 -118q0 -62 -23.5 -117t-65 -95.5t-96.5 -64t-118 -23.5q-61 0 -115.5 23.5t-95.5 64t-64.5 95.5t-23.5 117q0 63 23.5 118t64.5 96t95.5 64.5t115.5 23.5zM355 68q46 0 87.5 18.5t73 49.5t50 71.5t18.5 85.5
q0 46 -18.5 87.5t-50 73t-73 50t-87.5 18.5q-45 0 -85.5 -18.5t-71.5 -50t-49.5 -73t-18.5 -87.5q0 -45 18.5 -85.5t49.5 -71.5t71.5 -49.5t85.5 -18.5zM492 323q0 -22 -11.5 -47t-42.5 -44q8 -16 16.5 -33.5t16.5 -34.5h-81l-25 53h-49v-53h-84v263h139q34 0 57 -10
t37.5 -25.5t20.5 -33.5t6 -35zM316 281h49q19 0 31 9.5t12 32.5q0 20 -12 30t-31 10h-49v-82z" />
    <glyph glyph-name="macron" unicode="&#xaf;" horiz-adv-x="466" 
d="M410 585v-102h-354v102h354z" />
    <glyph glyph-name="degree" unicode="&#xb0;" horiz-adv-x="383" 
d="M191 396q23 0 38.5 15t15.5 38t-15.5 38.5t-38.5 15.5t-38 -15.5t-15 -38.5t15 -38t38 -15zM191 314q-28 0 -52.5 10.5t-43 29t-29 43t-10.5 52.5t10.5 53t29 43.5t43 29t52.5 10.5t53 -10.5t43.5 -29t29 -43.5t10.5 -53t-10.5 -52.5t-29 -43t-43.5 -29t-53 -10.5z" />
    <glyph glyph-name="plusminus" unicode="&#xb1;" horiz-adv-x="485" 
d="M182 311h-126v100h126v138h121v-138h126v-100h-126v-133h-121v133zM429 102v-102h-373v102h373z" />
    <glyph glyph-name="twosuperior" unicode="&#xb2;" horiz-adv-x="365" 
d="M62 284v72q0 26 22 44t49 32t49 27t22 29q0 14 -8.5 17.5t-17.5 3.5q-14 0 -18 -8t-4 -21h-100q0 53 33 84.5t90 31.5q37 0 62 -9t40 -24t21.5 -34t6.5 -39q0 -37 -30 -63.5t-90 -55.5h116v-87h-243z" />
    <glyph glyph-name="threesuperior" unicode="&#xb3;" horiz-adv-x="369" 
d="M209 493q0 7 -7 12.5t-21 5.5q-21 0 -26.5 -7t-5.5 -15h-93q0 54 34.5 80.5t92.5 26.5q38 0 63 -7t40 -19.5t21 -30.5t6 -40q0 -19 -12.5 -38t-47.5 -22q30 -5 45 -27.5t15 -40.5q0 -43 -27 -65.5t-103 -22.5q-58 0 -92.5 25.5t-34.5 79.5h93q0 -8 5.5 -14.5t26.5 -6.5
q14 0 21 5.5t7 13.5q0 14 -6.5 18.5t-18.5 5.5h-33v59h33q12 1 18.5 4.5t6.5 19.5z" />
    <glyph glyph-name="acute" unicode="&#xb4;" horiz-adv-x="346" 
d="M129 585h161l-122 -161h-112z" />
    <glyph glyph-name="mu" unicode="&#xb5;" 
d="M41 425h135v-234q0 -31 7.5 -51t20.5 -30.5t29 -14.5t34 -4t36 7.5t32.5 21t24 31t9.5 36.5v238h135v-425h-127l-8 44q-18 -19 -38.5 -29t-39.5 -14.5t-36 -5.5t-28 -1q-24 0 -51 5v-170h-135v596z" />
    <glyph glyph-name="paragraph" unicode="&#xb6;" horiz-adv-x="733" 
d="M269 248q-66 0 -107.5 16.5t-65 41.5t-32 54.5t-8.5 56.5t7.5 57t27 54.5t55 40.5t90.5 16h441v-585h-135v483h-138v-483h-135v248z" />
    <glyph glyph-name="periodcentered" unicode="&#xb7;" horiz-adv-x="244" 
d="M56 235h132v-129h-132v129z" />
    <glyph glyph-name="cedilla" unicode="&#xb8;" horiz-adv-x="330" 
d="M89 -6h95v-45q25 -4 45 -16q18 -10 31.5 -28.5t13.5 -50.5q0 -25 -11 -44.5t-30 -33.5t-43.5 -21.5t-50.5 -7.5q-25 0 -48.5 4t-34.5 6v82q8 -3 17.5 -4t19.5 -1t21.5 1.5t21.5 5.5t17 11t7 18q-3 22 -24 26.5t-50 9.5z" />
    <glyph glyph-name="onesuperior" unicode="&#xb9;" horiz-adv-x="312" 
d="M56 547q50 4 96 38h104v-306h-104v209q-23 -17 -46.5 -24.5t-49.5 -9.5v93z" />
    <glyph glyph-name="ordmasculine" unicode="&#xba;" horiz-adv-x="394" 
d="M197 405q22 0 36 14t14 36t-14 36t-36 14t-36 -14t-14 -36t14 -36t36 -14zM197 314q-29 0 -55 11t-45 30t-30 45t-11 55t11 55t30 45t45 30t55 11t55 -11t45 -30t30 -45t11 -55t-11 -55t-30 -45t-45 -30t-55 -11z" />
    <glyph glyph-name="guillemotright" unicode="&#xbb;" horiz-adv-x="680" 
d="M624 210l-150 -210h-136l150 210l-151 210h137zM343 210l-150 -210h-136l150 210l-151 210h137z" />
    <glyph glyph-name="onequarter" unicode="&#xbc;" horiz-adv-x="799" 
d="M56 547q50 4 96 38h104v-306h-104v209q-23 -17 -46.5 -24.5t-49.5 -9.5v93zM422 585h109l-213 -585h-109zM598 52h-162v91l117 164h149v-168h41v-87h-41v-52h-104v52zM598 139v83l-58 -83h58z" />
    <glyph glyph-name="onehalf" unicode="&#xbd;" horiz-adv-x="769" 
d="M56 547q50 4 96 38h104v-306h-104v209q-23 -17 -46.5 -24.5t-49.5 -9.5v93zM422 585h109l-213 -585h-109zM466 0v72q0 26 22 44t49 32t49 27t22 29q0 14 -8.5 17.5t-17.5 3.5q-14 0 -18 -8t-4 -21h-100q0 53 33 84.5t90 31.5q37 0 62 -9t40 -24t21.5 -34t6.5 -39
q0 -37 -30 -63.5t-90 -55.5h116v-87h-243z" />
    <glyph glyph-name="threequarters" unicode="&#xbe;" horiz-adv-x="832" 
d="M455 585h109l-213 -585h-109zM631 52h-162v91l117 164h149v-168h41v-87h-41v-52h-104v52zM631 139v83l-58 -83h58zM209 482q0 -16 -6.5 -19.5t-18.5 -4.5h-33v-59h33q12 -1 18.5 -5.5t6.5 -18.5q0 -8 -7 -13.5t-21 -5.5q-21 0 -26.5 6.5t-5.5 14.5h-93q0 -54 34.5 -79.5
t92.5 -25.5q76 0 103 22.5t27 65.5q0 18 -15 40.5t-45 27.5q35 3 47.5 22t12.5 38q0 22 -6 40t-21 30.5t-40 19.5t-63 7q-58 0 -92.5 -26.5t-34.5 -80.5h93q0 8 5.5 15t26.5 7q14 0 21 -5.5t7 -12.5z" />
    <glyph glyph-name="questiondown" unicode="&#xbf;" horiz-adv-x="585" 
d="M383 343q-100 -49 -146 -83.5t-46 -72.5q0 -42 30 -64t76 -22q26 0 43.5 6.5t28 17t16 25t7.5 30.5h137q-8 -85 -67.5 -132.5t-162.5 -47.5q-73 0 -120.5 17t-74.5 44.5t-37.5 61.5t-10.5 67q0 32 11.5 56.5t35.5 47t60 45t85 50.5v69h135v-115zM383 492h-135v104h135
v-104z" />
    <glyph glyph-name="Agrave" unicode="&#xc0;" horiz-adv-x="639" 
d="M445 123h-250l-42 -123h-142l197 585h224l196 -585h-142zM409 228l-89 266l-90 -266h179zM372 652h-112l-122 161h161z" />
    <glyph glyph-name="Aacute" unicode="&#xc1;" horiz-adv-x="639" 
d="M445 123h-250l-42 -123h-142l197 585h224l196 -585h-142zM409 228l-89 266l-90 -266h179zM337 813h161l-122 -161h-112z" />
    <glyph glyph-name="Acircumflex" unicode="&#xc2;" horiz-adv-x="639" 
d="M445 123h-250l-42 -123h-142l197 585h224l196 -585h-142zM409 228l-89 266l-90 -266h179zM384 851q17 -30 29.5 -53.5t25 -46t25.5 -46t29 -53.5h-133l-39 83l-39 -83h-132q17 31 29.5 54.5t23.5 45t23.5 45t29.5 54.5h128z" />
    <glyph glyph-name="Atilde" unicode="&#xc3;" horiz-adv-x="639" 
d="M445 123h-250l-42 -123h-142l197 585h224l196 -585h-142zM409 228l-89 266l-90 -266h179zM394 652q-16 0 -33 5.5t-43 15.5q-19 8 -36.5 12t-34.5 4q-9 0 -26.5 -3t-34.5 -8q-7 26 -13 46t-14 45q23 14 48.5 18t39.5 4q17 0 33 -5t32 -11q19 -8 39 -14.5t43 -6.5
q11 0 27.5 2.5t33.5 7.5q8 -25 14 -45.5t13 -44.5q-23 -14 -48 -18t-40 -4z" />
    <glyph glyph-name="Adieresis" unicode="&#xc4;" horiz-adv-x="639" 
d="M445 123h-250l-42 -123h-142l197 585h224l196 -585h-142zM409 228l-89 266l-90 -266h179zM151 781h132v-129h-132v129zM344 781h132v-129h-132v129z" />
    <glyph glyph-name="Aring" unicode="&#xc5;" horiz-adv-x="639" 
d="M445 123h-250l-42 -123h-142l197 585h224l196 -585h-142zM409 228l-89 266l-90 -266h179zM320 743q22 0 36 14t14 36t-14 36t-36 14t-36 -14t-14 -36t14 -36t36 -14zM320 652q-29 0 -55 11t-45 30t-30 45t-11 55t11 55t30 45t45 30t55 11t55 -11t45 -30t30 -45t11 -55
t-11 -55t-30 -45t-45 -30t-55 -11z" />
    <glyph glyph-name="AE" unicode="&#xc6;" horiz-adv-x="1013" 
d="M977 585v-102h-296v-143h230v-102h-230v-136h296v-102h-431v123h-285l-97 -123h-158l455 585h516zM343 228h203v258z" />
    <glyph glyph-name="Ccedilla" unicode="&#xc7;" horiz-adv-x="650" 
d="M31 297q0 51 15.5 104t51.5 96.5t94 71t143 27.5q64 0 113.5 -15t85 -41.5t57 -61.5t28.5 -75h-140q-5 46 -44 69t-100 23q-38 0 -69 -14.5t-53.5 -40.5t-34.5 -63.5t-12 -83.5q0 -45 12 -81.5t34.5 -62.5t53.5 -40t69 -14q61 0 100 23t44 69h140q-7 -37 -26 -70
t-49.5 -58.5t-73 -42t-97.5 -20.5v-36q25 -4 45 -16q18 -10 31.5 -28.5t13.5 -50.5q0 -25 -11 -44.5t-30 -33.5t-43.5 -21.5t-50.5 -7.5q-25 0 -48.5 4t-34.5 6v82q8 -3 17.5 -4t19.5 -1t21.5 1.5t21.5 5.5t17 11t7 18q-3 22 -24 26.5t-50 9.5l3 81q-69 9 -116 39t-76 71.5
t-42 90t-13 94.5v4z" />
    <glyph glyph-name="Egrave" unicode="&#xc8;" horiz-adv-x="518" 
d="M51 585h431v-102h-296v-143h230v-102h-230v-136h296v-102h-431v585zM355 652h-112l-122 161h161z" />
    <glyph glyph-name="Eacute" unicode="&#xc9;" horiz-adv-x="518" 
d="M51 585h431v-102h-296v-143h230v-102h-230v-136h296v-102h-431v585zM284 813h161l-122 -161h-112z" />
    <glyph glyph-name="Ecircumflex" unicode="&#xca;" horiz-adv-x="518" 
d="M51 585h431v-102h-296v-143h230v-102h-230v-136h296v-102h-431v585zM325 851q17 -30 29.5 -53.5t25 -46t25.5 -46t29 -53.5h-133l-39 83l-39 -83h-132q17 31 29.5 54.5t23.5 45t23.5 45t29.5 54.5h128z" />
    <glyph glyph-name="Edieresis" unicode="&#xcb;" horiz-adv-x="518" 
d="M51 585h431v-102h-296v-143h230v-102h-230v-136h296v-102h-431v585zM113 781h132v-129h-132v129zM306 781h132v-129h-132v129z" />
    <glyph glyph-name="Igrave" unicode="&#xcc;" horiz-adv-x="239" 
d="M52 585h135v-585h-135v585zM175 652h-112l-122 161h161z" />
    <glyph glyph-name="Iacute" unicode="&#xcd;" horiz-adv-x="239" 
d="M187 0h-135v585h135v-585zM137 813h161l-122 -161h-112z" />
    <glyph glyph-name="Icircumflex" unicode="&#xce;" horiz-adv-x="239" 
d="M52 585h135v-585h-135v585zM182 851q17 -30 29.5 -53.5t25 -46t25.5 -46t29 -53.5h-133l-39 83l-39 -83h-132q17 31 29.5 54.5t23.5 45t23.5 45t29.5 54.5h128z" />
    <glyph glyph-name="Idieresis" unicode="&#xcf;" horiz-adv-x="239" 
d="M52 585h135v-585h-135v585zM-43 781h132v-129h-132v129zM150 781h132v-129h-132v129z" />
    <glyph glyph-name="Eth" unicode="&#xd0;" horiz-adv-x="639" 
d="M77 350v235h230q84 0 142 -27t93 -69.5t50.5 -94t15.5 -101.5q0 -46 -15.5 -97.5t-50.5 -95t-93 -72t-142 -28.5h-230v248h-71v102h71zM212 483v-133h140v-102h-140v-146h113q74 0 111 52.5t37 138.5q0 190 -148 190h-113z" />
    <glyph glyph-name="Ntilde" unicode="&#xd1;" horiz-adv-x="659" 
d="M405 652q-16 0 -33 5.5t-43 15.5q-19 8 -36.5 12t-34.5 4q-9 0 -26.5 -3t-34.5 -8q-7 26 -13 46t-14 45q23 14 48.5 18t39.5 4q17 0 33 -5t32 -11q19 -8 39 -14.5t43 -6.5q11 0 27.5 2.5t33.5 7.5q8 -25 14 -45.5t13 -44.5q-23 -14 -48 -18t-40 -4zM186 389v-389h-135
v585h163l259 -425v425h135v-585h-184z" />
    <glyph glyph-name="Ograve" unicode="&#xd2;" horiz-adv-x="664" 
d="M332 95q38 0 69 14t52.5 39.5t33 60.5t11.5 78q0 45 -11.5 83.5t-33 66t-52.5 43t-69 15.5t-69 -15.5t-52.5 -43t-33 -66t-11.5 -83.5q0 -43 11.5 -78t33 -60.5t52.5 -39.5t69 -14zM332 -6q-85 0 -142.5 28.5t-92.5 72t-50.5 95t-15.5 97.5q0 49 15.5 103.5t50.5 100
t92.5 75.5t142.5 30t142.5 -30t93 -75.5t50.5 -100t15 -103.5q0 -46 -15 -97.5t-50.5 -95t-93 -72t-142.5 -28.5zM386 652h-112l-122 161h161z" />
    <glyph glyph-name="Oacute" unicode="&#xd3;" horiz-adv-x="664" 
d="M332 95q38 0 69 14t52.5 39.5t33 60.5t11.5 78q0 45 -11.5 83.5t-33 66t-52.5 43t-69 15.5t-69 -15.5t-52.5 -43t-33 -66t-11.5 -83.5q0 -43 11.5 -78t33 -60.5t52.5 -39.5t69 -14zM332 -6q-85 0 -142.5 28.5t-92.5 72t-50.5 95t-15.5 97.5q0 49 15.5 103.5t50.5 100
t92.5 75.5t142.5 30t142.5 -30t93 -75.5t50.5 -100t15 -103.5q0 -46 -15 -97.5t-50.5 -95t-93 -72t-142.5 -28.5zM356 813h161l-122 -161h-112z" />
    <glyph glyph-name="Ocircumflex" unicode="&#xd4;" horiz-adv-x="664" 
d="M332 95q38 0 69 14t52.5 39.5t33 60.5t11.5 78q0 45 -11.5 83.5t-33 66t-52.5 43t-69 15.5t-69 -15.5t-52.5 -43t-33 -66t-11.5 -83.5q0 -43 11.5 -78t33 -60.5t52.5 -39.5t69 -14zM332 -6q-85 0 -142.5 28.5t-92.5 72t-50.5 95t-15.5 97.5q0 49 15.5 103.5t50.5 100
t92.5 75.5t142.5 30t142.5 -30t93 -75.5t50.5 -100t15 -103.5q0 -46 -15 -97.5t-50.5 -95t-93 -72t-142.5 -28.5zM395 851q17 -30 29.5 -53.5t25 -46t25.5 -46t29 -53.5h-133l-39 83l-39 -83h-132q17 31 29.5 54.5t23.5 45t23.5 45t29.5 54.5h128z" />
    <glyph glyph-name="Otilde" unicode="&#xd5;" horiz-adv-x="664" 
d="M332 95q38 0 69 14t52.5 39.5t33 60.5t11.5 78q0 45 -11.5 83.5t-33 66t-52.5 43t-69 15.5t-69 -15.5t-52.5 -43t-33 -66t-11.5 -83.5q0 -43 11.5 -78t33 -60.5t52.5 -39.5t69 -14zM332 -6q-85 0 -142.5 28.5t-92.5 72t-50.5 95t-15.5 97.5q0 49 15.5 103.5t50.5 100
t92.5 75.5t142.5 30t142.5 -30t93 -75.5t50.5 -100t15 -103.5q0 -46 -15 -97.5t-50.5 -95t-93 -72t-142.5 -28.5zM406 652q-16 0 -33 5.5t-43 15.5q-19 8 -36.5 12t-34.5 4q-9 0 -26.5 -3t-34.5 -8q-7 26 -13 46t-14 45q23 14 48.5 18t39.5 4q17 0 33 -5t32 -11
q19 -8 39 -14.5t43 -6.5q11 0 27.5 2.5t33.5 7.5q8 -25 14 -45.5t13 -44.5q-23 -14 -48 -18t-40 -4z" />
    <glyph glyph-name="Odieresis" unicode="&#xd6;" horiz-adv-x="664" 
d="M332 95q38 0 69 14t52.5 39.5t33 60.5t11.5 78q0 45 -11.5 83.5t-33 66t-52.5 43t-69 15.5t-69 -15.5t-52.5 -43t-33 -66t-11.5 -83.5q0 -43 11.5 -78t33 -60.5t52.5 -39.5t69 -14zM332 -6q-85 0 -142.5 28.5t-92.5 72t-50.5 95t-15.5 97.5q0 49 15.5 103.5t50.5 100
t92.5 75.5t142.5 30t142.5 -30t93 -75.5t50.5 -100t15 -103.5q0 -46 -15 -97.5t-50.5 -95t-93 -72t-142.5 -28.5zM170 781h132v-129h-132v129zM363 781h132v-129h-132v129z" />
    <glyph glyph-name="multiply" unicode="&#xd7;" horiz-adv-x="522" 
d="M197 39h-141l109 168l-108 164h140l64 -96l64 96h140l-108 -164l109 -168h-141l-64 99z" />
    <glyph glyph-name="Oslash" unicode="&#xd8;" horiz-adv-x="664" 
d="M178 28q-40 21 -68.5 51.5t-45.5 65.5t-25 72t-8 70q0 49 15.5 103.5t50.5 100t92.5 75.5t142.5 30q26 0 50 -3l35 96h114l-46 -128q41 -22 69 -54.5t45.5 -69t25.5 -75.5t8 -75q0 -46 -15 -97.5t-50.5 -95t-93 -72t-142.5 -28.5q-27 0 -51 3l-38 -107h-115zM332 95
q38 0 69 14t52.5 39.5t33 60.5t11.5 78q0 51 -14 91.5t-40 68.5l-127 -352h15zM166 287q0 -47 13.5 -84t38.5 -63l128 354q-5 1 -14 1q-38 0 -69 -15.5t-52.5 -43t-33 -66t-11.5 -83.5z" />
    <glyph glyph-name="Ugrave" unicode="&#xd9;" horiz-adv-x="654" 
d="M327 -6q-84 0 -138.5 26t-86 66.5t-44 89.5t-12.5 95v314h135v-317q0 -36 8 -68t25.5 -55t45 -36.5t67.5 -13.5t67.5 13.5t45 36.5t25.5 55t8 68v317h135v-314q0 -46 -12.5 -95t-44 -89.5t-86 -66.5t-138.5 -26zM386 652h-112l-122 161h161z" />
    <glyph glyph-name="Uacute" unicode="&#xda;" horiz-adv-x="654" 
d="M327 -6q-84 0 -138.5 26t-86 66.5t-44 89.5t-12.5 95v314h135v-317q0 -36 8 -68t25.5 -55t45 -36.5t67.5 -13.5t67.5 13.5t45 36.5t25.5 55t8 68v317h135v-314q0 -46 -12.5 -95t-44 -89.5t-86 -66.5t-138.5 -26zM345 813h161l-122 -161h-112z" />
    <glyph glyph-name="Ucircumflex" unicode="&#xdb;" horiz-adv-x="654" 
d="M327 -6q-84 0 -138.5 26t-86 66.5t-44 89.5t-12.5 95v314h135v-317q0 -36 8 -68t25.5 -55t45 -36.5t67.5 -13.5t67.5 13.5t45 36.5t25.5 55t8 68v317h135v-314q0 -46 -12.5 -95t-44 -89.5t-86 -66.5t-138.5 -26zM390 851q17 -30 29.5 -53.5t25 -46t25.5 -46t29 -53.5
h-133l-39 83l-39 -83h-132q17 31 29.5 54.5t23.5 45t23.5 45t29.5 54.5h128z" />
    <glyph glyph-name="Udieresis" unicode="&#xdc;" horiz-adv-x="654" 
d="M327 -6q-84 0 -138.5 26t-86 66.5t-44 89.5t-12.5 95v314h135v-317q0 -36 8 -68t25.5 -55t45 -36.5t67.5 -13.5t67.5 13.5t45 36.5t25.5 55t8 68v317h135v-314q0 -46 -12.5 -95t-44 -89.5t-86 -66.5t-138.5 -26zM164 781h132v-129h-132v129zM357 781h132v-129h-132v129z
" />
    <glyph glyph-name="Yacute" unicode="&#xdd;" horiz-adv-x="619" 
d="M451 586h152l-226 -404v-182h-135v181l-226 404h152l142 -258zM328 813h161l-122 -161h-112z" />
    <glyph glyph-name="Thorn" unicode="&#xde;" horiz-adv-x="576" 
d="M316 500q68 0 113.5 -19.5t73.5 -49.5t40 -66t12 -69t-12 -69t-40 -66.5t-73.5 -50.5t-113.5 -20h-130v-90h-135v585h135v-85h130zM318 192q44 0 73 27.5t29 75.5t-29 75.5t-73 27.5h-132v-206h132z" />
    <glyph glyph-name="germandbls" unicode="&#xdf;" horiz-adv-x="575" 
d="M46 0v413q0 37 12.5 70t41 58t75.5 40t116 15q70 0 115 -15t71.5 -40t36.5 -56.5t10 -63.5q0 -12 -2 -26t-9.5 -30t-23 -32t-43.5 -31q36 -10 57.5 -25.5t33 -33t14.5 -35.5t3 -34q0 -32 -10.5 -63.5t-37 -56t-71.5 -39.5t-115 -15h-42v102h39q46 0 74 16t28 55
q0 42 -28 56t-74 14h-29v97q45 0 73 18t28 59q0 38 -28 58t-73 20t-76 -23t-31 -60v-412h-135z" />
    <glyph glyph-name="agrave" unicode="&#xe0;" horiz-adv-x="514" 
d="M161 128q0 -13 8.5 -20.5t21 -11t28 -4.5t29.5 -1q3 0 13 1.5t23.5 5t29.5 10.5t29 18v56q-27 0 -58.5 -2.5t-59 -8.5t-46 -16.5t-18.5 -26.5zM343 264q0 44 -23.5 59t-60.5 15q-9 0 -23 -0.5t-27.5 -4.5t-23.5 -13t-11 -25h-122q6 39 24.5 66t45.5 43.5t61 23.5t70 7
q68 0 112 -14.5t69 -41.5t34.5 -64t9.5 -82v-233h-126l-9 47q-16 -20 -39.5 -30.5t-47.5 -15.5t-45.5 -6t-34.5 -1q-23 0 -49 6.5t-48.5 21.5t-37 40t-14.5 61q0 49 32 77t79.5 42.5t102.5 18t102 3.5zM353 507h-112l-122 161h161z" />
    <glyph glyph-name="aacute" unicode="&#xe1;" horiz-adv-x="514" 
d="M161 128q0 -13 8.5 -20.5t21 -11t28 -4.5t29.5 -1q3 0 13 1.5t23.5 5t29.5 10.5t29 18v56q-27 0 -58.5 -2.5t-59 -8.5t-46 -16.5t-18.5 -26.5zM343 264q0 44 -23.5 59t-60.5 15q-9 0 -23 -0.5t-27.5 -4.5t-23.5 -13t-11 -25h-122q6 39 24.5 66t45.5 43.5t61 23.5t70 7
q68 0 112 -14.5t69 -41.5t34.5 -64t9.5 -82v-233h-126l-9 47q-16 -20 -39.5 -30.5t-47.5 -15.5t-45.5 -6t-34.5 -1q-23 0 -49 6.5t-48.5 21.5t-37 40t-14.5 61q0 49 32 77t79.5 42.5t102.5 18t102 3.5zM276 668h161l-122 -161h-112z" />
    <glyph glyph-name="acircumflex" unicode="&#xe2;" horiz-adv-x="514" 
d="M161 128q0 -13 8.5 -20.5t21 -11t28 -4.5t29.5 -1q3 0 13 1.5t23.5 5t29.5 10.5t29 18v56q-27 0 -58.5 -2.5t-59 -8.5t-46 -16.5t-18.5 -26.5zM343 264q0 44 -23.5 59t-60.5 15q-9 0 -23 -0.5t-27.5 -4.5t-23.5 -13t-11 -25h-122q6 39 24.5 66t45.5 43.5t61 23.5t70 7
q68 0 112 -14.5t69 -41.5t34.5 -64t9.5 -82v-233h-126l-9 47q-16 -20 -39.5 -30.5t-47.5 -15.5t-45.5 -6t-34.5 -1q-23 0 -49 6.5t-48.5 21.5t-37 40t-14.5 61q0 49 32 77t79.5 42.5t102.5 18t102 3.5zM332 706q17 -30 29.5 -53.5t25 -46t25.5 -46t29 -53.5h-133l-39 83
l-39 -83h-132q17 31 29.5 54.5t23.5 45t23.5 45t29.5 54.5h128z" />
    <glyph glyph-name="atilde" unicode="&#xe3;" horiz-adv-x="514" 
d="M161 128q0 -13 8.5 -20.5t21 -11t28 -4.5t29.5 -1q3 0 13 1.5t23.5 5t29.5 10.5t29 18v56q-27 0 -58.5 -2.5t-59 -8.5t-46 -16.5t-18.5 -26.5zM343 264q0 44 -23.5 59t-60.5 15q-9 0 -23 -0.5t-27.5 -4.5t-23.5 -13t-11 -25h-122q6 39 24.5 66t45.5 43.5t61 23.5t70 7
q68 0 112 -14.5t69 -41.5t34.5 -64t9.5 -82v-233h-126l-9 47q-16 -20 -39.5 -30.5t-47.5 -15.5t-45.5 -6t-34.5 -1q-23 0 -49 6.5t-48.5 21.5t-37 40t-14.5 61q0 49 32 77t79.5 42.5t102.5 18t102 3.5zM348 507q-16 0 -33 5.5t-43 15.5q-19 8 -36.5 12t-34.5 4
q-9 0 -26.5 -3t-34.5 -8q-7 26 -13 46t-14 45q23 14 48.5 18t39.5 4q17 0 33 -5t32 -11q19 -8 39 -14.5t43 -6.5q11 0 27.5 2.5t33.5 7.5q8 -25 14 -45.5t13 -44.5q-23 -14 -48 -18t-40 -4z" />
    <glyph glyph-name="adieresis" unicode="&#xe4;" horiz-adv-x="514" 
d="M161 128q0 -13 8.5 -20.5t21 -11t28 -4.5t29.5 -1q3 0 13 1.5t23.5 5t29.5 10.5t29 18v56q-27 0 -58.5 -2.5t-59 -8.5t-46 -16.5t-18.5 -26.5zM343 264q0 44 -23.5 59t-60.5 15q-9 0 -23 -0.5t-27.5 -4.5t-23.5 -13t-11 -25h-122q6 39 24.5 66t45.5 43.5t61 23.5t70 7
q68 0 112 -14.5t69 -41.5t34.5 -64t9.5 -82v-233h-126l-9 47q-16 -20 -39.5 -30.5t-47.5 -15.5t-45.5 -6t-34.5 -1q-23 0 -49 6.5t-48.5 21.5t-37 40t-14.5 61q0 49 32 77t79.5 42.5t102.5 18t102 3.5zM114 636h132v-129h-132v129zM307 636h132v-129h-132v129z" />
    <glyph glyph-name="aring" unicode="&#xe5;" horiz-adv-x="514" 
d="M161 128q0 -13 8.5 -20.5t21 -11t28 -4.5t29.5 -1q3 0 13 1.5t23.5 5t29.5 10.5t29 18v56q-27 0 -58.5 -2.5t-59 -8.5t-46 -16.5t-18.5 -26.5zM343 264q0 44 -23.5 59t-60.5 15q-9 0 -23 -0.5t-27.5 -4.5t-23.5 -13t-11 -25h-122q6 39 24.5 66t45.5 43.5t61 23.5t70 7
q68 0 112 -14.5t69 -41.5t34.5 -64t9.5 -82v-233h-126l-9 47q-16 -20 -39.5 -30.5t-47.5 -15.5t-45.5 -6t-34.5 -1q-23 0 -49 6.5t-48.5 21.5t-37 40t-14.5 61q0 49 32 77t79.5 42.5t102.5 18t102 3.5zM267 598q22 0 36 14t14 36t-14 36t-36 14t-36 -14t-14 -36t14 -36
t36 -14zM267 507q-29 0 -55 11t-45 30t-30 45t-11 55t11 55t30 45t45 30t55 11t55 -11t45 -30t30 -45t11 -55t-11 -55t-30 -45t-45 -30t-55 -11z" />
    <glyph glyph-name="ae" unicode="&#xe6;" horiz-adv-x="850" 
d="M803 129q-3 -27 -19 -51t-43.5 -43t-65.5 -30t-84 -11q-57 0 -98.5 17.5t-67.5 43.5q-20 -23 -49 -35.5t-58 -18t-53.5 -6.5t-34.5 -1q-28 0 -62.5 4.5t-65 18.5t-51 39t-20.5 67q0 49 32 77t79.5 42.5t102.5 18t102 3.5q0 44 -23.5 59t-60.5 15q-9 0 -23 -0.5
t-27.5 -4.5t-23.5 -13t-11 -25h-122q6 39 24.5 66t45.5 43.5t61 23.5t70 7q61 0 102 -12t67 -33q28 20 67.5 32.5t94.5 12.5q70 0 115.5 -20t72.5 -51.5t37.5 -71t10.5 -78.5v-49h-342q6 -45 34.5 -59.5t73.5 -14.5q20 0 43 7.5t34 30.5h136zM165 128q0 -13 8.5 -20.5
t21 -11t28 -4.5t29.5 -1q3 0 13 1.5t23.5 5t29.5 10.5t29 18v56q-27 0 -58.5 -2.5t-59 -8.5t-46 -16.5t-18.5 -26.5zM587 338q-16 0 -31.5 -2t-29 -10t-24.5 -23.5t-19 -42.5h208q-8 27 -19 42.5t-24.5 23.5t-29 10t-31.5 2z" />
    <glyph glyph-name="ccedilla" unicode="&#xe7;" horiz-adv-x="534" 
d="M166 214q0 -60 30 -91.5t87 -31.5q36 0 61.5 14.5t32.5 45.5h135q-4 -29 -15 -55.5t-33 -47.5t-56 -34.5t-85 -17.5v-36q25 -4 45 -16q18 -10 31.5 -28.5t13.5 -50.5q0 -25 -11 -44.5t-30 -33.5t-43.5 -21.5t-50.5 -7.5q-25 0 -48.5 4t-34.5 6v82q8 -3 17.5 -4t19.5 -1
t21.5 1.5t21.5 5.5t17 11t7 18q-3 22 -24 26.5t-50 9.5l3 81q-55 8 -92.5 29t-61 51t-33.5 65.5t-10 70.5q0 39 12.5 78.5t42 71t78 51.5t119.5 20q63 0 105 -12.5t68 -34.5t38.5 -50t17.5 -60h-135q-7 31 -32.5 45.5t-61.5 14.5q-57 0 -87 -32t-30 -92z" />
    <glyph glyph-name="egrave" unicode="&#xe8;" horiz-adv-x="534" 
d="M487 129q-3 -27 -19 -51t-43.5 -43t-65.5 -30t-84 -11q-71 0 -118 20.5t-75 52t-39.5 71t-11.5 76.5q0 38 11 77.5t38.5 71.5t74 52t117.5 20q70 0 115.5 -20t72.5 -51.5t37.5 -71t10.5 -78.5v-49h-342q6 -45 34.5 -59.5t73.5 -14.5q20 0 43 7.5t34 30.5h136zM271 338
q-16 0 -31.5 -2t-29 -10t-24.5 -23.5t-19 -42.5h208q-8 27 -19 42.5t-24.5 23.5t-29 10t-31.5 2zM343 507h-112l-122 161h161z" />
    <glyph glyph-name="eacute" unicode="&#xe9;" horiz-adv-x="534" 
d="M487 129q-3 -27 -19 -51t-43.5 -43t-65.5 -30t-84 -11q-71 0 -118 20.5t-75 52t-39.5 71t-11.5 76.5q0 38 11 77.5t38.5 71.5t74 52t117.5 20q70 0 115.5 -20t72.5 -51.5t37.5 -71t10.5 -78.5v-49h-342q6 -45 34.5 -59.5t73.5 -14.5q20 0 43 7.5t34 30.5h136zM271 338
q-16 0 -31.5 -2t-29 -10t-24.5 -23.5t-19 -42.5h208q-8 27 -19 42.5t-24.5 23.5t-29 10t-31.5 2zM284 668h161l-122 -161h-112z" />
    <glyph glyph-name="ecircumflex" unicode="&#xea;" horiz-adv-x="534" 
d="M487 129q-3 -27 -19 -51t-43.5 -43t-65.5 -30t-84 -11q-71 0 -118 20.5t-75 52t-39.5 71t-11.5 76.5q0 38 11 77.5t38.5 71.5t74 52t117.5 20q70 0 115.5 -20t72.5 -51.5t37.5 -71t10.5 -78.5v-49h-342q6 -45 34.5 -59.5t73.5 -14.5q20 0 43 7.5t34 30.5h136zM271 338
q-16 0 -31.5 -2t-29 -10t-24.5 -23.5t-19 -42.5h208q-8 27 -19 42.5t-24.5 23.5t-29 10t-31.5 2zM334 706q17 -30 29.5 -53.5t25 -46t25.5 -46t29 -53.5h-133l-39 83l-39 -83h-132q17 31 29.5 54.5t23.5 45t23.5 45t29.5 54.5h128z" />
    <glyph glyph-name="edieresis" unicode="&#xeb;" horiz-adv-x="534" 
d="M487 129q-3 -27 -19 -51t-43.5 -43t-65.5 -30t-84 -11q-71 0 -118 20.5t-75 52t-39.5 71t-11.5 76.5q0 38 11 77.5t38.5 71.5t74 52t117.5 20q70 0 115.5 -20t72.5 -51.5t37.5 -71t10.5 -78.5v-49h-342q6 -45 34.5 -59.5t73.5 -14.5q20 0 43 7.5t34 30.5h136zM271 338
q-16 0 -31.5 -2t-29 -10t-24.5 -23.5t-19 -42.5h208q-8 27 -19 42.5t-24.5 23.5t-29 10t-31.5 2zM112 636h132v-129h-132v129zM305 636h132v-129h-132v129z" />
    <glyph glyph-name="igrave" unicode="&#xec;" horiz-adv-x="239" 
d="M52 425h135v-425h-135v425zM178 507h-112l-122 161h161z" />
    <glyph glyph-name="iacute" unicode="&#xed;" horiz-adv-x="239" 
d="M187 0h-135v425h135v-425zM134 668h161l-122 -161h-112z" />
    <glyph glyph-name="icircumflex" unicode="&#xee;" horiz-adv-x="239" 
d="M187 0h-135v425h135v-425zM182 706q17 -30 29.5 -53.5t25 -46t25.5 -46t29 -53.5h-133l-39 83l-39 -83h-132q17 31 29.5 54.5t23.5 45t23.5 45t29.5 54.5h128z" />
    <glyph glyph-name="idieresis" unicode="&#xef;" horiz-adv-x="239" 
d="M187 0h-135v425h135v-425zM-43 636h132v-129h-132v129zM150 636h132v-129h-132v129z" />
    <glyph glyph-name="eth" unicode="&#xf0;" 
d="M397 623q35 -31 59 -69.5t39 -81.5t22 -88t7 -90v-31q0 -92 -16 -145.5t-47 -81t-77.5 -35t-108.5 -7.5q-72 0 -119 13.5t-74.5 37.5t-39 57.5t-11.5 72.5t8.5 75.5t33 64.5t69.5 45t118 17q5 0 20.5 -1t35 -5t39.5 -11.5t34 -20.5q0 41 -4 71t-12 53t-21.5 42t-33.5 38
l-89 -88q-13 14 -31 30t-29 29l76 75q-23 9 -52 15t-52 10q5 25 9.5 46.5t9.5 45.5q39 -3 83.5 -13.5t76.5 -25.5l70 70l61 -61zM276 272q-58 0 -84 -23.5t-26 -77.5q0 -43 29 -61.5t79 -18.5q20 0 40.5 3t37 12t27 26t10.5 44q0 33 -9.5 52t-25 28.5t-34.5 12.5t-38 3h-6z
" />
    <glyph glyph-name="ntilde" unicode="&#xf1;" 
d="M186 385q18 19 38.5 29t39.5 14.5t36 5.5t28 1q88 0 137 -49t49 -140v-246h-135v231q0 34 -7.5 55t-20 32.5t-29 15.5t-34.5 4t-36 -7.5t-32.5 -21t-24 -30.5t-9.5 -37v-242h-135v425h127zM363 507q-16 0 -33 5.5t-43 15.5q-19 8 -36.5 12t-34.5 4q-9 0 -26.5 -3
t-34.5 -8q-7 26 -13 46t-14 45q23 14 48.5 18t39.5 4q17 0 33 -5t32 -11q19 -8 39 -14.5t43 -6.5q11 0 27.5 2.5t33.5 7.5q8 -25 14 -45.5t13 -44.5q-23 -14 -48 -18t-40 -4z" />
    <glyph glyph-name="ograve" unicode="&#xf2;" horiz-adv-x="556" 
d="M525 214q0 -39 -12 -78.5t-40.5 -71t-76 -51t-118.5 -19.5t-118.5 19.5t-76 51t-40.5 71t-12 78.5t12 78.5t40.5 71t76 51.5t118.5 20t118.5 -20t76 -51.5t40.5 -71t12 -78.5zM390 214q0 66 -32.5 95t-79.5 29q-46 0 -79 -29t-33 -95t33 -94.5t79 -28.5q47 0 79.5 28.5
t32.5 94.5zM334 507h-112l-122 161h161z" />
    <glyph glyph-name="oacute" unicode="&#xf3;" horiz-adv-x="556" 
d="M525 214q0 -39 -12 -78.5t-40.5 -71t-76 -51t-118.5 -19.5t-118.5 19.5t-76 51t-40.5 71t-12 78.5t12 78.5t40.5 71t76 51.5t118.5 20t118.5 -20t76 -51.5t40.5 -71t12 -78.5zM390 214q0 66 -32.5 95t-79.5 29q-46 0 -79 -29t-33 -95t33 -94.5t79 -28.5q47 0 79.5 28.5
t32.5 94.5zM291 668h161l-122 -161h-112z" />
    <glyph glyph-name="ocircumflex" unicode="&#xf4;" horiz-adv-x="556" 
d="M525 214q0 -39 -12 -78.5t-40.5 -71t-76 -51t-118.5 -19.5t-118.5 19.5t-76 51t-40.5 71t-12 78.5t12 78.5t40.5 71t76 51.5t118.5 20t118.5 -20t76 -51.5t40.5 -71t12 -78.5zM390 214q0 66 -32.5 95t-79.5 29q-46 0 -79 -29t-33 -95t33 -94.5t79 -28.5q47 0 79.5 28.5
t32.5 94.5zM342 706q17 -30 29.5 -53.5t25 -46t25.5 -46t29 -53.5h-133l-39 83l-39 -83h-132q17 31 29.5 54.5t23.5 45t23.5 45t29.5 54.5h128z" />
    <glyph glyph-name="otilde" unicode="&#xf5;" horiz-adv-x="556" 
d="M525 214q0 -39 -12 -78.5t-40.5 -71t-76 -51t-118.5 -19.5t-118.5 19.5t-76 51t-40.5 71t-12 78.5t12 78.5t40.5 71t76 51.5t118.5 20t118.5 -20t76 -51.5t40.5 -71t12 -78.5zM390 214q0 66 -32.5 95t-79.5 29q-46 0 -79 -29t-33 -95t33 -94.5t79 -28.5q47 0 79.5 28.5
t32.5 94.5zM351 507q-16 0 -33 5.5t-43 15.5q-19 8 -36.5 12t-34.5 4q-9 0 -26.5 -3t-34.5 -8q-7 26 -13 46t-14 45q23 14 48.5 18t39.5 4q17 0 33 -5t32 -11q19 -8 39 -14.5t43 -6.5q11 0 27.5 2.5t33.5 7.5q8 -25 14 -45.5t13 -44.5q-23 -14 -48 -18t-40 -4z" />
    <glyph glyph-name="odieresis" unicode="&#xf6;" horiz-adv-x="556" 
d="M525 214q0 -39 -12 -78.5t-40.5 -71t-76 -51t-118.5 -19.5t-118.5 19.5t-76 51t-40.5 71t-12 78.5t12 78.5t40.5 71t76 51.5t118.5 20t118.5 -20t76 -51.5t40.5 -71t12 -78.5zM390 214q0 66 -32.5 95t-79.5 29q-46 0 -79 -29t-33 -95t33 -94.5t79 -28.5q47 0 79.5 28.5
t32.5 94.5zM116 636h132v-129h-132v129zM309 636h132v-129h-132v129z" />
    <glyph glyph-name="divide" unicode="&#xf7;" horiz-adv-x="454" 
d="M398 249v-102h-342v102h342zM177 397h101v-99h-101v99zM177 99h101v-99h-101v99z" />
    <glyph glyph-name="oslash" unicode="&#xf8;" horiz-adv-x="556" 
d="M150 17q-33 15 -56 36.5t-37 48t-20 55.5t-6 57q0 39 12 78.5t40.5 71t76 51.5t118.5 20h11.5t11.5 -1l44 121h114l-52 -144q33 -15 55.5 -37t36.5 -48.5t20 -55t6 -56.5q0 -39 -12 -78.5t-40.5 -71t-76 -51t-118.5 -19.5h-11.5t-10.5 1l-37 -105h-115zM166 214
q0 -29 6.5 -50t17.5 -36l76 209q-42 -3 -71 -32t-29 -91zM390 214q0 53 -24 85l-75 -208q42 4 70.5 32.5t28.5 90.5z" />
    <glyph glyph-name="ugrave" unicode="&#xf9;" 
d="M369 44q-18 -19 -38.5 -29t-39.5 -14.5t-36 -5.5t-28 -1q-88 0 -137 49t-49 140v242h135v-227q0 -34 7.5 -55t20 -32.5t29 -15.5t34.5 -4t36 7.5t32.5 21t24 31t9.5 36.5v238h135v-425h-127zM333 507h-112l-122 161h161z" />
    <glyph glyph-name="uacute" unicode="&#xfa;" 
d="M369 44q-18 -19 -38.5 -29t-39.5 -14.5t-36 -5.5t-28 -1q-88 0 -137 49t-49 140v242h135v-227q0 -34 7.5 -55t20 -32.5t29 -15.5t34.5 -4t36 7.5t32.5 21t24 31t9.5 36.5v238h135v-425h-127zM293 668h161l-122 -161h-112z" />
    <glyph glyph-name="ucircumflex" unicode="&#xfb;" 
d="M369 44q-18 -19 -38.5 -29t-39.5 -14.5t-36 -5.5t-28 -1q-88 0 -137 49t-49 140v242h135v-227q0 -34 7.5 -55t20 -32.5t29 -15.5t34.5 -4t36 7.5t32.5 21t24 31t9.5 36.5v238h135v-425h-127zM341 706q17 -30 29.5 -53.5t25 -46t25.5 -46t29 -53.5h-133l-39 83l-39 -83
h-132q17 31 29.5 54.5t23.5 45t23.5 45t29.5 54.5h128z" />
    <glyph glyph-name="udieresis" unicode="&#xfc;" 
d="M369 44q-18 -19 -38.5 -29t-39.5 -14.5t-36 -5.5t-28 -1q-88 0 -137 49t-49 140v242h135v-227q0 -34 7.5 -55t20 -32.5t29 -15.5t34.5 -4t36 7.5t32.5 21t24 31t9.5 36.5v238h135v-425h-127zM106 636h132v-129h-132v129zM299 636h132v-129h-132v129z" />
    <glyph glyph-name="yacute" unicode="&#xfd;" horiz-adv-x="538" 
d="M19 -93q16 -6 35 -9.5t31 -3.5q43 2 62.5 21t19.5 67q0 3 -1.5 9t-3 12.5t-3 12.5t-1.5 7l-147 402h147l111 -349l111 349h147l-152 -415q-27 -74 -59 -116t-63 -63t-58 -26.5t-44 -5.5q-41 0 -67 3t-40.5 6.5t-19.5 6.5l-5 3v89zM289 668h161l-122 -161h-112z" />
    <glyph glyph-name="thorn" unicode="&#xfe;" horiz-adv-x="568" 
d="M402 227q0 34 -10.5 55.5t-26 34t-35 17t-37.5 4.5q-19 0 -38.5 -6.5t-34.5 -18t-24.5 -27.5t-9.5 -36v-67q0 -19 9 -36t25 -29.5t37 -19.5t45 -7q20 0 38 8.5t31.5 24.5t22 39t8.5 53v11zM334 435q50 0 87.5 -16t63.5 -45t39 -69t13 -89q0 -46 -13.5 -86.5t-38 -70.5
t-58 -47.5t-73.5 -17.5q-16 0 -36.5 1t-43 6t-45.5 16t-43 32v-220h-135v756h135v-201q20 19 40 29.5t39 15t36.5 5.5t32.5 1z" />
    <glyph glyph-name="ydieresis" unicode="&#xff;" horiz-adv-x="538" 
d="M19 -93q16 -6 35 -9.5t31 -3.5q43 2 62.5 21t19.5 67q0 3 -1.5 9t-3 12.5t-3 12.5t-1.5 7l-147 402h147l111 -349l111 349h147l-152 -415q-27 -74 -59 -116t-63 -63t-58 -26.5t-44 -5.5q-41 0 -67 3t-40.5 6.5t-19.5 6.5l-5 3v89zM108 636h132v-129h-132v129zM301 636
h132v-129h-132v129z" />
    <glyph glyph-name="Amacron" unicode="&#x100;" horiz-adv-x="639" 
d="M445 123h-250l-42 -123h-142l197 585h224l196 -585h-142zM409 228l-89 266l-90 -266h179zM498 754v-102h-354v102h354z" />
    <glyph glyph-name="amacron" unicode="&#x101;" horiz-adv-x="514" 
d="M161 128q0 -13 8.5 -20.5t21 -11t28 -4.5t29.5 -1q3 0 13 1.5t23.5 5t29.5 10.5t29 18v56q-27 0 -58.5 -2.5t-59 -8.5t-46 -16.5t-18.5 -26.5zM343 264q0 44 -23.5 59t-60.5 15q-9 0 -23 -0.5t-27.5 -4.5t-23.5 -13t-11 -25h-122q6 39 24.5 66t45.5 43.5t61 23.5t70 7
q68 0 112 -14.5t69 -41.5t34.5 -64t9.5 -82v-233h-126l-9 47q-16 -20 -39.5 -30.5t-47.5 -15.5t-45.5 -6t-34.5 -1q-23 0 -49 6.5t-48.5 21.5t-37 40t-14.5 61q0 49 32 77t79.5 42.5t102.5 18t102 3.5zM445 609v-102h-347v102h347z" />
    <glyph glyph-name="Abreve" unicode="&#x102;" horiz-adv-x="639" 
d="M445 123h-250l-42 -123h-142l197 585h224l196 -585h-142zM409 228l-89 266l-90 -266h179zM320 652q-32 0 -62.5 7.5t-54.5 25t-38.5 45t-14.5 66.5h93q8 -32 29.5 -45t47.5 -13t47 13t29 45h94q0 -39 -14.5 -66.5t-38.5 -45t-54.5 -25t-62.5 -7.5z" />
    <glyph glyph-name="abreve" unicode="&#x103;" horiz-adv-x="514" 
d="M161 128q0 -13 8.5 -20.5t21 -11t28 -4.5t29.5 -1q3 0 13 1.5t23.5 5t29.5 10.5t29 18v56q-27 0 -58.5 -2.5t-59 -8.5t-46 -16.5t-18.5 -26.5zM343 264q0 44 -23.5 59t-60.5 15q-9 0 -23 -0.5t-27.5 -4.5t-23.5 -13t-11 -25h-122q6 39 24.5 66t45.5 43.5t61 23.5t70 7
q68 0 112 -14.5t69 -41.5t34.5 -64t9.5 -82v-233h-126l-9 47q-16 -20 -39.5 -30.5t-47.5 -15.5t-45.5 -6t-34.5 -1q-23 0 -49 6.5t-48.5 21.5t-37 40t-14.5 61q0 49 32 77t79.5 42.5t102.5 18t102 3.5zM272 507q-32 0 -62.5 7.5t-54.5 25t-38.5 45t-14.5 66.5h93
q8 -32 29.5 -45t47.5 -13t47 13t29 45h94q0 -39 -14.5 -66.5t-38.5 -45t-54.5 -25t-62.5 -7.5z" />
    <glyph glyph-name="Aogonek" unicode="&#x104;" horiz-adv-x="639" 
d="M600 0q-15 -14 -20.5 -28t-5.5 -37q0 -19 12 -32t40 -13v-82q-10 -2 -17.5 -2h-11.5q-50 0 -86.5 26.5t-36.5 78.5q0 23 8.5 45t35.5 44h-32l-41 123h-250l-42 -123h-142l197 585h224l196 -585h-28zM409 228l-89 266l-90 -266h179z" />
    <glyph glyph-name="aogonek" unicode="&#x105;" horiz-adv-x="520" 
d="M161 128q0 -13 8.5 -20.5t21 -11t28 -4.5t29.5 -1q3 0 13 1.5t23.5 5t29.5 10.5t29 18v56q-27 0 -58.5 -2.5t-59 -8.5t-46 -16.5t-18.5 -26.5zM343 47q-16 -20 -39.5 -30.5t-47.5 -15.5t-45.5 -6t-34.5 -1q-23 0 -49 6.5t-48.5 21.5t-37 40t-14.5 61q0 49 32 77
t79.5 42.5t102.5 18t102 3.5q0 44 -23.5 59t-60.5 15q-9 0 -23 -0.5t-27.5 -4.5t-23.5 -13t-11 -25h-122q6 39 24.5 66t45.5 43.5t61 23.5t70 7q68 0 112 -14.5t69 -41.5t34.5 -64t9.5 -82v-233h-20q-15 -14 -20.5 -27t-5.5 -32t12 -28.5t40 -9.5v-82q-10 -2 -17.5 -2h-11.5
q-50 0 -86.5 25t-36.5 77q0 23 8.5 40t35.5 39h-24z" />
    <glyph glyph-name="Cacute" unicode="&#x106;" horiz-adv-x="650" 
d="M31 297q0 51 15.5 104t51.5 96.5t94 71t143 27.5q64 0 113.5 -15t85 -41.5t57 -61.5t28.5 -75h-140q-5 46 -44 69t-100 23q-38 0 -69 -14.5t-53.5 -40.5t-34.5 -63.5t-12 -83.5q0 -45 12 -81.5t34.5 -62.5t53.5 -40t69 -14q61 0 100 23t44 69h140q-7 -40 -28.5 -75
t-57 -61t-85 -41.5t-113.5 -15.5q-85 0 -143 27.5t-94 71t-51.5 96.5t-15.5 104v4zM347 813h161l-122 -161h-112z" />
    <glyph glyph-name="cacute" unicode="&#x107;" horiz-adv-x="534" 
d="M166 214q0 -60 30 -91.5t87 -31.5q36 0 61.5 14.5t32.5 45.5h135q-5 -31 -17.5 -59.5t-38.5 -50.5t-68 -34.5t-105 -12.5q-71 0 -119.5 19.5t-78 51t-42 71t-12.5 78.5t12.5 78.5t42 71t78 51.5t119.5 20q63 0 105 -12.5t68 -34.5t38.5 -50t17.5 -60h-135
q-7 31 -32.5 45.5t-61.5 14.5q-57 0 -87 -32t-30 -92zM298 668h161l-122 -161h-112z" />
    <glyph glyph-name="Ccircumflex" unicode="&#x108;" horiz-adv-x="650" 
d="M31 297q0 51 15.5 104t51.5 96.5t94 71t143 27.5q64 0 113.5 -15t85 -41.5t57 -61.5t28.5 -75h-140q-5 46 -44 69t-100 23q-38 0 -69 -14.5t-53.5 -40.5t-34.5 -63.5t-12 -83.5q0 -45 12 -81.5t34.5 -62.5t53.5 -40t69 -14q61 0 100 23t44 69h140q-7 -40 -28.5 -75
t-57 -61t-85 -41.5t-113.5 -15.5q-85 0 -143 27.5t-94 71t-51.5 96.5t-15.5 104v4zM402 851q17 -30 29.5 -53.5t25 -46t25.5 -46t29 -53.5h-133l-39 83l-39 -83h-132q17 31 29.5 54.5t23.5 45t23.5 45t29.5 54.5h128z" />
    <glyph glyph-name="ccircumflex" unicode="&#x109;" horiz-adv-x="534" 
d="M166 214q0 -60 30 -91.5t87 -31.5q36 0 61.5 14.5t32.5 45.5h135q-5 -31 -17.5 -59.5t-38.5 -50.5t-68 -34.5t-105 -12.5q-71 0 -119.5 19.5t-78 51t-42 71t-12.5 78.5t12.5 78.5t42 71t78 51.5t119.5 20q63 0 105 -12.5t68 -34.5t38.5 -50t17.5 -60h-135
q-7 31 -32.5 45.5t-61.5 14.5q-57 0 -87 -32t-30 -92zM346 706q17 -30 29.5 -53.5t25 -46t25.5 -46t29 -53.5h-133l-39 83l-39 -83h-132q17 31 29.5 54.5t23.5 45t23.5 45t29.5 54.5h128z" />
    <glyph glyph-name="Cdotaccent" unicode="&#x10a;" horiz-adv-x="650" 
d="M31 297q0 51 15.5 104t51.5 96.5t94 71t143 27.5q64 0 113.5 -15t85 -41.5t57 -61.5t28.5 -75h-140q-5 46 -44 69t-100 23q-38 0 -69 -14.5t-53.5 -40.5t-34.5 -63.5t-12 -83.5q0 -45 12 -81.5t34.5 -62.5t53.5 -40t69 -14q61 0 100 23t44 69h140q-7 -40 -28.5 -75
t-57 -61t-85 -41.5t-113.5 -15.5q-85 0 -143 27.5t-94 71t-51.5 96.5t-15.5 104v4zM272 781h132v-129h-132v129z" />
    <glyph glyph-name="cdotaccent" unicode="&#x10b;" horiz-adv-x="534" 
d="M166 214q0 -60 30 -91.5t87 -31.5q36 0 61.5 14.5t32.5 45.5h135q-5 -31 -17.5 -59.5t-38.5 -50.5t-68 -34.5t-105 -12.5q-71 0 -119.5 19.5t-78 51t-42 71t-12.5 78.5t12.5 78.5t42 71t78 51.5t119.5 20q63 0 105 -12.5t68 -34.5t38.5 -50t17.5 -60h-135
q-7 31 -32.5 45.5t-61.5 14.5q-57 0 -87 -32t-30 -92zM220 636h132v-129h-132v129z" />
    <glyph glyph-name="Ccaron" unicode="&#x10c;" horiz-adv-x="650" 
d="M31 297q0 51 15.5 104t51.5 96.5t94 71t143 27.5q64 0 113.5 -15t85 -41.5t57 -61.5t28.5 -75h-140q-5 46 -44 69t-100 23q-38 0 -69 -14.5t-53.5 -40.5t-34.5 -63.5t-12 -83.5q0 -45 12 -81.5t34.5 -62.5t53.5 -40t69 -14q61 0 100 23t44 69h140q-7 -40 -28.5 -75
t-57 -61t-85 -41.5t-113.5 -15.5q-85 0 -143 27.5t-94 71t-51.5 96.5t-15.5 104v4zM277 652q-17 31 -29.5 54.5t-23.5 45t-23.5 45t-29.5 54.5h132l39 -83l39 83h133q-16 -30 -29 -53.5t-25.5 -46t-25 -46t-29.5 -53.5h-128z" />
    <glyph glyph-name="ccaron" unicode="&#x10d;" horiz-adv-x="534" 
d="M166 214q0 -60 30 -91.5t87 -31.5q36 0 61.5 14.5t32.5 45.5h135q-5 -31 -17.5 -59.5t-38.5 -50.5t-68 -34.5t-105 -12.5q-71 0 -119.5 19.5t-78 51t-42 71t-12.5 78.5t12.5 78.5t42 71t78 51.5t119.5 20q63 0 105 -12.5t68 -34.5t38.5 -50t17.5 -60h-135
q-7 31 -32.5 45.5t-61.5 14.5q-57 0 -87 -32t-30 -92zM211 507q-17 31 -29.5 54.5t-23.5 45t-23.5 45t-29.5 54.5h132l39 -83l39 83h133q-16 -30 -29 -53.5t-25.5 -46t-25 -46t-29.5 -53.5h-128z" />
    <glyph glyph-name="Dcaron" unicode="&#x10e;" horiz-adv-x="613" 
d="M51 585h230q84 0 142 -27t93 -69.5t50.5 -94t15.5 -101.5q0 -46 -15.5 -97.5t-50.5 -95t-93 -72t-142 -28.5h-230v585zM186 483v-381h113q74 0 111 52.5t37 138.5q0 190 -148 190h-113zM217 652q-17 31 -29.5 54.5t-23.5 45t-23.5 45t-29.5 54.5h132l39 -83l39 83h133
q-16 -30 -29 -53.5t-25.5 -46t-25 -46t-29.5 -53.5h-128z" />
    <glyph glyph-name="dcaron" unicode="&#x10f;" horiz-adv-x="752" 
d="M166 216q0 -30 8.5 -53t22 -39t32 -24.5t37.5 -8.5q24 0 45 7t37 19.5t25 29.5t9 36v67q0 20 -9.5 36t-24.5 27.5t-34 18t-39 6.5q-18 0 -37.5 -4.5t-35 -17t-26 -34t-10.5 -55.5v-11zM234 435q15 0 32.5 -1t36.5 -5.5t39.5 -15t39.5 -29.5v201h135v-585h-127l-8 49
q-20 -21 -43 -32t-45.5 -16t-43 -6t-36.5 -1q-40 0 -73.5 17.5t-58 47.5t-38 70.5t-13.5 86.5q0 49 13 89t39 69t64 45t87 16zM611 585h135q-21 -44 -39.5 -79.5t-39.5 -78.5h-102z" />
    <glyph glyph-name="Dcroat" unicode="&#x110;" horiz-adv-x="639" 
d="M77 350v235h230q84 0 142 -27t93 -69.5t50.5 -94t15.5 -101.5q0 -46 -15.5 -97.5t-50.5 -95t-93 -72t-142 -28.5h-230v248h-71v102h71zM212 483v-133h140v-102h-140v-146h113q74 0 111 52.5t37 138.5q0 190 -148 190h-113z" />
    <glyph glyph-name="dcroat" unicode="&#x111;" horiz-adv-x="575" 
d="M382 544v41h135v-41h52v-83h-52v-461h-127l-8 49q-20 -21 -43 -32t-45.5 -16t-43 -6t-36.5 -1q-40 0 -73.5 17.5t-58 47.5t-38 70.5t-13.5 86.5q0 49 13 89t39 69t64 45t87 16q15 0 32.5 -1t36.5 -5.5t39.5 -15t39.5 -29.5v77h-78v83h78zM166 216q0 -30 8.5 -53t22 -39
t32 -24.5t37.5 -8.5q24 0 45 7t37 19.5t25 29.5t9 36v67q0 20 -9.5 36t-24.5 27.5t-34 18t-39 6.5q-18 0 -37.5 -4.5t-35 -17t-26 -34t-10.5 -55.5v-11z" />
    <glyph glyph-name="Emacron" unicode="&#x112;" horiz-adv-x="518" 
d="M51 585h431v-102h-296v-143h230v-102h-230v-136h296v-102h-431v585zM454 754v-102h-373v102h373z" />
    <glyph glyph-name="emacron" unicode="&#x113;" horiz-adv-x="534" 
d="M487 129q-3 -27 -19 -51t-43.5 -43t-65.5 -30t-84 -11q-71 0 -118 20.5t-75 52t-39.5 71t-11.5 76.5q0 38 11 77.5t38.5 71.5t74 52t117.5 20q70 0 115.5 -20t72.5 -51.5t37.5 -71t10.5 -78.5v-49h-342q6 -45 34.5 -59.5t73.5 -14.5q20 0 43 7.5t34 30.5h136zM271 338
q-16 0 -31.5 -2t-29 -10t-24.5 -23.5t-19 -42.5h208q-8 27 -19 42.5t-24.5 23.5t-29 10t-31.5 2zM465 609v-102h-354v102h354z" />
    <glyph glyph-name="Edotaccent" unicode="&#x116;" horiz-adv-x="518" 
d="M51 585h431v-102h-296v-143h230v-102h-230v-136h296v-102h-431v585zM204 781h132v-129h-132v129z" />
    <glyph glyph-name="edotaccent" unicode="&#x117;" horiz-adv-x="534" 
d="M487 129q-3 -27 -19 -51t-43.5 -43t-65.5 -30t-84 -11q-71 0 -118 20.5t-75 52t-39.5 71t-11.5 76.5q0 38 11 77.5t38.5 71.5t74 52t117.5 20q70 0 115.5 -20t72.5 -51.5t37.5 -71t10.5 -78.5v-49h-342q6 -45 34.5 -59.5t73.5 -14.5q20 0 43 7.5t34 30.5h136zM271 338
q-16 0 -31.5 -2t-29 -10t-24.5 -23.5t-19 -42.5h208q-8 27 -19 42.5t-24.5 23.5t-29 10t-31.5 2zM201 636h132v-129h-132v129z" />
    <glyph glyph-name="Eogonek" unicode="&#x118;" horiz-adv-x="518" 
d="M51 585h431v-102h-296v-143h230v-102h-230v-136h296v-102h-45q-19 -17 -30 -31.5t-11 -40.5q0 -19 15 -32t43 -13h12.5t13.5 2v-84q-12 -2 -29.5 -2h-25.5q-25 0 -49.5 6.5t-44 20t-31.5 33t-12 45.5q0 24 8.5 48.5t31.5 47.5h-277v585z" />
    <glyph glyph-name="eogonek" unicode="&#x119;" horiz-adv-x="534" 
d="M487 129q-5 -47 -49.5 -84.5t-117.5 -47.5q-14 -14 -22 -28t-8 -36q0 -19 15 -32t43 -13h12.5t13.5 2v-84q-12 -2 -29.5 -2h-25.5q-25 0 -49.5 6.5t-44 20t-31.5 33t-12 45.5q0 24 7.5 45t30.5 44q-54 8 -90.5 30t-58.5 52t-31 65t-9 69q0 38 11 77.5t38.5 71.5t74 52
t117.5 20q70 0 115.5 -20t72.5 -51.5t37.5 -71t10.5 -78.5v-49h-342q6 -45 34.5 -59.5t73.5 -14.5q20 0 43 7.5t34 30.5h136zM271 338q-16 0 -31.5 -2t-29 -10t-24.5 -23.5t-19 -42.5h208q-8 27 -19 42.5t-24.5 23.5t-29 10t-31.5 2z" />
    <glyph glyph-name="Ecaron" unicode="&#x11a;" horiz-adv-x="518" 
d="M51 585h431v-102h-296v-143h230v-102h-230v-136h296v-102h-431v585zM216 652q-17 31 -29.5 54.5t-23.5 45t-23.5 45t-29.5 54.5h132l39 -83l39 83h133q-16 -30 -29 -53.5t-25.5 -46t-25 -46t-29.5 -53.5h-128z" />
    <glyph glyph-name="ecaron" unicode="&#x11b;" horiz-adv-x="534" 
d="M487 129q-3 -27 -19 -51t-43.5 -43t-65.5 -30t-84 -11q-71 0 -118 20.5t-75 52t-39.5 71t-11.5 76.5q0 38 11 77.5t38.5 71.5t74 52t117.5 20q70 0 115.5 -20t72.5 -51.5t37.5 -71t10.5 -78.5v-49h-342q6 -45 34.5 -59.5t73.5 -14.5q20 0 43 7.5t34 30.5h136zM271 338
q-16 0 -31.5 -2t-29 -10t-24.5 -23.5t-19 -42.5h208q-8 27 -19 42.5t-24.5 23.5t-29 10t-31.5 2zM208 507q-17 31 -29.5 54.5t-23.5 45t-23.5 45t-29.5 54.5h132l39 -83l39 83h133q-16 -30 -29 -53.5t-25.5 -46t-25 -46t-29.5 -53.5h-128z" />
    <glyph glyph-name="Gcircumflex" unicode="&#x11c;" horiz-adv-x="665" 
d="M336 -6q-85 0 -143.5 27.5t-94.5 71t-51.5 96.5t-15.5 104v4q0 51 15.5 104t51.5 96.5t94 71t143 27.5q64 0 113.5 -15t85 -41.5t57 -61.5t28.5 -75h-140q-5 46 -44 69t-100 23q-38 0 -69 -14.5t-53.5 -40.5t-34.5 -63.5t-12 -83.5q0 -45 12 -81.5t34.5 -62.5t53.5 -40
t69 -14q69 0 108.5 26t60.5 89h-111v97h224v-307h-96l-6 56q-44 -38 -87.5 -50t-91.5 -12zM400 851q17 -30 29.5 -53.5t25 -46t25.5 -46t29 -53.5h-133l-39 83l-39 -83h-132q17 31 29.5 54.5t23.5 45t23.5 45t29.5 54.5h128z" />
    <glyph glyph-name="gcircumflex" unicode="&#x11d;" horiz-adv-x="568" 
d="M166 216q0 -30 8.5 -53t22 -39t32 -24.5t37.5 -8.5q24 0 45 7t37 19.5t25 29.5t9 36v67q0 20 -9.5 36t-24.5 27.5t-34 18t-39 6.5q-18 0 -37.5 -4.5t-35 -17t-26 -34t-10.5 -55.5v-11zM382 49q-20 -21 -43 -32t-45.5 -16t-43 -6t-36.5 -1q-40 0 -73.5 17.5t-58 47.5
t-38 70.5t-13.5 86.5q0 49 13 89t39 69t64 45t87 16q15 0 32.5 -1t36.5 -5.5t39.5 -15t39.5 -29.5l8 41h127v-396q0 -54 -11.5 -97t-39 -73t-74 -46t-117.5 -16q-48 0 -86.5 13t-67 33t-46.5 44t-23 47h146q14 -26 35 -33t48 -7q54 0 77.5 26t23.5 74v55zM342 706
q17 -30 29.5 -53.5t25 -46t25.5 -46t29 -53.5h-133l-39 83l-39 -83h-132q17 31 29.5 54.5t23.5 45t23.5 45t29.5 54.5h128z" />
    <glyph glyph-name="Gbreve" unicode="&#x11e;" horiz-adv-x="665" 
d="M336 -6q-85 0 -143.5 27.5t-94.5 71t-51.5 96.5t-15.5 104v4q0 51 15.5 104t51.5 96.5t94 71t143 27.5q64 0 113.5 -15t85 -41.5t57 -61.5t28.5 -75h-140q-5 46 -44 69t-100 23q-38 0 -69 -14.5t-53.5 -40.5t-34.5 -63.5t-12 -83.5q0 -45 12 -81.5t34.5 -62.5t53.5 -40
t69 -14q69 0 108.5 26t60.5 89h-111v97h224v-307h-96l-6 56q-44 -38 -87.5 -50t-91.5 -12zM343 652q-32 0 -62.5 7.5t-54.5 25t-38.5 45t-14.5 66.5h93q8 -32 29.5 -45t47.5 -13t47 13t29 45h94q0 -39 -14.5 -66.5t-38.5 -45t-54.5 -25t-62.5 -7.5z" />
    <glyph glyph-name="gbreve" unicode="&#x11f;" horiz-adv-x="568" 
d="M166 216q0 -30 8.5 -53t22 -39t32 -24.5t37.5 -8.5q24 0 45 7t37 19.5t25 29.5t9 36v67q0 20 -9.5 36t-24.5 27.5t-34 18t-39 6.5q-18 0 -37.5 -4.5t-35 -17t-26 -34t-10.5 -55.5v-11zM382 49q-20 -21 -43 -32t-45.5 -16t-43 -6t-36.5 -1q-40 0 -73.5 17.5t-58 47.5
t-38 70.5t-13.5 86.5q0 49 13 89t39 69t64 45t87 16q15 0 32.5 -1t36.5 -5.5t39.5 -15t39.5 -29.5l8 41h127v-396q0 -54 -11.5 -97t-39 -73t-74 -46t-117.5 -16q-48 0 -86.5 13t-67 33t-46.5 44t-23 47h146q14 -26 35 -33t48 -7q54 0 77.5 26t23.5 74v55zM268 507
q-32 0 -62.5 7.5t-54.5 25t-38.5 45t-14.5 66.5h93q8 -32 29.5 -45t47.5 -13t47 13t29 45h94q0 -39 -14.5 -66.5t-38.5 -45t-54.5 -25t-62.5 -7.5z" />
    <glyph glyph-name="Gdotaccent" unicode="&#x120;" horiz-adv-x="665" 
d="M336 -6q-85 0 -143.5 27.5t-94.5 71t-51.5 96.5t-15.5 104v4q0 51 15.5 104t51.5 96.5t94 71t143 27.5q64 0 113.5 -15t85 -41.5t57 -61.5t28.5 -75h-140q-5 46 -44 69t-100 23q-38 0 -69 -14.5t-53.5 -40.5t-34.5 -63.5t-12 -83.5q0 -45 12 -81.5t34.5 -62.5t53.5 -40
t69 -14q69 0 108.5 26t60.5 89h-111v97h224v-307h-96l-6 56q-44 -38 -87.5 -50t-91.5 -12zM267 781h132v-129h-132v129z" />
    <glyph glyph-name="gdotaccent" unicode="&#x121;" horiz-adv-x="568" 
d="M166 216q0 -30 8.5 -53t22 -39t32 -24.5t37.5 -8.5q24 0 45 7t37 19.5t25 29.5t9 36v67q0 20 -9.5 36t-24.5 27.5t-34 18t-39 6.5q-18 0 -37.5 -4.5t-35 -17t-26 -34t-10.5 -55.5v-11zM382 49q-20 -21 -43 -32t-45.5 -16t-43 -6t-36.5 -1q-40 0 -73.5 17.5t-58 47.5
t-38 70.5t-13.5 86.5q0 49 13 89t39 69t64 45t87 16q15 0 32.5 -1t36.5 -5.5t39.5 -15t39.5 -29.5l8 41h127v-396q0 -54 -11.5 -97t-39 -73t-74 -46t-117.5 -16q-48 0 -86.5 13t-67 33t-46.5 44t-23 47h146q14 -26 35 -33t48 -7q54 0 77.5 26t23.5 74v55zM198 636h132v-129
h-132v129z" />
    <glyph glyph-name="uni0122" unicode="&#x122;" horiz-adv-x="665" 
d="M336 -6q-85 0 -143.5 27.5t-94.5 71t-51.5 96.5t-15.5 104v4q0 51 15.5 104t51.5 96.5t94 71t143 27.5q64 0 113.5 -15t85 -41.5t57 -61.5t28.5 -75h-140q-5 46 -44 69t-100 23q-38 0 -69 -14.5t-53.5 -40.5t-34.5 -63.5t-12 -83.5q0 -45 12 -81.5t34.5 -62.5t53.5 -40
t69 -14q69 0 108.5 26t60.5 89h-111v97h224v-307h-96l-6 56q-44 -38 -87.5 -50t-91.5 -12zM273 -91h124l-56 -154h-101z" />
    <glyph glyph-name="uni0123" unicode="&#x123;" horiz-adv-x="568" 
d="M166 216q0 -30 8.5 -53t22 -39t32 -24.5t37.5 -8.5q24 0 45 7t37 19.5t25 29.5t9 36v67q0 20 -9.5 36t-24.5 27.5t-34 18t-39 6.5q-18 0 -37.5 -4.5t-35 -17t-26 -34t-10.5 -55.5v-11zM382 49q-20 -21 -43 -32t-45.5 -16t-43 -6t-36.5 -1q-40 0 -73.5 17.5t-58 47.5
t-38 70.5t-13.5 86.5q0 49 13 89t39 69t64 45t87 16q15 0 32.5 -1t36.5 -5.5t39.5 -15t39.5 -29.5l8 41h127v-396q0 -54 -11.5 -97t-39 -73t-74 -46t-117.5 -16q-48 0 -86.5 13t-67 33t-46.5 44t-23 47h146q14 -26 35 -33t48 -7q54 0 77.5 26t23.5 74v55zM335 507h-124
l56 154h101z" />
    <glyph glyph-name="Hcircumflex" unicode="&#x124;" horiz-adv-x="613" 
d="M186 0h-135v585h135v-252h241v252h135v-585h-135v229h-241v-229zM370 851q17 -30 29.5 -53.5t25 -46t25.5 -46t29 -53.5h-133l-39 83l-39 -83h-132q17 31 29.5 54.5t23.5 45t23.5 45t29.5 54.5h128z" />
    <glyph glyph-name="hcircumflex" unicode="&#x125;" 
d="M186 385q18 19 38.5 29t39.5 14.5t36 5.5t28 1q88 0 137 -49t49 -140v-246h-135v231q0 34 -7.5 55t-20 32.5t-29 15.5t-34.5 4t-36 -7.5t-32.5 -21t-24 -30.5t-9.5 -37v-242h-135v585h135v-200zM290 851q17 -30 29.5 -53.5t25 -46t25.5 -46t29 -53.5h-133l-39 83l-39 -83
h-132q17 31 29.5 54.5t23.5 45t23.5 45t29.5 54.5h128z" />
    <glyph glyph-name="Hbar" unicode="&#x126;" horiz-adv-x="657" 
d="M651 405h-67v-405h-135v229h-241v-229h-135v405h-67v102h67v78h135v-78h241v78h135v-78h67v-102zM449 405h-241v-72h241v72z" />
    <glyph glyph-name="hbar" unicode="&#x127;" horiz-adv-x="562" 
d="M6 461v83h52v41h135v-41h78v-83h-78v-76q18 19 38.5 29t39.5 14.5t36 5.5t28 1q88 0 137 -49t49 -140v-246h-135v231q0 34 -7.5 55t-20 32.5t-29 15.5t-34.5 4t-36 -7.5t-32.5 -21t-24 -30.5t-9.5 -37v-242h-135v461h-52z" />
    <glyph glyph-name="Itilde" unicode="&#x128;" horiz-adv-x="239" 
d="M52 585h135v-585h-135v585zM194 652q-16 0 -33 5.5t-43 15.5q-19 8 -36.5 12t-34.5 4q-9 0 -26.5 -3t-34.5 -8q-7 26 -13 46t-14 45q23 14 48.5 18t39.5 4q17 0 33 -5t32 -11q19 -8 39 -14.5t43 -6.5q11 0 27.5 2.5t33.5 7.5q8 -25 14 -45.5t13 -44.5q-23 -14 -48 -18
t-40 -4z" />
    <glyph glyph-name="itilde" unicode="&#x129;" horiz-adv-x="239" 
d="M52 425h135v-425h-135v425zM194 507q-16 0 -33 5.5t-43 15.5q-19 8 -36.5 12t-34.5 4q-9 0 -26.5 -3t-34.5 -8q-7 26 -13 46t-14 45q23 14 48.5 18t39.5 4q17 0 33 -5t32 -11q19 -8 39 -14.5t43 -6.5q11 0 27.5 2.5t33.5 7.5q8 -25 14 -45.5t13 -44.5q-23 -14 -48 -18
t-40 -4z" />
    <glyph glyph-name="Imacron" unicode="&#x12a;" horiz-adv-x="239" 
d="M52 585h135v-585h-135v585zM258 754v-102h-278v102h278z" />
    <glyph glyph-name="imacron" unicode="&#x12b;" horiz-adv-x="237" 
d="M51 425h135v-425h-135v425zM257 609v-102h-278v102h278z" />
    <glyph glyph-name="Iogonek" unicode="&#x12e;" horiz-adv-x="237" 
d="M161 0q-15 -14 -20.5 -28t-5.5 -37q0 -19 12 -32t40 -13v-82q-10 -2 -17.5 -2h-11.5q-50 0 -86.5 26.5t-36.5 78.5q0 23 8.5 45t35.5 44h-28v585h135v-585h-25z" />
    <glyph glyph-name="iogonek" unicode="&#x12f;" horiz-adv-x="239" 
d="M162 0q-15 -14 -20.5 -28t-5.5 -37q0 -19 12 -32t40 -13v-82q-10 -2 -17.5 -2h-11.5q-50 0 -86.5 26.5t-36.5 78.5q0 23 8.5 45t35.5 44h-28v425h135v-425h-25zM52 585h135v-111h-135v111z" />
    <glyph glyph-name="Idotaccent" unicode="&#x130;" horiz-adv-x="239" 
d="M52 585h135v-585h-135v585zM52 763h135v-111h-135v111z" />
    <glyph glyph-name="dotlessi" unicode="&#x131;" horiz-adv-x="237" 
d="M51 425h135v-425h-135v425z" />
    <glyph glyph-name="Jcircumflex" unicode="&#x134;" horiz-adv-x="539" 
d="M256 -6q-65 0 -109.5 16.5t-73 43.5t-42 62t-15.5 72h141q1 -28 9 -46t21.5 -28.5t31 -14.5t37.5 -4q21 0 38.5 4.5t30.5 17t20.5 34t7.5 54.5v380h135v-380q0 -38 -11 -76t-37.5 -68t-71 -48.5t-112.5 -18.5zM374 851q17 -30 29.5 -53.5t25 -46t25.5 -46t29 -53.5h-133
l-39 83l-39 -83h-132q17 31 29.5 54.5t23.5 45t23.5 45t29.5 54.5h128z" />
    <glyph glyph-name="jcircumflex" unicode="&#x135;" horiz-adv-x="239" 
d="M-62 -102q11 -4 26 -4.5t23 -0.5q22 0 35 5.5t19.5 14.5t8.5 21t2 25v466h135v-449q0 -89 -34.5 -139t-112.5 -50q-17 0 -46.5 1.5t-55.5 5.5v104zM182 706q17 -30 29.5 -53.5t25 -46t25.5 -46t29 -53.5h-133l-39 83l-39 -83h-132q17 31 29.5 54.5t23.5 45t23.5 45
t29.5 54.5h128z" />
    <glyph glyph-name="uni0136" unicode="&#x136;" horiz-adv-x="638" 
d="M317 296l-131 -134v-162h-135v585h135v-246l239 246h172l-181 -188l211 -397h-152zM264 -91h124l-56 -154h-101z" />
    <glyph glyph-name="uni0137" unicode="&#x137;" horiz-adv-x="524" 
d="M188 191v-191h-137v585h137v-303h14l137 143h174l-190 -200l189 -225h-165zM204 -91h124l-56 -154h-101z" />
    <glyph glyph-name="kgreenlandic" unicode="&#x138;" horiz-adv-x="524" 
d="M188 191v-191h-137v425h137v-143h14l137 143h174l-190 -200l189 -225h-165z" />
    <glyph glyph-name="Lacute" unicode="&#x139;" horiz-adv-x="513" 
d="M51 585h135v-483h301v-102h-436v585zM130 813h161l-122 -161h-112z" />
    <glyph glyph-name="lacute" unicode="&#x13a;" horiz-adv-x="239" 
d="M187 0h-135v585h135v-585zM137 813h161l-122 -161h-112z" />
    <glyph glyph-name="uni013B" unicode="&#x13b;" horiz-adv-x="513" 
d="M51 585h135v-483h301v-102h-436v585zM201 -91h124l-56 -154h-101z" />
    <glyph glyph-name="uni013C" unicode="&#x13c;" horiz-adv-x="239" 
d="M52 585h135v-585h-135v585zM60 -91h124l-56 -154h-101z" />
    <glyph glyph-name="Lcaron" unicode="&#x13d;" horiz-adv-x="513" 
d="M340 585h135q-21 -44 -39.5 -79.5t-39.5 -78.5h-102zM51 585h135v-483h301v-102h-436v585z" />
    <glyph glyph-name="lcaron" unicode="&#x13e;" horiz-adv-x="421" 
d="M51 585h135v-585h-135v585zM280 585h135q-21 -44 -39.5 -79.5t-39.5 -78.5h-102z" />
    <glyph glyph-name="Lslash" unicode="&#x141;" horiz-adv-x="584" 
d="M122 356v229h135v-195l108 28v-99l-108 -28v-189h301v-102h-436v256l-106 -27v100z" />
    <glyph glyph-name="lslash" unicode="&#x142;" horiz-adv-x="381" 
d="M123 356v229h135v-194l107 27v-99l-107 -28v-291h-135v256l-107 -27v100z" />
    <glyph glyph-name="Nacute" unicode="&#x143;" horiz-adv-x="659" 
d="M343 813h161l-122 -161h-112zM186 389v-389h-135v585h163l259 -425v425h135v-585h-184z" />
    <glyph glyph-name="nacute" unicode="&#x144;" 
d="M186 385q18 19 38.5 29t39.5 14.5t36 5.5t28 1q88 0 137 -49t49 -140v-246h-135v231q0 34 -7.5 55t-20 32.5t-29 15.5t-34.5 4t-36 -7.5t-32.5 -21t-24 -30.5t-9.5 -37v-242h-135v425h127zM318 668h161l-122 -161h-112z" />
    <glyph glyph-name="uni0145" unicode="&#x145;" horiz-adv-x="659" 
d="M302 -91h124l-56 -154h-101zM186 389v-389h-135v585h163l259 -425v425h135v-585h-184z" />
    <glyph glyph-name="uni0146" unicode="&#x146;" 
d="M186 385q18 19 38.5 29t39.5 14.5t36 5.5t28 1q88 0 137 -49t49 -140v-246h-135v231q0 34 -7.5 55t-20 32.5t-29 15.5t-34.5 4t-36 -7.5t-32.5 -21t-24 -30.5t-9.5 -37v-242h-135v425h127zM225 -91h124l-56 -154h-101z" />
    <glyph glyph-name="Ncaron" unicode="&#x147;" horiz-adv-x="659" 
d="M273 652q-17 31 -29.5 54.5t-23.5 45t-23.5 45t-29.5 54.5h132l39 -83l39 83h133q-16 -30 -29 -53.5t-25.5 -46t-25 -46t-29.5 -53.5h-128zM186 389v-389h-135v585h163l259 -425v425h135v-585h-184z" />
    <glyph glyph-name="ncaron" unicode="&#x148;" 
d="M186 385q18 19 38.5 29t39.5 14.5t36 5.5t28 1q88 0 137 -49t49 -140v-246h-135v231q0 34 -7.5 55t-20 32.5t-29 15.5t-34.5 4t-36 -7.5t-32.5 -21t-24 -30.5t-9.5 -37v-242h-135v425h127zM234 507q-17 31 -29.5 54.5t-23.5 45t-23.5 45t-29.5 54.5h132l39 -83l39 83h133
q-16 -30 -29 -53.5t-25.5 -46t-25 -46t-29.5 -53.5h-128z" />
    <glyph glyph-name="Eng" unicode="&#x14a;" horiz-adv-x="659" 
d="M186 389v-389h-135v585h163l259 -425v425h135v-609q0 -89 -34.5 -139t-112.5 -50q-17 0 -46.5 1.5t-55.5 5.5v104q11 -4 26 -4.5t23 -0.5q31 0 48 12.5t17 32.5z" />
    <glyph glyph-name="eng" unicode="&#x14b;" 
d="M265 -102q11 -4 26 -4.5t23 -0.5q22 0 35 5.5t19.5 14.5t8.5 21t2 25v272q0 34 -7.5 55t-20 32.5t-29 15.5t-34.5 4t-36 -7.5t-32.5 -21t-24 -30.5t-9.5 -37v-242h-135v425h127l8 -40q18 19 38.5 29t39.5 14.5t36 5.5t28 1q88 0 137 -49t49 -140v-270q0 -89 -34.5 -139
t-112.5 -50q-17 0 -46.5 1.5t-55.5 5.5v104z" />
    <glyph glyph-name="Omacron" unicode="&#x14c;" horiz-adv-x="664" 
d="M332 95q38 0 69 14t52.5 39.5t33 60.5t11.5 78q0 45 -11.5 83.5t-33 66t-52.5 43t-69 15.5t-69 -15.5t-52.5 -43t-33 -66t-11.5 -83.5q0 -43 11.5 -78t33 -60.5t52.5 -39.5t69 -14zM332 -6q-85 0 -142.5 28.5t-92.5 72t-50.5 95t-15.5 97.5q0 49 15.5 103.5t50.5 100
t92.5 75.5t142.5 30t142.5 -30t93 -75.5t50.5 -100t15 -103.5q0 -46 -15 -97.5t-50.5 -95t-93 -72t-142.5 -28.5zM509 754v-102h-354v102h354z" />
    <glyph glyph-name="omacron" unicode="&#x14d;" horiz-adv-x="556" 
d="M525 214q0 -39 -12 -78.5t-40.5 -71t-76 -51t-118.5 -19.5t-118.5 19.5t-76 51t-40.5 71t-12 78.5t12 78.5t40.5 71t76 51.5t118.5 20t118.5 -20t76 -51.5t40.5 -71t12 -78.5zM390 214q0 66 -32.5 95t-79.5 29q-46 0 -79 -29t-33 -95t33 -94.5t79 -28.5q47 0 79.5 28.5
t32.5 94.5zM465 609v-102h-373v102h373z" />
    <glyph glyph-name="Ohungarumlaut" unicode="&#x150;" horiz-adv-x="664" 
d="M332 95q38 0 69 14t52.5 39.5t33 60.5t11.5 78q0 45 -11.5 83.5t-33 66t-52.5 43t-69 15.5t-69 -15.5t-52.5 -43t-33 -66t-11.5 -83.5q0 -43 11.5 -78t33 -60.5t52.5 -39.5t69 -14zM332 -6q-85 0 -142.5 28.5t-92.5 72t-50.5 95t-15.5 97.5q0 49 15.5 103.5t50.5 100
t92.5 75.5t142.5 30t142.5 -30t93 -75.5t50.5 -100t15 -103.5q0 -46 -15 -97.5t-50.5 -95t-93 -72t-142.5 -28.5zM225 805h115l-34 -153h-114zM390 805h115l-34 -153h-114z" />
    <glyph glyph-name="ohungarumlaut" unicode="&#x151;" horiz-adv-x="556" 
d="M525 214q0 -39 -12 -78.5t-40.5 -71t-76 -51t-118.5 -19.5t-118.5 19.5t-76 51t-40.5 71t-12 78.5t12 78.5t40.5 71t76 51.5t118.5 20t118.5 -20t76 -51.5t40.5 -71t12 -78.5zM390 214q0 66 -32.5 95t-79.5 29q-46 0 -79 -29t-33 -95t33 -94.5t79 -28.5q47 0 79.5 28.5
t32.5 94.5zM176 660h115l-34 -153h-114zM341 660h115l-34 -153h-114z" />
    <glyph glyph-name="OE" unicode="&#x152;" horiz-adv-x="951" 
d="M31 297q0 51 15.5 104t51.5 96.5t94 71t143 27.5q51 0 97 -11h483v-102h-296v-143h230v-102h-230v-136h296v-102h-506q-34 -6 -74 -6q-85 0 -143 27.5t-94 71t-51.5 96.5t-15.5 104v4zM335 95q59 0 100 21t49 64v229q-8 43 -49 64.5t-100 21.5q-38 0 -69 -14.5
t-53.5 -40.5t-34.5 -63.5t-12 -83.5q0 -45 12 -81.5t34.5 -62.5t53.5 -40t69 -14z" />
    <glyph glyph-name="oe" unicode="&#x153;" horiz-adv-x="893" 
d="M846 129q-3 -27 -19 -51t-43.5 -43t-65.5 -30t-84 -11q-62 0 -105 15t-72 41q-29 -26 -72.5 -41t-106.5 -15q-71 0 -118.5 19.5t-76 51t-40.5 71t-12 78.5t12 78.5t40.5 71t76 51.5t118.5 20q62 0 105.5 -15t72.5 -41q28 26 70.5 41t104.5 15q70 0 115.5 -20t72.5 -51.5
t37.5 -71t10.5 -78.5v-49h-342q6 -45 34.5 -59.5t73.5 -14.5q20 0 43 7.5t34 30.5h136zM390 220q-2 63 -34.5 90.5t-77.5 27.5q-46 0 -79 -29t-33 -95t33 -94.5t79 -28.5q47 0 79.5 28.5t32.5 94.5v6zM630 338q-16 0 -31.5 -2t-29 -10t-24.5 -23.5t-19 -42.5h208
q-8 27 -19 42.5t-24.5 23.5t-29 10t-31.5 2z" />
    <glyph glyph-name="Racute" unicode="&#x154;" horiz-adv-x="577" 
d="M51 0v585h265q68 0 113.5 -19.5t73.5 -49.5t40 -66t12 -69q0 -23 -6 -48.5t-19.5 -49.5t-34.5 -45.5t-52 -36.5l94 -201h-149l-82 175h-120v-175h-135zM186 277h132q44 0 73 27.5t29 75.5t-29 75.5t-73 27.5h-132v-206zM212 652h112l122 161h-161z" />
    <glyph glyph-name="racute" unicode="&#x155;" horiz-adv-x="397" 
d="M190 382q12 20 31 30.5t39.5 15.5t38.5 6t29 1q14 0 31 -3t22 -5v-102q-15 4 -31 6t-27 2q-25 0 -50 -7t-44 -20.5t-31 -31.5t-12 -41v-233h-135v425h133zM132 668h161l-122 -161h-112z" />
    <glyph glyph-name="uni0156" unicode="&#x156;" horiz-adv-x="577" 
d="M51 0v585h265q68 0 113.5 -19.5t73.5 -49.5t40 -66t12 -69q0 -23 -6 -48.5t-19.5 -49.5t-34.5 -45.5t-52 -36.5l94 -201h-149l-82 175h-120v-175h-135zM186 277h132q44 0 73 27.5t29 75.5t-29 75.5t-73 27.5h-132v-206zM227 -91h124l-56 -154h-101z" />
    <glyph glyph-name="uni0157" unicode="&#x157;" horiz-adv-x="397" 
d="M190 382q12 20 31 30.5t39.5 15.5t38.5 6t29 1q14 0 31 -3t22 -5v-102q-15 4 -31 6t-27 2q-25 0 -50 -7t-44 -20.5t-31 -31.5t-12 -41v-233h-135v425h133zM87 -91h124l-56 -154h-101z" />
    <glyph glyph-name="Rcaron" unicode="&#x158;" horiz-adv-x="577" 
d="M51 0v585h265q68 0 113.5 -19.5t73.5 -49.5t40 -66t12 -69q0 -23 -6 -48.5t-19.5 -49.5t-34.5 -45.5t-52 -36.5l94 -201h-149l-82 175h-120v-175h-135zM186 277h132q44 0 73 27.5t29 75.5t-29 75.5t-73 27.5h-132v-206zM225 652q-17 31 -29.5 54.5t-23.5 45t-23.5 45
t-29.5 54.5h132l39 -83l39 83h133q-16 -30 -29 -53.5t-25.5 -46t-25 -46t-29.5 -53.5h-128z" />
    <glyph glyph-name="rcaron" unicode="&#x159;" horiz-adv-x="397" 
d="M190 382q12 20 31 30.5t39.5 15.5t38.5 6t29 1q14 0 31 -3t22 -5v-102q-15 4 -31 6t-27 2q-25 0 -50 -7t-44 -20.5t-31 -31.5t-12 -41v-233h-135v425h133zM152 507q-16 29 -28 51.5t-22.5 43.5t-22.5 43.5t-28 51.5h126l37 -79l38 79h126q-16 -28 -28 -50.5t-24 -44
t-24 -44t-28 -51.5h-122z" />
    <glyph glyph-name="Sacute" unicode="&#x15a;" horiz-adv-x="615" 
d="M318 -6q-49 0 -99 10t-90 31.5t-65.5 56t-25.5 83.5h165q0 -44 32.5 -62t83.5 -18q69 0 95 16t26 56q0 17 -11.5 28t-32 19t-47.5 13.5t-57 11.5q-42 8 -87.5 18.5t-83 30.5t-61.5 52.5t-24 83.5q0 36 12.5 67t42.5 54.5t79.5 37t123.5 13.5q49 0 97.5 -10t86.5 -31.5
t62 -56t24 -83.5h-165q0 44 -26.5 62t-77.5 18q-37 0 -60.5 -6t-36.5 -15.5t-18 -20.5t-5 -22q0 -18 13.5 -31t36.5 -22t53.5 -15.5t63.5 -13.5q41 -8 83 -20t76 -32t56 -49t22 -70q0 -40 -13 -74t-44 -58.5t-80.5 -38t-123.5 -13.5zM252 652h112l122 161h-161z" />
    <glyph glyph-name="sacute" unicode="&#x15b;" horiz-adv-x="481" 
d="M455 137q0 -30 -12 -56.5t-37.5 -45.5t-65 -30t-94.5 -11q-39 0 -74 6.5t-63.5 21.5t-48.5 40t-29 62h134q9 -17 26.5 -28.5t49.5 -11.5q26 0 41.5 3.5t23.5 9.5t11 13t3 13q0 17 -27.5 24t-69.5 15q-36 6 -70.5 16t-60.5 25.5t-42 38t-16 55.5q0 31 11 56.5t35 43.5
t62 28t93 10q78 0 131.5 -29t71.5 -101h-135q-8 19 -20.5 29.5t-47.5 10.5q-22 0 -35.5 -4.5t-20 -10.5t-8.5 -13t-2 -12q0 -14 18 -23.5t43.5 -16t53 -11.5t47.5 -9q53 -11 88.5 -35.5t35.5 -72.5zM168 507h112l122 161h-161z" />
    <glyph glyph-name="Scircumflex" unicode="&#x15c;" horiz-adv-x="615" 
d="M318 -6q-49 0 -99 10t-90 31.5t-65.5 56t-25.5 83.5h165q0 -44 32.5 -62t83.5 -18q69 0 95 16t26 56q0 17 -11.5 28t-32 19t-47.5 13.5t-57 11.5q-42 8 -87.5 18.5t-83 30.5t-61.5 52.5t-24 83.5q0 36 12.5 67t42.5 54.5t79.5 37t123.5 13.5q49 0 97.5 -10t86.5 -31.5
t62 -56t24 -83.5h-165q0 44 -26.5 62t-77.5 18q-37 0 -60.5 -6t-36.5 -15.5t-18 -20.5t-5 -22q0 -18 13.5 -31t36.5 -22t53.5 -15.5t63.5 -13.5q41 -8 83 -20t76 -32t56 -49t22 -70q0 -40 -13 -74t-44 -58.5t-80.5 -38t-123.5 -13.5zM353 851q17 -30 29.5 -53.5t25 -46
t25.5 -46t29 -53.5h-133l-39 83l-39 -83h-132q17 31 29.5 54.5t23.5 45t23.5 45t29.5 54.5h128z" />
    <glyph glyph-name="scircumflex" unicode="&#x15d;" horiz-adv-x="481" 
d="M455 137q0 -30 -12 -56.5t-37.5 -45.5t-65 -30t-94.5 -11q-39 0 -74 6.5t-63.5 21.5t-48.5 40t-29 62h134q9 -17 26.5 -28.5t49.5 -11.5q26 0 41.5 3.5t23.5 9.5t11 13t3 13q0 17 -27.5 24t-69.5 15q-36 6 -70.5 16t-60.5 25.5t-42 38t-16 55.5q0 31 11 56.5t35 43.5
t62 28t93 10q78 0 131.5 -29t71.5 -101h-135q-8 19 -20.5 29.5t-47.5 10.5q-22 0 -35.5 -4.5t-20 -10.5t-8.5 -13t-2 -12q0 -14 18 -23.5t43.5 -16t53 -11.5t47.5 -9q53 -11 88.5 -35.5t35.5 -72.5zM309 706q17 -30 29.5 -53.5t25 -46t25.5 -46t29 -53.5h-133l-39 83
l-39 -83h-132q17 31 29.5 54.5t23.5 45t23.5 45t29.5 54.5h128z" />
    <glyph glyph-name="Scedilla" unicode="&#x15e;" horiz-adv-x="615" 
d="M38 175h165q0 -44 32.5 -62t83.5 -18q69 0 95 16t26 56q0 17 -11.5 28t-32 19t-47.5 13.5t-57 11.5q-42 8 -87.5 18.5t-83 30.5t-61.5 52.5t-24 83.5q0 36 12.5 67t42.5 54.5t79.5 37t123.5 13.5q49 0 97.5 -10t86.5 -31.5t62 -56t24 -83.5h-165q0 44 -26.5 62t-77.5 18
q-37 0 -60.5 -6t-36.5 -15.5t-18 -20.5t-5 -22q0 -18 13.5 -31t36.5 -22t53.5 -15.5t63.5 -13.5q41 -8 83 -20t76 -32t56 -49t22 -70q0 -37 -11 -68.5t-36.5 -55.5t-66 -39t-100.5 -19v-47q25 -4 45 -16q18 -10 31.5 -28.5t13.5 -50.5q0 -25 -11 -44.5t-30 -33.5
t-43.5 -21.5t-50.5 -7.5q-25 0 -48.5 4t-34.5 6v82q8 -3 17.5 -4t19.5 -1t21.5 1.5t21.5 5.5t17 11t7 18q-3 22 -24 26.5t-50 9.5v91q-43 4 -84 16t-73 33.5t-52 53.5t-20 75z" />
    <glyph glyph-name="scedilla" unicode="&#x15f;" horiz-adv-x="481" 
d="M455 137q0 -54 -38 -92.5t-123 -48.5v-36q25 -4 45 -16q18 -10 31.5 -28.5t13.5 -50.5q0 -25 -11 -44.5t-30 -33.5t-43.5 -21.5t-50.5 -7.5q-25 0 -48.5 4t-34.5 6v82q8 -3 17.5 -4t19.5 -1t21.5 1.5t21.5 5.5t17 11t7 18q-3 22 -24 26.5t-50 9.5l3 79q-63 7 -108.5 36
t-59.5 92h134q9 -17 26.5 -28.5t49.5 -11.5q26 0 41.5 3.5t23.5 9.5t11 13t3 13q0 17 -27.5 24t-69.5 15q-36 6 -70.5 16t-60.5 25.5t-42 38t-16 55.5q0 31 11 56.5t35 43.5t62 28t93 10q78 0 131.5 -29t71.5 -101h-135q-8 19 -20.5 29.5t-47.5 10.5q-22 0 -35.5 -4.5
t-20 -10.5t-8.5 -13t-2 -12q0 -14 18 -23.5t43.5 -16t53 -11.5t47.5 -9q53 -11 88.5 -35.5t35.5 -72.5z" />
    <glyph glyph-name="Scaron" unicode="&#x160;" horiz-adv-x="615" 
d="M318 -6q-49 0 -99 10t-90 31.5t-65.5 56t-25.5 83.5h165q0 -44 32.5 -62t83.5 -18q69 0 95 16t26 56q0 17 -11.5 28t-32 19t-47.5 13.5t-57 11.5q-42 8 -87.5 18.5t-83 30.5t-61.5 52.5t-24 83.5q0 36 12.5 67t42.5 54.5t79.5 37t123.5 13.5q49 0 97.5 -10t86.5 -31.5
t62 -56t24 -83.5h-165q0 44 -26.5 62t-77.5 18q-37 0 -60.5 -6t-36.5 -15.5t-18 -20.5t-5 -22q0 -18 13.5 -31t36.5 -22t53.5 -15.5t63.5 -13.5q41 -8 83 -20t76 -32t56 -49t22 -70q0 -40 -13 -74t-44 -58.5t-80.5 -38t-123.5 -13.5zM242 652q-17 31 -29.5 54.5t-23.5 45
t-23.5 45t-29.5 54.5h132l39 -83l39 83h133q-16 -30 -29 -53.5t-25.5 -46t-25 -46t-29.5 -53.5h-128z" />
    <glyph glyph-name="scaron" unicode="&#x161;" horiz-adv-x="481" 
d="M455 137q0 -30 -12 -56.5t-37.5 -45.5t-65 -30t-94.5 -11q-39 0 -74 6.5t-63.5 21.5t-48.5 40t-29 62h134q9 -17 26.5 -28.5t49.5 -11.5q26 0 41.5 3.5t23.5 9.5t11 13t3 13q0 17 -27.5 24t-69.5 15q-36 6 -70.5 16t-60.5 25.5t-42 38t-16 55.5q0 31 11 56.5t35 43.5
t62 28t93 10q78 0 131.5 -29t71.5 -101h-135q-8 19 -20.5 29.5t-47.5 10.5q-22 0 -35.5 -4.5t-20 -10.5t-8.5 -13t-2 -12q0 -14 18 -23.5t43.5 -16t53 -11.5t47.5 -9q53 -11 88.5 -35.5t35.5 -72.5zM173 507q-17 31 -29.5 54.5t-23.5 45t-23.5 45t-29.5 54.5h132l39 -83
l39 83h133q-16 -30 -29 -53.5t-25.5 -46t-25 -46t-29.5 -53.5h-128z" />
    <glyph glyph-name="uni0162" unicode="&#x162;" horiz-adv-x="521" 
d="M303 0q-15 -14 -20.5 -28t-5.5 -37q0 -19 12 -32t40 -13v-82q-10 -2 -17.5 -2h-11.5q-50 0 -86.5 26.5t-36.5 78.5q0 23 8.5 45t35.5 44h-28v483h-177v102h489v-102h-177v-483h-25z" />
    <glyph glyph-name="uni0163" unicode="&#x163;" horiz-adv-x="381" 
d="M238 323v-157q0 -32 18 -50.5t58 -18.5q5 0 14 0.5t17 1.5v-95q-20 -5 -48.5 -7t-47.5 -3h-6v-45q25 -4 45 -16q18 -10 31.5 -28.5t13.5 -50.5q0 -25 -11 -44.5t-30 -33.5t-43.5 -21.5t-50.5 -7.5q-25 0 -48.5 4t-34.5 6v82q8 -3 17.5 -4t19.5 -1t21.5 1.5t21.5 5.5
t17 11t7 18q-3 22 -23.5 26.5t-48.5 9.5v122q-24 23 -34.5 60t-10.5 90v145h-81v102h81v127l136 36v-163h107v-102h-107z" />
    <glyph glyph-name="Tcaron" unicode="&#x164;" horiz-adv-x="521" 
d="M328 0h-135v483h-177v102h489v-102h-177v-483zM195 652q-17 31 -29.5 54.5t-23.5 45t-23.5 45t-29.5 54.5h132l39 -83l39 83h133q-16 -30 -29 -53.5t-25.5 -46t-25 -46t-29.5 -53.5h-128z" />
    <glyph glyph-name="tcaron" unicode="&#x165;" horiz-adv-x="463" 
d="M249 -6q-80 0 -113.5 46.5t-33.5 137.5v145h-81v102h81v127l136 36v-163h107v-102h-107v-157q0 -32 18 -50.5t58 -18.5q5 0 14 0.5t17 1.5v-95q-20 -5 -48.5 -7t-47.5 -3zM341 593h116q-10 -28 -21.5 -57t-22.5 -56h-117z" />
    <glyph glyph-name="Tbar" unicode="&#x166;" horiz-adv-x="521" 
d="M193 315v168h-177v102h489v-102h-177v-168h107v-102h-107v-213h-135v213h-106v102h106z" />
    <glyph glyph-name="tbar" unicode="&#x167;" horiz-adv-x="381" 
d="M102 262v61h-81v102h81v127l136 36v-163h107v-102h-107v-61h107v-102h-107q2 -30 20 -46.5t56 -16.5q5 0 14 0.5t17 1.5v-95q-20 -5 -48.5 -7.5t-47.5 -2.5q-76 0 -110 42t-37 124h-81v102h81z" />
    <glyph glyph-name="Utilde" unicode="&#x168;" horiz-adv-x="654" 
d="M327 -6q-84 0 -138.5 26t-86 66.5t-44 89.5t-12.5 95v314h135v-317q0 -36 8 -68t25.5 -55t45 -36.5t67.5 -13.5t67.5 13.5t45 36.5t25.5 55t8 68v317h135v-314q0 -46 -12.5 -95t-44 -89.5t-86 -66.5t-138.5 -26zM400 652q-16 0 -33 5.5t-43 15.5q-19 8 -36.5 12t-34.5 4
q-9 0 -26.5 -3t-34.5 -8q-7 26 -13 46t-14 45q23 14 48.5 18t39.5 4q17 0 33 -5t32 -11q19 -8 39 -14.5t43 -6.5q11 0 27.5 2.5t33.5 7.5q8 -25 14 -45.5t13 -44.5q-23 -14 -48 -18t-40 -4z" />
    <glyph glyph-name="utilde" unicode="&#x169;" 
d="M369 44q-18 -19 -38.5 -29t-39.5 -14.5t-36 -5.5t-28 -1q-88 0 -137 49t-49 140v242h135v-227q0 -34 7.5 -55t20 -32.5t29 -15.5t34.5 -4t36 7.5t32.5 21t24 31t9.5 36.5v238h135v-425h-127zM356 507q-16 0 -33 5.5t-43 15.5q-19 8 -36.5 12t-34.5 4q-9 0 -26.5 -3
t-34.5 -8q-7 26 -13 46t-14 45q23 14 48.5 18t39.5 4q17 0 33 -5t32 -11q19 -8 39 -14.5t43 -6.5q11 0 27.5 2.5t33.5 7.5q8 -25 14 -45.5t13 -44.5q-23 -14 -48 -18t-40 -4z" />
    <glyph glyph-name="Umacron" unicode="&#x16a;" horiz-adv-x="654" 
d="M327 -6q-84 0 -138.5 26t-86 66.5t-44 89.5t-12.5 95v314h135v-317q0 -36 8 -68t25.5 -55t45 -36.5t67.5 -13.5t67.5 13.5t45 36.5t25.5 55t8 68v317h135v-314q0 -46 -12.5 -95t-44 -89.5t-86 -66.5t-138.5 -26zM504 754v-102h-354v102h354z" />
    <glyph glyph-name="umacron" unicode="&#x16b;" 
d="M369 44q-18 -19 -38.5 -29t-39.5 -14.5t-36 -5.5t-28 -1q-88 0 -137 49t-49 140v242h135v-227q0 -34 7.5 -55t20 -32.5t29 -15.5t34.5 -4t36 7.5t32.5 21t24 31t9.5 36.5v238h135v-425h-127zM449 609v-102h-354v102h354z" />
    <glyph glyph-name="Ubreve" unicode="&#x16c;" horiz-adv-x="654" 
d="M327 -6q-84 0 -138.5 26t-86 66.5t-44 89.5t-12.5 95v314h135v-317q0 -36 8 -68t25.5 -55t45 -36.5t67.5 -13.5t67.5 13.5t45 36.5t25.5 55t8 68v317h135v-314q0 -46 -12.5 -95t-44 -89.5t-86 -66.5t-138.5 -26zM327 652q-32 0 -62.5 7.5t-54.5 25t-38.5 45t-14.5 66.5
h93q8 -32 29.5 -45t47.5 -13t47 13t29 45h94q0 -39 -14.5 -66.5t-38.5 -45t-54.5 -25t-62.5 -7.5z" />
    <glyph glyph-name="ubreve" unicode="&#x16d;" 
d="M369 44q-18 -19 -38.5 -29t-39.5 -14.5t-36 -5.5t-28 -1q-88 0 -137 49t-49 140v242h135v-227q0 -34 7.5 -55t20 -32.5t29 -15.5t34.5 -4t36 7.5t32.5 21t24 31t9.5 36.5v238h135v-425h-127zM284 507q-32 0 -62.5 7.5t-54.5 25t-38.5 45t-14.5 66.5h93q8 -32 29.5 -45
t47.5 -13t47 13t29 45h94q0 -39 -14.5 -66.5t-38.5 -45t-54.5 -25t-62.5 -7.5z" />
    <glyph glyph-name="Uring" unicode="&#x16e;" horiz-adv-x="654" 
d="M327 -6q-84 0 -138.5 26t-86 66.5t-44 89.5t-12.5 95v314h135v-317q0 -36 8 -68t25.5 -55t45 -36.5t67.5 -13.5t67.5 13.5t45 36.5t25.5 55t8 68v317h135v-314q0 -46 -12.5 -95t-44 -89.5t-86 -66.5t-138.5 -26zM327 743q22 0 36 14t14 36t-14 36t-36 14t-36 -14t-14 -36
t14 -36t36 -14zM327 652q-29 0 -55 11t-45 30t-30 45t-11 55t11 55t30 45t45 30t55 11t55 -11t45 -30t30 -45t11 -55t-11 -55t-30 -45t-45 -30t-55 -11z" />
    <glyph glyph-name="uring" unicode="&#x16f;" 
d="M369 44q-18 -19 -38.5 -29t-39.5 -14.5t-36 -5.5t-28 -1q-88 0 -137 49t-49 140v242h135v-227q0 -34 7.5 -55t20 -32.5t29 -15.5t34.5 -4t36 7.5t32.5 21t24 31t9.5 36.5v238h135v-425h-127zM273 598q22 0 36 14t14 36t-14 36t-36 14t-36 -14t-14 -36t14 -36t36 -14z
M273 507q-29 0 -55 11t-45 30t-30 45t-11 55t11 55t30 45t45 30t55 11t55 -11t45 -30t30 -45t11 -55t-11 -55t-30 -45t-45 -30t-55 -11z" />
    <glyph glyph-name="Uhungarumlaut" unicode="&#x170;" horiz-adv-x="654" 
d="M327 -6q-84 0 -138.5 26t-86 66.5t-44 89.5t-12.5 95v314h135v-317q0 -36 8 -68t25.5 -55t45 -36.5t67.5 -13.5t67.5 13.5t45 36.5t25.5 55t8 68v317h135v-314q0 -46 -12.5 -95t-44 -89.5t-86 -66.5t-138.5 -26zM217 805h115l-34 -153h-114zM382 805h115l-34 -153h-114z
" />
    <glyph glyph-name="uhungarumlaut" unicode="&#x171;" 
d="M369 44q-18 -19 -38.5 -29t-39.5 -14.5t-36 -5.5t-28 -1q-88 0 -137 49t-49 140v242h135v-227q0 -34 7.5 -55t20 -32.5t29 -15.5t34.5 -4t36 7.5t32.5 21t24 31t9.5 36.5v238h135v-425h-127zM169 660h115l-34 -153h-114zM334 660h115l-34 -153h-114z" />
    <glyph glyph-name="Uogonek" unicode="&#x172;" horiz-adv-x="654" 
d="M608 271q0 -42 -10 -86t-34.5 -82t-67 -66.5t-107.5 -37.5q-18 -17 -28.5 -31.5t-10.5 -39.5q0 -19 15 -32t43 -13h12.5t13.5 2v-84q-12 -2 -29.5 -2h-25.5q-25 0 -49.5 6.5t-44 20t-31.5 33t-12 45.5q0 23 7.5 46.5t28.5 46.5q-69 8 -114 35.5t-71 66.5t-36.5 84
t-10.5 88v314h135v-317q0 -36 8 -68t25.5 -55t45 -36.5t67.5 -13.5t67.5 13.5t45 36.5t25.5 55t8 68v317h135v-314z" />
    <glyph glyph-name="uogonek" unicode="&#x173;" 
d="M485 0q-15 -14 -24 -28t-9 -37q0 -19 12 -32t40 -13v-82q-10 -2 -17.5 -2h-11.5q-50 0 -86.5 26.5t-36.5 78.5q0 23 12 45t39 44h-26l-8 44q-18 -19 -38.5 -29t-39.5 -14.5t-36 -5.5t-28 -1q-88 0 -137 49t-49 140v242h135v-227q0 -34 7.5 -55t20 -32.5t29 -15.5t34.5 -4
t36 7.5t32.5 21t24 31t9.5 36.5v238h135v-425h-19z" />
    <glyph glyph-name="Ydieresis" unicode="&#x178;" horiz-adv-x="619" 
d="M451 586h152l-226 -404v-182h-135v181l-226 404h152l142 -258zM142 781h132v-129h-132v129zM335 781h132v-129h-132v129z" />
    <glyph glyph-name="Zacute" unicode="&#x179;" horiz-adv-x="530" 
d="M36 104l300 379h-300v102h458v-104l-301 -379h301v-102h-458v104zM208 652h112l122 161h-161z" />
    <glyph glyph-name="zacute" unicode="&#x17a;" horiz-adv-x="462" 
d="M36 425h390v-104l-230 -219h230v-102h-390v103l232 220h-232v102zM236 668h161l-122 -161h-112z" />
    <glyph glyph-name="Zdotaccent" unicode="&#x17b;" horiz-adv-x="530" 
d="M36 104l300 379h-300v102h458v-104l-301 -379h301v-102h-458v104zM196 652h132v129h-132v-129z" />
    <glyph glyph-name="zdotaccent" unicode="&#x17c;" horiz-adv-x="462" 
d="M36 425h390v-104l-230 -219h230v-102h-390v103l232 220h-232v102zM167 636h132v-129h-132v129z" />
    <glyph glyph-name="Zcaron" unicode="&#x17d;" horiz-adv-x="530" 
d="M36 104l300 379h-300v102h458v-104l-301 -379h301v-102h-458v104zM212 652q-17 31 -29.5 54.5t-23.5 45t-23.5 45t-29.5 54.5h132l39 -83l39 83h133q-16 -30 -29 -53.5t-25.5 -46t-25 -46t-29.5 -53.5h-128z" />
    <glyph glyph-name="zcaron" unicode="&#x17e;" horiz-adv-x="462" 
d="M36 425h390v-104l-230 -219h230v-102h-390v103l232 220h-232v102zM173 507q-17 31 -29.5 54.5t-23.5 45t-23.5 45t-29.5 54.5h132l39 -83l39 83h133q-16 -30 -29 -53.5t-25.5 -46t-25 -46t-29.5 -53.5h-128z" />
    <glyph glyph-name="florin" unicode="&#x192;" horiz-adv-x="373" 
d="M347 522q-5 2 -16.5 2h-16.5q-46 0 -61.5 -14.5t-15.5 -57.5v-27h110v-102h-110v-347q0 -89 -34.5 -139t-112.5 -50q-17 0 -46.5 1.5t-55.5 5.5v104q11 -4 26 -4.5t23 -0.5q22 0 35 5.5t19.5 14.5t8.5 21t2 25v364h-81v102h81v35q0 45 10.5 76t30 50t47.5 27.5t63 8.5
q24 0 47 -1.5t47 -6.5v-92z" />
    <glyph glyph-name="uni0218" unicode="&#x218;" horiz-adv-x="615" 
d="M318 -6q-49 0 -99 10t-90 31.5t-65.5 56t-25.5 83.5h165q0 -44 32.5 -62t83.5 -18q69 0 95 16t26 56q0 17 -11.5 28t-32 19t-47.5 13.5t-57 11.5q-42 8 -87.5 18.5t-83 30.5t-61.5 52.5t-24 83.5q0 36 12.5 67t42.5 54.5t79.5 37t123.5 13.5q49 0 97.5 -10t86.5 -31.5
t62 -56t24 -83.5h-165q0 44 -26.5 62t-77.5 18q-37 0 -60.5 -6t-36.5 -15.5t-18 -20.5t-5 -22q0 -18 13.5 -31t36.5 -22t53.5 -15.5t63.5 -13.5q41 -8 83 -20t76 -32t56 -49t22 -70q0 -40 -13 -74t-44 -58.5t-80.5 -38t-123.5 -13.5zM263 -91h124l-56 -154h-101z" />
    <glyph glyph-name="uni0219" unicode="&#x219;" horiz-adv-x="481" 
d="M455 137q0 -30 -12 -56.5t-37.5 -45.5t-65 -30t-94.5 -11q-39 0 -74 6.5t-63.5 21.5t-48.5 40t-29 62h134q9 -17 26.5 -28.5t49.5 -11.5q26 0 41.5 3.5t23.5 9.5t11 13t3 13q0 17 -27.5 24t-69.5 15q-36 6 -70.5 16t-60.5 25.5t-42 38t-16 55.5q0 31 11 56.5t35 43.5
t62 28t93 10q78 0 131.5 -29t71.5 -101h-135q-8 19 -20.5 29.5t-47.5 10.5q-22 0 -35.5 -4.5t-20 -10.5t-8.5 -13t-2 -12q0 -14 18 -23.5t43.5 -16t53 -11.5t47.5 -9q53 -11 88.5 -35.5t35.5 -72.5zM201 -91h124l-56 -154h-101z" />
    <glyph glyph-name="uni021A" unicode="&#x21a;" horiz-adv-x="521" 
d="M328 0h-135v483h-177v102h489v-102h-177v-483zM203 -91h124l-56 -154h-101z" />
    <glyph glyph-name="uni021B" unicode="&#x21b;" horiz-adv-x="381" 
d="M249 -6q-80 0 -113.5 46.5t-33.5 137.5v145h-81v102h81v127l136 36v-163h107v-102h-107v-157q0 -32 18 -50.5t58 -18.5q5 0 14 0.5t17 1.5v-95q-20 -5 -48.5 -7t-47.5 -3zM174 -91h124l-56 -154h-101z" />
    <glyph glyph-name="circumflex" unicode="&#x2c6;" horiz-adv-x="455" 
d="M290 585q17 -30 29.5 -53.5t25 -46t25.5 -46t29 -53.5h-133l-39 83l-39 -83h-132q17 31 29.5 54.5t23.5 45t23.5 45t29.5 54.5h128z" />
    <glyph glyph-name="caron" unicode="&#x2c7;" horiz-adv-x="455" 
d="M162 386q-17 31 -29.5 54.5t-23.5 45t-23.5 45t-29.5 54.5h132l39 -83l39 83h133q-16 -30 -29 -53.5t-25.5 -46t-25 -46t-29.5 -53.5h-128z" />
    <glyph glyph-name="breve" unicode="&#x2d8;" horiz-adv-x="452" 
d="M226 441q-32 0 -62.5 7.5t-54.5 25t-38.5 45t-14.5 66.5h93q8 -32 29.5 -45t47.5 -13t47 13t29 45h94q0 -39 -14.5 -66.5t-38.5 -45t-54.5 -25t-62.5 -7.5z" />
    <glyph glyph-name="dotaccent" unicode="&#x2d9;" horiz-adv-x="244" 
d="M56 585h132v-129h-132v129z" />
    <glyph glyph-name="ring" unicode="&#x2da;" horiz-adv-x="394" 
d="M197 405q22 0 36 14t14 36t-14 36t-36 14t-36 -14t-14 -36t14 -36t36 -14zM197 314q-29 0 -55 11t-45 30t-30 45t-11 55t11 55t30 45t45 30t55 11t55 -11t45 -30t30 -45t11 -55t-11 -55t-30 -45t-45 -30t-55 -11z" />
    <glyph glyph-name="ogonek" unicode="&#x2db;" horiz-adv-x="304" 
d="M205 0q-19 -17 -30 -31.5t-11 -40.5q0 -19 15 -32t43 -13h12.5t13.5 2v-84q-12 -2 -29.5 -2h-25.5q-25 0 -49.5 6.5t-44 20t-31.5 33t-12 45.5q0 24 8.5 48.5t31.5 47.5h109z" />
    <glyph glyph-name="tilde" unicode="&#x2dc;" horiz-adv-x="435" 
d="M291 457q-16 0 -33 5.5t-43 15.5q-19 8 -36.5 12t-34.5 4q-9 0 -26.5 -3t-34.5 -8q-7 26 -13 46t-14 45q23 14 48.5 18t39.5 4q17 0 33 -5t32 -11q19 -8 39 -14.5t43 -6.5q11 0 27.5 2.5t33.5 7.5q8 -25 14 -45.5t13 -44.5q-23 -14 -48 -18t-40 -4z" />
    <glyph glyph-name="hungarumlaut" unicode="&#x2dd;" horiz-adv-x="425" 
d="M89 585h115l-34 -153h-114zM254 585h115l-34 -153h-114z" />
    <glyph glyph-name="uni03A9" unicode="&#x3a9;" horiz-adv-x="704" 
d="M352 495q-45 0 -71.5 -35.5t-26.5 -104.5v-137q0 -20 5 -54t21 -63v-101h-224v101h100q-26 43 -31.5 79t-5.5 68v126q0 37 11 75.5t38 70t72 51.5t112 20q68 0 112.5 -20t71.5 -51.5t38 -70t11 -75.5v-126q0 -32 -5.5 -68t-31.5 -79h100v-101h-224v101q16 29 21 63t5 54
v137q0 69 -26.5 104.5t-71.5 35.5z" />
    <glyph glyph-name="pi" unicode="&#x3c0;" horiz-adv-x="887" 
d="M330 0h-135v321h-139v103h775v-103h-140v-321h-135v321h-226v-321z" />
    <glyph glyph-name="ZWSP" unicode="&#x200b;" horiz-adv-x="0" 
 />
    <glyph glyph-name="endash" unicode="&#x2013;" horiz-adv-x="485" 
d="M429 233v-102h-373v102h373z" />
    <glyph glyph-name="emdash" unicode="&#x2014;" horiz-adv-x="609" 
d="M553 233v-102h-497v102h497z" />
    <glyph glyph-name="quoteleft" unicode="&#x2018;" horiz-adv-x="288" 
d="M198 376h-142l71 209h105z" />
    <glyph glyph-name="quoteright" unicode="&#x2019;" horiz-adv-x="288" 
d="M90 585h142l-71 -209h-105z" />
    <glyph glyph-name="quotesinglbase" unicode="&#x201a;" horiz-adv-x="288" 
d="M90 8h142l-71 -209h-105z" />
    <glyph glyph-name="quotedblleft" unicode="&#x201c;" horiz-adv-x="479" 
d="M198 376h-142l71 209h105zM389 376h-142l71 209h105z" />
    <glyph glyph-name="quotedblright" unicode="&#x201d;" horiz-adv-x="479" 
d="M281 585h142l-71 -209h-105zM90 585h142l-71 -209h-105z" />
    <glyph glyph-name="quotedblbase" unicode="&#x201e;" horiz-adv-x="479" 
d="M281 8h142l-71 -209h-105zM90 8h142l-71 -209h-105z" />
    <glyph glyph-name="dagger" unicode="&#x2020;" horiz-adv-x="477" 
d="M308 -171h-135v494h-117v102h117v160h135v-160h113v-102h-113v-494z" />
    <glyph glyph-name="daggerdbl" unicode="&#x2021;" horiz-adv-x="477" 
d="M173 102v221h-117v102h117v160h135v-160h113v-102h-113v-221h113v-102h-113v-171h-135v171h-117v102h117z" />
    <glyph glyph-name="bullet" unicode="&#x2022;" horiz-adv-x="244" 
d="M56 243h132v-129h-132v129z" />
    <glyph glyph-name="ellipsis" unicode="&#x2026;" horiz-adv-x="994" 
d="M56 129h132v-129h-132v129zM430 129h133v-129h-133v129zM804 129h134v-129h-134v129z" />
    <glyph glyph-name="perthousand" unicode="&#x2030;" horiz-adv-x="1173" 
d="M520 585h141l-336 -585h-139zM200 596q30 0 56.5 -11.5t46 -31t31 -46t11.5 -56.5t-11.5 -56t-31 -46t-46 -31.5t-56.5 -11.5t-56 11.5t-45.5 31.5t-31 46t-11.5 56t11.5 56.5t31 46t45.5 31t56 11.5zM200 405q21 0 35.5 13t14.5 33q0 22 -14.5 36t-35.5 14
q-18 0 -32 -14t-14 -36q0 -20 14 -33t32 -13zM645 285q30 0 56 -11.5t45.5 -31t31 -46t11.5 -56.5t-11.5 -56t-31 -46t-45.5 -31.5t-56 -11.5t-56.5 11.5t-46 31.5t-31 46t-11.5 56t11.5 56.5t31 46t46 31t56.5 11.5zM645 94q18 0 32 13t14 33q0 22 -14 36t-32 14
q-21 0 -35.5 -14t-14.5 -36q0 -20 14.5 -33t35.5 -13zM973 285q30 0 56 -11.5t45.5 -31t31 -46t11.5 -56.5t-11.5 -56t-31 -46t-45.5 -31.5t-56 -11.5t-56.5 11.5t-46 31.5t-31 46t-11.5 56t11.5 56.5t31 46t46 31t56.5 11.5zM973 94q18 0 32 13t14 33q0 22 -14 36t-32 14
q-21 0 -35.5 -14t-14.5 -36q0 -20 14.5 -33t35.5 -13z" />
    <glyph glyph-name="guilsinglleft" unicode="&#x2039;" horiz-adv-x="408" 
d="M56 174v96q76 41 147.5 80t148.5 80v-121l-156 -84q39 -20 77.5 -46.5t78.5 -47.5v-115z" />
    <glyph glyph-name="guilsinglright" unicode="&#x203a;" horiz-adv-x="408" 
d="M56 16v115q40 21 78.5 47.5t77.5 46.5l-156 84v121q77 -41 148.5 -80t147.5 -80v-96z" />
    <glyph glyph-name="fraction" unicode="&#x2044;" horiz-adv-x="494" 
d="M352 782h138l-347 -953h-139z" />
    <glyph glyph-name="Euro" unicode="&#x20ac;" horiz-adv-x="758" 
d="M116 255q-2 10 -2 19v19v4v14t1 15h-59v102h84q14 34 37.5 64.5t57.5 53.5t79.5 36.5t103.5 13.5q64 0 113.5 -15t85 -41.5t57 -61.5t28.5 -75h-140q-5 46 -44 69t-100 23q-42 0 -75.5 -17.5t-56.5 -49.5h90v-102h-126q-1 -8 -1 -16.5v-16.5q0 -10 0.5 -19.5t1.5 -18.5
h125v-102h-84q23 -28 55 -43t71 -15q61 0 100 23t44 69h140q-7 -40 -28.5 -75t-57 -61t-85 -41.5t-113.5 -15.5q-56 0 -100.5 12.5t-78 34t-57.5 50.5t-39 62h-87v102h60z" />
    <glyph glyph-name="Numero" unicode="&#x2116;" horiz-adv-x="1252" 
d="M1196 364q0 -39 -12 -78.5t-40.5 -71t-76 -51t-118.5 -19.5t-118.5 19.5t-76 51t-40.5 71t-12 78.5t12 78.5t40.5 71t76 51.5t118.5 20t118.5 -20t76 -51.5t40.5 -71t12 -78.5zM1061 364q0 66 -32.5 95t-79.5 29q-46 0 -79 -29t-33 -95t33 -94.5t79 -28.5q47 0 79.5 28.5
t32.5 94.5zM1196 102v-102h-495v102h495zM190 389v-389h-135v585h163l259 -425v425h135v-585h-184z" />
    <glyph glyph-name="trademark" unicode="&#x2122;" horiz-adv-x="807" 
d="M233 294h-99v210h-78v81h257v-81h-80v-210zM586 585h147l18 -291h-97l-10 177l-51 -177h-88l-52 177l-10 -177h-97l18 291h146l39 -134z" />
    <glyph glyph-name="Omega" unicode="&#x2126;" horiz-adv-x="704" 
d="M352 495q-45 0 -71.5 -35.5t-26.5 -104.5v-137q0 -20 5 -54t21 -63v-101h-224v101h100q-26 43 -31.5 79t-5.5 68v126q0 37 11 75.5t38 70t72 51.5t112 20q68 0 112.5 -20t71.5 -51.5t38 -70t11 -75.5v-126q0 -32 -5.5 -68t-31.5 -79h100v-101h-224v101q16 29 21 63t5 54
v137q0 69 -26.5 104.5t-71.5 35.5z" />
    <glyph glyph-name="partialdiff" unicode="&#x2202;" horiz-adv-x="589" 
d="M191 190q0 -30 7 -49t19 -30t29 -15.5t36 -4.5q24 0 45 7t37 19.5t25 29.5t9 36v19q0 20 -9.5 36t-24.5 27.5t-34 17.5t-39 6q-15 0 -32.5 -2.5t-32.5 -11.5t-25 -26.5t-10 -47.5v-11zM398 425q0 44 -23.5 59t-60.5 15q-9 0 -23 -0.5t-27.5 -4.5t-23.5 -13t-11 -25h-122
q6 39 24.5 66t45.5 43.5t61 23.5t70 7q68 0 112 -14.5t69 -41.5t34.5 -64t9.5 -82v-394h-127l-8 49q-20 -21 -43 -32t-45.5 -16t-43 -6t-36.5 -1q-80 0 -127 51.5t-47 144.5q0 98 51 147t143 49q15 0 32.5 -1t36.5 -5.5t39.5 -15t39.5 -29.5v90z" />
    <glyph glyph-name="Delta" unicode="&#x2206;" horiz-adv-x="818" 
d="M762 0h-706l274 585h158zM261 117h296l-148 319z" />
    <glyph glyph-name="product" unicode="&#x220f;" horiz-adv-x="887" 
d="M330 0h-135v482h-139v103h775v-103h-140v-482h-135v482h-226v-482z" />
    <glyph glyph-name="summation" unicode="&#x2211;" horiz-adv-x="495" 
d="M56 450v135h383v-101h-250l95 -192l-94 -190h249v-102h-383v134l79 156z" />
    <glyph glyph-name="minus" unicode="&#x2212;" horiz-adv-x="485" 
d="M429 233v-102h-373v102h373z" />
    <glyph glyph-name="radical" unicode="&#x221a;" horiz-adv-x="767" 
d="M711 483h-175l-168 -483h-224l-88 243h142l58 -152l174 494h281v-102z" />
    <glyph glyph-name="infinity" unicode="&#x221e;" horiz-adv-x="950" 
d="M475 91q-38 -34 -94 -57.5t-113 -23.5q-40 0 -78 11.5t-68 34.5t-48 59t-18 84q0 91 58 142t159 51q27 0 52.5 -3.5t50 -14t49 -29t50.5 -47.5q26 29 50.5 47.5t49 29t50 14t52.5 3.5q101 0 159 -51t58 -142q0 -48 -18 -84t-48 -59t-68 -34.5t-78 -11.5q-57 0 -113 23.5
t-94 57.5zM273 282q-15 0 -31.5 -3.5t-30.5 -13t-23 -26t-9 -41.5q0 -35 28 -56t66 -21q43 0 82.5 17t82.5 53q-38 48 -80.5 69.5t-84.5 21.5zM677 282q-42 0 -85 -21.5t-81 -69.5q43 -36 83 -53t83 -17q38 0 66 21t28 56q0 25 -9 41.5t-23 26t-30.5 13t-31.5 3.5z" />
    <glyph glyph-name="integral" unicode="&#x222b;" horiz-adv-x="475" 
d="M419 513q-11 4 -26 4.5t-23 0.5q-22 0 -34.5 -5.5t-19.5 -14.5t-9 -21t-2 -25v-475q0 -89 -34.5 -139t-112.5 -50q-17 0 -46.5 1.5t-55.5 5.5v104q11 -4 26 -4.5t23 -0.5q22 0 35 5.5t19.5 14.5t8.5 21t2 25v475q0 89 34.5 139t112.5 50q17 0 46.5 -1.5t55.5 -5.5v-104z
" />
    <glyph glyph-name="approxequal" unicode="&#x2248;" horiz-adv-x="435" 
d="M291 25q-16 0 -33 5.5t-43 15.5q-19 8 -36.5 12t-34.5 4q-9 0 -26.5 -3t-34.5 -8q-7 26 -13 46t-14 45q23 14 48.5 18t39.5 4q17 0 33 -5t32 -11q19 -8 39 -14.5t43 -6.5q11 0 27.5 2.5t33.5 7.5q8 -25 14 -45.5t13 -44.5q-23 -14 -48 -18t-40 -4zM291 197q-16 0 -33 5.5
t-43 15.5q-19 8 -36.5 12t-34.5 4q-9 0 -26.5 -3t-34.5 -8q-7 26 -13 46t-14 45q23 14 48.5 18t39.5 4q17 0 33 -5t32 -11q19 -8 39 -14.5t43 -6.5q11 0 27.5 2.5t33.5 7.5q8 -25 14 -45.5t13 -44.5q-23 -14 -48 -18t-40 -4z" />
    <glyph glyph-name="notequal" unicode="&#x2260;" horiz-adv-x="395" 
d="M144 179l24 94h-112v102h139l21 81h84l-21 -81h60v-102h-87l-24 -94h111v-102h-138l-20 -77h-84l20 77h-61v102h88z" />
    <glyph glyph-name="lessequal" unicode="&#x2264;" horiz-adv-x="389" 
d="M332 102v-102h-276v102h276zM56 395l277 142v-117l-155 -76l155 -76v-117l-277 142v102z" />
    <glyph glyph-name="greaterequal" unicode="&#x2265;" horiz-adv-x="389" 
d="M333 102v-102h-276v102h276zM333 293l-277 -142v117l155 76l-155 76v117l277 -142v-102z" />
    <glyph glyph-name="lozenge" unicode="&#x25ca;" horiz-adv-x="532" 
d="M476 292l-120 -292h-180l-120 292l120 293h180zM349 293l-83 201l-83 -201l83 -201z" />
    <glyph glyph-name="uni25CC" unicode="&#x25cc;" horiz-adv-x="512" 
 />
    <glyph glyph-name="fi" unicode="&#xfb01;" horiz-adv-x="614" 
d="M347 522q-5 2 -16.5 2h-16.5q-46 0 -61.5 -14.5t-15.5 -57.5v-27h110v-102h-110v-323h-135v323h-81v102h81v35q0 45 10.5 76t30 50t47.5 27.5t63 8.5q24 0 47 -1.5t47 -6.5v-92zM426 425h135v-425h-135v425zM426 585h135v-111h-135v111z" />
    <glyph glyph-name="fl" unicode="&#xfb02;" horiz-adv-x="636" 
d="M347 522q-5 2 -16.5 2h-16.5q-46 0 -61.5 -14.5t-15.5 -57.5v-27h110v-102h-110v-323h-135v323h-81v102h81v35q0 45 10.5 76t30 50t47.5 27.5t63 8.5q24 0 47 -1.5t47 -6.5v-92zM554 152q0 -25 13.5 -41.5t45.5 -19.5v-93q-17 -3 -31 -3.5t-23 -0.5q-76 0 -108 50.5
t-32 138.5v402h135v-433z" />
    <glyph glyph-name="Superstore" horiz-adv-x="617" 
d="M307 505q53 0 99 -20t80.5 -54.5t54.5 -80.5t20 -99q0 -52 -20 -97.5t-54.5 -79.5t-80.5 -54t-99 -20q-52 0 -97.5 20t-79.5 54t-54 79.5t-20 97.5q0 53 20 99t54 80.5t79.5 54.5t97.5 20zM414 90q14 0 23 5.5t9 21.5q0 17 -5.5 23.5t-18.5 6.5v133q0 26 -9.5 43
t-22.5 28q5 2 9.5 2h9.5h9.5t9.5 -2h11v65q-31 -4 -61.5 -11.5t-53.5 -20.5q-9 2 -17 2h-20q-23 0 -44 -3t-44 -11v-63h6q19 6 39.5 11t36.5 5q9 0 21.5 -0.5t24.5 -4.5t20 -13t8 -25l-82 -8q-18 -1 -36 -5.5t-33 -14.5t-24 -27t-9 -45q0 -42 28.5 -67t73.5 -25q11 0 22 0.5
t21 2.5v54l-6 4q-7 -3 -12 -3.5t-11 -0.5q-16 0 -30.5 9t-14.5 32q0 8 3.5 13.5t15.5 9.5t34.5 8t59.5 10v-71q0 -36 10 -52t40 -16h9z" />
    </font>
</defs>
</svg>
