<?xml version="1.0" standalone="no"?>
<!DOCTYPE svg PUBLIC "-//W3C//DTD SVG 1.1//EN" "http://www.w3.org/Graphics/SVG/1.1/DTD/svg11.dtd" >
<svg>
<metadata>
Created by FontForge 20120731 at Wed Aug 28 01:50:11 2019
 By www
Copyright (c) 2015 by Typesketchbook. All rights reserved.
</metadata>
<defs>
<font id="BreulGroteskA-Thin" horiz-adv-x="598" >
  <font-face 
    font-family="BreulGroteskA-Thin"
    font-weight="400"
    font-stretch="normal"
    units-per-em="1000"
    panose-1="2 0 0 0 0 0 0 0 0 0"
    ascent="740"
    descent="-260"
    x-height="425"
    cap-height="585"
    bbox="-93 -267 1231 874"
    underline-thickness="35"
    underline-position="-74"
    unicode-range="U+0020-FB02"
  />
<missing-glyph horiz-adv-x="567" 
 />
    <glyph glyph-name=".notdef" horiz-adv-x="567" 
 />
    <glyph glyph-name=".null" horiz-adv-x="0" 
 />
    <glyph glyph-name="nonmarkingreturn" horiz-adv-x="283" 
 />
    <glyph glyph-name="space" unicode=" " horiz-adv-x="189" 
 />
    <glyph glyph-name="exclam" unicode="!" horiz-adv-x="198" 
d="M77 585h44l-3 -452h-38zM77 69h44v-69h-44v69z" />
    <glyph glyph-name="quotedbl" unicode="&#x22;" horiz-adv-x="342" 
d="M77 585h44v-157h-44v157zM221 585h44v-157h-44v157z" />
    <glyph glyph-name="numbersign" unicode="#" horiz-adv-x="892" 
d="M538 128h-294q-11 -30 -23.5 -63t-24.5 -65h-46l49 128h-122v38h136l89 240h-143v38h156q11 33 25.5 70t26.5 71h45l-52 -141h294l52 141h44l-52 -141h117v-38h-131l-87 -240h135v-38h-149q-11 -30 -23 -63t-24 -65h-45zM258 166h294l88 240h-294z" />
    <glyph glyph-name="dollar" unicode="$" horiz-adv-x="685" 
d="M608 148q0 -31 -13.5 -58.5t-44 -47.5t-79 -31.5t-117.5 -12.5v-147h-44v148q-39 3 -76.5 13t-69 27.5t-54 43t-30.5 59.5h47q10 -34 37.5 -55t60.5 -32t66 -15t54 -4q48 0 88 5.5t69.5 18.5t45.5 34.5t16 53.5q0 28 -23 48.5t-56 34.5t-69.5 22.5t-63.5 13.5
q-32 6 -79 15.5t-90.5 28.5t-74.5 49t-31 77q0 28 12 55t39 48.5t71.5 35.5t110.5 16v153h44v-154q40 -2 80 -11t72.5 -26t54.5 -43t26 -62h-45q-4 29 -26 49t-52.5 32.5t-65.5 18t-67 5.5q-65 0 -106 -11.5t-64 -29t-31.5 -38t-8.5 -38.5q0 -28 20.5 -49t55 -36t79 -26
t93.5 -21q42 -8 84.5 -19.5t77 -29t56 -44t21.5 -64.5z" />
    <glyph glyph-name="percent" unicode="%" horiz-adv-x="859" 
d="M573 585h48l-335 -585h-48zM77 465q0 27 10.5 50t28.5 40t42 26.5t51 9.5t51 -9.5t42 -26.5t28.5 -40t10.5 -50t-10.5 -50t-28.5 -40t-42 -26.5t-51 -9.5t-51 9.5t-42 26.5t-28.5 40t-10.5 50zM301 465q0 41 -28 66.5t-64 25.5t-64 -25.5t-28 -66.5t28 -66.5t64 -25.5
t64 25.5t28 66.5zM782 123q0 -27 -10.5 -50t-28.5 -40t-42 -26.5t-51 -9.5t-51 9.5t-42 26.5t-28.5 40t-10.5 50t10.5 50t28.5 40t42 26.5t51 9.5t51 -9.5t42 -26.5t28.5 -40t10.5 -50zM558 123q0 -41 28 -66.5t64 -25.5t64 25.5t28 66.5t-28 66.5t-64 25.5t-64 -25.5
t-28 -66.5z" />
    <glyph glyph-name="ampersand" unicode="&#x26;" horiz-adv-x="722" 
d="M631 228q-11 -27 -32 -65.5t-53 -74.5q18 -17 43.5 -39.5t46.5 -40.5l9 -8h-60l-69 65q-57 -38 -113 -53t-110 -15q-103 0 -159.5 24t-56.5 88q0 20 9 38t30.5 38.5t57 46t87.5 61.5q-34 30 -55 55t-32.5 45.5t-15 37t-3.5 31.5q0 20 5.5 42.5t23 41.5t49.5 32t86 13
q55 0 88 -13.5t51 -33.5t23.5 -42.5t5.5 -40.5q0 -22 -9.5 -40.5t-30 -38t-51.5 -41.5t-74 -51l193 -173q29 29 45.5 61t23.5 50h47zM122 107q0 -22 15.5 -36.5t39 -22t52 -10.5t53.5 -3q15 0 35 1t45.5 6t56 16.5t66.5 32.5l-195 174q-33 -22 -63.5 -43.5t-54 -41t-37 -38
t-13.5 -35.5zM442 460q0 27 -9.5 44.5t-26.5 28.5t-39 15.5t-48 4.5q-17 0 -38 -3t-39 -12.5t-30 -28t-12 -49.5q0 -22 17.5 -56.5t73.5 -87.5q40 26 68.5 46t47 36.5t27 31.5t8.5 30z" />
    <glyph glyph-name="quotesingle" unicode="'" horiz-adv-x="198" 
d="M77 585h44v-157h-44v157z" />
    <glyph glyph-name="parenleft" unicode="(" horiz-adv-x="295" 
d="M173 -170q-22 63 -39.5 121t-30 115.5t-19.5 116t-7 121.5q0 65 7 124.5t19.5 117.5t30.5 116.5t40 120.5h44q-23 -63 -41 -122t-30.5 -117.5t-19 -117.5t-6.5 -122q0 -62 6.5 -120.5t19 -116t30.5 -116t40 -121.5h-44z" />
    <glyph glyph-name="parenright" unicode=")" horiz-adv-x="295" 
d="M78 -170q23 63 40.5 121.5t30 116t19 116t6.5 120.5q0 63 -6.5 122t-19 117.5t-30.5 117.5t-41 122h44q22 -62 40 -120.5t30.5 -116.5t19.5 -117.5t7 -124.5q0 -63 -7 -121.5t-19.5 -116t-30 -115.5t-39.5 -121h-44z" />
    <glyph glyph-name="asterisk" unicode="*" horiz-adv-x="521" 
d="M261 368l-90 -134l-41 31l97 124l-150 55l20 47l144 -65l-6 159h51l-6 -159l144 65l20 -47l-150 -55l97 -124l-41 -31z" />
    <glyph glyph-name="plus" unicode="+" horiz-adv-x="468" 
d="M212 148h-135v38h135v151h44v-151h135v-38h-135v-148h-44v148z" />
    <glyph glyph-name="comma" unicode="," horiz-adv-x="233" 
d="M107 30h49l-36 -153h-43z" />
    <glyph glyph-name="hyphen" unicode="-" horiz-adv-x="494" 
d="M417 184v-38h-340v38h340z" />
    <glyph glyph-name="period" unicode="." horiz-adv-x="212" 
d="M77 57h58v-57h-58v57z" />
    <glyph glyph-name="slash" unicode="/" horiz-adv-x="443" 
d="M373 782h45l-347 -953h-46z" />
    <glyph glyph-name="zero" unicode="0" horiz-adv-x="678" 
d="M339 35q117 0 179.5 67t62.5 185q0 60 -16 109t-47 84t-76 54t-103 19t-103 -19t-76 -54t-47 -84t-16 -109q0 -118 62.5 -185t179.5 -67zM339 -3q-84 0 -139.5 28t-88 71t-46 94t-13.5 97q0 49 13.5 102.5t46 98.5t88 74t139.5 29t139.5 -29t88 -74t46 -98.5t13.5 -102.5
q0 -46 -13.5 -97t-46 -94t-88 -71t-139.5 -28z" />
    <glyph glyph-name="one" unicode="1" horiz-adv-x="414" 
d="M297 541q-32 -21 -66.5 -36t-68.5 -25.5t-66 -17.5t-59 -12v41q28 5 63 14.5t70.5 22t68.5 27.5t57 30h46v-585h-45v541z" />
    <glyph glyph-name="two" unicode="2" horiz-adv-x="563" 
d="M502 430q0 -45 -34 -90t-89.5 -93t-127 -100t-145.5 -109h400v-38h-443v35q0 16 29 41.5t73 57.5t95 69.5t95 76.5t73 78t29 75q0 34 -13 57t-36 37t-54.5 20t-68.5 6q-31 0 -60.5 -5t-54 -16.5t-41.5 -29t-23 -41.5h-49q17 60 75 95t152 35q71 0 113.5 -16.5t66 -41
t31 -52.5t7.5 -51z" />
    <glyph glyph-name="three" unicode="3" horiz-adv-x="566" 
d="M272 591q131 0 186.5 -37.5t55.5 -114.5q0 -15 -4 -35t-16.5 -41t-35 -41t-59.5 -35q40 -12 63 -30.5t34.5 -39t14.5 -40t3 -32.5q0 -32 -11 -59.5t-38.5 -47t-74 -30.5t-118.5 -11q-40 0 -77 6.5t-67 21t-51.5 37t-29.5 53.5h53q5 -25 21.5 -40.5t40 -24.5t52 -12
t58.5 -3q32 0 66.5 4t63.5 16t48 33.5t19 56.5q0 41 -20 65t-50 36.5t-65.5 16.5t-67.5 4h-41v38h63q34 0 66.5 8t58 24.5t41 41.5t15.5 60q0 39 -19 61.5t-48 34.5t-63.5 15t-66.5 3q-28 0 -55.5 -4t-51 -14t-41 -26t-24.5 -39h-53q8 32 29.5 54.5t51.5 37.5t67 22t77 7z
" />
    <glyph glyph-name="four" unicode="4" horiz-adv-x="615" 
d="M421 142h-384v47l358 396h72v-405h123v-38h-123v-142h-46v142zM421 180v368l-332 -368h332z" />
    <glyph glyph-name="five" unicode="5" horiz-adv-x="557" 
d="M117 295q29 20 60.5 31.5t59 17t47.5 7t25 1.5q63 0 103 -13.5t63 -37.5t31.5 -57t8.5 -73q0 -41 -11 -73t-37.5 -54.5t-70 -34.5t-109.5 -12q-83 0 -136 24.5t-74 69.5h62q11 -18 29.5 -29t39.5 -17t41.5 -8t36.5 -2q34 0 67 3.5t59 17t42 41t16 74.5q0 37 -7.5 64
t-25.5 44.5t-49 26t-78 8.5q-23 0 -48.5 -3.5t-50.5 -11t-47.5 -18.5t-38.5 -26h-53v330h404v-38h-359v-252z" />
    <glyph glyph-name="six" unicode="6" horiz-adv-x="574" 
d="M57 355q0 44 8 86t32.5 75.5t69 54t117.5 20.5q81 0 131.5 -24t71.5 -66h-54q-15 22 -51 37t-99 15q-43 0 -76.5 -9t-57 -31t-35.5 -58.5t-12 -91.5v-103q23 29 56 45t64.5 23.5t55.5 9t28 1.5q60 0 101.5 -13.5t67 -37.5t36.5 -56t11 -68q0 -31 -11.5 -61.5t-38.5 -53.5
t-71 -37.5t-110 -14.5q-48 0 -91 8.5t-74.5 28t-50 51.5t-18.5 79v191zM307 301q-19 0 -53.5 -5.5t-68 -21t-58.5 -44t-25 -73.5q0 -31 14.5 -54t39.5 -38t59 -22.5t73 -7.5t73 6.5t60 21t41 39t15 60.5q0 48 -17 75.5t-42.5 41.5t-55 18t-55.5 4z" />
    <glyph glyph-name="seven" unicode="7" horiz-adv-x="489" 
d="M198 0h-44l243 547h-360v38h405v-38z" />
    <glyph glyph-name="eight" unicode="8" horiz-adv-x="580" 
d="M290 35q29 1 61.5 3.5t60 13.5t45.5 33.5t18 62.5q0 35 -17 59t-44 38.5t-59.5 20.5t-64.5 6q-31 0 -64 -6t-60 -20.5t-44 -38.5t-17 -59q0 -40 18 -62.5t45.5 -33.5t60 -13.5t61.5 -3.5zM290 311q29 0 61.5 2.5t60 14.5t45.5 38t18 74q0 34 -17 56t-44 34.5t-59.5 17.5
t-64.5 5q-31 0 -64 -5t-60 -17.5t-44 -34.5t-17 -56q0 -48 18 -74t45.5 -38t60 -14.5t61.5 -2.5zM290 -3q-114 0 -172 39.5t-58 111.5q0 14 4 31.5t15 36t30.5 36.5t51.5 33q-35 16 -55 38t-30.5 44.5t-13 42t-2.5 31.5q0 68 58 109t172 41t172 -41t58 -109
q0 -12 -2.5 -31.5t-13 -42t-30.5 -44.5t-55 -38q32 -15 51.5 -33t30.5 -36.5t15 -36t4 -31.5q0 -72 -58 -111.5t-172 -39.5z" />
    <glyph glyph-name="nine" unicode="9" horiz-adv-x="574" 
d="M517 233q0 -43 -8 -85.5t-32.5 -76t-69 -54t-117.5 -20.5q-81 0 -131.5 24t-71.5 66h54q15 -22 51 -37t99 -15q43 0 76.5 9t57 31t35.5 58.5t12 91.5v103q-22 -29 -55 -45t-64.5 -23.5t-55.5 -9t-29 -1.5q-60 0 -101 15t-66.5 40t-37 58.5t-11.5 69.5q0 32 11.5 60.5
t38.5 50.5t71 35t110 13q48 0 91 -8.5t74.5 -28t50 -51.5t18.5 -79v-191zM267 287q19 0 53.5 5.5t68 21t58.5 44t25 73.5q0 31 -14.5 54t-39.5 38t-59 22.5t-73 7.5t-73 -5t-60 -18.5t-41 -36.5t-15 -59q0 -48 17 -76.5t42.5 -44.5t55.5 -21t55 -5z" />
    <glyph glyph-name="colon" unicode=":" horiz-adv-x="212" 
d="M77 57h58v-57h-58v57zM77 370h58v-57h-58v57z" />
    <glyph glyph-name="semicolon" unicode=";" horiz-adv-x="235" 
d="M100 370h58v-57h-58v57zM107 30h49l-36 -153h-43z" />
    <glyph glyph-name="less" unicode="&#x3c;" horiz-adv-x="403" 
d="M77 178v66l249 148v-52l-218 -129l218 -129v-52z" />
    <glyph glyph-name="equal" unicode="=" horiz-adv-x="393" 
d="M316 77v-38h-239v38h239zM316 283v-38h-239v38h239z" />
    <glyph glyph-name="greater" unicode="&#x3e;" horiz-adv-x="403" 
d="M77 30v52l218 129l-218 129v52l249 -148v-66z" />
    <glyph glyph-name="question" unicode="?" 
d="M235 217q50 22 94 47t77 51.5t52 53.5t19 52q0 34 -15 59t-39.5 41t-56.5 24t-66 8q-77 0 -121.5 -28t-53.5 -76h-48q6 36 25.5 62.5t48.5 44t66.5 26.5t79.5 9q72 0 116 -18t68 -44.5t32 -55.5t8 -52q0 -54 -61 -110.5t-181 -111.5v-100h-44v118zM235 60h44v-60h-44v60z
" />
    <glyph glyph-name="at" unicode="@" horiz-adv-x="861" 
d="M463 591q86 0 146.5 -27t99.5 -69.5t57 -94.5t18 -101v-299h-44v58q-23 -23 -50 -35.5t-53.5 -18t-49 -6.5t-37.5 -1q-32 0 -63 10t-55 30t-38.5 50t-14.5 71q0 76 48 120.5t145 44.5q10 0 29.5 -1t43 -7t49 -18.5t46.5 -36.5v36q0 70 -26.5 119t-67.5 79.5t-90 44.5
t-94 14h-64q-47 0 -96.5 -14.5t-90 -45t-66 -78t-25.5 -113.5v-248q0 -68 19.5 -117t53 -80.5t79 -47t96.5 -15.5h31v-37h-30q-82 0 -138 27t-90.5 69.5t-49 94.5t-14.5 102v256q0 48 18 99t56.5 92t99.5 67.5t148 26.5h64zM740 160q0 34 -14.5 57.5t-37 38.5t-51 21.5
t-57.5 6.5q-28 0 -56 -5t-50 -18.5t-36 -38.5t-14 -64q0 -28 11 -51t30 -39t44 -24.5t53 -8.5q33 0 64.5 8t57 22.5t41 35.5t15.5 47v12z" />
    <glyph glyph-name="A" unicode="A" horiz-adv-x="648" 
d="M501 149h-354l-67 -149h-48q62 149 131 292.5t131 292.5h60q62 -149 131 -292.5t131 -292.5h-48zM484 187l-160 356l-160 -356h320z" />
    <glyph glyph-name="B" unicode="B" horiz-adv-x="611" 
d="M451 289q38 -8 61 -26.5t35.5 -39.5t17 -42t4.5 -34q0 -34 -10 -61t-35 -46t-67 -29.5t-107 -10.5h-278v585h245q62 0 103.5 -13.5t67.5 -35.5t37 -50.5t11 -57.5q0 -9 -3 -29.5t-12 -42.5t-25.5 -41.5t-44.5 -25.5zM116 307h200q36 0 68 5t56 17.5t38 35.5t14 59
q0 34 -14 57.5t-38 38t-56 21t-68 6.5h-200v-240zM355 38q36 0 67.5 3.5t54 14.5t35.5 33.5t13 59.5t-14 60.5t-38 36.5t-56.5 18t-68.5 5h-232v-231h239z" />
    <glyph glyph-name="C" unicode="C" horiz-adv-x="680" 
d="M357 -3q-85 0 -143.5 27t-94.5 69.5t-51.5 95.5t-15.5 104t15.5 103.5t51.5 96t94.5 71t143.5 27.5q115 0 181.5 -40.5t89.5 -100.5h-50q-10 26 -31.5 45.5t-51 32.5t-65 19t-73.5 6q-54 0 -101.5 -17.5t-83 -51t-56 -82t-20.5 -110.5t20.5 -110t56 -80.5t83 -49.5
t101.5 -17q38 0 73.5 6.5t65 19t51 32t31.5 45.5h50q-23 -60 -89.5 -100.5t-181.5 -40.5z" />
    <glyph glyph-name="D" unicode="D" horiz-adv-x="645" 
d="M72 585h248q84 0 137.5 -27t83.5 -69.5t41 -94t11 -101.5q0 -46 -11 -97.5t-41 -95t-83.5 -72t-137.5 -28.5h-248v585zM116 547v-509h206q110 0 168.5 67t58.5 188q0 133 -58.5 193.5t-168.5 60.5h-206z" />
    <glyph glyph-name="E" unicode="E" horiz-adv-x="541" 
d="M484 585v-38h-368v-240h301v-38h-301v-231h368v-38h-412v585h412z" />
    <glyph glyph-name="F" unicode="F" horiz-adv-x="525" 
d="M72 0v585h406v-38h-362v-273h314v-38h-314v-236h-44z" />
    <glyph glyph-name="G" unicode="G" horiz-adv-x="705" 
d="M594 105q-18 -28 -40 -48.5t-50.5 -34t-64 -19.5t-82.5 -6q-85 0 -143.5 27t-94.5 69.5t-51.5 95.5t-15.5 104t15.5 103.5t51.5 96t94.5 71t143.5 27.5q115 0 181.5 -40.5t89.5 -100.5h-50q-10 26 -31.5 45.5t-51 32.5t-65 19t-73.5 6q-54 0 -101.5 -17.5t-83 -51
t-56 -82t-20.5 -110.5t20.5 -110t56 -80.5t83 -49.5t101.5 -17q38 0 72.5 6t65 23.5t56 49.5t43.5 84v34h-133v38h177v-270h-44v105z" />
    <glyph glyph-name="H" unicode="H" horiz-adv-x="642" 
d="M526 264h-410v-264h-44v585h44v-283h410v283h44v-585h-44v264z" />
    <glyph glyph-name="I" unicode="I" horiz-adv-x="190" 
d="M73 585h44v-585h-44v585z" />
    <glyph glyph-name="J" unicode="J" horiz-adv-x="552" 
d="M260 -3q-50 0 -88 11.5t-65 30.5t-44 44t-26 52h48q11 -27 29 -46t41.5 -31t50 -17.5t54.5 -5.5q33 0 64.5 6t56.5 24t40 50.5t15 85.5v384h44v-384q0 -36 -10 -72t-35 -65.5t-67.5 -48t-107.5 -18.5z" />
    <glyph glyph-name="K" unicode="K" horiz-adv-x="650" 
d="M363 393l-246 -246v-147h-45v585h45v-375l376 375h61l-158 -160q54 -104 111 -211.5t111 -213.5h-50z" />
    <glyph glyph-name="L" unicode="L" horiz-adv-x="531" 
d="M72 585h44v-547h368v-38h-412v585z" />
    <glyph glyph-name="M" unicode="M" horiz-adv-x="876" 
d="M405 0l-262 547l-37 -547h-44q2 27 3.5 51t3.5 53t4.5 67t5.5 94t8 134t11 186h78l262 -547l262 547h78q7 -108 11.5 -186t7.5 -134t5.5 -94t4.5 -67t3.5 -53t3.5 -51h-44l-37 547l-262 -547h-66z" />
    <glyph glyph-name="N" unicode="N" horiz-adv-x="692" 
d="M116 545v-545h-44v585h69l433 -547v547h46v-585h-73z" />
    <glyph glyph-name="O" unicode="O" horiz-adv-x="704" 
d="M352 35q55 0 101.5 16.5t81 49t54 79.5t19.5 107q0 63 -19.5 112.5t-54 83.5t-81 52t-101.5 18t-101.5 -18t-81 -52t-54 -83.5t-19.5 -112.5q0 -60 19.5 -107t54 -79.5t81 -49t101.5 -16.5zM352 -3q-85 0 -142.5 28t-92.5 71t-50 94t-15 97q0 49 15 102.5t50 98.5
t92.5 74t142.5 29t142.5 -29t92.5 -74t50 -98.5t15 -102.5q0 -46 -15 -97t-50 -94t-92.5 -71t-142.5 -28z" />
    <glyph glyph-name="P" unicode="P" horiz-adv-x="601" 
d="M72 0v585h280q59 0 99 -18t64 -46t34 -62t10 -65t-10.5 -65.5t-35 -63.5t-64 -48.5t-97.5 -19.5h-236v-197h-44zM116 235h235q71 0 117.5 41t46.5 117q0 77 -46.5 115.5t-117.5 38.5h-235v-312z" />
    <glyph glyph-name="Q" unicode="Q" horiz-adv-x="718" 
d="M652 287q0 -33 -7.5 -68.5t-24 -69t-43 -63.5t-64.5 -51h168v-38h-340q-82 0 -137 28.5t-89 71.5t-48.5 94t-14.5 96q0 49 15 102.5t50 98.5t92.5 74t142.5 29t142.5 -29t92.5 -74t50 -98.5t15 -102.5zM363 35q53 0 97.5 17.5t77.5 50t51.5 79t18.5 105.5
q0 63 -19.5 112.5t-54 83.5t-81 52t-101.5 18t-101.5 -18t-81 -52t-54 -83.5t-19.5 -112.5q0 -59 18.5 -105t51 -78.5t77.5 -49.5t98 -19h22z" />
    <glyph glyph-name="R" unicode="R" horiz-adv-x="602" 
d="M72 0v585h280q59 0 99 -18t64 -46t34 -62t10 -65q0 -25 -7 -54t-23.5 -55t-43 -47t-64.5 -32l96 -206h-49l-92 197h-260v-197h-44zM116 235h235q71 0 117.5 41t46.5 117q0 77 -46.5 115.5t-117.5 38.5h-235v-312z" />
    <glyph glyph-name="S" unicode="S" horiz-adv-x="645" 
d="M324 -3q-42 0 -85.5 8.5t-80 26t-63 45t-35.5 64.5h47q10 -34 37.5 -55t60.5 -32t66 -15t54 -4q48 0 88 5.5t69.5 18.5t45.5 34.5t16 53.5q0 28 -23 48.5t-56 34.5t-69.5 22.5t-63.5 13.5q-32 6 -79 15.5t-90.5 28.5t-74.5 49t-31 77q0 29 13 57t42.5 50t78 35t120.5 13
q42 0 86 -8t80 -25t61 -44t29 -66h-45q-4 29 -26 49t-52.5 32.5t-65.5 18t-67 5.5q-65 0 -106 -11.5t-64 -29t-31.5 -38t-8.5 -38.5q0 -28 20.5 -49t55 -36t79 -26t93.5 -21q42 -8 84.5 -19.5t77 -29t56 -44t21.5 -64.5q0 -32 -14 -59.5t-45.5 -47.5t-82 -31.5t-122.5 -11.5
z" />
    <glyph glyph-name="T" unicode="T" horiz-adv-x="555" 
d="M518 547h-218v-547h-45v547h-218v38h481v-38z" />
    <glyph glyph-name="U" unicode="U" horiz-adv-x="694" 
d="M347 -3q-84 0 -138 25.5t-85.5 65.5t-44 88.5t-12.5 94.5v314h45v-317q0 -49 15 -92t44.5 -74t73.5 -49t102 -18t102 18t73.5 49t44.5 74t15 92v317h45v-314q0 -46 -12.5 -94.5t-44 -88.5t-85.5 -65.5t-138 -25.5z" />
    <glyph glyph-name="V" unicode="V" horiz-adv-x="648" 
d="M294 0q-62 149 -131 292.5t-131 292.5h48l244 -543l244 543h48q-62 -149 -131 -292.5t-131 -292.5h-60z" />
    <glyph glyph-name="W" unicode="W" horiz-adv-x="872" 
d="M466 585l219 -540l109 540h46l-121 -585h-64l-219 548l-219 -548h-64l-121 585h46l109 -540l219 540h60z" />
    <glyph glyph-name="X" unicode="X" horiz-adv-x="606" 
d="M100 0h-55l225 288l-228 297h55l206 -268l206 268h55l-228 -297l225 -288h-55l-203 262z" />
    <glyph glyph-name="Y" unicode="Y" horiz-adv-x="611" 
d="M521 585h53l-246 -409v-176h-45v176l-246 409h53l216 -360z" />
    <glyph glyph-name="Z" unicode="Z" horiz-adv-x="551" 
d="M57 39l381 508h-381v38h437v-38l-381 -509h381v-38h-437v39z" />
    <glyph glyph-name="bracketleft" unicode="[" horiz-adv-x="367" 
d="M77 783h213v-38h-169v-878h169v-38h-213v954z" />
    <glyph glyph-name="backslash" unicode="\" horiz-adv-x="443" 
d="M418 -171h-46l-347 953h45z" />
    <glyph glyph-name="bracketright" unicode="]" horiz-adv-x="367" 
d="M290 -171h-213v38h169v878h-169v38h213v-954z" />
    <glyph glyph-name="asciicircum" unicode="^" horiz-adv-x="448" 
d="M251 585q32 -50 59.5 -92.5l60.5 -93.5h-52l-95 145l-95 -145h-52l60.5 93.5t59.5 92.5h54z" />
    <glyph glyph-name="underscore" unicode="_" horiz-adv-x="398" 
d="M321 -42v-38h-244v38h244z" />
    <glyph glyph-name="grave" unicode="`" horiz-adv-x="273" 
d="M196 434h-44q-20 38 -37.5 75.5t-37.5 75.5h58z" />
    <glyph glyph-name="a" unicode="a" horiz-adv-x="551" 
d="M90 110q0 -28 18 -43.5t41.5 -22.5t46 -8t32.5 -1q30 0 63.5 6.5t64.5 19t56.5 30t38.5 39.5v80q-30 0 -69 -1t-79 -4.5t-78.5 -10t-68 -17.5t-48 -27.5t-18.5 -39.5zM450 274q0 32 -14.5 54t-39.5 35.5t-56.5 20t-66.5 6.5q-14 0 -35.5 -1t-43.5 -6.5t-41.5 -16
t-29.5 -29.5h-49q6 26 24 43t45 28t60.5 15.5t69.5 4.5q72 0 115 -17t66.5 -42.5t31 -54.5t7.5 -53v-261h-42v74q-25 -29 -60.5 -44.5t-71 -23t-65 -8.5t-44.5 -1q-25 0 -53.5 4.5t-52.5 17t-40 34.5t-16 58q0 33 19.5 56t51.5 38.5t74 24t86.5 12.5t89 5t81.5 1v26z" />
    <glyph glyph-name="b" unicode="b" horiz-adv-x="612" 
d="M520 223q0 52 -20 84.5t-49 51t-63 25t-63 6.5q-36 0 -73 -10.5t-67 -31t-49.5 -50t-19.5 -68.5v-21q0 -33 18.5 -64.5t48 -56t67.5 -39t77 -14.5q33 0 67 10.5t62 32t46 56t18 82.5v7zM325 428q53 0 97 -14.5t75.5 -42t49 -67t17.5 -88.5q0 -56 -20 -97.5t-51.5 -68.5
t-71 -40t-78.5 -13q-16 0 -41 1.5t-55 11t-64 30t-67 58.5v-98h-44v585h44v-247q21 29 51 47t60 27.5t56.5 12.5t41.5 3z" />
    <glyph glyph-name="c" unicode="c" horiz-adv-x="570" 
d="M310 35q23 0 49 3.5t49 11.5t41.5 21.5t26.5 33.5h51q-9 -21 -26.5 -40.5t-44 -34.5t-63 -24t-83.5 -9q-73 0 -122.5 19t-79.5 50t-43 70t-13 78t13 77.5t43.5 69t80 49t122.5 18.5q47 0 83 -9t62.5 -24t44 -34.5t26.5 -40.5h-51q-8 20 -26 33.5t-41 21.5t-48.5 11.5
t-49.5 3.5q-45 0 -84.5 -9t-68.5 -29.5t-45.5 -54t-16.5 -83.5q0 -49 16.5 -83t45 -55.5t68 -31t84.5 -9.5z" />
    <glyph glyph-name="d" unicode="d" horiz-adv-x="612" 
d="M92 216q0 -48 18 -82.5t46 -56t62 -32t67 -10.5q39 0 77 14.5t67.5 39t48 56t18.5 64.5v21q0 39 -19.5 68.5t-49.5 50t-67 31t-73 10.5q-28 0 -62.5 -6.5t-63.5 -25t-49 -51t-20 -84.5v-7zM287 428q15 0 41.5 -3t56.5 -12.5t60 -27.5t51 -47v247h44v-585h-44v98
q-33 -38 -67 -58.5t-64 -30t-55 -11t-41 -1.5q-39 0 -78.5 13t-71 40t-51.5 68.5t-20 97.5q0 49 17.5 88.5t49 67t75.5 42t97 14.5z" />
    <glyph glyph-name="e" unicode="e" horiz-adv-x="588" 
d="M496 223q-6 59 -30 92t-54.5 50t-61.5 21t-51 4q-19 0 -51.5 -4.5t-64 -21t-56.5 -50t-30 -91.5h399zM303 -3q-73 0 -121 19.5t-77 51t-41 72.5t-12 83q0 33 12.5 69t41.5 66.5t76.5 50t117.5 19.5q72 0 118.5 -22t73.5 -54t38 -69.5t11 -68.5v-30h-444q7 -53 34.5 -83
t60.5 -44.5t64.5 -18t45.5 -3.5q24 0 50 3.5t49 11.5t41.5 21.5t26.5 33.5h55q-9 -21 -27.5 -40.5t-45.5 -34.5t-64 -24t-84 -9z" />
    <glyph glyph-name="f" unicode="f" horiz-adv-x="393" 
d="M199 425h147v-38h-147v-387h-44v387h-113v38h113v30q0 37 6 68t21.5 53t42 34t68.5 12q8 0 18 -1q8 0 17 -1l18 -2v-36q-9 1 -20.5 1.5t-15.5 0.5q-62 0 -86.5 -27t-24.5 -94v-38z" />
    <glyph glyph-name="g" unicode="g" horiz-adv-x="612" 
d="M92 216q0 -48 18 -82.5t46 -56t62 -32t67 -10.5q39 0 77 14.5t67.5 39t48 56t18.5 64.5v21q0 39 -19.5 68.5t-49.5 50t-67 31t-73 10.5q-28 0 -62.5 -6.5t-63.5 -25t-49 -51t-20 -84.5v-7zM540 -3q0 -40 -10 -78.5t-37 -69t-73.5 -49t-118.5 -18.5q-71 0 -126.5 24.5
t-84.5 76.5h57q14 -22 33 -34.5t39 -19t40.5 -8t38.5 -1.5q92 0 145 39.5t53 121.5v117q-33 -38 -67 -58.5t-64 -30t-55 -11t-41 -1.5q-39 0 -78.5 13t-71 40t-51.5 68.5t-20 97.5q0 49 17.5 88.5t49 67t75.5 42t97 14.5q15 0 41.5 -3t56.5 -12.5t60 -27.5t51 -47v87h44
v-428z" />
    <glyph glyph-name="h" unicode="h" 
d="M117 326q29 39 64 59.5t66 30t52.5 11t22.5 1.5q110 0 162 -48.5t52 -152.5v-227h-45v225q0 57 -15.5 89.5t-40 49.5t-55.5 21.5t-62 4.5t-66.5 -13t-65.5 -35.5t-49.5 -53.5t-19.5 -68v-220h-45v585h45v-259z" />
    <glyph glyph-name="i" unicode="i" horiz-adv-x="190" 
d="M73 425h44v-425h-44v425zM73 585h44v-96h-44v96z" />
    <glyph glyph-name="j" unicode="j" horiz-adv-x="190" 
d="M-93 -176q12 -2 27 -3t20 -1q40 0 63.5 12t36 30.5t16 42.5t3.5 48v472h44v-470q0 -85 -39 -129t-109 -44q-13 0 -26 0.5t-36 3.5v38zM73 585h44v-96h-44v96z" />
    <glyph glyph-name="k" unicode="k" horiz-adv-x="502" 
d="M133 223h-17v-223h-44v585h44v-324h15l263 164h78l-292 -185l294 -240h-64z" />
    <glyph glyph-name="l" unicode="l" horiz-adv-x="246" 
d="M116 137q0 -31 6.5 -51t18.5 -31.5t28 -15.5t35 -4v-35q-7 -2 -14 -2.5t-14 -0.5q-33 0 -53.5 13.5t-32 34t-15 45t-3.5 47.5v448h44v-448z" />
    <glyph glyph-name="m" unicode="m" horiz-adv-x="877" 
d="M116 326q20 38 44.5 59t48.5 30.5t44 11t30 1.5q54 0 96 -25t74 -92q16 42 41 65.5t51.5 35t50.5 14t38 2.5q50 0 84 -16t56 -43t31.5 -62t9.5 -72v-235h-44v242q0 69 -35 108.5t-103 39.5q-42 0 -72.5 -16.5t-50.5 -42.5t-29.5 -58t-9.5 -64v-209h-43v234
q0 35 -11.5 63.5t-31 49t-46.5 32t-59 11.5q-37 0 -67.5 -15.5t-52 -41.5t-33 -59t-11.5 -69v-205h-44v425h44v-99z" />
    <glyph glyph-name="n" unicode="n" 
d="M117 326q29 39 64 59.5t66 30t52.5 11t22.5 1.5q110 0 162 -48.5t52 -152.5v-227h-45v225q0 57 -15.5 89.5t-40 49.5t-55.5 21.5t-62 4.5t-66.5 -13t-65.5 -35.5t-49.5 -53.5t-19.5 -68v-220h-45v425h45v-99z" />
    <glyph glyph-name="o" unicode="o" horiz-adv-x="608" 
d="M304 35q38 0 75 10t66.5 31.5t48 55.5t18.5 82q0 47 -18.5 80.5t-48 54.5t-66.5 31t-75 10t-75 -10t-66.5 -31t-48 -54.5t-18.5 -80.5q0 -48 18.5 -82t48 -55.5t66.5 -31.5t75 -10zM304 -3q-72 0 -120 19.5t-77.5 50.5t-42 70t-12.5 77t12.5 76.5t42 69t77.5 49.5t120 19
t120 -19t77.5 -49.5t42 -69t12.5 -76.5t-12.5 -77t-42 -70t-77.5 -50.5t-120 -19.5z" />
    <glyph glyph-name="p" unicode="p" horiz-adv-x="612" 
d="M520 223q0 52 -20 84.5t-49 51t-63 25t-63 6.5q-36 0 -73 -10.5t-67 -31t-49.5 -50t-19.5 -68.5v-21q0 -33 18.5 -64.5t48 -56t67.5 -39t77 -14.5q33 0 67 10.5t62 32t46 56t18 82.5v7zM325 428q53 0 97 -14.5t75.5 -42t49 -67t17.5 -88.5q0 -56 -20 -97.5t-51.5 -68.5
t-71 -40t-78.5 -13q-16 0 -41 1.5t-55 11t-64 30t-67 58.5v-269h-44v596h44v-87q21 29 51 47t60 27.5t56.5 12.5t41.5 3z" />
    <glyph glyph-name="q" unicode="q" horiz-adv-x="612" 
d="M92 216q0 -48 18 -82.5t46 -56t62 -32t67 -10.5q39 0 77 14.5t67.5 39t48 56t18.5 64.5v21q0 39 -19.5 68.5t-49.5 50t-67 31t-73 10.5q-28 0 -62.5 -6.5t-63.5 -25t-49 -51t-20 -84.5v-7zM287 428q15 0 41.5 -3t56.5 -12.5t60 -27.5t51 -47v87h44v-596h-44v269
q-33 -38 -67 -58.5t-64 -30t-55 -11t-41 -1.5q-39 0 -78.5 13t-71 40t-51.5 68.5t-20 97.5q0 49 17.5 88.5t49 67t75.5 42t97 14.5z" />
    <glyph glyph-name="r" unicode="r" horiz-adv-x="422" 
d="M116 326q26 38 62.5 59t72 30.5t65 11t41.5 1.5h12.5t15.5 -1v-42q-11 2 -18.5 2h-14.5q-40 0 -82 -10.5t-76 -32t-56 -53.5t-22 -75v-216h-44v425h44v-99z" />
    <glyph glyph-name="s" unicode="s" horiz-adv-x="508" 
d="M461 120q0 -65 -48 -94t-160 -29q-24 0 -55.5 3.5t-60.5 15t-52.5 33t-32.5 57.5h47q8 -25 31 -39t48.5 -21t47 -9t26.5 -2q75 0 120.5 17.5t45.5 63.5q0 19 -14.5 32t-37.5 22t-53 15t-61 12q-35 6 -70.5 14t-64 21t-46.5 32t-18 47q0 24 9.5 45.5t31 37.5t57.5 25t90 9
q30 0 60.5 -5.5t56 -17.5t44 -31t24.5 -46h-51q-4 17 -17 28.5t-31.5 19t-40.5 11t-45 3.5q-45 0 -73 -7t-44 -18t-21.5 -24.5t-5.5 -27.5q0 -16 14 -27.5t37.5 -20t53 -14.5t60.5 -12q35 -6 70.5 -13.5t64 -20t46.5 -33t18 -52.5z" />
    <glyph glyph-name="t" unicode="t" horiz-adv-x="402" 
d="M275 -3q-71 0 -96 40t-25 126v224h-112v38h112v153l44 13v-166h147v-38h-147v-245q0 -33 7.5 -54t20 -32.5t30.5 -16t39 -4.5h22.5t20.5 1v-37q-13 -2 -23.5 -2h-39.5z" />
    <glyph glyph-name="u" unicode="u" 
d="M481 99q-29 -39 -64 -59.5t-66 -30t-52 -11t-23 -1.5q-110 0 -162 48.5t-52 152.5v227h45v-225q0 -57 15.5 -89.5t40.5 -49.5t55.5 -21.5t61.5 -4.5q32 0 67 13t65 35.5t49.5 53.5t19.5 68v220h45v-425h-45v99z" />
    <glyph glyph-name="v" unicode="v" horiz-adv-x="562" 
d="M314 0h-66l-216 425h50l199 -390l199 390h50z" />
    <glyph glyph-name="w" unicode="w" horiz-adv-x="752" 
d="M411 425l164 -390l100 390h45l-107 -425h-72l-165 390l-165 -390h-72l-107 425h45l100 -390l164 390h70z" />
    <glyph glyph-name="x" unicode="x" horiz-adv-x="516" 
d="M97 0h-60l179 213l-179 212h59l162 -191l162 191h59l-179 -212l179 -213h-60l-161 191z" />
    <glyph glyph-name="y" unicode="y" horiz-adv-x="572" 
d="M117 -174q5 -2 13.5 -2.5t16.5 -1.5h21q15 0 31 4.5t28.5 13.5t20.5 21.5t8 28.5q0 10 -2 15l-222 520h44l210 -487l209 487h45l-220 -518q-18 -42 -36 -66t-38.5 -36t-44 -14.5t-53.5 -2.5q-12 0 -19 1.5t-12 3.5v33z" />
    <glyph glyph-name="z" unicode="z" horiz-adv-x="500" 
d="M57 425h386v-38l-324 -349h324v-38h-386v35l329 352h-329v38z" />
    <glyph glyph-name="braceleft" unicode="{" horiz-adv-x="486" 
d="M175 555q0 56 8 98.5t30.5 71.5t63 43.5t105.5 14.5h27v-37h-27q-43 0 -74 -9t-50.5 -31.5t-29 -59t-9.5 -92.5v-95q0 -10 -1.5 -28t-9.5 -40t-25.5 -45.5t-50.5 -44.5q33 -22 50.5 -45.5t25.5 -45t9.5 -39t1.5 -27.5v-86q0 -55 9.5 -92t29 -59.5t50.5 -31.5t74 -9h27
v-37h-27q-65 0 -105.5 14.5t-63 43.5t-30.5 71.5t-8 98.5v87q0 60 -27.5 93t-70.5 45v39q42 14 70 47.5t28 90.5v96z" />
    <glyph glyph-name="bar" unicode="|" horiz-adv-x="198" 
d="M77 783h44v-954h-44v954z" />
    <glyph glyph-name="braceright" unicode="}" horiz-adv-x="486" 
d="M311 459q0 -57 28 -90.5t70 -47.5v-39q-43 -12 -70.5 -45t-27.5 -93v-87q0 -56 -8 -98.5t-30.5 -71.5t-63 -43.5t-105.5 -14.5h-27v37h27q43 0 74 9t50.5 31.5t29 59.5t9.5 92v86q0 10 1.5 27.5t9.5 39t25.5 45t50.5 45.5q-33 21 -50.5 44.5t-25.5 45.5t-9.5 40t-1.5 28
v95q0 56 -9.5 92.5t-29 59t-50.5 31.5t-74 9h-27v37h27q65 0 105.5 -14.5t63 -43.5t30.5 -71.5t8 -98.5v-96z" />
    <glyph glyph-name="asciitilde" unicode="~" horiz-adv-x="431" 
d="M134 225q21 0 41 -6.5t40 -14t40.5 -14t42.5 -6.5q21 0 46 5l10 -34q-15 -5 -30 -7t-26 -2q-21 0 -41 6.5t-40 14t-40.5 14t-43.5 6.5q-21 0 -46 -5l-10 34q15 5 30.5 7t26.5 2z" />
    <glyph glyph-name="uni00A0" unicode="&#xa0;" horiz-adv-x="189" 
 />
    <glyph glyph-name="exclamdown" unicode="&#xa1;" horiz-adv-x="198" 
d="M80 452h38l3 -452h-44zM77 585h44v-69h-44v69z" />
    <glyph glyph-name="cent" unicode="&#xa2;" horiz-adv-x="730" 
d="M403 590q105 -4 166.5 -43.5t83.5 -96.5h-50q-10 26 -31.5 45.5t-51 32.5t-65 19t-73.5 6q-54 0 -101.5 -17.5t-83 -51t-56 -82t-20.5 -110.5t20.5 -110t56 -80.5t83 -49.5t101.5 -17q38 0 73.5 6.5t65 19t51 32t31.5 45.5h50q-23 -58 -83.5 -97t-166.5 -43v-147h-44v147
q-78 4 -132 32t-87.5 70t-48 93t-14.5 100t14.5 100t48 93.5t87.5 71t132 32.5v155h44v-155z" />
    <glyph glyph-name="sterling" unicode="&#xa3;" horiz-adv-x="710" 
d="M257 296h191v-38h-191v-220h368v-38h-548v38h136v220h-136v38h136v128q0 24 7.5 53t31 54.5t67 42.5t115.5 17q36 0 69.5 -4.5t60.5 -15.5t45 -28t24 -43h-49q-10 19 -29.5 29.5t-41.5 16t-43.5 6.5t-35.5 1q-34 0 -66 -6.5t-57 -20t-39.5 -35.5t-14.5 -54v-141z" />
    <glyph glyph-name="currency" unicode="&#xa4;" horiz-adv-x="536" 
d="M268 124q44 0 73.5 30t29.5 73t-29.5 73t-73.5 30t-73.5 -30t-29.5 -73t29.5 -73t73.5 -30zM268 88q-52 0 -96 36l-70 -69l-25 25l72 73q-21 39 -21 74t21 74l-72 73l25 25l70 -69q44 36 96 36t96 -36l70 69l25 -25l-72 -73q21 -39 21 -74t-21 -74l72 -73l-25 -25l-70 69
q-44 -36 -96 -36z" />
    <glyph glyph-name="yen" unicode="&#xa5;" horiz-adv-x="691" 
d="M272 260l-195 325h53l216 -360l215 360h53l-196 -325h104v-38h-127l-27 -46v-65h154v-38h-154v-73h-45v73h-155v38h155v65l-28 46h-127v38h104z" />
    <glyph glyph-name="brokenbar" unicode="&#xa6;" horiz-adv-x="198" 
d="M77 783h44v-363h-44v363zM77 192h44v-363h-44v363z" />
    <glyph glyph-name="section" unicode="&#xa7;" horiz-adv-x="563" 
d="M78 279q0 35 20 63.5t71 42.5q-39 13 -65 33.5t-26 55.5q0 24 9.5 45.5t31 37.5t57.5 25t90 9q30 0 60.5 -5.5t56 -17.5t44 -31t24.5 -46h-51q-4 17 -17 28.5t-31.5 19t-40.5 11t-45 3.5q-45 0 -73 -7t-44 -18t-21.5 -24.5t-5.5 -27.5q0 -16 14 -27.5t37.5 -20t53 -14.5
t60.5 -12q35 -6 70.5 -13.5t64 -20t46.5 -33t18 -52.5q0 -40 -17.5 -66t-56.5 -40q32 -13 53 -33.5t21 -55.5q0 -65 -48 -94t-160 -29q-24 0 -55.5 3.5t-60.5 15t-52.5 33t-32.5 57.5h47q8 -25 31 -39t48.5 -21t47 -9t26.5 -2q75 0 120.5 17.5t45.5 63.5q0 19 -14.5 32
t-37.5 22t-53 15t-61 12q-35 6 -70.5 14t-64 21t-46.5 32t-18 47zM122 281q0 -19 24 -33.5t57.5 -24.5t69 -15.5t58.5 -5.5q20 0 39.5 3.5t36 12.5t26.5 24t10 37t-21 37t-50 24.5t-59 13.5t-47 4q-45 0 -73 -7t-44 -18t-21.5 -24.5t-5.5 -27.5z" />
    <glyph glyph-name="dieresis" unicode="&#xa8;" horiz-adv-x="439" 
d="M77 585h58v-57h-58v57zM304 585h58v-57h-58v57z" />
    <glyph glyph-name="copyright" unicode="&#xa9;" horiz-adv-x="751" 
d="M375 591q62 0 116.5 -23.5t95 -64t64 -95t23.5 -116.5t-23.5 -116t-64 -94.5t-95 -64t-116.5 -23.5t-116 23.5t-94.5 64t-64 94.5t-23.5 116t23.5 116.5t64 95t94.5 64t116 23.5zM375 30q54 0 102 20.5t84 56t56.5 83.5t20.5 102t-20.5 102t-56.5 84t-84 56.5t-102 20.5
t-102 -20.5t-83.5 -56.5t-56 -84t-20.5 -102t20.5 -102t56 -83.5t83.5 -56t102 -20.5zM380 160q-39 0 -65.5 12t-42.5 30.5t-23 42t-7 46.5q0 21 8 43.5t24.5 41t42.5 30.5t63 12q54 0 86.5 -24.5t43.5 -54.5h-39q-5 14 -15 22.5t-23 14t-27 7.5t-26 2q-18 0 -36.5 -5.5
t-32.5 -17.5t-23 -29.5t-9 -41.5t9 -42.5t23 -30.5t32.5 -18.5t36.5 -6.5q24 0 52 11t39 36h39q-10 -32 -41.5 -56t-88.5 -24z" />
    <glyph glyph-name="ordfeminine" unicode="&#xaa;" horiz-adv-x="397" 
d="M202 554q-29 0 -44.5 -8t-23.5 -24h-40q9 31 40 47t69 16q40 0 63 -8.5t35 -23t15.5 -33.5t3.5 -40v-159h-38v31q-34 -24 -64.5 -29.5t-44.5 -5.5q-12 0 -28.5 2t-31.5 9.5t-25.5 22t-10.5 39.5q0 29 19.5 46.5t50 27.5t66.5 13.5t69 3.5q0 42 -16 57.5t-64 15.5z
M112 392q0 -16 7 -25t17.5 -13.5t22.5 -5t21 -0.5q20 0 49 12t53 35v55q-13 0 -41.5 -1t-57 -6.5t-50 -17.5t-21.5 -33z" />
    <glyph glyph-name="guillemotleft" unicode="&#xab;" horiz-adv-x="643" 
d="M219 399h50l-142 -200l142 -199h-51l-141 199zM516 399h50l-142 -200l142 -199h-51l-141 199z" />
    <glyph glyph-name="logicalnot" unicode="&#xac;" horiz-adv-x="566" 
d="M489 70h-44v162h-368v38h412v-200z" />
    <glyph glyph-name="uni00AD" unicode="&#xad;" horiz-adv-x="189" 
 />
    <glyph glyph-name="registered" unicode="&#xae;" horiz-adv-x="751" 
d="M512 317q0 -10 -3 -23t-10.5 -26.5t-21 -25.5t-34.5 -21l31 -62h-38l-29 61h-106v-61h-37v259h134q32 0 54 -10.5t35.5 -25.5t19 -32.5t5.5 -32.5zM301 253h100q33 0 54 13t21 51q0 35 -21 51.5t-54 16.5h-100v-132zM375 591q62 0 116.5 -23.5t95 -64t64 -95t23.5 -116.5
t-23.5 -116t-64 -94.5t-95 -64t-116.5 -23.5t-116 23.5t-94.5 64t-64 94.5t-23.5 116t23.5 116.5t64 95t94.5 64t116 23.5zM375 30q54 0 102 20.5t84 56t56.5 83.5t20.5 102t-20.5 102t-56.5 84t-84 56.5t-102 20.5t-102 -20.5t-83.5 -56.5t-56 -84t-20.5 -102t20.5 -102
t56 -83.5t83.5 -56t102 -20.5z" />
    <glyph glyph-name="macron" unicode="&#xaf;" horiz-adv-x="494" 
d="M417 585v-38h-340v38h340z" />
    <glyph glyph-name="degree" unicode="&#xb0;" horiz-adv-x="378" 
d="M77 480q0 23 9 43t24 35t35.5 24t43.5 9t43.5 -9t35.5 -24t24 -35t9 -43q0 -22 -9 -42.5t-24 -35.5t-35.5 -24t-43.5 -9t-43.5 9t-35.5 24t-24 35.5t-9 42.5zM264 480q0 30 -21.5 51.5t-53.5 21.5t-53 -21.5t-21 -51.5q0 -31 21 -52.5t53 -21.5t53.5 21.5t21.5 52.5z" />
    <glyph glyph-name="plusminus" unicode="&#xb1;" horiz-adv-x="468" 
d="M212 287h-135v38h135v151h44v-151h135v-38h-135v-148h-44v148zM391 38v-38h-314v38h314z" />
    <glyph glyph-name="twosuperior" unicode="&#xb2;" horiz-adv-x="383" 
d="M79 300v28q0 14 28 31t61 38t61 46t28 55q0 36 -19.5 49t-54.5 13q-32 0 -47 -10t-21 -27h-38q9 35 37.5 51.5t68.5 16.5q32 0 53 -8t34.5 -20.5t19 -29t5.5 -33.5q0 -20 -7.5 -37.5t-27 -36.5t-53 -41.5t-85.5 -53.5h184v-31h-227z" />
    <glyph glyph-name="threesuperior" unicode="&#xb3;" horiz-adv-x="376" 
d="M261 513q0 16 -6 25.5t-16.5 14t-24.5 6t-29 1.5q-35 0 -50 -11t-21 -27h-37q9 33 36 51t72 18q59 0 86.5 -21.5t27.5 -59.5q0 -3 -1.5 -11t-6.5 -17.5t-14 -19t-24 -14.5q15 -4 24 -13.5t14 -19.5t6.5 -19t1.5 -12q0 -84 -116 -84q-89 0 -106 67h38q7 -18 22.5 -27
t47.5 -9q40 0 58 10t18 41q0 17 -6 27.5t-16 15.5t-23 6.5t-27 1.5h-11v27h11q10 0 22.5 1.5t23.5 7t18.5 16t7.5 28.5z" />
    <glyph glyph-name="acute" unicode="&#xb4;" horiz-adv-x="287" 
d="M140 585h70l-90 -122h-43z" />
    <glyph glyph-name="mu" unicode="&#xb5;" 
d="M62 425h45v-225q0 -57 15.5 -89.5t40.5 -49.5t55.5 -21.5t61.5 -4.5q32 0 67 13t65 35.5t49.5 53.5t19.5 68v220h45v-425h-45v99q-29 -39 -64 -59.5t-66 -30t-52 -11t-23 -1.5q-117 0 -169 56v-223h-45v595z" />
    <glyph glyph-name="paragraph" unicode="&#xb6;" horiz-adv-x="741" 
d="M304 287q-76 0 -121.5 16t-68.5 40.5t-30 53t-7 52.5q0 25 11 49t34.5 43.5t60.5 31.5t89 12h392v-585h-46v547h-268v-547h-46v287z" />
    <glyph glyph-name="periodcentered" unicode="&#xb7;" horiz-adv-x="212" 
d="M77 196h58v-57h-58v57z" />
    <glyph glyph-name="cedilla" unicode="&#xb8;" horiz-adv-x="334" 
d="M154 -3v-61q29 -6 52 -19q21 -12 36 -32.5t15 -54.5q0 -49 -32.5 -73t-83.5 -24q-15 0 -32.5 1t-31.5 3v28q1 0 8 -0.5t16 -1t19.5 -1t18.5 -0.5t22 1.5t28 8.5t24.5 21t10.5 40q0 21 -9.5 35t-24.5 23.5t-33.5 14t-36.5 6.5v85h34z" />
    <glyph glyph-name="onesuperior" unicode="&#xb9;" horiz-adv-x="310" 
d="M77 540q26 2 60.5 15t57.5 30h38v-257h-38v218q-36 -23 -65.5 -29.5t-52.5 -8.5v32z" />
    <glyph glyph-name="ordmasculine" unicode="&#xba;" horiz-adv-x="378" 
d="M77 480q0 23 9 43t24 35t35.5 24t43.5 9t43.5 -9t35.5 -24t24 -35t9 -43q0 -22 -9 -42.5t-24 -35.5t-35.5 -24t-43.5 -9t-43.5 9t-35.5 24t-24 35.5t-9 42.5zM264 480q0 30 -21.5 51.5t-53.5 21.5t-53 -21.5t-21 -51.5q0 -31 21 -52.5t53 -21.5t53.5 21.5t21.5 52.5z" />
    <glyph glyph-name="guillemotright" unicode="&#xbb;" horiz-adv-x="643" 
d="M566 199l-141 -199h-51l142 199l-142 200h50zM269 199l-141 -199h-51l142 199l-142 200h50z" />
    <glyph glyph-name="onequarter" unicode="&#xbc;" horiz-adv-x="820" 
d="M480 585h37l-215 -585h-37zM645 72h-177v42l179 171h36v-182h60v-31h-60v-72h-38v72zM645 103v130l-136 -130h136zM77 540q26 2 60.5 15t57.5 30h38v-257h-38v218q-36 -23 -65.5 -29.5t-52.5 -8.5v32z" />
    <glyph glyph-name="onehalf" unicode="&#xbd;" horiz-adv-x="831" 
d="M527 0v28q0 14 28 31t61 38t61 46t28 55q0 36 -19.5 49t-54.5 13q-32 0 -47 -10t-21 -27h-38q9 35 37.5 51.5t68.5 16.5q32 0 53 -8t34.5 -20.5t19 -29t5.5 -33.5q0 -20 -7.5 -37.5t-27 -36.5t-53 -41.5t-85.5 -53.5h184v-31h-227zM480 585h37l-215 -585h-37zM77 540
q26 2 60.5 15t57.5 30h38v-257h-38v218q-36 -23 -65.5 -29.5t-52.5 -8.5v32z" />
    <glyph glyph-name="threequarters" unicode="&#xbe;" horiz-adv-x="821" 
d="M261 513q0 16 -6 25.5t-16.5 14t-24.5 6t-29 1.5q-35 0 -50 -11t-21 -27h-37q9 33 36 51t72 18q59 0 86.5 -21.5t27.5 -59.5q0 -3 -1.5 -11t-6.5 -17.5t-14 -19t-24 -14.5q15 -4 24 -13.5t14 -19.5t6.5 -19t1.5 -12q0 -84 -116 -84q-89 0 -106 67h38q7 -18 22.5 -27
t47.5 -9q40 0 58 10t18 41q0 17 -6 27.5t-16 15.5t-23 6.5t-27 1.5h-11v27h11q10 0 22.5 1.5t23.5 7t18.5 16t7.5 28.5zM481 585h37l-215 -585h-37zM646 72h-177v42l179 171h36v-182h60v-31h-60v-72h-38v72zM646 103v130l-136 -130h136z" />
    <glyph glyph-name="questiondown" unicode="&#xbf;" 
d="M363 374q-50 -22 -94 -47t-77 -51.5t-52 -53t-19 -52.5q0 -34 15 -59t39.5 -41t56.5 -24t66 -8q77 0 121.5 28t53.5 76h48q-6 -36 -25.5 -62.5t-48.5 -44t-66.5 -26.5t-79.5 -9q-72 0 -116 18t-68 44.5t-32 56t-8 51.5q0 54 61 110.5t181 111.5v100h44v-118zM363 531h-44
v60h44v-60z" />
    <glyph glyph-name="Agrave" unicode="&#xc0;" horiz-adv-x="648" 
d="M501 149h-354l-67 -149h-48q62 149 131 292.5t131 292.5h60q62 -149 131 -292.5t131 -292.5h-48zM484 187l-160 356l-160 -356h320zM340 652h-43l-90 122h70z" />
    <glyph glyph-name="Aacute" unicode="&#xc1;" horiz-adv-x="648" 
d="M501 149h-354l-67 -149h-48q62 149 131 292.5t131 292.5h60q62 -149 131 -292.5t131 -292.5h-48zM484 187l-160 356l-160 -356h320zM370 774h70l-90 -122h-43z" />
    <glyph glyph-name="Acircumflex" unicode="&#xc2;" horiz-adv-x="648" 
d="M501 149h-354l-67 -149h-48q62 149 131 292.5t131 292.5h60q62 -149 131 -292.5t131 -292.5h-48zM484 187l-160 356l-160 -356h320zM347 825l100 -173h-48l-75 130l-75 -130h-48l100 173h46z" />
    <glyph glyph-name="Atilde" unicode="&#xc3;" horiz-adv-x="648" 
d="M501 149h-354l-67 -149h-48q62 149 131 292.5t131 292.5h60q62 -149 131 -292.5t131 -292.5h-48zM484 187l-160 356l-160 -356h320zM242 731q21 0 41 -6.5t40 -14t40.5 -14t42.5 -6.5q21 0 46 5l10 -34q-15 -5 -30 -7t-26 -2q-21 0 -41 6.5t-40 14t-40.5 14t-43.5 6.5
q-21 0 -46 -5l-10 34q15 5 30.5 7t26.5 2z" />
    <glyph glyph-name="Adieresis" unicode="&#xc4;" horiz-adv-x="648" 
d="M501 149h-354l-67 -149h-48q62 149 131 292.5t131 292.5h60q62 -149 131 -292.5t131 -292.5h-48zM484 187l-160 356l-160 -356h320zM181 709h58v-57h-58v57zM408 709h58v-57h-58v57z" />
    <glyph glyph-name="Aring" unicode="&#xc5;" horiz-adv-x="648" 
d="M501 149h-354l-67 -149h-48q62 149 131 292.5t131 292.5h60q62 -149 131 -292.5t131 -292.5h-48zM484 187l-160 356l-160 -356h320zM212 763q0 23 9 43t24 35t35.5 24t43.5 9t43.5 -9t35.5 -24t24 -35t9 -43q0 -22 -9 -42.5t-24 -35.5t-35.5 -24t-43.5 -9t-43.5 9
t-35.5 24t-24 35.5t-9 42.5zM399 763q0 30 -21.5 51.5t-53.5 21.5t-53 -21.5t-21 -51.5q0 -31 21 -52.5t53 -21.5t53.5 21.5t21.5 52.5z" />
    <glyph glyph-name="AE" unicode="&#xc6;" horiz-adv-x="1053" 
d="M584 547l-343 -373h343v373zM207 136q-29 -33 -61.5 -67.5t-61.5 -68.5h-57l529 585h440v-38h-368v-240h301v-38h-301v-231h368v-38h-412v136h-377z" />
    <glyph glyph-name="Ccedilla" unicode="&#xc7;" horiz-adv-x="680" 
d="M628 138q-22 -58 -85 -98t-171 -43v-61q29 -6 52 -19q21 -12 36 -32.5t15 -54.5q0 -49 -32.5 -73t-83.5 -24q-15 0 -32.5 1t-31.5 3v28q1 0 8 -0.5t16 -1t19.5 -1t18.5 -0.5t22 1.5t28 8.5t24.5 21t10.5 40q0 21 -9.5 35t-24.5 23.5t-33.5 14t-36.5 6.5v86q-79 3 -134 31
t-88.5 70t-48.5 93t-15 101q0 51 15.5 103.5t51.5 96t94.5 71t143.5 27.5q115 0 181.5 -40.5t89.5 -100.5h-50q-10 26 -31.5 45.5t-51 32.5t-65 19t-73.5 6q-54 0 -101.5 -17.5t-83 -51t-56 -82t-20.5 -110.5t20.5 -110t56 -80.5t83 -49.5t101.5 -17q38 0 73.5 6.5t65 19
t51 32t31.5 45.5h50z" />
    <glyph glyph-name="Egrave" unicode="&#xc8;" horiz-adv-x="541" 
d="M484 585v-38h-368v-240h301v-38h-301v-231h368v-38h-412v585h412zM314 652h-43l-90 122h70z" />
    <glyph glyph-name="Eacute" unicode="&#xc9;" horiz-adv-x="541" 
d="M484 585v-38h-368v-240h301v-38h-301v-231h368v-38h-412v585h412zM311 774h70l-90 -122h-43z" />
    <glyph glyph-name="Ecircumflex" unicode="&#xca;" horiz-adv-x="541" 
d="M484 585v-38h-368v-240h301v-38h-301v-231h368v-38h-412v585h412zM311 825l100 -173h-48l-75 130l-75 -130h-48l100 173h46z" />
    <glyph glyph-name="Edieresis" unicode="&#xcb;" horiz-adv-x="541" 
d="M484 585v-38h-368v-240h301v-38h-301v-231h368v-38h-412v585h412zM145 709h58v-57h-58v57zM372 709h58v-57h-58v57z" />
    <glyph glyph-name="Igrave" unicode="&#xcc;" horiz-adv-x="190" 
d="M73 585h44v-585h-44v585zM116 652h-43l-90 122h70z" />
    <glyph glyph-name="Iacute" unicode="&#xcd;" horiz-adv-x="190" 
d="M117 0h-44v585h44v-585zM137 774h70l-90 -122h-43z" />
    <glyph glyph-name="Icircumflex" unicode="&#xce;" horiz-adv-x="190" 
d="M73 585h44v-585h-44v585zM118 825l100 -173h-48l-75 130l-75 -130h-48l100 173h46z" />
    <glyph glyph-name="Idieresis" unicode="&#xcf;" horiz-adv-x="190" 
d="M73 585h44v-585h-44v585zM-26 709h58v-57h-58v57zM159 709h58v-57h-58v57z" />
    <glyph glyph-name="Eth" unicode="&#xd0;" horiz-adv-x="689" 
d="M116 318v267h248q84 0 137.5 -27t83.5 -69.5t41 -94t11 -101.5q0 -46 -11 -97.5t-41 -95t-83.5 -72t-137.5 -28.5h-248v280h-89v38h89zM160 547v-229h207v-38h-207v-242h206q110 0 168.5 67t58.5 188q0 133 -58.5 193.5t-168.5 60.5h-206z" />
    <glyph glyph-name="Ntilde" unicode="&#xd1;" horiz-adv-x="692" 
d="M116 545v-545h-44v585h69l433 -547v547h46v-585h-73zM262 731q21 0 41 -6.5t40 -14t40.5 -14t42.5 -6.5q21 0 46 5l10 -34q-15 -5 -30 -7t-26 -2q-21 0 -41 6.5t-40 14t-40.5 14t-43.5 6.5q-21 0 -46 -5l-10 34q15 5 30.5 7t26.5 2z" />
    <glyph glyph-name="Ograve" unicode="&#xd2;" horiz-adv-x="704" 
d="M352 35q55 0 101.5 16.5t81 49t54 79.5t19.5 107q0 63 -19.5 112.5t-54 83.5t-81 52t-101.5 18t-101.5 -18t-81 -52t-54 -83.5t-19.5 -112.5q0 -60 19.5 -107t54 -79.5t81 -49t101.5 -16.5zM352 -3q-85 0 -142.5 28t-92.5 71t-50 94t-15 97q0 49 15 102.5t50 98.5
t92.5 74t142.5 29t142.5 -29t92.5 -74t50 -98.5t15 -102.5q0 -46 -15 -97t-50 -94t-92.5 -71t-142.5 -28zM371 652h-43l-90 122h70z" />
    <glyph glyph-name="Oacute" unicode="&#xd3;" horiz-adv-x="704" 
d="M352 35q55 0 101.5 16.5t81 49t54 79.5t19.5 107q0 63 -19.5 112.5t-54 83.5t-81 52t-101.5 18t-101.5 -18t-81 -52t-54 -83.5t-19.5 -112.5q0 -60 19.5 -107t54 -79.5t81 -49t101.5 -16.5zM352 -3q-85 0 -142.5 28t-92.5 71t-50 94t-15 97q0 49 15 102.5t50 98.5
t92.5 74t142.5 29t142.5 -29t92.5 -74t50 -98.5t15 -102.5q0 -46 -15 -97t-50 -94t-92.5 -71t-142.5 -28zM396 774h70l-90 -122h-43z" />
    <glyph glyph-name="Ocircumflex" unicode="&#xd4;" horiz-adv-x="704" 
d="M352 35q55 0 101.5 16.5t81 49t54 79.5t19.5 107q0 63 -19.5 112.5t-54 83.5t-81 52t-101.5 18t-101.5 -18t-81 -52t-54 -83.5t-19.5 -112.5q0 -60 19.5 -107t54 -79.5t81 -49t101.5 -16.5zM352 -3q-85 0 -142.5 28t-92.5 71t-50 94t-15 97q0 49 15 102.5t50 98.5
t92.5 74t142.5 29t142.5 -29t92.5 -74t50 -98.5t15 -102.5q0 -46 -15 -97t-50 -94t-92.5 -71t-142.5 -28zM376 825l100 -173h-48l-75 130l-75 -130h-48l100 173h46z" />
    <glyph glyph-name="Otilde" unicode="&#xd5;" horiz-adv-x="704" 
d="M352 35q55 0 101.5 16.5t81 49t54 79.5t19.5 107q0 63 -19.5 112.5t-54 83.5t-81 52t-101.5 18t-101.5 -18t-81 -52t-54 -83.5t-19.5 -112.5q0 -60 19.5 -107t54 -79.5t81 -49t101.5 -16.5zM352 -3q-85 0 -142.5 28t-92.5 71t-50 94t-15 97q0 49 15 102.5t50 98.5
t92.5 74t142.5 29t142.5 -29t92.5 -74t50 -98.5t15 -102.5q0 -46 -15 -97t-50 -94t-92.5 -71t-142.5 -28zM270 731q21 0 41 -6.5t40 -14t40.5 -14t42.5 -6.5q21 0 46 5l10 -34q-15 -5 -30 -7t-26 -2q-21 0 -41 6.5t-40 14t-40.5 14t-43.5 6.5q-21 0 -46 -5l-10 34
q15 5 30.5 7t26.5 2z" />
    <glyph glyph-name="Odieresis" unicode="&#xd6;" horiz-adv-x="704" 
d="M352 35q55 0 101.5 16.5t81 49t54 79.5t19.5 107q0 63 -19.5 112.5t-54 83.5t-81 52t-101.5 18t-101.5 -18t-81 -52t-54 -83.5t-19.5 -112.5q0 -60 19.5 -107t54 -79.5t81 -49t101.5 -16.5zM352 -3q-85 0 -142.5 28t-92.5 71t-50 94t-15 97q0 49 15 102.5t50 98.5
t92.5 74t142.5 29t142.5 -29t92.5 -74t50 -98.5t15 -102.5q0 -46 -15 -97t-50 -94t-92.5 -71t-142.5 -28zM209 709h58v-57h-58v57zM436 709h58v-57h-58v57z" />
    <glyph glyph-name="multiply" unicode="&#xd7;" horiz-adv-x="506" 
d="M137 42h-60l134 159l-129 153h59l112 -132l112 132h59l-129 -153l134 -159h-60l-116 137z" />
    <glyph glyph-name="Oslash" unicode="&#xd8;" horiz-adv-x="704" 
d="M228 17q-49 18 -82.5 49t-54.5 68t-30 77t-9 76q0 49 15 102.5t50 98.5t92.5 74t142.5 29q45 0 82 -9l43 116h45l-47 -128q49 -19 83 -51t55 -70.5t30 -80.5t9 -81q0 -46 -15 -97t-50 -94t-92.5 -71t-142.5 -28q-23 0 -43 2t-39 6l-45 -124h-46zM96 287q0 -88 40 -147
t106 -85l179 490q-35 8 -69 8q-55 0 -101.5 -18t-81 -52t-54 -83.5t-19.5 -112.5zM352 35q55 0 101.5 16.5t81 49t54 79.5t19.5 107q0 92 -40.5 154t-106.5 91l-178 -490q31 -7 69 -7z" />
    <glyph glyph-name="Ugrave" unicode="&#xd9;" horiz-adv-x="694" 
d="M347 -3q-84 0 -138 25.5t-85.5 65.5t-44 88.5t-12.5 94.5v314h45v-317q0 -49 15 -92t44.5 -74t73.5 -49t102 -18t102 18t73.5 49t44.5 74t15 92v317h45v-314q0 -46 -12.5 -94.5t-44 -88.5t-85.5 -65.5t-138 -25.5zM370 652h-43l-90 122h70z" />
    <glyph glyph-name="Uacute" unicode="&#xda;" horiz-adv-x="694" 
d="M347 -3q-84 0 -138 25.5t-85.5 65.5t-44 88.5t-12.5 94.5v314h45v-317q0 -49 15 -92t44.5 -74t73.5 -49t102 -18t102 18t73.5 49t44.5 74t15 92v317h45v-314q0 -46 -12.5 -94.5t-44 -88.5t-85.5 -65.5t-138 -25.5zM381 774h70l-90 -122h-43z" />
    <glyph glyph-name="Ucircumflex" unicode="&#xdb;" horiz-adv-x="694" 
d="M347 -3q-84 0 -138 25.5t-85.5 65.5t-44 88.5t-12.5 94.5v314h45v-317q0 -49 15 -92t44.5 -74t73.5 -49t102 -18t102 18t73.5 49t44.5 74t15 92v317h45v-314q0 -46 -12.5 -94.5t-44 -88.5t-85.5 -65.5t-138 -25.5zM370 825l100 -173h-48l-75 130l-75 -130h-48l100 173h46
z" />
    <glyph glyph-name="Udieresis" unicode="&#xdc;" horiz-adv-x="694" 
d="M347 -3q-84 0 -138 25.5t-85.5 65.5t-44 88.5t-12.5 94.5v314h45v-317q0 -49 15 -92t44.5 -74t73.5 -49t102 -18t102 18t73.5 49t44.5 74t15 92v317h45v-314q0 -46 -12.5 -94.5t-44 -88.5t-85.5 -65.5t-138 -25.5zM206 709h58v-57h-58v57zM433 709h58v-57h-58v57z" />
    <glyph glyph-name="Yacute" unicode="&#xdd;" horiz-adv-x="611" 
d="M521 585h53l-246 -409v-176h-45v176l-246 409h53l216 -360zM349 774h70l-90 -122h-43z" />
    <glyph glyph-name="Thorn" unicode="&#xde;" horiz-adv-x="601" 
d="M352 488q59 0 99 -18t64 -46t34 -62t10 -65t-10.5 -65.5t-35 -63.5t-64 -48.5t-97.5 -19.5h-236v-100h-44v585h44v-97h236zM351 138q71 0 117.5 41t46.5 117q0 77 -46.5 115.5t-117.5 38.5h-235v-312h235z" />
    <glyph glyph-name="germandbls" unicode="&#xdf;" horiz-adv-x="619" 
d="M72 0v394q0 36 10.5 71.5t37.5 63.5t72.5 45t115.5 17q71 0 116 -14t70.5 -37t34.5 -52t9 -60q0 -10 -1.5 -28t-10.5 -39.5t-27 -43t-51 -37.5q43 -9 68.5 -26t39 -36.5t17.5 -39t4 -33.5q0 -31 -10 -57.5t-36 -46t-71.5 -30.5t-116.5 -11h-25v38h21q39 0 74.5 2.5
t61.5 13t41.5 32t15.5 58.5q0 40 -15.5 62.5t-41.5 33t-61.5 12.5t-74.5 2h-44v38h48q32 0 59 9t47.5 26t32 42.5t11.5 58.5q0 35 -15 59t-40.5 38.5t-60 21t-72.5 6.5q-37 0 -71.5 -9t-60 -27.5t-41 -46t-15.5 -65.5v-405h-45z" />
    <glyph glyph-name="agrave" unicode="&#xe0;" horiz-adv-x="551" 
d="M90 110q0 -28 18 -43.5t41.5 -22.5t46 -8t32.5 -1q30 0 63.5 6.5t64.5 19t56.5 30t38.5 39.5v80q-30 0 -69 -1t-79 -4.5t-78.5 -10t-68 -17.5t-48 -27.5t-18.5 -39.5zM450 274q0 32 -14.5 54t-39.5 35.5t-56.5 20t-66.5 6.5q-14 0 -35.5 -1t-43.5 -6.5t-41.5 -16
t-29.5 -29.5h-49q6 26 24 43t45 28t60.5 15.5t69.5 4.5q72 0 115 -17t66.5 -42.5t31 -54.5t7.5 -53v-261h-42v74q-25 -29 -60.5 -44.5t-71 -23t-65 -8.5t-44.5 -1q-25 0 -53.5 4.5t-52.5 17t-40 34.5t-16 58q0 33 19.5 56t51.5 38.5t74 24t86.5 12.5t89 5t81.5 1v26z
M322 504h-43l-90 122h70z" />
    <glyph glyph-name="aacute" unicode="&#xe1;" horiz-adv-x="551" 
d="M90 110q0 -28 18 -43.5t41.5 -22.5t46 -8t32.5 -1q30 0 63.5 6.5t64.5 19t56.5 30t38.5 39.5v80q-30 0 -69 -1t-79 -4.5t-78.5 -10t-68 -17.5t-48 -27.5t-18.5 -39.5zM450 274q0 32 -14.5 54t-39.5 35.5t-56.5 20t-66.5 6.5q-14 0 -35.5 -1t-43.5 -6.5t-41.5 -16
t-29.5 -29.5h-49q6 26 24 43t45 28t60.5 15.5t69.5 4.5q72 0 115 -17t66.5 -42.5t31 -54.5t7.5 -53v-261h-42v74q-25 -29 -60.5 -44.5t-71 -23t-65 -8.5t-44.5 -1q-25 0 -53.5 4.5t-52.5 17t-40 34.5t-16 58q0 33 19.5 56t51.5 38.5t74 24t86.5 12.5t89 5t81.5 1v26z
M325 626h70l-90 -122h-43z" />
    <glyph glyph-name="acircumflex" unicode="&#xe2;" horiz-adv-x="551" 
d="M90 110q0 -28 18 -43.5t41.5 -22.5t46 -8t32.5 -1q30 0 63.5 6.5t64.5 19t56.5 30t38.5 39.5v80q-30 0 -69 -1t-79 -4.5t-78.5 -10t-68 -17.5t-48 -27.5t-18.5 -39.5zM450 274q0 32 -14.5 54t-39.5 35.5t-56.5 20t-66.5 6.5q-14 0 -35.5 -1t-43.5 -6.5t-41.5 -16
t-29.5 -29.5h-49q6 26 24 43t45 28t60.5 15.5t69.5 4.5q72 0 115 -17t66.5 -42.5t31 -54.5t7.5 -53v-261h-42v74q-25 -29 -60.5 -44.5t-71 -23t-65 -8.5t-44.5 -1q-25 0 -53.5 4.5t-52.5 17t-40 34.5t-16 58q0 33 19.5 56t51.5 38.5t74 24t86.5 12.5t89 5t81.5 1v26z
M306 677l100 -173h-48l-75 130l-75 -130h-48l100 173h46z" />
    <glyph glyph-name="atilde" unicode="&#xe3;" horiz-adv-x="551" 
d="M90 110q0 -28 18 -43.5t41.5 -22.5t46 -8t32.5 -1q30 0 63.5 6.5t64.5 19t56.5 30t38.5 39.5v80q-30 0 -69 -1t-79 -4.5t-78.5 -10t-68 -17.5t-48 -27.5t-18.5 -39.5zM450 274q0 32 -14.5 54t-39.5 35.5t-56.5 20t-66.5 6.5q-14 0 -35.5 -1t-43.5 -6.5t-41.5 -16
t-29.5 -29.5h-49q6 26 24 43t45 28t60.5 15.5t69.5 4.5q72 0 115 -17t66.5 -42.5t31 -54.5t7.5 -53v-261h-42v74q-25 -29 -60.5 -44.5t-71 -23t-65 -8.5t-44.5 -1q-25 0 -53.5 4.5t-52.5 17t-40 34.5t-16 58q0 33 19.5 56t51.5 38.5t74 24t86.5 12.5t89 5t81.5 1v26z
M201 583q21 0 41 -6.5t40 -14t40.5 -14t42.5 -6.5q21 0 46 5l10 -34q-15 -5 -30 -7t-26 -2q-21 0 -41 6.5t-40 14t-40.5 14t-43.5 6.5q-21 0 -46 -5l-10 34q15 5 30.5 7t26.5 2z" />
    <glyph glyph-name="adieresis" unicode="&#xe4;" horiz-adv-x="551" 
d="M90 110q0 -28 18 -43.5t41.5 -22.5t46 -8t32.5 -1q30 0 63.5 6.5t64.5 19t56.5 30t38.5 39.5v80q-30 0 -69 -1t-79 -4.5t-78.5 -10t-68 -17.5t-48 -27.5t-18.5 -39.5zM450 274q0 32 -14.5 54t-39.5 35.5t-56.5 20t-66.5 6.5q-14 0 -35.5 -1t-43.5 -6.5t-41.5 -16
t-29.5 -29.5h-49q6 26 24 43t45 28t60.5 15.5t69.5 4.5q72 0 115 -17t66.5 -42.5t31 -54.5t7.5 -53v-261h-42v74q-25 -29 -60.5 -44.5t-71 -23t-65 -8.5t-44.5 -1q-25 0 -53.5 4.5t-52.5 17t-40 34.5t-16 58q0 33 19.5 56t51.5 38.5t74 24t86.5 12.5t89 5t81.5 1v26z
M137 561h58v-57h-58v57zM364 561h58v-57h-58v57z" />
    <glyph glyph-name="aring" unicode="&#xe5;" horiz-adv-x="551" 
d="M90 110q0 -28 18 -43.5t41.5 -22.5t46 -8t32.5 -1q30 0 63.5 6.5t64.5 19t56.5 30t38.5 39.5v80q-30 0 -69 -1t-79 -4.5t-78.5 -10t-68 -17.5t-48 -27.5t-18.5 -39.5zM450 274q0 32 -14.5 54t-39.5 35.5t-56.5 20t-66.5 6.5q-14 0 -35.5 -1t-43.5 -6.5t-41.5 -16
t-29.5 -29.5h-49q6 26 24 43t45 28t60.5 15.5t69.5 4.5q72 0 115 -17t66.5 -42.5t31 -54.5t7.5 -53v-261h-42v74q-25 -29 -60.5 -44.5t-71 -23t-65 -8.5t-44.5 -1q-25 0 -53.5 4.5t-52.5 17t-40 34.5t-16 58q0 33 19.5 56t51.5 38.5t74 24t86.5 12.5t89 5t81.5 1v26z
M180 615q0 23 9 43t24 35t35.5 24t43.5 9t43.5 -9t35.5 -24t24 -35t9 -43q0 -22 -9 -42.5t-24 -35.5t-35.5 -24t-43.5 -9t-43.5 9t-35.5 24t-24 35.5t-9 42.5zM367 615q0 30 -21.5 51.5t-53.5 21.5t-53 -21.5t-21 -51.5q0 -31 21 -52.5t53 -21.5t53.5 21.5t21.5 52.5z" />
    <glyph glyph-name="ae" unicode="&#xe6;" horiz-adv-x="991" 
d="M706 -3q-91 0 -143 28.5t-78 73.5q-32 -38 -73 -59t-80 -30.5t-71 -11t-47 -1.5q-25 0 -53.5 4.5t-52.5 17t-40 34.5t-16 58q0 33 19.5 56t51.5 38.5t74 24t86.5 12.5t89 5t81.5 1v26q0 32 -14.5 54t-39.5 35.5t-56.5 20t-66.5 6.5q-14 0 -35.5 -1t-43.5 -6.5t-41.5 -16
t-29.5 -29.5h-49q6 26 24 43t45 28t60.5 15.5t69.5 4.5q50 0 85.5 -8.5t60 -23t39.5 -32.5t23 -37q26 41 78.5 71t139.5 30q72 0 118.5 -22t73.5 -54t38 -69.5t11 -68.5v-30h-444q7 -53 34.5 -83t60.5 -44.5t64.5 -18t45.5 -3.5q24 0 50 3.5t49 11.5t41.5 21.5t26.5 33.5h55
q-9 -21 -27.5 -40.5t-45.5 -34.5t-64 -24t-84 -9zM899 223q-6 59 -30 92t-54.5 50t-61.5 21t-51 4q-19 0 -51.5 -4.5t-64 -21t-56.5 -50t-30 -91.5h399zM466 143q-5 16 -7.5 32.5t-3.5 34.5q-30 0 -69 -1t-79 -4.5t-78.5 -10t-68 -17.5t-48 -27.5t-18.5 -39.5
q0 -28 18 -43.5t41.5 -22.5t46 -8t32.5 -1q28 0 61.5 7t66.5 21t61 34t45 46z" />
    <glyph glyph-name="ccedilla" unicode="&#xe7;" horiz-adv-x="570" 
d="M310 35q23 0 49 3.5t49 11.5t41.5 21.5t26.5 33.5h51q-17 -41 -66.5 -73t-135.5 -34v-62q29 -6 52 -19q21 -12 36 -32.5t15 -54.5q0 -49 -32.5 -73t-83.5 -24q-15 0 -32.5 1t-31.5 3v28q1 0 8 -0.5t16 -1t19.5 -1t18.5 -0.5t22 1.5t28 8.5t24.5 21t10.5 40q0 21 -9.5 35
t-24.5 23.5t-33.5 14t-36.5 6.5v86q-68 2 -114 22t-73.5 50t-39.5 68t-12 76q0 39 13 77.5t43.5 69t80 49t122.5 18.5q47 0 83 -9t62.5 -24t44 -34.5t26.5 -40.5h-51q-8 20 -26 33.5t-41 21.5t-48.5 11.5t-49.5 3.5q-45 0 -84.5 -9t-68.5 -29.5t-45.5 -54t-16.5 -83.5
q0 -49 16.5 -83t45 -55.5t68 -31t84.5 -9.5z" />
    <glyph glyph-name="egrave" unicode="&#xe8;" horiz-adv-x="588" 
d="M496 223q-6 59 -30 92t-54.5 50t-61.5 21t-51 4q-19 0 -51.5 -4.5t-64 -21t-56.5 -50t-30 -91.5h399zM303 -3q-73 0 -121 19.5t-77 51t-41 72.5t-12 83q0 33 12.5 69t41.5 66.5t76.5 50t117.5 19.5q72 0 118.5 -22t73.5 -54t38 -69.5t11 -68.5v-30h-444q7 -53 34.5 -83
t60.5 -44.5t64.5 -18t45.5 -3.5q24 0 50 3.5t49 11.5t41.5 21.5t26.5 33.5h55q-9 -21 -27.5 -40.5t-45.5 -34.5t-64 -24t-84 -9zM321 504h-43l-90 122h70z" />
    <glyph glyph-name="eacute" unicode="&#xe9;" horiz-adv-x="588" 
d="M496 223q-6 59 -30 92t-54.5 50t-61.5 21t-51 4q-19 0 -51.5 -4.5t-64 -21t-56.5 -50t-30 -91.5h399zM303 -3q-73 0 -121 19.5t-77 51t-41 72.5t-12 83q0 33 12.5 69t41.5 66.5t76.5 50t117.5 19.5q72 0 118.5 -22t73.5 -54t38 -69.5t11 -68.5v-30h-444q7 -53 34.5 -83
t60.5 -44.5t64.5 -18t45.5 -3.5q24 0 50 3.5t49 11.5t41.5 21.5t26.5 33.5h55q-9 -21 -27.5 -40.5t-45.5 -34.5t-64 -24t-84 -9zM342 626h70l-90 -122h-43z" />
    <glyph glyph-name="ecircumflex" unicode="&#xea;" horiz-adv-x="588" 
d="M496 223q-6 59 -30 92t-54.5 50t-61.5 21t-51 4q-19 0 -51.5 -4.5t-64 -21t-56.5 -50t-30 -91.5h399zM303 -3q-73 0 -121 19.5t-77 51t-41 72.5t-12 83q0 33 12.5 69t41.5 66.5t76.5 50t117.5 19.5q72 0 118.5 -22t73.5 -54t38 -69.5t11 -68.5v-30h-444q7 -53 34.5 -83
t60.5 -44.5t64.5 -18t45.5 -3.5q24 0 50 3.5t49 11.5t41.5 21.5t26.5 33.5h55q-9 -21 -27.5 -40.5t-45.5 -34.5t-64 -24t-84 -9zM325 677l100 -173h-48l-75 130l-75 -130h-48l100 173h46z" />
    <glyph glyph-name="edieresis" unicode="&#xeb;" horiz-adv-x="588" 
d="M496 223q-6 59 -30 92t-54.5 50t-61.5 21t-51 4q-19 0 -51.5 -4.5t-64 -21t-56.5 -50t-30 -91.5h399zM303 -3q-73 0 -121 19.5t-77 51t-41 72.5t-12 83q0 33 12.5 69t41.5 66.5t76.5 50t117.5 19.5q72 0 118.5 -22t73.5 -54t38 -69.5t11 -68.5v-30h-444q7 -53 34.5 -83
t60.5 -44.5t64.5 -18t45.5 -3.5q24 0 50 3.5t49 11.5t41.5 21.5t26.5 33.5h55q-9 -21 -27.5 -40.5t-45.5 -34.5t-64 -24t-84 -9zM156 561h58v-57h-58v57zM383 561h58v-57h-58v57z" />
    <glyph glyph-name="igrave" unicode="&#xec;" horiz-adv-x="190" 
d="M73 425h44v-425h-44v425zM114 504h-43l-90 122h70z" />
    <glyph glyph-name="iacute" unicode="&#xed;" horiz-adv-x="190" 
d="M117 0h-44v425h44v-425zM139 626h70l-90 -122h-43z" />
    <glyph glyph-name="icircumflex" unicode="&#xee;" horiz-adv-x="190" 
d="M73 425h44v-425h-44v425zM118 677l100 -173h-48l-75 130l-75 -130h-48l100 173h46z" />
    <glyph glyph-name="idieresis" unicode="&#xef;" horiz-adv-x="190" 
d="M73 425h44v-425h-44v425zM-26 561h58v-57h-58v57zM159 561h58v-57h-58v57z" />
    <glyph glyph-name="eth" unicode="&#xf0;" horiz-adv-x="607" 
d="M407 699q45 -42 73.5 -92t45 -103.5t23 -109t6.5 -109.5v-114q0 -85 -62.5 -129.5t-188.5 -44.5q-73 0 -122 14t-77.5 38.5t-40.5 57.5t-12 71q0 39 11 74t40.5 61.5t79.5 42t128 15.5q6 0 29.5 -1.5t53.5 -8.5t62 -21.5t54 -40.5q0 130 -34 221t-96 154l-117 -115
l-27 24l114 113q-22 11 -40.5 18t-35.5 12t-35 9.5t-39 8.5q3 11 5 16t5 14q36 -7 78 -18t88 -33l68 66q7 -8 14.5 -14t12.5 -11zM301 333q-37 0 -73.5 -6.5t-65.5 -23.5t-47 -47.5t-18 -77.5q0 -42 17 -69.5t45.5 -44t65.5 -23t78 -6.5q33 0 69.5 4.5t67 18t50.5 40
t20 69.5q0 57 -22 90t-54.5 50t-68.5 21.5t-64 4.5z" />
    <glyph glyph-name="ntilde" unicode="&#xf1;" 
d="M117 326q29 39 64 59.5t66 30t52.5 11t22.5 1.5q110 0 162 -48.5t52 -152.5v-227h-45v225q0 57 -15.5 89.5t-40 49.5t-55.5 21.5t-62 4.5t-66.5 -13t-65.5 -35.5t-49.5 -53.5t-19.5 -68v-220h-45v425h45v-99zM228 583q21 0 41 -6.5t40 -14t40.5 -14t42.5 -6.5q21 0 46 5
l10 -34q-15 -5 -30 -7t-26 -2q-21 0 -41 6.5t-40 14t-40.5 14t-43.5 6.5q-21 0 -46 -5l-10 34q15 5 30.5 7t26.5 2z" />
    <glyph glyph-name="ograve" unicode="&#xf2;" horiz-adv-x="608" 
d="M304 35q38 0 75 10t66.5 31.5t48 55.5t18.5 82q0 47 -18.5 80.5t-48 54.5t-66.5 31t-75 10t-75 -10t-66.5 -31t-48 -54.5t-18.5 -80.5q0 -48 18.5 -82t48 -55.5t66.5 -31.5t75 -10zM304 -3q-72 0 -120 19.5t-77.5 50.5t-42 70t-12.5 77t12.5 76.5t42 69t77.5 49.5t120 19
t120 -19t77.5 -49.5t42 -69t12.5 -76.5t-12.5 -77t-42 -70t-77.5 -50.5t-120 -19.5zM324 504h-43l-90 122h70z" />
    <glyph glyph-name="oacute" unicode="&#xf3;" horiz-adv-x="608" 
d="M304 35q38 0 75 10t66.5 31.5t48 55.5t18.5 82q0 47 -18.5 80.5t-48 54.5t-66.5 31t-75 10t-75 -10t-66.5 -31t-48 -54.5t-18.5 -80.5q0 -48 18.5 -82t48 -55.5t66.5 -31.5t75 -10zM304 -3q-72 0 -120 19.5t-77.5 50.5t-42 70t-12.5 77t12.5 76.5t42 69t77.5 49.5t120 19
t120 -19t77.5 -49.5t42 -69t12.5 -76.5t-12.5 -77t-42 -70t-77.5 -50.5t-120 -19.5zM347 626h70l-90 -122h-43z" />
    <glyph glyph-name="ocircumflex" unicode="&#xf4;" horiz-adv-x="608" 
d="M304 35q38 0 75 10t66.5 31.5t48 55.5t18.5 82q0 47 -18.5 80.5t-48 54.5t-66.5 31t-75 10t-75 -10t-66.5 -31t-48 -54.5t-18.5 -80.5q0 -48 18.5 -82t48 -55.5t66.5 -31.5t75 -10zM304 -3q-72 0 -120 19.5t-77.5 50.5t-42 70t-12.5 77t12.5 76.5t42 69t77.5 49.5t120 19
t120 -19t77.5 -49.5t42 -69t12.5 -76.5t-12.5 -77t-42 -70t-77.5 -50.5t-120 -19.5zM328 677l100 -173h-48l-75 130l-75 -130h-48l100 173h46z" />
    <glyph glyph-name="otilde" unicode="&#xf5;" horiz-adv-x="608" 
d="M304 35q38 0 75 10t66.5 31.5t48 55.5t18.5 82q0 47 -18.5 80.5t-48 54.5t-66.5 31t-75 10t-75 -10t-66.5 -31t-48 -54.5t-18.5 -80.5q0 -48 18.5 -82t48 -55.5t66.5 -31.5t75 -10zM304 -3q-72 0 -120 19.5t-77.5 50.5t-42 70t-12.5 77t12.5 76.5t42 69t77.5 49.5t120 19
t120 -19t77.5 -49.5t42 -69t12.5 -76.5t-12.5 -77t-42 -70t-77.5 -50.5t-120 -19.5zM222 583q21 0 41 -6.5t40 -14t40.5 -14t42.5 -6.5q21 0 46 5l10 -34q-15 -5 -30 -7t-26 -2q-21 0 -41 6.5t-40 14t-40.5 14t-43.5 6.5q-21 0 -46 -5l-10 34q15 5 30.5 7t26.5 2z" />
    <glyph glyph-name="odieresis" unicode="&#xf6;" horiz-adv-x="608" 
d="M304 35q38 0 75 10t66.5 31.5t48 55.5t18.5 82q0 47 -18.5 80.5t-48 54.5t-66.5 31t-75 10t-75 -10t-66.5 -31t-48 -54.5t-18.5 -80.5q0 -48 18.5 -82t48 -55.5t66.5 -31.5t75 -10zM304 -3q-72 0 -120 19.5t-77.5 50.5t-42 70t-12.5 77t12.5 76.5t42 69t77.5 49.5t120 19
t120 -19t77.5 -49.5t42 -69t12.5 -76.5t-12.5 -77t-42 -70t-77.5 -50.5t-120 -19.5zM162 561h58v-57h-58v57zM389 561h58v-57h-58v57z" />
    <glyph glyph-name="divide" unicode="&#xf7;" horiz-adv-x="477" 
d="M400 200v-38h-323v38h323zM210 57h57v-57h-57v57zM210 362h57v-57h-57v57z" />
    <glyph glyph-name="oslash" unicode="&#xf8;" horiz-adv-x="608" 
d="M206 9q-43 12 -72.5 34t-47.5 50t-26 59t-8 62q0 38 12.5 76.5t42 69t77.5 49.5t120 19q29 0 54 -3l53 144h45l-56 -153q44 -12 73.5 -33.5t48 -48.5t26.5 -58t8 -62q0 -38 -12.5 -77t-42 -70t-77.5 -50.5t-120 -19.5q-15 0 -29 1t-27 3l-44 -122h-46zM304 35q38 0 75 10
t66.5 31.5t48 55.5t18.5 82q0 34 -10 61t-27 47t-40 34t-49 22l-124 -340q21 -3 42 -3zM96 214q0 -69 36 -109.5t88 -57.5l124 340q-19 3 -40 3q-38 0 -75 -10t-66.5 -31t-48 -54.5t-18.5 -80.5z" />
    <glyph glyph-name="ugrave" unicode="&#xf9;" 
d="M481 99q-29 -39 -64 -59.5t-66 -30t-52 -11t-23 -1.5q-110 0 -162 48.5t-52 152.5v227h45v-225q0 -57 15.5 -89.5t40.5 -49.5t55.5 -21.5t61.5 -4.5q32 0 67 13t65 35.5t49.5 53.5t19.5 68v220h45v-425h-45v99zM315 504h-43l-90 122h70z" />
    <glyph glyph-name="uacute" unicode="&#xfa;" 
d="M481 99q-29 -39 -64 -59.5t-66 -30t-52 -11t-23 -1.5q-110 0 -162 48.5t-52 152.5v227h45v-225q0 -57 15.5 -89.5t40.5 -49.5t55.5 -21.5t61.5 -4.5q32 0 67 13t65 35.5t49.5 53.5t19.5 68v220h45v-425h-45v99zM329 626h70l-90 -122h-43z" />
    <glyph glyph-name="ucircumflex" unicode="&#xfb;" 
d="M481 99q-29 -39 -64 -59.5t-66 -30t-52 -11t-23 -1.5q-110 0 -162 48.5t-52 152.5v227h45v-225q0 -57 15.5 -89.5t40.5 -49.5t55.5 -21.5t61.5 -4.5q32 0 67 13t65 35.5t49.5 53.5t19.5 68v220h45v-425h-45v99zM319 677l100 -173h-48l-75 130l-75 -130h-48l100 173h46z
" />
    <glyph glyph-name="udieresis" unicode="&#xfc;" 
d="M481 99q-29 -39 -64 -59.5t-66 -30t-52 -11t-23 -1.5q-110 0 -162 48.5t-52 152.5v227h45v-225q0 -57 15.5 -89.5t40.5 -49.5t55.5 -21.5t61.5 -4.5q32 0 67 13t65 35.5t49.5 53.5t19.5 68v220h45v-425h-45v99zM152 561h58v-57h-58v57zM379 561h58v-57h-58v57z" />
    <glyph glyph-name="yacute" unicode="&#xfd;" horiz-adv-x="572" 
d="M331 626h70l-90 -122h-43zM117 -174q5 -2 13.5 -2.5t16.5 -1.5h21q15 0 31 4.5t28.5 13.5t20.5 21.5t8 28.5q0 10 -2 15l-222 520h44l210 -487l209 487h45l-220 -518q-18 -42 -36 -66t-38.5 -36t-44 -14.5t-53.5 -2.5q-12 0 -19 1.5t-12 3.5v33z" />
    <glyph glyph-name="thorn" unicode="&#xfe;" horiz-adv-x="612" 
d="M520 223q0 52 -20 84.5t-49 51t-63 25t-63 6.5q-36 0 -73 -10.5t-67 -31t-49.5 -50t-19.5 -68.5v-21q0 -33 18.5 -64.5t48 -56t67.5 -39t77 -14.5q33 0 67 10.5t62 32t46 56t18 82.5v7zM325 428q53 0 97 -14.5t75.5 -42t49 -67t17.5 -88.5q0 -56 -20 -97.5t-51.5 -68.5
t-71 -40t-78.5 -13q-16 0 -41 1.5t-55 11t-64 30t-67 58.5v-269h-44v756h44v-247q21 29 51 47t60 27.5t56.5 12.5t41.5 3z" />
    <glyph glyph-name="ydieresis" unicode="&#xff;" horiz-adv-x="572" 
d="M142 561h58v-57h-58v57zM369 561h58v-57h-58v57zM117 -174q5 -2 13.5 -2.5t16.5 -1.5h21q15 0 31 4.5t28.5 13.5t20.5 21.5t8 28.5q0 10 -2 15l-222 520h44l210 -487l209 487h45l-220 -518q-18 -42 -36 -66t-38.5 -36t-44 -14.5t-53.5 -2.5q-12 0 -19 1.5t-12 3.5v33z
" />
    <glyph glyph-name="Amacron" unicode="&#x100;" horiz-adv-x="648" 
d="M501 149h-354l-67 -149h-48q62 149 131 292.5t131 292.5h60q62 -149 131 -292.5t131 -292.5h-48zM484 187l-160 356l-160 -356h320zM494 690v-38h-340v38h340z" />
    <glyph glyph-name="amacron" unicode="&#x101;" horiz-adv-x="551" 
d="M90 110q0 -28 18 -43.5t41.5 -22.5t46 -8t32.5 -1q30 0 63.5 6.5t64.5 19t56.5 30t38.5 39.5v80q-30 0 -69 -1t-79 -4.5t-78.5 -10t-68 -17.5t-48 -27.5t-18.5 -39.5zM450 274q0 32 -14.5 54t-39.5 35.5t-56.5 20t-66.5 6.5q-14 0 -35.5 -1t-43.5 -6.5t-41.5 -16
t-29.5 -29.5h-49q6 26 24 43t45 28t60.5 15.5t69.5 4.5q72 0 115 -17t66.5 -42.5t31 -54.5t7.5 -53v-261h-42v74q-25 -29 -60.5 -44.5t-71 -23t-65 -8.5t-44.5 -1q-25 0 -53.5 4.5t-52.5 17t-40 34.5t-16 58q0 33 19.5 56t51.5 38.5t74 24t86.5 12.5t89 5t81.5 1v26z
M458 542v-38h-340v38h340z" />
    <glyph glyph-name="Abreve" unicode="&#x102;" horiz-adv-x="648" 
d="M501 149h-354l-67 -149h-48q62 149 131 292.5t131 292.5h60q62 -149 131 -292.5t131 -292.5h-48zM484 187l-160 356l-160 -356h320zM324 652q-50 0 -93 20.5t-57 69.5h43q28 -60 107 -60t107 60h43q-14 -49 -57 -69.5t-93 -20.5z" />
    <glyph glyph-name="abreve" unicode="&#x103;" horiz-adv-x="551" 
d="M90 110q0 -28 18 -43.5t41.5 -22.5t46 -8t32.5 -1q30 0 63.5 6.5t64.5 19t56.5 30t38.5 39.5v80q-30 0 -69 -1t-79 -4.5t-78.5 -10t-68 -17.5t-48 -27.5t-18.5 -39.5zM450 274q0 32 -14.5 54t-39.5 35.5t-56.5 20t-66.5 6.5q-14 0 -35.5 -1t-43.5 -6.5t-41.5 -16
t-29.5 -29.5h-49q6 26 24 43t45 28t60.5 15.5t69.5 4.5q72 0 115 -17t66.5 -42.5t31 -54.5t7.5 -53v-261h-42v74q-25 -29 -60.5 -44.5t-71 -23t-65 -8.5t-44.5 -1q-25 0 -53.5 4.5t-52.5 17t-40 34.5t-16 58q0 33 19.5 56t51.5 38.5t74 24t86.5 12.5t89 5t81.5 1v26z
M288 504q-50 0 -93 20.5t-57 69.5h43q28 -60 107 -60t107 60h43q-14 -49 -57 -69.5t-93 -20.5z" />
    <glyph glyph-name="Aogonek" unicode="&#x104;" horiz-adv-x="648" 
d="M484 187l-160 356l-160 -356h320zM501 149h-354l-67 -149h-48q62 149 131 292.5t131 292.5h60q62 -149 131 -292.5t131 -292.5h-10q-17 -17 -29.5 -43t-12.5 -52q0 -27 12.5 -40.5t36.5 -23.5v-29q-14 4 -29 9t-27 15t-19.5 26.5t-7.5 42.5q0 14 10 40.5t39 54.5h-11z
" />
    <glyph glyph-name="aogonek" unicode="&#x105;" horiz-adv-x="551" 
d="M493 -174q-14 4 -28 10t-25.5 16.5t-18.5 25.5t-7 36q0 14 8 36t37 50h-8v74q-25 -29 -60.5 -44.5t-71 -23t-65 -8.5t-44.5 -1q-25 0 -53.5 4.5t-52.5 17t-40 34.5t-16 58q0 33 19.5 56t51.5 38.5t74 24t86.5 12.5t89 5t81.5 1v26q0 32 -14.5 54t-39.5 35.5t-56.5 20
t-66.5 6.5q-14 0 -35.5 -1t-43.5 -6.5t-41.5 -16t-29.5 -29.5h-49q6 26 24 43t45 28t60.5 15.5t69.5 4.5q72 0 115 -17t66.5 -42.5t31 -54.5t7.5 -53v-261h-7q-17 -17 -27.5 -38.5t-10.5 -47.5q0 -24 14.5 -37.5t30.5 -21.5v-29zM90 110q0 -28 18 -43.5t41.5 -22.5t46 -8
t32.5 -1q30 0 63.5 6.5t64.5 19t56.5 30t38.5 39.5v80q-30 0 -69 -1t-79 -4.5t-78.5 -10t-68 -17.5t-48 -27.5t-18.5 -39.5z" />
    <glyph glyph-name="Cacute" unicode="&#x106;" horiz-adv-x="680" 
d="M357 -3q-85 0 -143.5 27t-94.5 69.5t-51.5 95.5t-15.5 104t15.5 103.5t51.5 96t94.5 71t143.5 27.5q115 0 181.5 -40.5t89.5 -100.5h-50q-10 26 -31.5 45.5t-51 32.5t-65 19t-73.5 6q-54 0 -101.5 -17.5t-83 -51t-56 -82t-20.5 -110.5t20.5 -110t56 -80.5t83 -49.5
t101.5 -17q38 0 73.5 6.5t65 19t51 32t31.5 45.5h50q-23 -60 -89.5 -100.5t-181.5 -40.5zM389 774h70l-90 -122h-43z" />
    <glyph glyph-name="cacute" unicode="&#x107;" horiz-adv-x="570" 
d="M310 35q23 0 49 3.5t49 11.5t41.5 21.5t26.5 33.5h51q-9 -21 -26.5 -40.5t-44 -34.5t-63 -24t-83.5 -9q-73 0 -122.5 19t-79.5 50t-43 70t-13 78t13 77.5t43.5 69t80 49t122.5 18.5q47 0 83 -9t62.5 -24t44 -34.5t26.5 -40.5h-51q-8 20 -26 33.5t-41 21.5t-48.5 11.5
t-49.5 3.5q-45 0 -84.5 -9t-68.5 -29.5t-45.5 -54t-16.5 -83.5q0 -49 16.5 -83t45 -55.5t68 -31t84.5 -9.5zM333 626h70l-90 -122h-43z" />
    <glyph glyph-name="Ccircumflex" unicode="&#x108;" horiz-adv-x="680" 
d="M357 -3q-85 0 -143.5 27t-94.5 69.5t-51.5 95.5t-15.5 104t15.5 103.5t51.5 96t94.5 71t143.5 27.5q115 0 181.5 -40.5t89.5 -100.5h-50q-10 26 -31.5 45.5t-51 32.5t-65 19t-73.5 6q-54 0 -101.5 -17.5t-83 -51t-56 -82t-20.5 -110.5t20.5 -110t56 -80.5t83 -49.5
t101.5 -17q38 0 73.5 6.5t65 19t51 32t31.5 45.5h50q-23 -60 -89.5 -100.5t-181.5 -40.5zM384 825l100 -173h-48l-75 130l-75 -130h-48l100 173h46z" />
    <glyph glyph-name="ccircumflex" unicode="&#x109;" horiz-adv-x="570" 
d="M310 35q23 0 49 3.5t49 11.5t41.5 21.5t26.5 33.5h51q-9 -21 -26.5 -40.5t-44 -34.5t-63 -24t-83.5 -9q-73 0 -122.5 19t-79.5 50t-43 70t-13 78t13 77.5t43.5 69t80 49t122.5 18.5q47 0 83 -9t62.5 -24t44 -34.5t26.5 -40.5h-51q-8 20 -26 33.5t-41 21.5t-48.5 11.5
t-49.5 3.5q-45 0 -84.5 -9t-68.5 -29.5t-45.5 -54t-16.5 -83.5q0 -49 16.5 -83t45 -55.5t68 -31t84.5 -9.5zM334 677l100 -173h-48l-75 130l-75 -130h-48l100 173h46z" />
    <glyph glyph-name="Cdotaccent" unicode="&#x10a;" horiz-adv-x="680" 
d="M357 -3q-85 0 -143.5 27t-94.5 69.5t-51.5 95.5t-15.5 104t15.5 103.5t51.5 96t94.5 71t143.5 27.5q115 0 181.5 -40.5t89.5 -100.5h-50q-10 26 -31.5 45.5t-51 32.5t-65 19t-73.5 6q-54 0 -101.5 -17.5t-83 -51t-56 -82t-20.5 -110.5t20.5 -110t56 -80.5t83 -49.5
t101.5 -17q38 0 73.5 6.5t65 19t51 32t31.5 45.5h50q-23 -60 -89.5 -100.5t-181.5 -40.5zM329 709h58v-57h-58v57z" />
    <glyph glyph-name="cdotaccent" unicode="&#x10b;" horiz-adv-x="570" 
d="M310 35q23 0 49 3.5t49 11.5t41.5 21.5t26.5 33.5h51q-9 -21 -26.5 -40.5t-44 -34.5t-63 -24t-83.5 -9q-73 0 -122.5 19t-79.5 50t-43 70t-13 78t13 77.5t43.5 69t80 49t122.5 18.5q47 0 83 -9t62.5 -24t44 -34.5t26.5 -40.5h-51q-8 20 -26 33.5t-41 21.5t-48.5 11.5
t-49.5 3.5q-45 0 -84.5 -9t-68.5 -29.5t-45.5 -54t-16.5 -83.5q0 -49 16.5 -83t45 -55.5t68 -31t84.5 -9.5zM279 561h58v-57h-58v57z" />
    <glyph glyph-name="Ccaron" unicode="&#x10c;" horiz-adv-x="680" 
d="M357 -3q-85 0 -143.5 27t-94.5 69.5t-51.5 95.5t-15.5 104t15.5 103.5t51.5 96t94.5 71t143.5 27.5q115 0 181.5 -40.5t89.5 -100.5h-50q-10 26 -31.5 45.5t-51 32.5t-65 19t-73.5 6q-54 0 -101.5 -17.5t-83 -51t-56 -82t-20.5 -110.5t20.5 -110t56 -80.5t83 -49.5
t101.5 -17q38 0 73.5 6.5t65 19t51 32t31.5 45.5h50q-23 -60 -89.5 -100.5t-181.5 -40.5zM341 652l-100 173h48l75 -130l75 130h48l-100 -173h-46z" />
    <glyph glyph-name="ccaron" unicode="&#x10d;" horiz-adv-x="570" 
d="M310 35q23 0 49 3.5t49 11.5t41.5 21.5t26.5 33.5h51q-9 -21 -26.5 -40.5t-44 -34.5t-63 -24t-83.5 -9q-73 0 -122.5 19t-79.5 50t-43 70t-13 78t13 77.5t43.5 69t80 49t122.5 18.5q47 0 83 -9t62.5 -24t44 -34.5t26.5 -40.5h-51q-8 20 -26 33.5t-41 21.5t-48.5 11.5
t-49.5 3.5q-45 0 -84.5 -9t-68.5 -29.5t-45.5 -54t-16.5 -83.5q0 -49 16.5 -83t45 -55.5t68 -31t84.5 -9.5zM286 504l-100 173h48l75 -130l75 130h48l-100 -173h-46z" />
    <glyph glyph-name="Dcaron" unicode="&#x10e;" horiz-adv-x="645" 
d="M72 585h248q84 0 137.5 -27t83.5 -69.5t41 -94t11 -101.5q0 -46 -11 -97.5t-41 -95t-83.5 -72t-137.5 -28.5h-248v585zM116 547v-509h206q110 0 168.5 67t58.5 188q0 133 -58.5 193.5t-168.5 60.5h-206zM276 652l-100 173h48l75 -130l75 130h48l-100 -173h-46z" />
    <glyph glyph-name="dcaron" unicode="&#x10f;" horiz-adv-x="783" 
d="M92 216q0 -48 18 -82.5t46 -56t62 -32t67 -10.5q39 0 77 14.5t67.5 39t48 56t18.5 64.5v21q0 39 -19.5 68.5t-49.5 50t-67 31t-73 10.5q-28 0 -62.5 -6.5t-63.5 -25t-49 -51t-20 -84.5v-7zM287 428q15 0 41.5 -3t56.5 -12.5t60 -27.5t51 -47v247h44v-585h-44v98
q-33 -38 -67 -58.5t-64 -30t-55 -11t-41 -1.5q-39 0 -78.5 13t-71 40t-51.5 68.5t-20 97.5q0 49 17.5 88.5t49 67t75.5 42t97 14.5zM703 585h53l-53 -110h-33z" />
    <glyph glyph-name="Dcroat" unicode="&#x110;" horiz-adv-x="689" 
d="M116 318v267h248q84 0 137.5 -27t83.5 -69.5t41 -94t11 -101.5q0 -46 -11 -97.5t-41 -95t-83.5 -72t-137.5 -28.5h-248v280h-89v38h89zM160 547v-229h207v-38h-207v-242h206q110 0 168.5 67t58.5 188q0 133 -58.5 193.5t-168.5 60.5h-206z" />
    <glyph glyph-name="dcroat" unicode="&#x111;" horiz-adv-x="647" 
d="M496 542v43h44v-43h80v-38h-80v-504h-44v98q-33 -38 -67 -58.5t-64 -30t-55 -11t-41 -1.5q-39 0 -78.5 13t-71 40t-51.5 68.5t-20 97.5q0 49 17.5 88.5t49 67t75.5 42t97 14.5q15 0 41.5 -3t56.5 -12.5t60 -27.5t51 -47v166h-130v38h130zM92 216q0 -48 18 -82.5t46 -56
t62 -32t67 -10.5q39 0 77 14.5t67.5 39t48 56t18.5 64.5v21q0 39 -19.5 68.5t-49.5 50t-67 31t-73 10.5q-28 0 -62.5 -6.5t-63.5 -25t-49 -51t-20 -84.5v-7z" />
    <glyph glyph-name="Emacron" unicode="&#x112;" horiz-adv-x="541" 
d="M484 585v-38h-368v-240h301v-38h-301v-231h368v-38h-412v585h412zM455 690v-38h-340v38h340z" />
    <glyph glyph-name="emacron" unicode="&#x113;" horiz-adv-x="588" 
d="M496 223q-6 59 -30 92t-54.5 50t-61.5 21t-51 4q-19 0 -51.5 -4.5t-64 -21t-56.5 -50t-30 -91.5h399zM303 -3q-73 0 -121 19.5t-77 51t-41 72.5t-12 83q0 33 12.5 69t41.5 66.5t76.5 50t117.5 19.5q72 0 118.5 -22t73.5 -54t38 -69.5t11 -68.5v-30h-444q7 -53 34.5 -83
t60.5 -44.5t64.5 -18t45.5 -3.5q24 0 50 3.5t49 11.5t41.5 21.5t26.5 33.5h55q-9 -21 -27.5 -40.5t-45.5 -34.5t-64 -24t-84 -9zM470 542v-38h-340v38h340z" />
    <glyph glyph-name="Edotaccent" unicode="&#x116;" horiz-adv-x="541" 
d="M484 585v-38h-368v-240h301v-38h-301v-231h368v-38h-412v585h412zM257 709h58v-57h-58v57z" />
    <glyph glyph-name="edotaccent" unicode="&#x117;" horiz-adv-x="588" 
d="M496 223q-6 59 -30 92t-54.5 50t-61.5 21t-51 4q-19 0 -51.5 -4.5t-64 -21t-56.5 -50t-30 -91.5h399zM303 -3q-73 0 -121 19.5t-77 51t-41 72.5t-12 83q0 33 12.5 69t41.5 66.5t76.5 50t117.5 19.5q72 0 118.5 -22t73.5 -54t38 -69.5t11 -68.5v-30h-444q7 -53 34.5 -83
t60.5 -44.5t64.5 -18t45.5 -3.5q24 0 50 3.5t49 11.5t41.5 21.5t26.5 33.5h55q-9 -21 -27.5 -40.5t-45.5 -34.5t-64 -24t-84 -9zM274 561h58v-57h-58v57z" />
    <glyph glyph-name="Eogonek" unicode="&#x118;" horiz-adv-x="541" 
d="M484 585v-38h-368v-240h301v-38h-301v-231h368v-38h-82q-11 -18 -16 -43.5t-5 -44.5q0 -25 6.5 -39.5t19.5 -22t32 -10t44 -3.5v-28q-5 -1 -21 -1q-21 0 -41.5 5t-36.5 17t-26 31t-10 48q0 13 3.5 40t17.5 51h-297v585h412z" />
    <glyph glyph-name="eogonek" unicode="&#x119;" horiz-adv-x="588" 
d="M524 105q-18 -40 -67 -72t-134 -35q-11 -18 -16.5 -42.5t-5.5 -43.5q0 -25 6.5 -39.5t19.5 -22t32 -10t44 -3.5v-28q-5 -1 -21 -1q-21 0 -41.5 5t-36.5 17t-26 31t-10 48q0 13 3.5 38.5t18.5 49.5q-69 2 -115 22t-73 51.5t-38.5 71t-11.5 81.5q0 33 12.5 69t41.5 66.5
t76.5 50t117.5 19.5q72 0 118.5 -22t73.5 -54t38 -69.5t11 -68.5v-30h-444q7 -53 34.5 -83t60.5 -44.5t64.5 -18t45.5 -3.5q24 0 50 3.5t49 11.5t41.5 21.5t26.5 33.5h55zM496 223q-6 59 -30 92t-54.5 50t-61.5 21t-51 4q-19 0 -51.5 -4.5t-64 -21t-56.5 -50t-30 -91.5h399z
" />
    <glyph glyph-name="Ecaron" unicode="&#x11a;" horiz-adv-x="541" 
d="M484 585v-38h-368v-240h301v-38h-301v-231h368v-38h-412v585h412zM275 652l-100 173h48l75 -130l75 130h48l-100 -173h-46z" />
    <glyph glyph-name="ecaron" unicode="&#x11b;" horiz-adv-x="588" 
d="M496 223q-6 59 -30 92t-54.5 50t-61.5 21t-51 4q-19 0 -51.5 -4.5t-64 -21t-56.5 -50t-30 -91.5h399zM303 -3q-73 0 -121 19.5t-77 51t-41 72.5t-12 83q0 33 12.5 69t41.5 66.5t76.5 50t117.5 19.5q72 0 118.5 -22t73.5 -54t38 -69.5t11 -68.5v-30h-444q7 -53 34.5 -83
t60.5 -44.5t64.5 -18t45.5 -3.5q24 0 50 3.5t49 11.5t41.5 21.5t26.5 33.5h55q-9 -21 -27.5 -40.5t-45.5 -34.5t-64 -24t-84 -9zM278 504l-100 173h48l75 -130l75 130h48l-100 -173h-46z" />
    <glyph glyph-name="Gcircumflex" unicode="&#x11c;" horiz-adv-x="705" 
d="M594 105q-18 -28 -40 -48.5t-50.5 -34t-64 -19.5t-82.5 -6q-85 0 -143.5 27t-94.5 69.5t-51.5 95.5t-15.5 104t15.5 103.5t51.5 96t94.5 71t143.5 27.5q115 0 181.5 -40.5t89.5 -100.5h-50q-10 26 -31.5 45.5t-51 32.5t-65 19t-73.5 6q-54 0 -101.5 -17.5t-83 -51
t-56 -82t-20.5 -110.5t20.5 -110t56 -80.5t83 -49.5t101.5 -17q38 0 72.5 6t65 23.5t56 49.5t43.5 84v34h-133v38h177v-270h-44v105zM376 825l100 -173h-48l-75 130l-75 -130h-48l100 173h46z" />
    <glyph glyph-name="gcircumflex" unicode="&#x11d;" horiz-adv-x="612" 
d="M92 216q0 -48 18 -82.5t46 -56t62 -32t67 -10.5q39 0 77 14.5t67.5 39t48 56t18.5 64.5v21q0 39 -19.5 68.5t-49.5 50t-67 31t-73 10.5q-28 0 -62.5 -6.5t-63.5 -25t-49 -51t-20 -84.5v-7zM540 -3q0 -40 -10 -78.5t-37 -69t-73.5 -49t-118.5 -18.5q-71 0 -126.5 24.5
t-84.5 76.5h57q14 -22 33 -34.5t39 -19t40.5 -8t38.5 -1.5q92 0 145 39.5t53 121.5v117q-33 -38 -67 -58.5t-64 -30t-55 -11t-41 -1.5q-39 0 -78.5 13t-71 40t-51.5 68.5t-20 97.5q0 49 17.5 88.5t49 67t75.5 42t97 14.5q15 0 41.5 -3t56.5 -12.5t60 -27.5t51 -47v87h44
v-428zM309 677l100 -173h-48l-75 130l-75 -130h-48l100 173h46z" />
    <glyph glyph-name="Gbreve" unicode="&#x11e;" horiz-adv-x="705" 
d="M594 105q-18 -28 -40 -48.5t-50.5 -34t-64 -19.5t-82.5 -6q-85 0 -143.5 27t-94.5 69.5t-51.5 95.5t-15.5 104t15.5 103.5t51.5 96t94.5 71t143.5 27.5q115 0 181.5 -40.5t89.5 -100.5h-50q-10 26 -31.5 45.5t-51 32.5t-65 19t-73.5 6q-54 0 -101.5 -17.5t-83 -51
t-56 -82t-20.5 -110.5t20.5 -110t56 -80.5t83 -49.5t101.5 -17q38 0 72.5 6t65 23.5t56 49.5t43.5 84v34h-133v38h177v-270h-44v105zM357 652q-50 0 -93 20.5t-57 69.5h43q28 -60 107 -60t107 60h43q-14 -49 -57 -69.5t-93 -20.5z" />
    <glyph glyph-name="gbreve" unicode="&#x11f;" horiz-adv-x="612" 
d="M92 216q0 -48 18 -82.5t46 -56t62 -32t67 -10.5q39 0 77 14.5t67.5 39t48 56t18.5 64.5v21q0 39 -19.5 68.5t-49.5 50t-67 31t-73 10.5q-28 0 -62.5 -6.5t-63.5 -25t-49 -51t-20 -84.5v-7zM540 -3q0 -40 -10 -78.5t-37 -69t-73.5 -49t-118.5 -18.5q-71 0 -126.5 24.5
t-84.5 76.5h57q14 -22 33 -34.5t39 -19t40.5 -8t38.5 -1.5q92 0 145 39.5t53 121.5v117q-33 -38 -67 -58.5t-64 -30t-55 -11t-41 -1.5q-39 0 -78.5 13t-71 40t-51.5 68.5t-20 97.5q0 49 17.5 88.5t49 67t75.5 42t97 14.5q15 0 41.5 -3t56.5 -12.5t60 -27.5t51 -47v87h44
v-428zM289 504q-50 0 -93 20.5t-57 69.5h43q28 -60 107 -60t107 60h43q-14 -49 -57 -69.5t-93 -20.5z" />
    <glyph glyph-name="Gdotaccent" unicode="&#x120;" horiz-adv-x="705" 
d="M594 105q-18 -28 -40 -48.5t-50.5 -34t-64 -19.5t-82.5 -6q-85 0 -143.5 27t-94.5 69.5t-51.5 95.5t-15.5 104t15.5 103.5t51.5 96t94.5 71t143.5 27.5q115 0 181.5 -40.5t89.5 -100.5h-50q-10 26 -31.5 45.5t-51 32.5t-65 19t-73.5 6q-54 0 -101.5 -17.5t-83 -51
t-56 -82t-20.5 -110.5t20.5 -110t56 -80.5t83 -49.5t101.5 -17q38 0 72.5 6t65 23.5t56 49.5t43.5 84v34h-133v38h177v-270h-44v105zM323 709h58v-57h-58v57z" />
    <glyph glyph-name="gdotaccent" unicode="&#x121;" horiz-adv-x="612" 
d="M92 216q0 -48 18 -82.5t46 -56t62 -32t67 -10.5q39 0 77 14.5t67.5 39t48 56t18.5 64.5v21q0 39 -19.5 68.5t-49.5 50t-67 31t-73 10.5q-28 0 -62.5 -6.5t-63.5 -25t-49 -51t-20 -84.5v-7zM540 -3q0 -40 -10 -78.5t-37 -69t-73.5 -49t-118.5 -18.5q-71 0 -126.5 24.5
t-84.5 76.5h57q14 -22 33 -34.5t39 -19t40.5 -8t38.5 -1.5q92 0 145 39.5t53 121.5v117q-33 -38 -67 -58.5t-64 -30t-55 -11t-41 -1.5q-39 0 -78.5 13t-71 40t-51.5 68.5t-20 97.5q0 49 17.5 88.5t49 67t75.5 42t97 14.5q15 0 41.5 -3t56.5 -12.5t60 -27.5t51 -47v87h44
v-428zM259 561h58v-57h-58v57z" />
    <glyph glyph-name="uni0122" unicode="&#x122;" horiz-adv-x="705" 
d="M594 105q-18 -28 -40 -48.5t-50.5 -34t-64 -19.5t-82.5 -6q-85 0 -143.5 27t-94.5 69.5t-51.5 95.5t-15.5 104t15.5 103.5t51.5 96t94.5 71t143.5 27.5q115 0 181.5 -40.5t89.5 -100.5h-50q-10 26 -31.5 45.5t-51 32.5t-65 19t-73.5 6q-54 0 -101.5 -17.5t-83 -51
t-56 -82t-20.5 -110.5t20.5 -110t56 -80.5t83 -49.5t101.5 -17q38 0 72.5 6t65 23.5t56 49.5t43.5 84v34h-133v38h177v-270h-44v105zM348 -91h49l-34 -124h-39z" />
    <glyph glyph-name="uni0123" unicode="&#x123;" horiz-adv-x="612" 
d="M92 216q0 -48 18 -82.5t46 -56t62 -32t67 -10.5q39 0 77 14.5t67.5 39t48 56t18.5 64.5v21q0 39 -19.5 68.5t-49.5 50t-67 31t-73 10.5q-28 0 -62.5 -6.5t-63.5 -25t-49 -51t-20 -84.5v-7zM540 -3q0 -40 -10 -78.5t-37 -69t-73.5 -49t-118.5 -18.5q-71 0 -126.5 24.5
t-84.5 76.5h57q14 -22 33 -34.5t39 -19t40.5 -8t38.5 -1.5q92 0 145 39.5t53 121.5v117q-33 -38 -67 -58.5t-64 -30t-55 -11t-41 -1.5q-39 0 -78.5 13t-71 40t-51.5 68.5t-20 97.5q0 49 17.5 88.5t49 67t75.5 42t97 14.5q15 0 41.5 -3t56.5 -12.5t60 -27.5t51 -47v87h44
v-428zM330 504h-49l34 124h39z" />
    <glyph glyph-name="Hcircumflex" unicode="&#x124;" horiz-adv-x="642" 
d="M526 264h-410v-264h-44v585h44v-283h410v283h44v-585h-44v264zM345 825l100 -173h-48l-75 130l-75 -130h-48l100 173h46z" />
    <glyph glyph-name="hcircumflex" unicode="&#x125;" 
d="M117 326q29 39 64 59.5t66 30t52.5 11t22.5 1.5q110 0 162 -48.5t52 -152.5v-227h-45v225q0 57 -15.5 89.5t-40 49.5t-55.5 21.5t-62 4.5t-66.5 -13t-65.5 -35.5t-49.5 -53.5t-19.5 -68v-220h-45v585h45v-259zM219 825l100 -173h-48l-75 130l-75 -130h-48l100 173h46z
" />
    <glyph glyph-name="Hbar" unicode="&#x126;" horiz-adv-x="706" 
d="M104 486v99h44v-99h410v99h44v-99h77v-38h-77v-448h-44v264h-410v-264h-44v448h-77v38h77zM558 302v146h-410v-146h410z" />
    <glyph glyph-name="hbar" unicode="&#x127;" horiz-adv-x="633" 
d="M27 504v38h80v43h45v-43h129v-38h-129v-178q29 39 64 59.5t66 30t52.5 11t22.5 1.5q110 0 162 -48.5t52 -152.5v-227h-45v225q0 57 -15.5 89.5t-40 49.5t-55.5 21.5t-62 4.5t-66.5 -13t-65.5 -35.5t-49.5 -53.5t-19.5 -68v-220h-45v504h-80z" />
    <glyph glyph-name="Itilde" unicode="&#x128;" horiz-adv-x="219" 
d="M89 585h44v-585h-44v585zM29 731q21 0 41 -6.5t40 -14t40.5 -14t42.5 -6.5q21 0 46 5l10 -34q-15 -5 -30 -7t-26 -2q-21 0 -41 6.5t-40 14t-40.5 14t-43.5 6.5q-21 0 -46 -5l-10 34q15 5 30.5 7t26.5 2z" />
    <glyph glyph-name="itilde" unicode="&#x129;" horiz-adv-x="190" 
d="M73 425h44v-425h-44v425zM14 583q21 0 41 -6.5t40 -14t40.5 -14t42.5 -6.5q21 0 46 5l10 -34q-15 -5 -30 -7t-26 -2q-21 0 -41 6.5t-40 14t-40.5 14t-43.5 6.5q-21 0 -46 -5l-10 34q15 5 30.5 7t26.5 2z" />
    <glyph glyph-name="Imacron" unicode="&#x12a;" horiz-adv-x="219" 
d="M89 585h44v-585h-44v585zM232 690v-38h-242v38h242z" />
    <glyph glyph-name="imacron" unicode="&#x12b;" horiz-adv-x="219" 
d="M109 425h44v-425h-44v425zM252 542v-38h-242v38h242z" />
    <glyph glyph-name="Iogonek" unicode="&#x12e;" horiz-adv-x="196" 
d="M119 0q-17 -17 -29.5 -43t-12.5 -52q0 -27 12.5 -40.5t36.5 -23.5v-29q-14 4 -29 9t-27 15t-19.5 26.5t-7.5 42.5q0 14 10 40.5t39 54.5h-9v585h44v-585h-8z" />
    <glyph glyph-name="iogonek" unicode="&#x12f;" horiz-adv-x="190" 
d="M73 585h44v-96h-44v96zM73 425h44v-425h-8q-17 -17 -29.5 -43t-12.5 -52q0 -27 12.5 -40.5t36.5 -23.5v-29q-14 4 -29 9t-27 15t-19.5 26.5t-7.5 42.5q0 14 10 40.5t39 54.5h-9v425z" />
    <glyph glyph-name="Idotaccent" unicode="&#x130;" horiz-adv-x="190" 
d="M73 585h44v-585h-44v585zM73 748h44v-96h-44v96z" />
    <glyph glyph-name="dotlessi" unicode="&#x131;" horiz-adv-x="188" 
d="M72 425h44v-425h-44v425z" />
    <glyph glyph-name="Jcircumflex" unicode="&#x134;" horiz-adv-x="552" 
d="M260 -3q-50 0 -88 11.5t-65 30.5t-44 44t-26 52h48q11 -27 29 -46t41.5 -31t50 -17.5t54.5 -5.5q33 0 64.5 6t56.5 24t40 50.5t15 85.5v384h44v-384q0 -36 -10 -72t-35 -65.5t-67.5 -48t-107.5 -18.5zM378 825l100 -173h-48l-75 130l-75 -130h-48l100 173h46z" />
    <glyph glyph-name="jcircumflex" unicode="&#x135;" horiz-adv-x="190" 
d="M-93 -176q12 -2 27 -3t20 -1q40 0 63.5 12t36 30.5t16 42.5t3.5 48v472h44v-470q0 -85 -39 -129t-109 -44q-13 0 -26 0.5t-36 3.5v38zM118 677l100 -173h-48l-75 130l-75 -130h-48l100 173h46z" />
    <glyph glyph-name="uni0136" unicode="&#x136;" horiz-adv-x="650" 
d="M363 393l-246 -246v-147h-45v585h45v-375l376 375h61l-158 -160q54 -104 111 -211.5t111 -213.5h-50zM327 -91h49l-34 -124h-39z" />
    <glyph glyph-name="uni0137" unicode="&#x137;" horiz-adv-x="502" 
d="M133 223h-17v-223h-44v585h44v-324h15l263 164h78l-292 -185l294 -240h-64zM231 -91h49l-34 -124h-39z" />
    <glyph glyph-name="kgreenlandic" unicode="&#x138;" horiz-adv-x="502" 
d="M133 223h-17v-223h-44v425h44v-164h15l263 164h78l-292 -185l294 -240h-64z" />
    <glyph glyph-name="Lacute" unicode="&#x139;" horiz-adv-x="531" 
d="M72 585h44v-547h368v-38h-412v585zM138 774h70l-90 -122h-43z" />
    <glyph glyph-name="lacute" unicode="&#x13a;" horiz-adv-x="190" 
d="M73 585h44v-585h-44v585zM137 774h70l-90 -122h-43z" />
    <glyph glyph-name="uni013B" unicode="&#x13b;" horiz-adv-x="531" 
d="M72 585h44v-547h368v-38h-412v585zM259 -91h49l-34 -124h-39z" />
    <glyph glyph-name="uni013C" unicode="&#x13c;" horiz-adv-x="190" 
d="M73 585h44v-585h-44v585zM71 -91h49l-34 -124h-39z" />
    <glyph glyph-name="Lcaron" unicode="&#x13d;" horiz-adv-x="531" 
d="M72 585h44v-547h368v-38h-412v585zM379 585h63l-57 -116h-36z" />
    <glyph glyph-name="lcaron" unicode="&#x13e;" horiz-adv-x="359" 
d="M72 585h44v-585h-44v585zM279 585h53l-53 -110h-33z" />
    <glyph glyph-name="Lslash" unicode="&#x141;" horiz-adv-x="638" 
d="M179 338v247h44v-235l141 37v-42l-141 -37v-270h368v-38h-412v297l-142 -37v41z" />
    <glyph glyph-name="lslash" unicode="&#x142;" horiz-adv-x="401" 
d="M178 343v242h44v-231l142 38v-42l-142 -37v-313h-44v301l-141 -36v41z" />
    <glyph glyph-name="Nacute" unicode="&#x143;" horiz-adv-x="692" 
d="M116 545v-545h-44v585h69l433 -547v547h46v-585h-73zM402 774h70l-90 -122h-43z" />
    <glyph glyph-name="nacute" unicode="&#x144;" 
d="M117 326q29 39 64 59.5t66 30t52.5 11t22.5 1.5q110 0 162 -48.5t52 -152.5v-227h-45v225q0 57 -15.5 89.5t-40 49.5t-55.5 21.5t-62 4.5t-66.5 -13t-65.5 -35.5t-49.5 -53.5t-19.5 -68v-220h-45v425h45v-99zM341 626h70l-90 -122h-43z" />
    <glyph glyph-name="uni0145" unicode="&#x145;" horiz-adv-x="692" 
d="M116 545v-545h-44v585h69l433 -547v547h46v-585h-73zM337 -91h49l-34 -124h-39z" />
    <glyph glyph-name="uni0146" unicode="&#x146;" 
d="M117 326q29 39 64 59.5t66 30t52.5 11t22.5 1.5q110 0 162 -48.5t52 -152.5v-227h-45v225q0 57 -15.5 89.5t-40 49.5t-55.5 21.5t-62 4.5t-66.5 -13t-65.5 -35.5t-49.5 -53.5t-19.5 -68v-220h-45v425h45v-99zM300 -91h49l-34 -124h-39z" />
    <glyph glyph-name="Ncaron" unicode="&#x147;" horiz-adv-x="692" 
d="M116 545v-545h-44v585h69l433 -547v547h46v-585h-73zM340 652l-100 173h48l75 -130l75 130h48l-100 -173h-46z" />
    <glyph glyph-name="ncaron" unicode="&#x148;" 
d="M117 326q29 39 64 59.5t66 30t52.5 11t22.5 1.5q110 0 162 -48.5t52 -152.5v-227h-45v225q0 57 -15.5 89.5t-40 49.5t-55.5 21.5t-62 4.5t-66.5 -13t-65.5 -35.5t-49.5 -53.5t-19.5 -68v-220h-45v425h45v-99zM302 504l-100 173h48l75 -130l75 130h48l-100 -173h-46z" />
    <glyph glyph-name="Eng" unicode="&#x14a;" horiz-adv-x="692" 
d="M410 -176q12 -2 27 -3t20 -1q40 0 63.5 12t36 30.5t16 42.5t3.5 48v11l-460 581v-545h-44v585h69l433 -547v547h46v-630q0 -85 -39 -129t-109 -44q-13 0 -26 0.5t-36 3.5v38z" />
    <glyph glyph-name="eng" unicode="&#x14b;" 
d="M325 -176q12 -2 27 -3t20 -1q40 0 63.5 12t36 30.5t16 42.5t3.5 48v272q0 57 -15.5 89.5t-40 49.5t-55.5 21.5t-62 4.5t-66.5 -13t-65.5 -35.5t-49.5 -53.5t-19.5 -68v-220h-45v425h45v-99q29 39 64 59.5t66 30t52.5 11t22.5 1.5q110 0 162 -48.5t52 -152.5v-272
q0 -85 -39.5 -129t-109.5 -44q-13 0 -26 0.5t-36 3.5v38z" />
    <glyph glyph-name="Omacron" unicode="&#x14c;" horiz-adv-x="704" 
d="M352 35q55 0 101.5 16.5t81 49t54 79.5t19.5 107q0 63 -19.5 112.5t-54 83.5t-81 52t-101.5 18t-101.5 -18t-81 -52t-54 -83.5t-19.5 -112.5q0 -60 19.5 -107t54 -79.5t81 -49t101.5 -16.5zM352 -3q-85 0 -142.5 28t-92.5 71t-50 94t-15 97q0 49 15 102.5t50 98.5
t92.5 74t142.5 29t142.5 -29t92.5 -74t50 -98.5t15 -102.5q0 -46 -15 -97t-50 -94t-92.5 -71t-142.5 -28zM522 690v-38h-340v38h340z" />
    <glyph glyph-name="omacron" unicode="&#x14d;" horiz-adv-x="608" 
d="M304 35q38 0 75 10t66.5 31.5t48 55.5t18.5 82q0 47 -18.5 80.5t-48 54.5t-66.5 31t-75 10t-75 -10t-66.5 -31t-48 -54.5t-18.5 -80.5q0 -48 18.5 -82t48 -55.5t66.5 -31.5t75 -10zM304 -3q-72 0 -120 19.5t-77.5 50.5t-42 70t-12.5 77t12.5 76.5t42 69t77.5 49.5t120 19
t120 -19t77.5 -49.5t42 -69t12.5 -76.5t-12.5 -77t-42 -70t-77.5 -50.5t-120 -19.5zM474 542v-38h-340v38h340z" />
    <glyph glyph-name="Ohungarumlaut" unicode="&#x150;" horiz-adv-x="704" 
d="M352 35q55 0 101.5 16.5t81 49t54 79.5t19.5 107q0 63 -19.5 112.5t-54 83.5t-81 52t-101.5 18t-101.5 -18t-81 -52t-54 -83.5t-19.5 -112.5q0 -60 19.5 -107t54 -79.5t81 -49t101.5 -16.5zM352 -3q-85 0 -142.5 28t-92.5 71t-50 94t-15 97q0 49 15 102.5t50 98.5
t92.5 74t142.5 29t142.5 -29t92.5 -74t50 -98.5t15 -102.5q0 -46 -15 -97t-50 -94t-92.5 -71t-142.5 -28zM449 781h51l-34 -129h-47zM273 781h51l-34 -129h-47z" />
    <glyph glyph-name="ohungarumlaut" unicode="&#x151;" horiz-adv-x="608" 
d="M304 35q38 0 75 10t66.5 31.5t48 55.5t18.5 82q0 47 -18.5 80.5t-48 54.5t-66.5 31t-75 10t-75 -10t-66.5 -31t-48 -54.5t-18.5 -80.5q0 -48 18.5 -82t48 -55.5t66.5 -31.5t75 -10zM304 -3q-72 0 -120 19.5t-77.5 50.5t-42 70t-12.5 77t12.5 76.5t42 69t77.5 49.5t120 19
t120 -19t77.5 -49.5t42 -69t12.5 -76.5t-12.5 -77t-42 -70t-77.5 -50.5t-120 -19.5zM390 633h51l-34 -129h-47zM214 633h51l-34 -129h-47z" />
    <glyph glyph-name="OE" unicode="&#x152;" horiz-adv-x="904" 
d="M847 585v-38h-368v-240h301v-38h-301v-231h368v-38h-412q-37 -3 -78 -3q-85 0 -143.5 27t-94.5 69.5t-51.5 95.5t-15.5 104t15.5 103.5t51.5 96t94.5 71t143.5 27.5q21 0 40.5 -2t37.5 -4h412zM357 35q41 0 78 6v505q-19 4 -38.5 5.5t-39.5 1.5q-54 0 -101.5 -17.5
t-83 -51t-56 -82t-20.5 -110.5t20.5 -110t56 -80.5t83 -49.5t101.5 -17z" />
    <glyph glyph-name="oe" unicode="&#x153;" horiz-adv-x="1048" 
d="M763 -3q-97 0 -151.5 33.5t-77.5 83.5q-24 -49 -79 -83t-151 -34q-72 0 -120 19.5t-77.5 50.5t-42 70t-12.5 77t12.5 76.5t42 69t77.5 49.5t120 19q96 0 151 -33.5t79 -81.5q12 23 31 44t46.5 36.5t64.5 25t84 9.5q72 0 118.5 -22t73.5 -54t38 -69.5t11 -68.5v-30h-444
q7 -53 34.5 -83t60.5 -44.5t64.5 -18t45.5 -3.5q24 0 50 3.5t49 11.5t41.5 21.5t26.5 33.5h55q-9 -21 -27.5 -40.5t-45.5 -34.5t-64 -24t-84 -9zM304 35q38 0 75 10t66.5 31.5t48 55.5t18.5 82q0 47 -18.5 80.5t-48 54.5t-66.5 31t-75 10t-75 -10t-66.5 -31t-48 -54.5
t-18.5 -80.5q0 -48 18.5 -82t48 -55.5t66.5 -31.5t75 -10zM956 223q-6 59 -30 92t-54.5 50t-61.5 21t-51 4q-19 0 -51.5 -4.5t-64 -21t-56.5 -50t-30 -91.5h399z" />
    <glyph glyph-name="Racute" unicode="&#x154;" horiz-adv-x="602" 
d="M72 0v585h280q59 0 99 -18t64 -46t34 -62t10 -65q0 -25 -7 -54t-23.5 -55t-43 -47t-64.5 -32l96 -206h-49l-92 197h-260v-197h-44zM116 235h235q71 0 117.5 41t46.5 117q0 77 -46.5 115.5t-117.5 38.5h-235v-312zM253 652h43l90 122h-70z" />
    <glyph glyph-name="racute" unicode="&#x155;" horiz-adv-x="422" 
d="M116 326q26 38 62.5 59t72 30.5t65 11t41.5 1.5h12.5t15.5 -1v-42q-11 2 -18.5 2h-14.5q-40 0 -82 -10.5t-76 -32t-56 -53.5t-22 -75v-216h-44v425h44v-99zM142 626h70l-90 -122h-43z" />
    <glyph glyph-name="uni0156" unicode="&#x156;" horiz-adv-x="602" 
d="M72 0v585h280q59 0 99 -18t64 -46t34 -62t10 -65q0 -25 -7 -54t-23.5 -55t-43 -47t-64.5 -32l96 -206h-49l-92 197h-260v-197h-44zM116 235h235q71 0 117.5 41t46.5 117q0 77 -46.5 115.5t-117.5 38.5h-235v-312zM276 -91h49l-34 -124h-39z" />
    <glyph glyph-name="uni0157" unicode="&#x157;" horiz-adv-x="422" 
d="M116 326q26 38 62.5 59t72 30.5t65 11t41.5 1.5h12.5t15.5 -1v-42q-11 2 -18.5 2h-14.5q-40 0 -82 -10.5t-76 -32t-56 -53.5t-22 -75v-216h-44v425h44v-99zM96 -91h49l-34 -124h-39z" />
    <glyph glyph-name="Rcaron" unicode="&#x158;" horiz-adv-x="602" 
d="M72 0v585h280q59 0 99 -18t64 -46t34 -62t10 -65q0 -25 -7 -54t-23.5 -55t-43 -47t-64.5 -32l96 -206h-49l-92 197h-260v-197h-44zM116 235h235q71 0 117.5 41t46.5 117q0 77 -46.5 115.5t-117.5 38.5h-235v-312zM263 652l-100 173h48l75 -130l75 130h48l-100 -173h-46z
" />
    <glyph glyph-name="rcaron" unicode="&#x159;" horiz-adv-x="422" 
d="M116 326q26 38 62.5 59t72 30.5t65 11t41.5 1.5h12.5t15.5 -1v-42q-11 2 -18.5 2h-14.5q-40 0 -82 -10.5t-76 -32t-56 -53.5t-22 -75v-216h-44v425h44v-99zM198 504l-100 173h48l75 -130l75 130h48l-100 -173h-46z" />
    <glyph glyph-name="Sacute" unicode="&#x15a;" horiz-adv-x="645" 
d="M324 -3q-42 0 -85.5 8.5t-80 26t-63 45t-35.5 64.5h47q10 -34 37.5 -55t60.5 -32t66 -15t54 -4q48 0 88 5.5t69.5 18.5t45.5 34.5t16 53.5q0 28 -23 48.5t-56 34.5t-69.5 22.5t-63.5 13.5q-32 6 -79 15.5t-90.5 28.5t-74.5 49t-31 77q0 29 13 57t42.5 50t78 35t120.5 13
q42 0 86 -8t80 -25t61 -44t29 -66h-45q-4 29 -26 49t-52.5 32.5t-65.5 18t-67 5.5q-65 0 -106 -11.5t-64 -29t-31.5 -38t-8.5 -38.5q0 -28 20.5 -49t55 -36t79 -26t93.5 -21q42 -8 84.5 -19.5t77 -29t56 -44t21.5 -64.5q0 -32 -14 -59.5t-45.5 -47.5t-82 -31.5t-122.5 -11.5
zM287 652h43l90 122h-70z" />
    <glyph glyph-name="sacute" unicode="&#x15b;" horiz-adv-x="508" 
d="M461 120q0 -65 -48 -94t-160 -29q-24 0 -55.5 3.5t-60.5 15t-52.5 33t-32.5 57.5h47q8 -25 31 -39t48.5 -21t47 -9t26.5 -2q75 0 120.5 17.5t45.5 63.5q0 19 -14.5 32t-37.5 22t-53 15t-61 12q-35 6 -70.5 14t-64 21t-46.5 32t-18 47q0 24 9.5 45.5t31 37.5t57.5 25t90 9
q30 0 60.5 -5.5t56 -17.5t44 -31t24.5 -46h-51q-4 17 -17 28.5t-31.5 19t-40.5 11t-45 3.5q-45 0 -73 -7t-44 -18t-21.5 -24.5t-5.5 -27.5q0 -16 14 -27.5t37.5 -20t53 -14.5t60.5 -12q35 -6 70.5 -13.5t64 -20t46.5 -33t18 -52.5zM219 504h43l90 122h-70z" />
    <glyph glyph-name="Scircumflex" unicode="&#x15c;" horiz-adv-x="645" 
d="M324 -3q-42 0 -85.5 8.5t-80 26t-63 45t-35.5 64.5h47q10 -34 37.5 -55t60.5 -32t66 -15t54 -4q48 0 88 5.5t69.5 18.5t45.5 34.5t16 53.5q0 28 -23 48.5t-56 34.5t-69.5 22.5t-63.5 13.5q-32 6 -79 15.5t-90.5 28.5t-74.5 49t-31 77q0 29 13 57t42.5 50t78 35t120.5 13
q42 0 86 -8t80 -25t61 -44t29 -66h-45q-4 29 -26 49t-52.5 32.5t-65.5 18t-67 5.5q-65 0 -106 -11.5t-64 -29t-31.5 -38t-8.5 -38.5q0 -28 20.5 -49t55 -36t79 -26t93.5 -21q42 -8 84.5 -19.5t77 -29t56 -44t21.5 -64.5q0 -32 -14 -59.5t-45.5 -47.5t-82 -31.5t-122.5 -11.5
zM346 825l100 -173h-48l-75 130l-75 -130h-48l100 173h46z" />
    <glyph glyph-name="scircumflex" unicode="&#x15d;" horiz-adv-x="508" 
d="M461 120q0 -65 -48 -94t-160 -29q-24 0 -55.5 3.5t-60.5 15t-52.5 33t-32.5 57.5h47q8 -25 31 -39t48.5 -21t47 -9t26.5 -2q75 0 120.5 17.5t45.5 63.5q0 19 -14.5 32t-37.5 22t-53 15t-61 12q-35 6 -70.5 14t-64 21t-46.5 32t-18 47q0 24 9.5 45.5t31 37.5t57.5 25t90 9
q30 0 60.5 -5.5t56 -17.5t44 -31t24.5 -46h-51q-4 17 -17 28.5t-31.5 19t-40.5 11t-45 3.5q-45 0 -73 -7t-44 -18t-21.5 -24.5t-5.5 -27.5q0 -16 14 -27.5t37.5 -20t53 -14.5t60.5 -12q35 -6 70.5 -13.5t64 -20t46.5 -33t18 -52.5zM273 677l100 -173h-48l-75 130l-75 -130
h-48l100 173h46z" />
    <glyph glyph-name="Scedilla" unicode="&#x15e;" horiz-adv-x="645" 
d="M588 147q0 -31 -13.5 -58t-43 -47t-76.5 -32t-115 -13v-61q29 -6 52 -19q21 -12 36 -32.5t15 -54.5q0 -49 -32.5 -73t-83.5 -24q-15 0 -32.5 1t-31.5 3v28q1 0 8 -0.5t16 -1t19.5 -1t18.5 -0.5t22 1.5t28 8.5t24.5 21t10.5 40q0 21 -9.5 35t-24.5 23.5t-33.5 14
t-36.5 6.5v85q-40 2 -80.5 11.5t-74.5 27t-58.5 43.5t-32.5 62h47q10 -34 37.5 -55t60.5 -32t66 -15t54 -4q48 0 88 5.5t69.5 18.5t45.5 34.5t16 53.5q0 28 -23 48.5t-56 34.5t-69.5 22.5t-63.5 13.5q-32 6 -79 15.5t-90.5 28.5t-74.5 49t-31 77q0 29 13 57t42.5 50t78 35
t120.5 13q42 0 86 -8t80 -25t61 -44t29 -66h-45q-4 29 -26 49t-52.5 32.5t-65.5 18t-67 5.5q-65 0 -106 -11.5t-64 -29t-31.5 -38t-8.5 -38.5q0 -28 20.5 -49t55 -36t79 -26t93.5 -21q42 -8 84.5 -19.5t77 -29t56 -44t21.5 -64.5z" />
    <glyph glyph-name="scedilla" unicode="&#x15f;" horiz-adv-x="508" 
d="M461 120q0 -62 -44 -91.5t-145 -31.5v-61q29 -6 52 -19q21 -12 36 -32.5t15 -54.5q0 -49 -32.5 -73t-83.5 -24q-15 0 -32.5 1t-31.5 3v28q1 0 8 -0.5t16 -1t19.5 -1t18.5 -0.5t22 1.5t28 8.5t24.5 21t10.5 40q0 21 -9.5 35t-24.5 23.5t-33.5 14t-36.5 6.5v85
q-25 1 -54 5.5t-55.5 16.5t-47.5 33t-29 54h47q8 -25 31 -39t48.5 -21t47 -9t26.5 -2q75 0 120.5 17.5t45.5 63.5q0 19 -14.5 32t-37.5 22t-53 15t-61 12q-35 6 -70.5 14t-64 21t-46.5 32t-18 47q0 24 9.5 45.5t31 37.5t57.5 25t90 9q30 0 60.5 -5.5t56 -17.5t44 -31
t24.5 -46h-51q-4 17 -17 28.5t-31.5 19t-40.5 11t-45 3.5q-45 0 -73 -7t-44 -18t-21.5 -24.5t-5.5 -27.5q0 -16 14 -27.5t37.5 -20t53 -14.5t60.5 -12q35 -6 70.5 -13.5t64 -20t46.5 -33t18 -52.5z" />
    <glyph glyph-name="Scaron" unicode="&#x160;" horiz-adv-x="645" 
d="M324 -3q-42 0 -85.5 8.5t-80 26t-63 45t-35.5 64.5h47q10 -34 37.5 -55t60.5 -32t66 -15t54 -4q48 0 88 5.5t69.5 18.5t45.5 34.5t16 53.5q0 28 -23 48.5t-56 34.5t-69.5 22.5t-63.5 13.5q-32 6 -79 15.5t-90.5 28.5t-74.5 49t-31 77q0 29 13 57t42.5 50t78 35t120.5 13
q42 0 86 -8t80 -25t61 -44t29 -66h-45q-4 29 -26 49t-52.5 32.5t-65.5 18t-67 5.5q-65 0 -106 -11.5t-64 -29t-31.5 -38t-8.5 -38.5q0 -28 20.5 -49t55 -36t79 -26t93.5 -21q42 -8 84.5 -19.5t77 -29t56 -44t21.5 -64.5q0 -32 -14 -59.5t-45.5 -47.5t-82 -31.5t-122.5 -11.5
zM284 652l-100 173h48l75 -130l75 130h48l-100 -173h-46z" />
    <glyph glyph-name="scaron" unicode="&#x161;" horiz-adv-x="508" 
d="M461 120q0 -65 -48 -94t-160 -29q-24 0 -55.5 3.5t-60.5 15t-52.5 33t-32.5 57.5h47q8 -25 31 -39t48.5 -21t47 -9t26.5 -2q75 0 120.5 17.5t45.5 63.5q0 19 -14.5 32t-37.5 22t-53 15t-61 12q-35 6 -70.5 14t-64 21t-46.5 32t-18 47q0 24 9.5 45.5t31 37.5t57.5 25t90 9
q30 0 60.5 -5.5t56 -17.5t44 -31t24.5 -46h-51q-4 17 -17 28.5t-31.5 19t-40.5 11t-45 3.5q-45 0 -73 -7t-44 -18t-21.5 -24.5t-5.5 -27.5q0 -16 14 -27.5t37.5 -20t53 -14.5t60.5 -12q35 -6 70.5 -13.5t64 -20t46.5 -33t18 -52.5zM231 504l-100 173h48l75 -130l75 130h48
l-100 -173h-46z" />
    <glyph glyph-name="uni0162" unicode="&#x162;" horiz-adv-x="555" 
d="M255 547h-218v38h481v-38h-218v-547h-8q-17 -17 -29.5 -43t-12.5 -52q0 -27 12.5 -40.5t36.5 -23.5v-29q-14 4 -29 9t-27 15t-19.5 26.5t-7.5 42.5q0 14 10 40.5t39 54.5h-10v547z" />
    <glyph glyph-name="uni0163" unicode="&#x163;" horiz-adv-x="402" 
d="M275 -3q-25 0 -47 5v-66q29 -6 52 -19q21 -12 36 -32.5t15 -54.5q0 -49 -32.5 -73t-83.5 -24q-15 0 -32.5 1t-31.5 3v28q1 0 8 -0.5t16 -1t19.5 -1t18.5 -0.5t22 1.5t28 8.5t24.5 21t10.5 40q0 21 -9.5 35t-24.5 23.5t-33.5 14t-36.5 6.5v108q-23 19 -31.5 54t-8.5 89
v224h-112v38h112v153l44 13v-166h147v-38h-147v-245q0 -33 7.5 -54t20 -32.5t30.5 -16t39 -4.5h22.5t20.5 1v-37q-13 -2 -23.5 -2h-39.5z" />
    <glyph glyph-name="Tcaron" unicode="&#x164;" horiz-adv-x="555" 
d="M518 547h-218v-547h-45v547h-218v38h481v-38zM254 652l-100 173h48l75 -130l75 130h48l-100 -173h-46z" />
    <glyph glyph-name="tcaron" unicode="&#x165;" horiz-adv-x="476" 
d="M392 585h57l-60 -82h-41zM275 -3q-71 0 -96 40t-25 126v224h-112v38h112v153l44 13v-166h147v-38h-147v-245q0 -33 7.5 -54t20 -32.5t30.5 -16t39 -4.5h22.5t20.5 1v-37q-13 -2 -23.5 -2h-39.5z" />
    <glyph glyph-name="Tbar" unicode="&#x166;" horiz-adv-x="555" 
d="M255 294v253h-218v38h481v-38h-218v-253h141v-38h-141v-256h-45v256h-141v38h141z" />
    <glyph glyph-name="tbar" unicode="&#x167;" horiz-adv-x="402" 
d="M154 231v156h-112v38h112v153l44 13v-166h147v-38h-147v-156h147v-38h-147v-51q0 -33 7.5 -54t20 -32.5t30.5 -16t39 -4.5h22.5t20.5 1v-37q-13 -2 -23.5 -2h-39.5q-71 0 -96 40t-25 126v30h-112v38h112z" />
    <glyph glyph-name="Utilde" unicode="&#x168;" horiz-adv-x="694" 
d="M347 -3q-84 0 -138 25.5t-85.5 65.5t-44 88.5t-12.5 94.5v314h45v-317q0 -49 15 -92t44.5 -74t73.5 -49t102 -18t102 18t73.5 49t44.5 74t15 92v317h45v-314q0 -46 -12.5 -94.5t-44 -88.5t-85.5 -65.5t-138 -25.5zM265 731q21 0 41 -6.5t40 -14t40.5 -14t42.5 -6.5
q21 0 46 5l10 -34q-15 -5 -30 -7t-26 -2q-21 0 -41 6.5t-40 14t-40.5 14t-43.5 6.5q-21 0 -46 -5l-10 34q15 5 30.5 7t26.5 2z" />
    <glyph glyph-name="utilde" unicode="&#x169;" 
d="M481 99q-29 -39 -64 -59.5t-66 -30t-52 -11t-23 -1.5q-110 0 -162 48.5t-52 152.5v227h45v-225q0 -57 15.5 -89.5t40.5 -49.5t55.5 -21.5t61.5 -4.5q32 0 67 13t65 35.5t49.5 53.5t19.5 68v220h45v-425h-45v99zM211 583q21 0 41 -6.5t40 -14t40.5 -14t42.5 -6.5
q21 0 46 5l10 -34q-15 -5 -30 -7t-26 -2q-21 0 -41 6.5t-40 14t-40.5 14t-43.5 6.5q-21 0 -46 -5l-10 34q15 5 30.5 7t26.5 2z" />
    <glyph glyph-name="Umacron" unicode="&#x16a;" horiz-adv-x="694" 
d="M347 -3q-84 0 -138 25.5t-85.5 65.5t-44 88.5t-12.5 94.5v314h45v-317q0 -49 15 -92t44.5 -74t73.5 -49t102 -18t102 18t73.5 49t44.5 74t15 92v317h45v-314q0 -46 -12.5 -94.5t-44 -88.5t-85.5 -65.5t-138 -25.5zM516 690v-38h-340v38h340z" />
    <glyph glyph-name="umacron" unicode="&#x16b;" 
d="M481 99q-29 -39 -64 -59.5t-66 -30t-52 -11t-23 -1.5q-110 0 -162 48.5t-52 152.5v227h45v-225q0 -57 15.5 -89.5t40.5 -49.5t55.5 -21.5t61.5 -4.5q32 0 67 13t65 35.5t49.5 53.5t19.5 68v220h45v-425h-45v99zM460 542v-38h-340v38h340z" />
    <glyph glyph-name="Ubreve" unicode="&#x16c;" horiz-adv-x="694" 
d="M347 -3q-84 0 -138 25.5t-85.5 65.5t-44 88.5t-12.5 94.5v314h45v-317q0 -49 15 -92t44.5 -74t73.5 -49t102 -18t102 18t73.5 49t44.5 74t15 92v317h45v-314q0 -46 -12.5 -94.5t-44 -88.5t-85.5 -65.5t-138 -25.5zM347 652q-50 0 -93 20.5t-57 69.5h43q28 -60 107 -60
t107 60h43q-14 -49 -57 -69.5t-93 -20.5z" />
    <glyph glyph-name="ubreve" unicode="&#x16d;" 
d="M481 99q-29 -39 -64 -59.5t-66 -30t-52 -11t-23 -1.5q-110 0 -162 48.5t-52 152.5v227h45v-225q0 -57 15.5 -89.5t40.5 -49.5t55.5 -21.5t61.5 -4.5q32 0 67 13t65 35.5t49.5 53.5t19.5 68v220h45v-425h-45v99zM292 504q-50 0 -93 20.5t-57 69.5h43q28 -60 107 -60
t107 60h43q-14 -49 -57 -69.5t-93 -20.5z" />
    <glyph glyph-name="Uring" unicode="&#x16e;" horiz-adv-x="694" 
d="M347 -3q-84 0 -138 25.5t-85.5 65.5t-44 88.5t-12.5 94.5v314h45v-317q0 -49 15 -92t44.5 -74t73.5 -49t102 -18t102 18t73.5 49t44.5 74t15 92v317h45v-314q0 -46 -12.5 -94.5t-44 -88.5t-85.5 -65.5t-138 -25.5zM234 763q0 23 9 43t24 35t35.5 24t43.5 9t43.5 -9
t35.5 -24t24 -35t9 -43q0 -22 -9 -42.5t-24 -35.5t-35.5 -24t-43.5 -9t-43.5 9t-35.5 24t-24 35.5t-9 42.5zM421 763q0 30 -21.5 51.5t-53.5 21.5t-53 -21.5t-21 -51.5q0 -31 21 -52.5t53 -21.5t53.5 21.5t21.5 52.5z" />
    <glyph glyph-name="uring" unicode="&#x16f;" 
d="M481 99q-29 -39 -64 -59.5t-66 -30t-52 -11t-23 -1.5q-110 0 -162 48.5t-52 152.5v227h45v-225q0 -57 15.5 -89.5t40.5 -49.5t55.5 -21.5t61.5 -4.5q32 0 67 13t65 35.5t49.5 53.5t19.5 68v220h45v-425h-45v99zM191 615q0 23 9 43t24 35t35.5 24t43.5 9t43.5 -9t35.5 -24
t24 -35t9 -43q0 -22 -9 -42.5t-24 -35.5t-35.5 -24t-43.5 -9t-43.5 9t-35.5 24t-24 35.5t-9 42.5zM378 615q0 30 -21.5 51.5t-53.5 21.5t-53 -21.5t-21 -51.5q0 -31 21 -52.5t53 -21.5t53.5 21.5t21.5 52.5z" />
    <glyph glyph-name="Uhungarumlaut" unicode="&#x170;" horiz-adv-x="694" 
d="M347 -3q-84 0 -138 25.5t-85.5 65.5t-44 88.5t-12.5 94.5v314h45v-317q0 -49 15 -92t44.5 -74t73.5 -49t102 -18t102 18t73.5 49t44.5 74t15 92v317h45v-314q0 -46 -12.5 -94.5t-44 -88.5t-85.5 -65.5t-138 -25.5zM447 781h51l-34 -129h-47zM271 781h51l-34 -129h-47z
" />
    <glyph glyph-name="uhungarumlaut" unicode="&#x171;" 
d="M481 99q-29 -39 -64 -59.5t-66 -30t-52 -11t-23 -1.5q-110 0 -162 48.5t-52 152.5v227h45v-225q0 -57 15.5 -89.5t40.5 -49.5t55.5 -21.5t61.5 -4.5q32 0 67 13t65 35.5t49.5 53.5t19.5 68v220h45v-425h-45v99zM397 633h51l-34 -129h-47zM221 633h51l-34 -129h-47z" />
    <glyph glyph-name="Uogonek" unicode="&#x172;" horiz-adv-x="694" 
d="M627 271q0 -45 -11.5 -92.5t-41.5 -87t-81 -65.5t-130 -28q-11 -17 -17 -36.5t-6 -39.5q0 -25 6.5 -39.5t19.5 -22t32 -10t44 -3.5v-28q-5 -1 -21 -1q-21 0 -41.5 5t-36.5 17t-26 31t-10 48q0 13 3.5 34t19.5 45q-78 3 -129 29t-81 65t-41.5 86.5t-11.5 92.5v314h45v-317
q0 -49 15 -92t44.5 -74t73.5 -49t102 -18t102 18t73.5 49t44.5 74t15 92v317h45v-314z" />
    <glyph glyph-name="uogonek" unicode="&#x173;" 
d="M481 99q-29 -39 -64 -59.5t-66 -30t-52 -11t-23 -1.5q-110 0 -162 48.5t-52 152.5v227h45v-225q0 -57 15.5 -89.5t40.5 -49.5t55.5 -21.5t61.5 -4.5q32 0 67 13t65 35.5t49.5 53.5t19.5 68v220h45v-425h-8q-17 -17 -29.5 -43t-12.5 -52q0 -27 12.5 -40.5t36.5 -23.5v-29
q-14 4 -29 9t-27 15t-19.5 26.5t-7.5 42.5q0 14 10 40.5t39 54.5h-10v99z" />
    <glyph glyph-name="Ydieresis" unicode="&#x178;" horiz-adv-x="611" 
d="M521 585h53l-246 -409v-176h-45v176l-246 409h53l216 -360zM163 709h58v-57h-58v57zM390 709h58v-57h-58v57z" />
    <glyph glyph-name="Zacute" unicode="&#x179;" horiz-adv-x="551" 
d="M57 39l381 508h-381v38h437v-38l-381 -509h381v-38h-437v39zM265 652h43l90 122h-70z" />
    <glyph glyph-name="zacute" unicode="&#x17a;" horiz-adv-x="500" 
d="M57 425h386v-38l-324 -349h324v-38h-386v35l329 352h-329v38zM286 626h70l-90 -122h-43z" />
    <glyph glyph-name="Zdotaccent" unicode="&#x17b;" horiz-adv-x="551" 
d="M57 39l381 508h-381v38h437v-38l-381 -509h381v-38h-437v39zM251 652h58v57h-58v-57z" />
    <glyph glyph-name="zdotaccent" unicode="&#x17c;" horiz-adv-x="500" 
d="M57 425h386v-38l-324 -349h324v-38h-386v35l329 352h-329v38zM228 561h58v-57h-58v57z" />
    <glyph glyph-name="Zcaron" unicode="&#x17d;" horiz-adv-x="551" 
d="M57 39l381 508h-381v38h437v-38l-381 -509h381v-38h-437v39zM261 652l-100 173h48l75 -130l75 130h48l-100 -173h-46z" />
    <glyph glyph-name="zcaron" unicode="&#x17e;" horiz-adv-x="500" 
d="M57 425h386v-38l-324 -349h324v-38h-386v35l329 352h-329v38zM238 504l-100 173h48l75 -130l75 130h48l-100 -173h-46z" />
    <glyph glyph-name="florin" unicode="&#x192;" horiz-adv-x="393" 
d="M-11 -176q12 -2 27 -3t20 -1q40 0 63.5 12t36 30.5t16 42.5t3.5 48v434h-113v38h113v30q0 37 6 68t21.5 53t42 34t68.5 12q8 0 18 -1q8 0 17 -1l18 -2v-36q-9 1 -20.5 1.5t-15.5 0.5q-62 0 -86.5 -27t-24.5 -94v-38h147v-38h-147v-432q0 -85 -39 -129t-109 -44
q-13 0 -26 0.5t-36 3.5v38z" />
    <glyph glyph-name="uni0218" unicode="&#x218;" horiz-adv-x="645" 
d="M324 -3q-42 0 -85.5 8.5t-80 26t-63 45t-35.5 64.5h47q10 -34 37.5 -55t60.5 -32t66 -15t54 -4q48 0 88 5.5t69.5 18.5t45.5 34.5t16 53.5q0 28 -23 48.5t-56 34.5t-69.5 22.5t-63.5 13.5q-32 6 -79 15.5t-90.5 28.5t-74.5 49t-31 77q0 29 13 57t42.5 50t78 35t120.5 13
q42 0 86 -8t80 -25t61 -44t29 -66h-45q-4 29 -26 49t-52.5 32.5t-65.5 18t-67 5.5q-65 0 -106 -11.5t-64 -29t-31.5 -38t-8.5 -38.5q0 -28 20.5 -49t55 -36t79 -26t93.5 -21q42 -8 84.5 -19.5t77 -29t56 -44t21.5 -64.5q0 -32 -14 -59.5t-45.5 -47.5t-82 -31.5t-122.5 -11.5
zM317 -91h49l-34 -124h-39z" />
    <glyph glyph-name="uni0219" unicode="&#x219;" horiz-adv-x="508" 
d="M461 120q0 -65 -48 -94t-160 -29q-24 0 -55.5 3.5t-60.5 15t-52.5 33t-32.5 57.5h47q8 -25 31 -39t48.5 -21t47 -9t26.5 -2q75 0 120.5 17.5t45.5 63.5q0 19 -14.5 32t-37.5 22t-53 15t-61 12q-35 6 -70.5 14t-64 21t-46.5 32t-18 47q0 24 9.5 45.5t31 37.5t57.5 25t90 9
q30 0 60.5 -5.5t56 -17.5t44 -31t24.5 -46h-51q-4 17 -17 28.5t-31.5 19t-40.5 11t-45 3.5q-45 0 -73 -7t-44 -18t-21.5 -24.5t-5.5 -27.5q0 -16 14 -27.5t37.5 -20t53 -14.5t60.5 -12q35 -6 70.5 -13.5t64 -20t46.5 -33t18 -52.5zM234 -91h49l-34 -124h-39z" />
    <glyph glyph-name="uni021A" unicode="&#x21a;" horiz-adv-x="555" 
d="M518 547h-218v-547h-45v547h-218v38h481v-38zM255 -91h49l-34 -124h-39z" />
    <glyph glyph-name="uni021B" unicode="&#x21b;" horiz-adv-x="402" 
d="M275 -3q-71 0 -96 40t-25 126v224h-112v38h112v153l44 13v-166h147v-38h-147v-245q0 -33 7.5 -54t20 -32.5t30.5 -16t39 -4.5h22.5t20.5 1v-37q-13 -2 -23.5 -2h-39.5zM240 -91h49l-34 -124h-39z" />
    <glyph glyph-name="circumflex" unicode="&#x2c6;" horiz-adv-x="400" 
d="M223 585l100 -173h-48l-75 130l-75 -130h-48l100 173h46z" />
    <glyph glyph-name="caron" unicode="&#x2c7;" horiz-adv-x="400" 
d="M177 412l-100 173h48l75 -130l75 130h48l-100 -173h-46z" />
    <glyph glyph-name="breve" unicode="&#x2d8;" horiz-adv-x="454" 
d="M227 495q-50 0 -93 20.5t-57 69.5h43q28 -60 107 -60t107 60h43q-14 -49 -57 -69.5t-93 -20.5z" />
    <glyph glyph-name="dotaccent" unicode="&#x2d9;" horiz-adv-x="212" 
d="M77 585h58v-57h-58v57z" />
    <glyph glyph-name="ring" unicode="&#x2da;" horiz-adv-x="378" 
d="M77 480q0 23 9 43t24 35t35.5 24t43.5 9t43.5 -9t35.5 -24t24 -35t9 -43q0 -22 -9 -42.5t-24 -35.5t-35.5 -24t-43.5 -9t-43.5 9t-35.5 24t-24 35.5t-9 42.5zM264 480q0 30 -21.5 51.5t-53.5 21.5t-53 -21.5t-21 -51.5q0 -31 21 -52.5t53 -21.5t53.5 21.5t21.5 52.5z" />
    <glyph glyph-name="ogonek" unicode="&#x2db;" horiz-adv-x="289" 
d="M136 -3q-12 -17 -19 -36t-7 -39q0 -25 6.5 -39.5t19.5 -22t32 -10t44 -3.5v-28q-5 -1 -21 -1q-21 0 -41.5 5t-36.5 17t-26 31t-10 48q0 14 4 33.5t22 44.5h33z" />
    <glyph glyph-name="tilde" unicode="&#x2dc;" horiz-adv-x="431" 
d="M134 591q21 0 41 -6.5t40 -14t40.5 -14t42.5 -6.5q21 0 46 5l10 -34q-15 -5 -30 -7t-26 -2q-21 0 -41 6.5t-40 14t-40.5 14t-43.5 6.5q-21 0 -46 -5l-10 34q15 5 30.5 7t26.5 2z" />
    <glyph glyph-name="hungarumlaut" unicode="&#x2dd;" horiz-adv-x="411" 
d="M283 585h51l-34 -129h-47zM107 585h51l-34 -129h-47z" />
    <glyph glyph-name="uni03A9" unicode="&#x3a9;" horiz-adv-x="746" 
d="M373 553q-35 0 -66.5 -9.5t-55 -30.5t-37 -53.5t-13.5 -79.5v-178q0 -26 9 -69.5t35 -93.5v-39h-168v38h122q-32 60 -37.5 102.5t-5.5 64.5v177q0 35 9.5 72t34.5 67.5t67 50t106 19.5q65 0 106.5 -19.5t66.5 -50t34.5 -67.5t9.5 -72v-177q0 -22 -5.5 -64.5t-37.5 -102.5
h122v-38h-168v39q26 50 35 93.5t9 69.5v178q0 47 -13.5 79.5t-37 53.5t-55 30.5t-66.5 9.5z" />
    <glyph glyph-name="pi" unicode="&#x3c0;" horiz-adv-x="957" 
d="M305 0h-45v386h-183v38h803v-38h-183v-386h-45v386h-347v-386z" />
    <glyph glyph-name="ZWSP" unicode="&#x200b;" horiz-adv-x="0" 
 />
    <glyph glyph-name="endash" unicode="&#x2013;" horiz-adv-x="494" 
d="M417 184v-38h-340v38h340z" />
    <glyph glyph-name="emdash" unicode="&#x2014;" horiz-adv-x="619" 
d="M542 184v-38h-465v38h465z" />
    <glyph glyph-name="quoteleft" unicode="&#x2018;" horiz-adv-x="230" 
d="M127 433h-50l38 152h38z" />
    <glyph glyph-name="quoteright" unicode="&#x2019;" horiz-adv-x="230" 
d="M103 585h50l-38 -152h-38z" />
    <glyph glyph-name="quotesinglbase" unicode="&#x201a;" horiz-adv-x="230" 
d="M103 -28h50l-38 -152h-38z" />
    <glyph glyph-name="quotedblleft" unicode="&#x201c;" horiz-adv-x="365" 
d="M127 433h-50l38 152h38zM262 433h-50l38 152h38z" />
    <glyph glyph-name="quotedblright" unicode="&#x201d;" horiz-adv-x="365" 
d="M238 585h50l-38 -152h-38zM103 585h50l-38 -152h-38z" />
    <glyph glyph-name="quotedblbase" unicode="&#x201e;" horiz-adv-x="365" 
d="M238 -28h50l-38 -152h-38zM103 -28h50l-38 -152h-38z" />
    <glyph glyph-name="dagger" unicode="&#x2020;" horiz-adv-x="469" 
d="M392 387h-135v-564h-45v564h-135v38h135v160h45v-160h135v-38z" />
    <glyph glyph-name="daggerdbl" unicode="&#x2021;" horiz-adv-x="469" 
d="M212 38v349h-135v38h135v160h45v-160h135v-38h-135v-349h135v-38h-135v-177h-45v177h-135v38h135z" />
    <glyph glyph-name="bullet" unicode="&#x2022;" horiz-adv-x="212" 
d="M77 189h58v-57h-58v57z" />
    <glyph glyph-name="ellipsis" unicode="&#x2026;" horiz-adv-x="1014" 
d="M77 57h58v-57h-58v57zM478 57h58v-57h-58v57zM879 57h58v-57h-58v57z" />
    <glyph glyph-name="perthousand" unicode="&#x2030;" horiz-adv-x="1187" 
d="M573 585h48l-335 -585h-48zM77 465q0 27 10.5 50t28.5 40t42 26.5t51 9.5t51 -9.5t42 -26.5t28.5 -40t10.5 -50t-10.5 -50t-28.5 -40t-42 -26.5t-51 -9.5t-51 9.5t-42 26.5t-28.5 40t-10.5 50zM301 465q0 41 -28 66.5t-64 25.5t-64 -25.5t-28 -66.5t28 -66.5t64 -25.5
t64 25.5t28 66.5zM782 123q0 -27 -10.5 -50t-28.5 -40t-42 -26.5t-51 -9.5t-51 9.5t-42 26.5t-28.5 40t-10.5 50t10.5 50t28.5 40t42 26.5t51 9.5t51 -9.5t42 -26.5t28.5 -40t10.5 -50zM558 123q0 -41 28 -66.5t64 -25.5t64 25.5t28 66.5t-28 66.5t-64 25.5t-64 -25.5
t-28 -66.5zM1110 123q0 -27 -10.5 -50t-28.5 -40t-42 -26.5t-51 -9.5t-51 9.5t-42 26.5t-28.5 40t-10.5 50t10.5 50t28.5 40t42 26.5t51 9.5t51 -9.5t42 -26.5t28.5 -40t10.5 -50zM886 123q0 -41 28 -66.5t64 -25.5t64 25.5t28 66.5t-28 66.5t-64 25.5t-64 -25.5t-28 -66.5z
" />
    <glyph glyph-name="guilsinglleft" unicode="&#x2039;" horiz-adv-x="403" 
d="M77 178v66l249 148v-52l-218 -129l218 -129v-52z" />
    <glyph glyph-name="guilsinglright" unicode="&#x203a;" horiz-adv-x="403" 
d="M77 30v52l218 129l-218 129v52l249 -148v-66z" />
    <glyph glyph-name="fraction" unicode="&#x2044;" horiz-adv-x="443" 
d="M373 782h45l-347 -953h-46z" />
    <glyph glyph-name="Euro" unicode="&#x20ac;" horiz-adv-x="800" 
d="M163 400q13 38 36 72.5t58 61t83.5 42t111.5 15.5q115 0 181.5 -40.5t89.5 -100.5h-50q-10 26 -31.5 45.5t-51 32.5t-65 19t-73.5 6q-82 0 -147.5 -39.5t-94.5 -113.5h171v-38h-183q-7 -31 -7 -70q0 -45 11 -84h179v-38h-164q32 -66 94.5 -100.5t140.5 -34.5
q38 0 73.5 6.5t65 19t51 32t31.5 45.5h50q-23 -60 -89.5 -100.5t-181.5 -40.5q-60 0 -106.5 13.5t-81 37t-58 55t-37.5 67.5h-92v38h80q-5 21 -7.5 42.5t-2.5 42.5q0 17 1.5 34.5t5.5 34.5h-77v38h86z" />
    <glyph glyph-name="Numero" unicode="&#x2116;" horiz-adv-x="1308" 
d="M121 545v-545h-44v585h69l433 -547v547h46v-585h-73zM979 198q38 0 75 10t66.5 31.5t48 55.5t18.5 82q0 47 -18.5 80.5t-48 54.5t-66.5 31t-75 10t-75 -10t-66.5 -31t-48 -54.5t-18.5 -80.5q0 -48 18.5 -82t48 -55.5t66.5 -31.5t75 -10zM979 160q-72 0 -120 19.5
t-77.5 50.5t-42 70t-12.5 77t12.5 76.5t42 69t77.5 49.5t120 19t120 -19t77.5 -49.5t42 -69t12.5 -76.5t-12.5 -77t-42 -70t-77.5 -50.5t-120 -19.5zM1231 38v-38h-504v38h504z" />
    <glyph glyph-name="trademark" unicode="&#x2122;" horiz-adv-x="783" 
d="M205 328h-38v226h-90v31h221v-31h-93v-226zM507 328l-100 226l-18 -226h-37l19 257h65l93 -215l93 215h65l19 -257h-37l-18 226l-100 -226h-44z" />
    <glyph glyph-name="Omega" unicode="&#x2126;" horiz-adv-x="746" 
d="M373 553q-35 0 -66.5 -9.5t-55 -30.5t-37 -53.5t-13.5 -79.5v-178q0 -26 9 -69.5t35 -93.5v-39h-168v38h122q-32 60 -37.5 102.5t-5.5 64.5v177q0 35 9.5 72t34.5 67.5t67 50t106 19.5q65 0 106.5 -19.5t66.5 -50t34.5 -67.5t9.5 -72v-177q0 -22 -5.5 -64.5t-37.5 -102.5
h122v-38h-168v39q26 50 35 93.5t9 69.5v178q0 47 -13.5 79.5t-37 53.5t-55 30.5t-66.5 9.5z" />
    <glyph glyph-name="partialdiff" unicode="&#x2202;" horiz-adv-x="646" 
d="M121 190q0 -48 18 -78t46 -47.5t62 -23.5t67 -6q39 0 77 15t67.5 37.5t48 48t18.5 47.5v11q0 39 -19.5 70t-49.5 52.5t-67 33.5t-73 12q-28 0 -62.5 -6t-63.5 -24t-49 -50.5t-20 -84.5v-7zM569 0h-44v98q-33 -38 -67 -58.5t-64 -30t-55 -11t-41 -1.5q-39 0 -78.5 9
t-71 31t-51.5 59.5t-20 93.5q0 99 59 154.5t180 55.5q15 0 41.5 -3t56.5 -12.5t60 -27.5t51 -47v125q0 32 -14.5 54t-39 36.5t-56 21t-66.5 6.5q-14 0 -35.5 -1t-43.5 -6.5t-41.5 -16t-29.5 -29.5h-49q6 26 24 43t45 28t60.5 15.5t69.5 4.5q72 0 115 -17t66.5 -42.5
t31 -54.5t7.5 -53v-424z" />
    <glyph glyph-name="Delta" unicode="&#x2206;" horiz-adv-x="796" 
d="M719 0h-642l291 585h60zM145 38h506l-253 511z" />
    <glyph glyph-name="product" unicode="&#x220f;" horiz-adv-x="957" 
d="M305 0h-45v547h-183v38h803v-38h-183v-547h-45v547h-347v-547z" />
    <glyph glyph-name="summation" unicode="&#x2211;" horiz-adv-x="500" 
d="M77 546v39h346v-38h-299l134 -254l-134 -255h299v-38h-346v39l135 254z" />
    <glyph glyph-name="minus" unicode="&#x2212;" horiz-adv-x="494" 
d="M417 184v-38h-340v38h340z" />
    <glyph glyph-name="radical" unicode="&#x221a;" horiz-adv-x="812" 
d="M735 547h-203l-278 -547h-66l-111 217h50l94 -182l280 550h234v-38z" />
    <glyph glyph-name="infinity" unicode="&#x221e;" horiz-adv-x="1028" 
d="M514 137q-56 -72 -116 -102t-115 -30q-43 0 -80.5 12t-65.5 35.5t-44 56.5t-16 75t17 76t45.5 57t66 35.5t77.5 12.5q27 0 54 -5t55 -19.5t58 -41t64 -69.5q34 43 64 69.5t58 41t55 19.5t54 5q41 0 78 -12.5t65.5 -35.5t45.5 -57t17 -76t-16 -75t-44 -56.5t-65.5 -35.5
t-80.5 -12q-55 0 -115 30t-116 102zM500 185q-48 73 -105.5 107.5t-111.5 34.5q-22 0 -50 -7t-53 -23.5t-41.5 -43.5t-16.5 -68t16.5 -68t41.5 -43.5t53 -23.5t50 -7q54 0 111.5 35t105.5 107zM528 185q48 -72 105.5 -107t111.5 -35q23 0 50.5 7t52.5 23.5t41.5 43.5
t16.5 68t-16.5 68t-41.5 43.5t-52.5 23.5t-50.5 7q-54 0 -111.5 -34.5t-105.5 -107.5z" />
    <glyph glyph-name="integral" unicode="&#x222b;" horiz-adv-x="511" 
d="M287 -45q0 -85 -39 -129t-109 -44q-13 0 -26 0.5t-36 3.5v38q12 -2 27 -3t20 -1q40 0 63.5 12t36 30.5t16 42.5t3.5 48v502q0 37 6 68t21.5 53t42 34t68.5 12q8 0 18 -1q8 0 17 -1l18 -2v-36q-9 1 -20.5 1.5t-15.5 0.5q-62 0 -86.5 -27t-24.5 -94v-508z" />
    <glyph glyph-name="approxequal" unicode="&#x2248;" horiz-adv-x="431" 
d="M134 118q21 0 41 -6.5t40 -14t40.5 -14t42.5 -6.5q21 0 46 5l10 -34q-15 -5 -30 -7t-26 -2q-21 0 -41 6.5t-40 14t-40.5 14t-43.5 6.5q-21 0 -46 -5l-10 34q15 5 30.5 7t26.5 2zM134 281q21 0 41 -6.5t40 -14t40.5 -14t42.5 -6.5q21 0 46 5l10 -34q-15 -5 -30 -7t-26 -2
q-21 0 -41 6.5t-40 14t-40.5 14t-43.5 6.5q-21 0 -46 -5l-10 34q15 5 30.5 7t26.5 2z" />
    <glyph glyph-name="notequal" unicode="&#x2260;" horiz-adv-x="393" 
d="M144 91h-67v38h77l44 168h-121v38h131l28 110h37l-28 -110h71v-38h-81l-43 -168h124v-38h-134l-23 -91h-38z" />
    <glyph glyph-name="lessequal" unicode="&#x2264;" horiz-adv-x="367" 
d="M77 223v66l213 125v-52l-182 -106l182 -108v-52zM290 38v-38h-213v38h213z" />
    <glyph glyph-name="greaterequal" unicode="&#x2265;" horiz-adv-x="367" 
d="M77 96v52l182 108l-182 106v52l213 -125v-66zM290 38v-38h-213v38h213z" />
    <glyph glyph-name="lozenge" unicode="&#x25ca;" horiz-adv-x="524" 
d="M395 290l-133 257l-133 -257l133 -255zM231 0l-154 290l155 295h60l155 -295l-154 -290h-62z" />
    <glyph glyph-name="uni25CC" unicode="&#x25cc;" horiz-adv-x="512" 
 />
    <glyph glyph-name="fi" unicode="&#xfb01;" horiz-adv-x="583" 
d="M199 425h147v-38h-147v-387h-44v387h-113v38h113v30q0 37 6 68t21.5 53t42 34t68.5 12q8 0 18 -1q8 0 17 -1l18 -2v-36q-9 1 -20.5 1.5t-15.5 0.5q-62 0 -86.5 -27t-24.5 -94v-38zM466 425h44v-425h-44v425zM466 585h44v-96h-44v96z" />
    <glyph glyph-name="fl" unicode="&#xfb02;" horiz-adv-x="641" 
d="M199 425h147v-38h-147v-387h-44v387h-113v38h113v30q0 37 6 68t21.5 53t42 34t68.5 12q8 0 18 -1q8 0 17 -1l18 -2v-36q-9 1 -20.5 1.5t-15.5 0.5q-62 0 -86.5 -27t-24.5 -94v-38zM510 137q0 -31 6.5 -51t18.5 -31.5t28 -15.5t35 -4v-35q-7 -2 -14 -2.5t-14 -0.5
q-33 0 -53.5 13.5t-32 34t-15 45t-3.5 47.5v448h44v-448z" />
    <glyph glyph-name="Superstore" horiz-adv-x="659" 
d="M328 505q53 0 99 -20t80.5 -54.5t54.5 -80.5t20 -99q0 -52 -20 -97.5t-54.5 -79.5t-80.5 -54t-99 -20q-52 0 -97.5 20t-79.5 54t-54 79.5t-20 97.5q0 53 20 99t54 80.5t79.5 54.5t97.5 20zM435 90q14 0 23 5.5t9 21.5q0 17 -5.5 23.5t-18.5 6.5v133q0 26 -9.5 43
t-22.5 28q5 2 9.5 2h9.5h9.5t9.5 -2h11v65q-31 -4 -61.5 -11.5t-53.5 -20.5q-9 2 -17 2h-20q-23 0 -44 -3t-44 -11v-63h6q19 6 39.5 11t36.5 5q9 0 21.5 -0.5t24.5 -4.5t20 -13t8 -25l-82 -8q-18 -1 -36 -5.5t-33 -14.5t-24 -27t-9 -45q0 -42 28.5 -67t73.5 -25q11 0 22 0.5
t21 2.5v54l-6 4q-7 -3 -12 -3.5t-11 -0.5q-16 0 -30.5 9t-14.5 32q0 8 3.5 13.5t15.5 9.5t34.5 8t59.5 10v-71q0 -36 10 -52t40 -16h9z" />
    </font>
</defs>
</svg>
