<?xml version="1.0" standalone="no"?>
<!DOCTYPE svg PUBLIC "-//W3C//DTD SVG 1.1//EN" "http://www.w3.org/Graphics/SVG/1.1/DTD/svg11.dtd" >
<svg xmlns="http://www.w3.org/2000/svg" xmlns:xlink="http://www.w3.org/1999/xlink" version="1.1">
<metadata>
Created by FontForge 20170731 at Mon Jul  6 19:38:23 2020
 By Aleksey,,,
Copyright (c) 2012 by Andryushkin Artem, Jovanny Lemonad. All rights reserved.
</metadata>
<defs>
<font id="FlowExt" horiz-adv-x="1048" >
  <font-face 
    font-family="Flow Ext"
    font-weight="400"
    font-stretch="normal"
    units-per-em="2048"
    panose-1="2 0 5 6 3 0 0 2 0 4"
    ascent="1638"
    descent="-410"
    x-height="1038"
    cap-height="1432"
    bbox="-367.368 -855.088 2019.26 2006.57"
    underline-thickness="102"
    underline-position="-307"
    unicode-range="U+0020-FB02"
  />
<missing-glyph horiz-adv-x="614" 
 />
    <glyph glyph-name="fi" unicode="fi" horiz-adv-x="1140" 
d="M147 928q-28 -7 -49.5 1t-29 25t-6 36.5t17 36t41.5 22.5q77 20 205 28q68 226 235 353q132 103 288.5 115.5t301.5 -68.5q45 -22 25 -68q-16 -37 -55 -53q-31 -13 -56 0q-185 101 -336 37q-150 -70 -217 -213q-31 -68 -41 -103q21 -1 80 -2.5t85.5 -2t77.5 0t84.5 4
t77 11t82.5 18.5q35 7 60 -5t24 -50q-12 -106 -42.5 -250t-58 -254.5t-46 -249.5t-12.5 -256q2 -42 -47 -73q-46 -30 -78 -16q-20 8 -21 34q-7 115 9 249t40 238t54.5 244.5t44.5 240.5q-140 -22 -310 -12q-23 0 -68 1t-67 1q-16 -91 -24 -268t-10 -197q-8 -67 -17.5 -129.5
t-27.5 -151.5t-39.5 -166t-54 -161.5t-70.5 -150t-89.5 -120.5t-110 -82.5t-133.5 -26.5t-159 38q-46 21 -26 68q16 38 56 55q31 13 56 2q4 -1 24 -9.5t29 -12t27.5 -9t30.5 -5.5t27 2.5t26 10.5q55 37 113 132q98 169 127 346q26 111 41.5 229.5t29.5 282t21 227.5
q2 35 10 96q-82 -3 -150 -20z" />
    <glyph glyph-name="fl" unicode="fl" horiz-adv-x="1306" 
d="M147 981q-55 -17 -70 25q-13 36 14 75q17 25 44 33q89 27 225 27q73 274 234 389q56 40 132.5 69t158 41.5t155.5 -13t113 -91.5q14 -24 0 -52t-45 -44q-88 -386 -141 -897q-4 -33 -16.5 -104.5t-19 -126.5t-3.5 -101q6 -57 34 -78t65.5 -8.5t73.5 37t64 55.5
q38 43 73 19q29 -19 26 -60q-3 -31 -25 -53q-38 -44 -79.5 -77t-91 -57t-103.5 -21.5t-103 36.5q-21 15 -36 36.5t-21 52.5t-9.5 54t-0.5 64.5t4.5 57.5t8.5 59.5t7 46.5q12 84 34.5 270t37.5 285q44 301 106 551q-28 21 -81 21t-97.5 -10.5t-79.5 -25.5q-120 -44 -190 -206
q-24 -60 -43 -123q104 -4 178 4q51 5 55 -37q4 -40 -30 -78q-24 -25 -50 -29q-73 -7 -186 0q-9 -45 -15.5 -90.5t-11.5 -104t-7.5 -88t-7 -104t-5.5 -90.5q-8 -157 -14 -239t-26.5 -214.5t-53.5 -232.5q-63 -191 -207 -276q-32 -20 -68.5 -29t-65 -11t-72 5.5t-66.5 14
t-71 21t-65 19.5q-49 14 -38 61q9 40 48 64q28 17 54 10q16 -4 52.5 -15.5t56 -17t53 -12t54.5 -7t49 3.5t47 15.5t39 32.5t34 51q14 29 25 62.5t18 58.5t14 66.5t9.5 60t8 67.5t7.5 62q18 123 34 366t35 365q16 117 19 132q-107 0 -185 -23z" />
    <glyph glyph-name=".notdef" horiz-adv-x="614" 
 />
    <glyph glyph-name=".null" horiz-adv-x="0" 
 />
    <glyph glyph-name="nonmarkingreturn" horiz-adv-x="682" 
 />
    <glyph glyph-name="space" unicode=" " horiz-adv-x="614" 
 />
    <glyph glyph-name="exclam" unicode="!" horiz-adv-x="589" 
d="M399 1407q9 39 59 51q48 11 76 -13q20 -19 11 -50q-34 -141 -97 -475t-110 -510q-10 -38 -58 -50q-48 -11 -75 14q-20 20 -12 52q45 172 107 501.5t99 479.5zM197 143q57 -7 84.5 -46t5 -76.5t-89.5 -40.5q-32 -2 -64 18t-45 51q-19 49 20 75t89 19z" />
    <glyph glyph-name="quotedbl" unicode="&#x22;" horiz-adv-x="540" 
d="M569 1442q26 -14 31 -46t-6 -57q-17 -63 -56 -173.5t-53 -155.5q-6 -28 -30 -42t-49 -1q-24 12 -29.5 43t4.5 55q15 56 54 166.5t54 167.5q6 25 31 39.5t49 3.5zM260 1382q14 43 60 59q45 15 66 -11q16 -19 5 -54q-18 -55 -67.5 -157.5t-67.5 -157.5q-14 -41 -60 -56
q-44 -14 -64 11q-14 18 -3 53q19 56 66 159t65 154z" />
    <glyph glyph-name="numbersign" unicode="#" horiz-adv-x="1107" 
d="M602 604q8 34 31 119t33 131q-31 0 -93.5 -1t-95.5 -1q-36 -164 -61 -242q32 0 94.5 -3t91.5 -3zM1061 999q43 -2 46 -48q3 -45 -29 -81q-23 -23 -48 -24q-32 2 -67 3t-76 1.5t-64 1.5q-29 -104 -61 -242q97 3 203 21q51 11 60 -32q8 -39 -22 -76q-19 -24 -45 -29
q-124 -22 -233 -25q-49 -183 -88 -324q-10 -40 -62 -50q-50 -10 -80 16q-20 19 -14 47q24 76 84 311q-29 0 -90 1t-92 1q-11 -49 -39 -167t-43 -183q-6 -35 -47 -45t-76.5 11t-27.5 60q17 86 75 322q-5 -1 -51.5 -4.5t-69.5 -7.5q-52 -7 -61 35q-8 39 21 74q20 24 47 28
q82 10 151 10q22 98 57 240q-61 -5 -71 -8q-8 0 -31 -2t-35 -2.5t-30 2t-31 8.5q-15 6 -23 19t-8.5 28t3.5 31.5t13.5 30t21.5 23.5t27.5 12.5t30.5 -3.5q13 -8 125 6q37 5 41 6q40 183 58 316q5 41 55 56q49 13 80 -9q22 -15 18 -41q-17 -158 -53 -316q99 3 192 3
q7 29 32.5 132t41.5 158q8 38 59 49q51 10 80 -16q20 -18 13 -47q-41 -164 -66 -279q33 0 99.5 -1t99.5 -1z" />
    <glyph glyph-name="dollar" unicode="$" horiz-adv-x="888" 
d="M643 352q5 83 -34.5 142t-116.5 118q-67 -305 -99 -510q101 20 170.5 85t79.5 165zM311 1102q-30 -132 90 -252q43 184 101 455q-39 -12 -58 -23q-109 -68 -133 -180zM840 1372q41 -18 48 -54t-20 -56t-69 -2q-84 41 -156 49q-65 -279 -123 -561q8 -6 39 -30.5
t42.5 -33.5t36 -30t37.5 -34t29 -31t27 -34q54 -81 59 -174.5t-31 -172t-109 -139t-167 -79.5q-3 0 -45 -6t-65 -7q-2 -29 -10 -84t-9 -61q-6 -41 -55 -65q-47 -23 -74 -5q-18 12 -14 41q2 35 11 98.5t11 86.5q-78 13 -147 45q-3 2 -26.5 14t-39 21t-39.5 24.5t-36.5 29.5
t-21.5 30t-2 31.5t28 29.5q32 19 72.5 4.5t56.5 -43.5v-2q20 -8 28 -12q7 -4 20 -11.5t21 -12t19.5 -9.5t23.5 -8q27 -11 66 -17q51 315 117 609q-119 107 -174 207q-55 106 -36.5 215.5t103.5 193.5q109 106 258 109q12 39 29 141q7 40 56 64q49 25 76 7q18 -12 13 -42
q-20 -98 -34 -181q90 -15 176 -53z" />
    <glyph glyph-name="percent" unicode="%" horiz-adv-x="1478" 
d="M317 1243q-40 -29 -65 -61.5t-33.5 -76t19.5 -87.5q20 -38 46.5 -63.5t58 -37.5t68 -3.5t72.5 38.5q103 92 66 252q-8 34 10 66q-12 0 -24 12q-20 17 -49.5 20t-61 -7t-58 -23t-49.5 -29zM522 801q-115 -68 -213.5 -33.5t-163.5 152.5q-60 106 -37 232.5t121 203.5
q40 30 83 53t94 39t101 8.5t89 -41.5q19 -18 21 -55t-11 -64q45 4 58 -53q30 -128 -4.5 -251t-137.5 -191zM1137 1403q31 44 70 18q32 -22 37 -64q3 -30 -13 -50q-40 -60 -116.5 -176t-124 -187t-114.5 -169t-126 -179q-134 -192 -238 -303q-4 -5 -32.5 -35t-36.5 -39
t-31.5 -35.5t-33.5 -41.5t-26 -38.5t-26.5 -45t-18.5 -44.5q-20 -52 -61 -42q-33 8 -49 46q-13 31 -2 62q53 135 190 282q154 171 252 308q95 133 262.5 383t237.5 350zM1001 119q41 1 84 28t75 70t52.5 92t18.5 99.5t-29 85.5q-10 13 -10.5 31.5t8.5 31.5q-62 -4 -109 -20
t-88 -52t-69 -94q-54 -114 -25 -188q40 -86 92 -84zM1323 590q45 -57 51 -131t-16.5 -140.5t-65.5 -130.5q-66 -92 -163 -153.5t-193 -40.5q-90 20 -136.5 93t-44.5 161.5t42 167.5q71 138 194 211q57 32 117.5 43.5t148.5 17.5q46 3 58 -27.5t-10 -58.5z" />
    <glyph glyph-name="ampersand" unicode="&#x26;" horiz-adv-x="1241" 
d="M700 268q9 8 29 25.5t29 25.5q-38 54 -78 132q-32 55 -85.5 161.5t-72.5 141.5q-6 4 -6 6q-152 -88 -254 -185q-25 -27 -49.5 -61.5t-49 -78.5t-37 -88t-12.5 -85t25.5 -74.5t75.5 -52.5q117 -45 242.5 -2.5t242.5 135.5zM545 1221q-30 -127 43 -283q47 26 49 27
q38 24 59 38t52.5 40t51 54.5t27.5 59.5q24 85 -37.5 136t-142 32t-102.5 -104zM1047 416q-49 -51 -103 -103q102 -135 180 -221q35 -37 -2 -68q-33 -29 -81 -24q-28 3 -44 20q-84 90 -166 195q-388 -324 -700 -182q-113 51 -153 157t10 220q100 239 366 401q19 13 105 59
q-41 74 -62 160q-19 82 -12 160t54.5 145t127.5 95q50 19 114 19t124.5 -16t108.5 -56.5t63 -96.5q64 -200 -211 -381q-54 -35 -119 -68q91 -153 109 -192q45 -106 112 -213q19 19 70.5 71.5t89.5 90t76 71.5q29 29 82 17q46 -10 54 -40q5 -23 -19 -46q-27 -24 -56.5 -53.5
t-64 -65.5t-53.5 -55z" />
    <glyph glyph-name="quotesingle" unicode="'" horiz-adv-x="274" 
d="M203 1362q7 45 52 68q42 21 66 -1q18 -16 13 -51q-9 -58 -41 -168t-41 -166q-7 -43 -50 -65q-41 -22 -65 1q-17 16 -12 52q9 57 39 166t39 164z" />
    <glyph glyph-name="parenleft" unicode="(" horiz-adv-x="505" 
d="M612 1444q-438 -568 -448 -1077q-4 -216 49 -363q16 -64 57 -137q5 -9 14 -26t14.5 -27t10 -26t4.5 -32q0 -39 -21 -58t-47 -12.5t-40 33.5q-106 171 -142 370t-11 388t97 386.5t168.5 366t217.5 326.5q31 44 64 13q29 -28 28 -77q-1 -29 -15 -48z" />
    <glyph glyph-name="parenright" unicode=")" horiz-adv-x="501" 
d="M201 1473q-14 37 18.5 60.5t75.5 17t55 -39.5q139 -401 103 -780q-61 -574 -480 -1014q-32 -32 -83 -17q-43 12 -51 42q-7 26 18 51q161 168 265 371t146 419.5t25.5 443.5t-92.5 446z" />
    <glyph glyph-name="asterisk" unicode="*" horiz-adv-x="704" 
d="M651 1237q28 0 42.5 -19t4.5 -44q-16 -28 -46.5 -44t-59.5 -16h-53q1 -3 15.5 -35.5t20.5 -50.5q14 -38 -30 -80q-40 -39 -77 -34q-23 2 -32 26q-53 120 -61 135q-11 -18 -32.5 -48.5t-29.5 -43.5q-30 -46 -80 -49q-39 -2 -47 25q-6 22 19 55q2 4 59 92q-129 -6 -135 -6
q-25 -2 -38.5 19t-0.5 44q11 29 39.5 43.5t60.5 14.5q21 2 60.5 4t42.5 2q-17 33 -45 73q-18 30 6.5 71t60.5 54.5t60 -10.5q33 -54 57 -88q56 68 133 119q50 36 79 8q24 -23 8 -62q-10 -27 -38 -46q-54 -36 -120 -113q106 4 157 4z" />
    <glyph glyph-name="plus" unicode="+" horiz-adv-x="1007" 
d="M893 758q25 0 43.5 -12.5t24.5 -30t3 -34.5t-21.5 -29.5t-47.5 -12.5q-163 0 -326 -6q-38 -213 -47 -273q-6 -31 -26.5 -56.5t-51.5 -37.5q-27 -9 -46 3.5t-15 39.5q2 12 55 318q-44 0 -132.5 -1t-131.5 -1h-6h-53q-32 0 -52 18.5t-21.5 40.5t17.5 40.5t56 18.5
q145 0 346 7q12 71 53 301q5 32 25 58.5t49 35.5t49 -4t14 -41q-10 -57 -30.5 -173.5t-30.5 -174.5q153 6 303 6z" />
    <glyph glyph-name="comma" unicode="," horiz-adv-x="360" 
d="M88 20v5q-32 -15 -72 -1t-51 50q-21 60 30.5 99.5t110.5 21.5q74 -20 106 -68.5t24 -107.5t-37 -117t-72 -103q-34 -32 -85 -22q-43 8 -49 38q-4 23 21 50q33 33 55.5 75t18.5 80z" />
    <glyph glyph-name="hyphen" unicode="-" horiz-adv-x="669" 
d="M90 537q-48 0 -48 39q-1 38 36 72q27 24 55 24h488q48 0 48 -39q1 -38 -36 -72q-27 -24 -55 -24h-488z" />
    <glyph glyph-name="period" unicode="." horiz-adv-x="268" 
d="M127 104q17 -13 17 -36.5t-17 -40.5q-23 -23 -56.5 -26.5t-60.5 11.5q-32 20 -45 57t6 70q17 26 49.5 35.5t61.5 -0.5q22 -7 37 -27.5t8 -42.5z" />
    <glyph glyph-name="slash" unicode="/" horiz-adv-x="841" 
d="M840 1421q30 41 76 34q37 -6 45 -36q6 -27 -15 -57q-100 -137 -196.5 -281t-201.5 -315t-171.5 -282t-190 -322.5t-172.5 -294.5q-44 -63 -96 -55q-27 7 -36 32t5 50q38 64 175.5 298.5t198 334.5t172.5 283t209 327.5t198 283.5z" />
    <glyph glyph-name="zero" unicode="0" horiz-adv-x="1101" 
d="M680 1454q62 0 122 -28t104.5 -73.5t76.5 -98.5t47 -107q64 -239 -5 -501t-239 -470q-82 -98 -193 -152t-228 -38q-91 12 -157 72.5t-93 152.5q-69 248 10 520q108 403 295 592q131 131 260 131zM918 997q0 79 -50.5 165t-131 128t-179.5 -10q-56 -33 -98 -91.5
t-82 -137.5q-62 -117 -108 -245.5t-54 -230.5q-7 -68 -2.5 -153.5t29.5 -147.5q38 -102 135 -133.5t196 19.5q166 79 271 352q74 233 74 485z" />
    <glyph glyph-name="one" unicode="1" horiz-adv-x="704" 
d="M580 1468q40 33 65 -4t14 -75q-121 -470 -276 -1276h166q33 0 60 -15t36 -43q7 -26 -9 -45.5t-44 -19.5h-576q-71 0 -94 55q-7 26 10 47t45 21h289q93 515 236 1128q-48 -38 -293 -223q-44 -32 -67 6q-22 35 -7 82q9 28 29 43q273 197 416 319z" />
    <glyph glyph-name="two" unicode="2" horiz-adv-x="876" 
d="M778 852q-223 -329 -555 -627q-108 -96 -114 -102q75 0 114 4q319 0 479 -4q48 -1 47 -39q-1 -36 -38 -67q-27 -24 -56 -23q-240 6 -479 0q-8 0 -49.5 -3t-72.5 -2.5t-67.5 6.5t-54 26t-12.5 53q2 13 8 26t12 22t18 21.5t18 18.5t21 18.5t19 16.5q15 13 67.5 60t82.5 73
q196 196 278 291q140 153 232 305q90 146 94 233q4 60 -42 105.5t-110 58.5q-144 30 -307 -92q-37 -29 -68.5 -15t-30 47t35.5 64q66 51 148.5 84.5t169.5 44.5t169.5 -19.5t136.5 -103.5q32 -42 40 -94.5t-0.5 -99.5t-33 -104.5t-47 -96t-53.5 -86.5z" />
    <glyph glyph-name="three" unicode="3" horiz-adv-x="905" 
d="M928 1327l-23 -27q-37 -37 -53 -57q-24 -27 -75.5 -80t-76.5 -80q-39 -42 -117.5 -128t-117.5 -128q90 -11 149 -47q115 -66 152 -145q29 -78 27 -156.5t-27 -154.5q-42 -123 -137 -202.5t-211.5 -105.5t-243 -10.5t-235.5 72.5q-50 24 -37 64q11 32 50 44q33 10 62 -6
q82 -43 175 -56t178 4.5t153.5 77.5t97.5 156q38 142 5 222q-18 44 -52 72.5t-74 38.5t-86 14t-89 0q-35 -2 -67 27.5t-5 60.5q28 31 111 123.5t124.5 137.5t108.5 116.5t123 128.5q-50 1 -200.5 7t-231.5 7q-44 1 -64 31.5t-2 60t64 27.5q45 -1 195 -7t195 -6.5t195 0.5
q46 3 69 -29t-9 -67z" />
    <glyph glyph-name="four" unicode="4" horiz-adv-x="968" 
d="M217 590q185 6 369 6q17 88 49.5 264t50.5 264q-157 -177 -276 -315q-28 -33 -93.5 -105.5t-99.5 -113.5zM901 590q36 -3 55.5 -42t8.5 -77t-50 -37q-140 8 -215 8l-75 -381q-8 -39 -57 -61q-50 -22 -77 -2q-18 13 -12 41q14 68 39.5 203t38.5 202q-222 -3 -491 -16
q-27 -2 -46 23.5t-19.5 56t11.5 53.5q32 47 76 101t74 88.5t88 98.5t80 89q44 50 136.5 155.5t164 187.5t135.5 157q35 34 72 7.5t39 -73.5q3 -12 0 -24q-73 -337 -148 -754q62 0 172 -4z" />
    <glyph glyph-name="five" unicode="5" horiz-adv-x="899" 
d="M893 1444q42 0 45 -43q4 -44 -28 -81q-23 -26 -50 -26q-41 -1 -141 -5.5t-154 -4.5q-14 0 -39 -1t-45 -1t-37 2q-62 -307 -82 -428q4 0 29.5 3t33.5 3.5t29.5 1.5t34 0.5t30 -2.5t32.5 -6q60 -15 108 -60.5t74 -107.5q49 -121 22 -274t-112 -250q-74 -85 -181.5 -128.5
t-228.5 -45.5q-225 0 -266 84q-17 33 9.5 68.5t62 41.5t55.5 -22q9 -14 51 -27q74 -12 117 -12q187 0 270 98q63 75 83.5 200t-27.5 212q-31 47 -64.5 73.5t-79.5 26.5q-32 -1 -94 -8t-92 -8q-21 -2 -36.5 14t-14.5 37q12 90 30 187.5t43 219.5t37 185q14 59 68 74
q25 22 59 10q21 -11 51 -15t54 -2.5t60.5 4.5t52.5 3q127 10 231 10z" />
    <glyph glyph-name="six" unicode="6" horiz-adv-x="972" 
d="M772 508q-9 89 -54.5 135t-108 50t-137.5 -16.5t-142 -56t-121 -77.5v-8q4 -234 94 -345q67 -72 179.5 -66.5t185.5 71.5q59 59 86 143.5t18 169.5zM575 1149q-202 -162 -303 -330q-33 -54 -43 -102q66 46 133 78t140 49.5t144.5 5.5t129.5 -55q73 -56 103.5 -154.5
t19.5 -200t-54.5 -198t-109.5 -152.5q-54 -48 -123 -79t-145 -39.5t-145 18.5q-82 35 -133.5 111.5t-71.5 172.5q-29 125 -29 256q-13 34 4 70q0 37 2 51q15 154 144 332q150 192 340 332q66 45 108.5 70.5t110 51t125.5 25.5q43 1 49 -43q6 -45 -25 -83q-21 -26 -49 -27
q-41 0 -84 -13.5t-90.5 -43t-73.5 -48t-74 -55.5z" />
    <glyph glyph-name="seven" unicode="7" horiz-adv-x="868" 
d="M989 1395q0 -17 -18 -39q-5 -23 -21 -31q-29 -20 -57 -54t-44 -61t-41.5 -74t-35.5 -65q-36 -60 -106.5 -176.5t-106.5 -175.5q-26 -43 -180.5 -297.5t-235.5 -390.5q-22 -28 -60.5 -26.5t-66 32.5t-6.5 65q78 134 225.5 379t196.5 328q65 104 217 360q13 20 41 68.5
t43 71.5q-54 -1 -155.5 -3.5t-152.5 -3t-157 0.5q-67 3 -89 17q-18 11 -25 30q-19 38 24.5 64.5t87.5 12.5h8q441 -19 641 23q27 5 51 -11.5t23 -43.5z" />
    <glyph glyph-name="eight" unicode="8" horiz-adv-x="993" 
d="M807 1051q0 2 12 43q-4 21 4 45q11 41 -3.5 76t-45.5 56t-71.5 36t-81 15.5t-74.5 -5.5q-56 -15 -113.5 -54.5t-77.5 -86.5q-24 -58 13.5 -135.5t93.5 -147.5q47 -50 92 -80q231 114 252 238zM692 266q18 53 14 124.5t-38 117.5q-13 15 -28 29.5t-33 29.5t-29.5 24
t-34.5 26.5t-31 23.5q-24 -10 -64.5 -31.5t-52.5 -27.5q-3 -2 -26 -15t-28.5 -16.5t-25.5 -16t-28 -18.5l-24 -18t-25 -21t-20 -21t-19 -24q-32 -48 -31.5 -121.5t37.5 -113.5q46 -52 121 -69t153 -5q184 38 213 143zM797 1438q95 -47 133 -131t10 -185q-2 -9 -10 -22
q5 -19 2 -25q-20 -112 -90 -193t-183 -151q70 -58 111.5 -110t52.5 -117q25 -116 -7 -238t-120 -190q-72 -53 -164.5 -83t-194.5 -24t-175 60q-62 47 -92 117.5t-27.5 144.5t31.5 147q16 41 45 79.5t56.5 65t73.5 57.5t74 47.5t80 45.5q-81 81 -129 180q-74 158 -38 277
q37 110 159 194q216 144 402 54z" />
    <glyph glyph-name="nine" unicode="9" horiz-adv-x="1030" 
d="M371 750q32 -32 77 -39t85 2t91.5 35t81.5 45.5t70 48.5q22 9 27 10q36 154 31 260q-4 153 -117 176q-267 56 -357 -57q-75 -105 -57 -279q1 -3 4.5 -27.5t5 -33t6 -30t8.5 -33t10.5 -28t15 -28.5t18.5 -22zM895 1331q103 -94 92 -293q-20 -253 -98 -452
q-88 -226 -266 -366.5t-435 -219.5q-47 -14 -83 23q-32 31 -18 63q10 21 40 31q498 147 627 553q-361 -180 -525 37q-78 105 -87.5 272t57.5 278q49 81 134 121.5t187 42.5q123 0 215.5 -17t159.5 -73z" />
    <glyph glyph-name="colon" unicode=":" horiz-adv-x="430" 
d="M387 971q1 -7 0 -15t-3 -18t-3 -14q-6 -18 -6 -19q-12 -61 -80 -71q-30 -4 -53 8q-23 23 -23 39q1 9 6 26.5t6 26.5q0 1 1 5t1 5v6q-3 17 23 43q25 25 55 25q33 4 51 -8q17 -11 25 -39zM201 98q15 -13 15 -35.5t-15 -37.5q-21 -21 -53 -25t-58 10q-30 18 -42.5 54t5.5 67
q17 24 46.5 32.5t58.5 0.5q22 -6 36 -25.5t7 -40.5z" />
    <glyph glyph-name="semicolon" unicode=";" horiz-adv-x="413" 
d="M328 1044q29 -23 39.5 -56.5t-0.5 -67.5q-2 -5 -8 -18t-9 -19q0 -2 -2 -4q-10 -26 -31 -35q-19 -9 -49 8q-23 14 -33.5 45.5t1.5 58.5q4 18 10 25q0 23 2 33q9 26 34.5 35.5t45.5 -5.5zM182 137q57 -28 54 -100q-10 -96 -111 -201q-59 -54 -102 -31q-22 15 -21.5 43
t18.5 50q44 48 54 67q4 11 18 35q-35 -12 -57 2q-24 16 -22.5 42t18.5 48q28 35 68 49t83 -4z" />
    <glyph glyph-name="less" unicode="&#x3c;" horiz-adv-x="1030" 
d="M860 1153q38 27 87 5q40 -19 42 -50q1 -25 -28 -45q-74 -55 -178 -110t-190 -94t-187.5 -96t-174.5 -118q101 -55 302.5 -136t283.5 -122q48 -24 29 -64q-16 -33 -57 -43q-31 -8 -58 5q-79 40 -308.5 134t-342.5 165q-15 9 -25 22t-13.5 30t13.5 32q79 77 188 145.5
t203.5 112.5t212.5 106.5t201 120.5z" />
    <glyph glyph-name="equal" unicode="=" horiz-adv-x="1064" 
d="M203 463q-56 -49 -112 -25q-41 16 -47 55q-8 45 44 78q25 15 58 17.5t58.5 -1.5t57.5 1q96 14 192.5 17.5t241.5 0t187 -3.5q27 0 41.5 -20t1.5 -47q-14 -28 -44 -43t-61 -15q-25 1 -104 3.5t-116.5 3t-99.5 0.5t-114 -3q-20 -2 -58 -7t-69 -8t-57 -3zM184 827
q-48 0 -62 38q-13 35 15 62q22 21 60 21q164 0 253.5 1t229 8.5t256.5 21.5q46 6 74 -33q25 -35 4 -64q-14 -20 -49 -24q-278 -31 -781 -31z" />
    <glyph glyph-name="greater" unicode="&#x3e;" horiz-adv-x="1085" 
d="M188 991q-47 22 -33 63q12 34 50 47q32 11 61 -3q82 -38 230.5 -113t272 -132.5t237.5 -100.5q21 -7 31.5 -27t3.5 -42t-35 -34q-107 -48 -399 -165t-447 -195q-43 -23 -86 3q-37 22 -31 53q7 24 37 40q106 53 225 104t272.5 112.5t227.5 92.5q-118 51 -327 155t-290 142
z" />
    <glyph glyph-name="question" unicode="?" horiz-adv-x="800" 
d="M500 1509q76 -3 142.5 -33.5t111 -90t45.5 -136.5q6 -108 -43 -214t-131 -199q-30 -33 -93.5 -94.5t-104 -103.5t-79.5 -106t-49 -126q-12 -53 -54 -50q-35 3 -57 40q-16 28 -10 59q14 76 52.5 146t90.5 128t105 111.5t109 118.5t90 126q23 42 35.5 80.5t14 79.5
t-25.5 69.5t-82 37.5q-154 18 -291 -58q-3 -19 -16 -28.5t-33 -5.5q-10 0 -14 2q-28 6 -47 30.5t-19 53.5q0 45 41 79.5t101 51.5t115.5 25.5t95.5 6.5zM92 109q19 42 64 59t80 -16q31 -40 18 -84q-6 -28 -31.5 -48t-54.5 -22q-32 0 -43 16q-1 1 -8 15q-23 10 -31 26
q-6 19 6 54z" />
    <glyph glyph-name="at" unicode="@" horiz-adv-x="1943" 
d="M754 184q14 -16 37.5 -18.5t51 7t56 24t55.5 34t46.5 35t33.5 27.5q62 60 113 186q16 48 76 203q9 31 18 127q-25 10 -31 16q-126 120 -260 54q-100 -55 -135 -123q-76 -158 -92 -301q0 -3 -2.5 -24t-3 -28t-2.5 -28.5t-2 -31.5v-29.5t2 -31t5 -28t7.5 -27.5t11 -22.5
t15.5 -20.5zM1817 1065q122 -233 69 -502q-18 -101 -55.5 -188t-95.5 -160.5t-143 -120t-189 -55.5q-77 -4 -135.5 4.5t-100.5 42.5q-41 37 -45 109q-62 -51 -132.5 -87.5t-145 -54t-141 7t-105.5 95.5q-73 138 -16 393q16 70 30 117t43.5 107t67.5 97q84 84 187 122
t212.5 18t196.5 -101q33 3 60.5 -13.5t27.5 -45.5q-4 -73 -10 -107q0 -1 -1 -7t-1 -11q-1 -8 -6.5 -25t-6.5 -22q0 -1 -2 -3.5t-2 -4.5q-6 -24 -27.5 -101.5t-29.5 -122.5q-15 -58 -31 -170q-16 -77 -8 -100q7 -22 51 -23.5t79.5 6.5t66.5 17q86 44 139 111
q83 111 117 266.5t4 290.5q-40 166 -134 296.5t-239 184.5q-66 26 -140.5 33t-134 1t-141.5 -22q-144 -20 -205 -43q-135 -49 -239 -153t-162.5 -236.5t-85 -277t-18.5 -287.5q7 -127 50.5 -241t129.5 -191q122 -107 291 -144q101 -31 233 -34q19 0 68 -2.5t77 -3t67.5 3.5
t68.5 14q27 10 57.5 5t48.5 -26q18 -24 7 -49t-38 -34q-139 -45 -401 -21q-162 7 -293 49q-244 77 -370 240q-243 312 -101 850q38 138 98.5 253t158.5 213t222 152q110 48 246 72q9 1 50.5 8.5t55 9.5t49.5 7t55.5 6t49 3t55 1t50.5 -4q197 -22 351.5 -129t240.5 -283z" />
    <glyph glyph-name="A" unicode="A" horiz-adv-x="1118" 
d="M336 530q64 5 128.5 7.5t170 3t129.5 0.5q-57 312 -80 608q-142 -258 -348 -619zM907 426q27 -132 76 -334q13 -44 -10.5 -71t-57 -17t-45.5 55q-47 182 -82 361q-28 0 -128 -0.5t-145 -1.5t-120.5 -7t-136.5 -18q-39 -67 -109 -190.5t-100 -175.5q-27 -49 -67 -38
q-31 9 -40 45q-9 31 9 62q33 59 98 175.5t98 174.5q-11 47 35 60q376 659 490 872q1 28 15 42t34 14q28 9 51.5 -15t20.5 -59v-4q14 -384 92 -809h6q33 2 60.5 -10t37.5 -39q12 -25 -4 -46.5t-43 -23.5q-6 0 -17.5 -1t-17.5 -1z" />
    <glyph glyph-name="B" unicode="B" horiz-adv-x="1085" 
d="M909 1008q21 62 15.5 125.5t-45.5 118t-103 71.5q-81 21 -176 6.5t-166 -59.5q-24 -105 -86 -475q68 4 98 8q19 23 50 20q8 -1 28 -4t31 -4q48 8 74 16q229 51 280 177zM485 666q-13 3 -28 14q-75 -3 -127 -6q-62 -353 -109 -529q247 -8 387 25q160 36 213 125
q28 47 42.5 92.5t6 97t-52.5 84.5q-43 32 -106.5 53t-105.5 27.5t-120 16.5zM1079 1034q-36 -197 -270 -286q67 -34 106 -76q53 -57 69 -135.5t1.5 -153.5t-51.5 -145q-29 -57 -73.5 -100.5t-93 -70.5t-112 -44.5t-119 -25.5t-127.5 -10t-124 -1t-120 4q-31 1 -46 2
q-33 3 -45 28q-40 21 -29 60q68 229 138.5 666t113.5 614q7 29 43 42t70 3q85 36 184.5 45t192 -14t165 -71.5t109 -134.5t18.5 -196z" />
    <glyph glyph-name="C" unicode="C" horiz-adv-x="1044" 
d="M1092 1401q47 -14 30 -58q-14 -37 -56 -58q-31 -16 -58 -7q-81 23 -157.5 30t-154.5 -2.5t-147.5 -47.5t-120.5 -103q-78 -97 -126 -223.5t-62 -257.5q-34 -255 69 -406q142 -209 537 -123q27 5 48.5 -11.5t18.5 -43.5q-3 -29 -25.5 -48t-53.5 -26q-94 -20 -181 -25
t-179.5 7.5t-171 59.5t-128.5 126q-66 105 -84.5 246t6.5 262q74 391 275 580q97 91 219.5 132.5t245 38.5t256.5 -42z" />
    <glyph glyph-name="D" unicode="D" horiz-adv-x="1189" 
d="M1022 686q19 70 27 140.5t4.5 147.5t-33.5 146t-86 113q-56 45 -125 61.5t-160 18.5h-31h-34.5t-32.5 -0.5t-36.5 -1.5t-33.5 -3t-36 -5t-33 -7q2 -15 -2 -36q-125 -600 -205 -1098q-6 -15 -12 -27q331 -41 544 109q203 141 285 442zM1026 1360q67 -59 106.5 -141.5
t49.5 -173t2 -179.5t-33 -176q-119 -401 -377 -571q-276 -185 -696 -117q-43 8 -35.5 52.5t47.5 74.5q-10 17 -4 47q76 461 203 1081q-30 11 -25.5 60.5t41.5 73.5q73 44 164.5 56.5t212.5 10.5q116 -4 199 -23t145 -75z" />
    <glyph glyph-name="E" unicode="E" horiz-adv-x="1015" 
d="M1047 1448q49 2 51 -37q1 -38 -35 -71q-27 -24 -55 -25q-267 -6 -535 -6q-49 -320 -82 -500q127 -1 151.5 -1t151 6t150.5 7q51 1 73 -39q21 -35 -3 -62q-17 -19 -52 -20q-52 -1 -164 -6.5t-163.5 -6.5t-163.5 3q-53 -282 -117 -561q-2 -2 -2 -6q88 -11 192 -11t181 5
t196 16q47 4 65.5 -25.5t-0.5 -61.5t-63 -36q-137 -13 -238 -19t-225.5 -2.5t-236.5 21.5q-28 4 -37 30.5t4 49.5q5 8 16 16q32 93 133 661.5t99 598.5q3 25 27 45.5t53 26.5q12 6 28 6q400 0 601 4z" />
    <glyph glyph-name="F" unicode="F" horiz-adv-x="1038" 
d="M1106 1440q38 0 50 -40t-6.5 -80t-55.5 -40h-582q-54 -239 -121 -516q51 1 214 4.5t251 3.5q50 0 75 -40q23 -37 0 -62q-16 -18 -52 -19q-98 0 -279 -3.5t-238 -4.5q-78 -337 -122 -610q-7 -36 -48 -43.5t-77.5 14.5t-30.5 59q46 271 125 613q-20 21 -16 46t34 34
q104 452 127 553q-10 24 -8.5 53t19.5 53.5t45 24.5h696z" />
    <glyph glyph-name="G" unicode="G" horiz-adv-x="1183" 
d="M455 1188q-163 -141 -219 -363q-16 -71 -23.5 -139t-5.5 -143t23 -145t61 -124q80 -101 225 -139q183 -44 340 103q24 140 84 358q-22 -4 -100.5 -2.5t-102.5 0.5q-42 -2 -49 43t23 83q22 27 51 28q28 1 81 -1t96.5 -1t80.5 8q41 8 55 -23t4 -72q-92 -332 -127 -565
q-5 -34 -30 -54t-51.5 -15.5t-36.5 32.5q-147 -103 -324 -80q-76 9 -154.5 48.5t-128.5 95.5q-76 86 -111.5 208t-34 238.5t27.5 237.5q33 146 103 276t173 215q286 238 721 131q35 -8 36 -47.5t-27.5 -73.5t-65.5 -26q-107 26 -207 30t-205 -25.5t-182 -96.5z" />
    <glyph glyph-name="H" unicode="H" horiz-adv-x="1343" 
d="M1237 1421q27 5 47 -11.5t16 -43.5q-85 -478 -249 -1303q-10 -43 -53 -60q-42 -15 -66 10q-20 19 -12 57q81 405 118 610q-174 -4 -704 0q-83 -420 -135 -645q-8 -26 -31 -42.5t-47 -6.5q-49 25 -35 100q67 291 131 606q-22 19 -29 53t8 61.5t48 27.5h2q57 308 114 565
q5 25 29 42t49 7q27 -14 34.5 -45.5t-1.5 -54.5q-26 -121 -106 -514q464 -4 694 0h10q59 298 94 501q5 32 24.5 56t49.5 30z" />
    <glyph glyph-name="I" unicode="I" horiz-adv-x="540" 
d="M342 1376q6 35 47 49t78 -2t31 -55q-118 -716 -260 -1307q-8 -39 -60 -50q-50 -11 -80 14q-21 18 -14 47q129 544 258 1304z" />
    <glyph glyph-name="J" unicode="J" horiz-adv-x="626" 
d="M471 1427q5 27 29 39.5t49 -0.5q24 -17 32.5 -47t0.5 -59q-6 -27 -24 -143q-82 -515 -163 -786q-185 -618 -438 -425q-24 19 -33.5 47t0.5 58q7 26 29.5 39.5t46.5 -3.5q135 -103 239 191q29 84 64 235q41 159 93.5 454.5t74.5 399.5z" />
    <glyph glyph-name="K" unicode="K" horiz-adv-x="1114" 
d="M1141 1358q-269 -381 -596 -606q42 -36 86.5 -95.5t62.5 -90.5t64 -109q91 -155 203 -371q24 -45 -19 -71q-39 -24 -82 -9q-27 10 -39 31q-20 37 -59 110.5t-70.5 132t-60.5 109.5q-10 16 -34.5 58t-39.5 64.5t-37.5 56.5t-45.5 60t-48 48q-17 -8 -72 -39q-8 -4 -12 -4
q-55 -253 -143 -592q-9 -35 -52 -45.5t-78 8.5t-26 57q114 435 172 723q6 32 29 137.5t32.5 155.5t22 133t16.5 152q3 38 43.5 55.5t79 5t35.5 -48.5q-3 -53 -9 -108t-17.5 -119t-19 -103.5t-24 -118.5t-22.5 -106q192 110 365 280.5t315 373.5q30 44 63 13q30 -28 31 -78
q-1 -30 -14 -50z" />
    <glyph glyph-name="L" unicode="L" horiz-adv-x="974" 
d="M879 123q27 0 43.5 -21t7.5 -47q-8 -29 -35 -43t-59 -12q0 3 -369 2l-369 -2q-27 0 -44.5 21t-8.5 47q7 27 47 47q53 141 98 315t70 299t63 334t58 309q9 40 55 58q46 20 72 -3q19 -17 12 -51q-20 -101 -58 -308t-63 -332.5t-70 -299t-96 -313.5q72 0 203.5 1t239 1
t203.5 -2z" />
    <glyph glyph-name="M" unicode="M" horiz-adv-x="1624" 
d="M1552 1401q35 -14 29 -51q-15 -164 -47 -357.5t-59.5 -325t-78.5 -361t-73 -331.5q-7 -39 -59 -53q-50 -14 -80 10q-21 16 -15 45q17 80 76.5 345t93.5 440.5t58 347.5q-89 -116 -302.5 -363t-316.5 -387q-20 -28 -41 -27t-37 23q-17 6 -26 33q-37 106 -72 226.5
t-74 266.5t-63 228q-90 -483 -225 -1059q-9 -40 -62 -57q-52 -17 -81 6q-19 14 -13 41q163 697 278 1341q6 29 35 48q13 23 34 36.5t42.5 7.5t30.5 -36q0 -2 2 -4q15 -15 12 -39q47 -142 122.5 -424t119.5 -416q87 114 226 275.5t261.5 311.5t212.5 285q28 35 53.5 24
t38.5 -50z" />
    <glyph glyph-name="N" unicode="N" horiz-adv-x="1353" 
d="M1192 1370q9 52 47 51q34 -1 58 -38q20 -30 14 -62q-82 -481 -279 -1290q-13 -53 -55 -50q-36 4 -57 40q-16 28 -9 57q1 3 2 8.5t2 7.5q-108 202 -283.5 590t-221.5 483q-129 -587 -203 -1071q-5 -31 -21.5 -55t-44.5 -27q-28 -1 -44 23t-13 51q112 686 256 1315
q12 45 45 56t57 -16t15 -73q-4 -12 -4 -16v-4q87 -172 250 -535.5t255 -544.5q160 662 234 1100z" />
    <glyph glyph-name="O" unicode="O" horiz-adv-x="1251" 
d="M82 610q0 76 7.5 150.5t24 156t47.5 155t73.5 139.5t106.5 117.5t142 80.5q64 28 126.5 46.5t134 25.5t133 -3t120 -46t97.5 -97q56 -87 85.5 -201t29 -224t-18.5 -220q-30 -152 -118 -293t-212 -247q-41 -36 -84 -66.5t-97 -60t-105.5 -43.5t-109.5 -17t-108 19
q-269 104 -274 610v18zM516 1264q-92 -51 -149.5 -105t-94.5 -131t-55 -188q-23 -118 -18 -259.5t43 -256.5q51 -160 155 -191q49 -18 104.5 -10.5t102.5 24.5t97 50.5t88.5 66.5t76.5 72q236 254 215 600q-13 262 -137 346q-47 31 -102 42.5t-113 3t-107 -24t-106 -39.5z
" />
    <glyph glyph-name="P" unicode="P" horiz-adv-x="1161" 
d="M1024 997q19 56 21.5 108.5t-18.5 103.5t-66 87q-142 112 -443 56q-69 -370 -129 -658q78 -14 155 -15.5t152.5 20.5t139 59t113 98.5t75.5 140.5zM1096 1368q55 -50 82 -117.5t25 -138.5t-29 -141q-47 -123 -143.5 -218t-221.5 -145q-204 -87 -447 -37
q-65 -321 -131 -604q-9 -38 -57 -55q-49 -16 -77 7q-20 16 -13 48q53 231 139 645q-21 7 -57 23q-26 12 -28.5 38.5t18.5 43.5q34 37 94 22q79 392 127 643q-4 23 6 39q5 25 6 29q6 32 40.5 50.5t68.5 11.5t39 -37q378 57 559 -107z" />
    <glyph glyph-name="Q" unicode="Q" horiz-adv-x="1263" 
d="M354 178q167 -67 355 8q-15 12 -39 41q-5 5 -19 19.5t-18.5 18.5t-16 13.5t-18.5 10t-18.5 2t-23.5 -3t-26 -13.5q-51 -30 -76 4q-23 30 -4 70q12 26 37 41q124 70 195 31q19 -9 40 -25.5t34 -30t35 -36.5t32 -33q4 -4 14.5 -12.5t14.5 -12.5q108 83 170 203
q42 88 65 182t23.5 195.5t-27.5 191.5q-37 112 -89.5 173t-151.5 75q-205 25 -385 -61q-63 -25 -103 -60q0 -13 -6 -28q-139 -312 -145 -606q-1 -50 0.5 -84.5t9.5 -82t23.5 -80t45.5 -63.5t72 -47zM1208 94q50 1 53 -40q4 -39 -30 -73q-25 -23 -53 -24q-197 -6 -349 117
l-2 4q-80 -40 -168.5 -62.5t-179.5 -23.5t-173 36.5t-134 112.5q-117 162 -80 498q14 148 58 309q-20 24 -17 58q4 77 36 143.5t82 115.5t116 86.5t135.5 60t142.5 32.5q214 32 356 -47q88 -51 139.5 -156t73.5 -231q12 -86 12.5 -175t-17 -183t-48 -179.5t-81 -164
t-115.5 -136.5q119 -83 243 -78z" />
    <glyph glyph-name="R" unicode="R" horiz-adv-x="1116" 
d="M991 1049q15 207 -137 251q-131 36 -307 5q-51 -190 -141 -576q65 0 123.5 5t125.5 16.5t122 35t102.5 57.5t76.5 86.5t35 119.5zM926 1430q101 -55 149 -158.5t39 -224.5q-12 -141 -83 -248t-197 -158q-77 -29 -115 -37q29 -43 82 -164q23 -52 72 -175.5t79 -188.5
q18 -40 -9 -90q-24 -43 -55 -41q-22 2 -36 32q-27 62 -74.5 180.5t-58.5 145.5q-5 11 -25.5 61t-33 76t-36.5 61t-49 52q-14 8 -20 27q-113 -7 -186 -5q-83 -355 -136 -552q-9 -35 -50 -37.5t-74.5 24t-22.5 62.5q51 198 143.5 596t143.5 596q-24 -1 -40.5 21t-21 49.5
t7 53.5t37.5 33q78 22 141.5 35t143 21.5t152.5 -3.5t133 -44z" />
    <glyph glyph-name="S" unicode="S" horiz-adv-x="901" 
d="M956 1413q29 -25 26 -63.5t-34 -67t-63 -10.5q-73 44 -179.5 47t-206 -28.5t-165.5 -84.5q-51 -42 -58.5 -91t17.5 -92t72.5 -91.5t96 -84.5t99 -75.5t70.5 -60.5q57 -60 97.5 -129.5t62 -146.5t7.5 -156.5t-67 -145.5q-211 -261 -770 -133q-38 8 -41.5 49t22.5 75t60 26
q314 -72 504 -15q64 18 113.5 56.5t54.5 95.5q8 79 -23.5 149.5t-89.5 127t-119.5 104.5t-128.5 105t-102 106q-61 85 -68 169.5t32.5 150.5t106.5 122.5t157 90t181.5 49t181 3.5t154.5 -51z" />
    <glyph glyph-name="T" unicode="T" horiz-adv-x="995" 
d="M1049 1434q36 0 56 -38.5t8.5 -77t-50.5 -38.5q-67 -1 -202.5 -2t-203.5 -2q-36 -217 -123 -632.5t-122 -616.5q-6 -36 -47.5 -48.5t-78 6.5t-28.5 58q36 216 122 627t120 606q-117 -4 -350 -4q-35 0 -54.5 39t-8 77.5t51.5 38.5q152 0 456 3.5t454 3.5z" />
    <glyph glyph-name="U" unicode="U" horiz-adv-x="1157" 
d="M1047 1378q9 35 50 49t74.5 -4.5t24.5 -60.5q-35 -151 -113 -580q-1 -4 -7.5 -41t-8 -44t-7.5 -40.5t-8.5 -44.5t-9 -40.5t-10 -44t-10.5 -40t-12.5 -43t-13 -39t-15.5 -40.5q-74 -185 -232 -285t-356 -80q-78 8 -136.5 43t-92.5 85.5t-53.5 117t-24.5 133t0 139.5
q7 104 24 208t51.5 237t52 193t65.5 222q11 39 61 50q48 11 75 -14q21 -19 11 -52q-7 -25 -30.5 -104.5t-32.5 -112.5t-28 -102.5t-29 -113t-23.5 -104t-22 -115t-14.5 -108.5q-4 -44 -6 -77t-1.5 -85t6 -90.5t19.5 -82.5t35.5 -73t57.5 -49.5t83 -23.5q183 -11 287 90
q86 83 137 262q48 166 102 477.5t81 427.5z" />
    <glyph glyph-name="V" unicode="V" horiz-adv-x="999" 
d="M1006 1409q13 25 32.5 36t36.5 6.5t31 -17t15 -34.5t-11 -48q-50 -96 -170.5 -330t-187.5 -361.5t-170.5 -317t-194.5 -343.5q-13 -23 -38 -37t-48 -6.5t-29 41.5q-106 593 -188 1354q-6 44 35 80q38 33 67 19q20 -9 23 -42q64 -593 164 -1200q78 138 170 309.5
t145.5 274.5t169 327.5t148.5 288.5z" />
    <glyph glyph-name="W" unicode="W" horiz-adv-x="1511" 
d="M1513 1411q5 49 46 65q37 15 60 -11q18 -20 13 -58q-5 -43 -21 -95t-28.5 -83.5t-38.5 -89.5q-67 -158 -180 -385q-22 -44 -153 -297.5t-195 -390.5q-13 -31 -39.5 -45t-50 -1.5t-27.5 50.5q-22 195 -46.5 566t-41.5 540q-342 -668 -532 -1153q-12 -30 -39.5 -44
t-51.5 -2t-26 50q-9 166 -37 624.5t-41 708.5q-3 47 38 76q37 27 64 8q20 -13 21 -49q29 -523 65 -1080q191 450 525 1090q16 30 41.5 44t47.5 2.5t27 -50.5q21 -161 36 -339.5t30.5 -410t24.5 -340.5q44 89 129.5 252.5t121.5 235.5q148 307 175 370q3 8 23 55t27 66t18 55
t15 66z" />
    <glyph glyph-name="X" unicode="X" horiz-adv-x="1007" 
d="M985 1425q27 26 67 22t65.5 -36.5t0.5 -64.5q-188 -238 -502 -613q161 -387 252 -653q16 -43 -20 -84q-31 -36 -63 -27q-23 8 -33 37q-88 251 -238 606q-50 -61 -154.5 -189t-184.5 -228t-152 -193q-27 -25 -67 -19.5t-65.5 38t-1.5 63.5q159 206 560 690
q-158 375 -230 578q-17 40 18 81q31 36 65 27q23 -6 34 -37q56 -148 213 -532q344 416 436 534z" />
    <glyph glyph-name="Y" unicode="Y" horiz-adv-x="929" 
d="M958 1442q37 44 69 16q28 -25 24 -74q-2 -29 -19 -51q-108 -132 -294.5 -389t-270.5 -364q-8 -46 -23.5 -135t-25 -144.5t-25 -131.5t-31.5 -140q-8 -34 -48.5 -46t-74 6.5t-24.5 59.5q21 83 38 174.5t37 214t29 174.5q-45 136 -119.5 391t-109.5 365q-10 23 -5 56t30 49
q22 11 47 -3.5t35 -39.5q31 -99 102 -342.5t113 -374.5q78 100 258.5 349.5t287.5 379.5z" />
    <glyph glyph-name="Z" unicode="Z" horiz-adv-x="991" 
d="M1071 1425q39 0 55.5 -23t-10.5 -63q-178 -219 -530.5 -624.5t-509.5 -595.5q132 3 375.5 -1.5t320.5 -4.5q49 0 64 -30.5t-8 -61.5t-66 -31q-93 0 -263.5 4.5t-310 4.5t-264.5 -9q-42 -3 -58.5 19t-4.5 50.5t41 42.5v2q177 218 523 617t495 579q-681 -6 -687 -6
q-37 0 -56.5 39.5t-9 79t47.5 39.5q134 0 402.5 2t402.5 2q34 0 51 -31z" />
    <glyph glyph-name="bracketleft" unicode="[" horiz-adv-x="550" 
d="M16 -291q-32 0 -59 13.5t-35 41.5q-12 37 23 60l2 2q23 81 46.5 169t42 160t42 173.5t37.5 160.5t38 174t34 161.5t35.5 174.5t32.5 161.5t34.5 175t32.5 165.5q-2 29 21 60.5t54 40.5q8 2 27 2q18 -1 65 -3.5t72 -3.5t62.5 0t68.5 5q53 7 61 -36q8 -39 -22 -75
q-21 -24 -47 -27q-25 -4 -50 -6t-54.5 -2.5t-47 -0.5t-53.5 1.5t-49 1.5q-29 -245 -87 -513t-142.5 -602.5t-122.5 -506.5q0 -4 -2 -6h151q31 0 58.5 -14t38.5 -41q6 -26 -11 -46t-45 -20h-252z" />
    <glyph glyph-name="backslash" unicode="\" horiz-adv-x="1042" 
d="M88 1337q-9 21 -2 41.5t27 33.5t42.5 19.5t44 -0.5t31.5 -28q29 -62 141.5 -306t160.5 -345.5t139 -292.5t167.5 -342t155.5 -299q18 -32 -12 -63t-69 -33t-62 30q-57 108 -113.5 217.5t-118 236t-105 215t-113 238t-101 216.5t-111 239.5t-102.5 222.5z" />
    <glyph glyph-name="bracketright" unicode="]" horiz-adv-x="538" 
d="M-156 -307q-39 0 -46 45q-8 46 21 83q21 27 50 27h244q118 720 297 1582q-12 1 -91 6t-118 16q-18 3 -29 25q-8 20 1 46t24 38q25 20 63 25.5t69 2t79 -11.5t71 -10q22 0 42.5 -41.5t15.5 -67.5q-205 -999 -312 -1640q13 -37 -7 -81t-60 -44h-314z" />
    <glyph glyph-name="asciicircum" unicode="^" horiz-adv-x="888" 
d="M881 924q17 -30 -10.5 -70t-64.5 -52.5t-58 11.5q-115 203 -240 481q-190 -268 -385 -493q-35 -44 -82 -39q-35 3 -40 32q-5 26 24 58q250 296 452 592q15 24 41.5 42t53 18.5t38.5 -25.5q130 -309 271 -555z" />
    <glyph glyph-name="underscore" unicode="_" horiz-adv-x="776" 
d="M-154 -446q-39 0 -48 38t12.5 76.5t56.5 40.5q132 4 409.5 -0.5t407.5 0.5q43 1 50 -45q7 -45 -22 -83q-21 -26 -50 -27q-128 -5 -406.5 -0.5t-409.5 0.5z" />
    <glyph glyph-name="grave" unicode="`" horiz-adv-x="454" 
d="M150 1483q-22 20 -26 52t11 60q14 24 37.5 32.5t48.5 -11.5q18 -18 54 -55.5t58 -60.5t55.5 -51.5t64.5 -47.5q27 -14 36.5 -42t2.5 -56q-9 -29 -33.5 -48.5t-48.5 -5.5q-29 17 -55.5 37t-57 49t-46.5 44t-53.5 54.5t-47.5 49.5z" />
    <glyph glyph-name="a" unicode="a" 
d="M532 260q107 183 162 412q5 32 15 73q15 78 26 183q-87 39 -171 26.5t-155.5 -62t-123.5 -128.5q-39 -57 -69 -118t-52 -134t-21 -139.5t23 -134.5q24 -57 68.5 -95.5t99.5 -38.5q62 -1 109.5 43t88.5 113zM1042 188q11 -25 -4.5 -51.5t-40.5 -42.5q-41 -27 -83.5 -46.5
t-88.5 -28t-83.5 -1t-65.5 41t-37 92.5q-1 2 -6 28q-59 -82 -119 -127q-66 -54 -147.5 -70t-153 4.5t-127.5 80t-74 147.5q-12 73 -10 152t26 157t58 154t85 141.5t108.5 120t127.5 90.5t142 51.5t152.5 4t158.5 -51.5q31 -18 21 -51v-12q-4 -58 -11 -94q3 -12 0 -31
q-3 -8 -7 -26.5t-7 -26.5q-20 -127 -51 -232q-31 -162 -31 -280v-15.5v-20.5t0.5 -21.5t2.5 -23t5 -20t8.5 -17.5t12.5 -11q11 -6 25 -6t26.5 4.5t28.5 12.5t27 15t25 16.5t19 12.5q21 15 50 10.5t38 -29.5z" />
    <glyph glyph-name="b" unicode="b" horiz-adv-x="1024" 
d="M817 662q0 6 4 43.5t4.5 60t-2 55.5t-13.5 55.5t-30 34.5q-60 36 -162 -6q-151 -53 -307 -182q-96 -423 -123 -571q222 -60 375 20q206 111 254 490zM657 1077q67 12 119.5 -4.5t84.5 -53.5t51.5 -89.5t25.5 -109t2 -115.5q-37 -499 -301 -662q-227 -144 -592 -10
q-40 15 -45 72q-4 52 24 76q18 15 42 7q45 239 118 557q-7 48 19 74q104 468 129 608q9 50 45 49q34 0 59 -39q20 -30 15 -63q-35 -185 -91 -428q162 108 295 131z" />
    <glyph glyph-name="c" unicode="c" horiz-adv-x="823" 
d="M770 1047q34 -21 31 -57.5t-37.5 -67t-67.5 -17.5q-103 38 -190.5 17t-156.5 -89t-114.5 -155t-64.5 -180q-45 -225 55 -320q121 -121 383 -16q53 21 74 -19q17 -35 -5 -74q-14 -25 -40 -36q-373 -141 -520 26q-50 58 -73.5 135t-22.5 152t20 154q27 123 92 239.5
t162 206.5t217 120.5t258 -19.5z" />
    <glyph glyph-name="d" unicode="d" horiz-adv-x="937" 
d="M401 125q88 38 209 168q52 365 101 602q-78 24 -149 27.5t-142.5 -20t-124.5 -77.5q-68 -71 -104 -174t-41 -215q-2 -102 25.5 -191t96.5 -126q52 -27 129 6zM823 1427q9 37 51.5 42t77 -20.5t25.5 -62.5q-178 -767 -236 -1359q-4 -37 -43.5 -42.5t-76.5 19.5t-33 62
q0 6 1 19t1 19q-61 -45 -90 -61q-70 -42 -140.5 -58t-144 4.5t-125.5 84.5q-43 55 -66 130.5t-23.5 148.5t9.5 147q21 136 84.5 254.5t165.5 197.5q102 77 230 96.5t247 -14.5q11 54 86 393z" />
    <glyph glyph-name="e" unicode="e" horiz-adv-x="933" 
d="M700 713q61 59 45 124t-98 93q-125 46 -244 -32.5t-174 -207.5q-11 -25 -26 -80q72 -8 131.5 -9t129.5 6t130.5 34t105.5 72zM866 952q35 -67 23.5 -136t-51 -126.5t-99.5 -99.5q-217 -154 -559 -123q-3 -133 56 -234q44 -74 113.5 -101.5t140.5 -16.5t149 49q25 13 50 3
t28 -38q4 -29 -14 -55t-46 -39q-85 -38 -139 -51q-161 -40 -287.5 36t-167.5 236q-42 162 -1 332t149 297q120 142 297 188q102 26 206 -3.5t152 -117.5z" />
    <glyph glyph-name="f" unicode="f" horiz-adv-x="636" 
d="M805 1395q36 -25 35 -79q-1 -49 -30 -62q-22 -10 -50 10q-260 171 -361 -258q34 0 100.5 -2.5t100.5 -2.5q45 0 44 -40q0 -39 -36 -73q-27 -26 -57 -26q-119 0 -178 4q-28 -188 -35 -299q-10 -89 -59 -475q-15 -127 -33.5 -219.5t-52.5 -173.5q-71 -170 -181 -201
q-74 -21 -145 -2t-154 64q-38 21 -39 73q-1 48 30 65q23 12 54 -3q46 -27 89.5 -41.5t93.5 -8t84 43.5q21 23 38.5 56.5t27 57.5t21 73.5t14 63.5t11.5 68q18 112 33 228.5t34 292.5t25 231q8 63 15 106q-21 0 -59.5 -2t-57.5 -2q-28 -1 -39 25t-2 51q20 60 90 63q36 5 88 5
q38 189 111 313q50 84 121 120t149.5 23.5t159.5 -67.5z" />
    <glyph glyph-name="g" unicode="g" horiz-adv-x="942" 
d="M401 182q115 67 230 189q7 40 35 230t47 267q-218 86 -371 -41q-144 -124 -188 -360q-39 -224 32 -303q20 -22 61 -23.5t81 10.5t73 31zM795 997q44 6 80 -18t20 -59q-13 -31 -23.5 -67t-17.5 -63.5t-14.5 -73.5t-10.5 -66.5t-9.5 -74t-8.5 -67.5q-2 -11 -9.5 -63
t-9.5 -68t-9.5 -62t-11.5 -68t-12 -62t-14.5 -67t-16 -61t-19.5 -65q-92 -281 -250 -365q-207 -110 -496 11q-26 8 -38.5 33.5t3.5 49.5q33 43 105 13q99 -39 180.5 -38t139 32.5t104 94.5t76 136.5t53.5 171.5q-74 -62 -170 -108q-48 -23 -97.5 -34.5t-104 -4t-89.5 42.5
q-141 138 -92 444q22 142 82 270t157 213q76 64 166.5 88t179.5 11.5t177 -56.5z" />
    <glyph glyph-name="h" unicode="h" horiz-adv-x="1028" 
d="M930 973q12 -40 15 -82t-4.5 -94t-12.5 -79.5t-19 -88.5q-12 -57 -60 -265.5t-71 -322.5q-5 -31 -23 -55t-46 -25q-27 0 -43 24t-11 50q27 140 119 534q3 16 15.5 70t18 81.5t10 70t1.5 75.5q-3 44 -30.5 60.5t-81.5 13.5q-105 -3 -203.5 -54t-200.5 -136
q-98 -466 -149 -697q-10 -39 -61 -55q-51 -17 -79 7q-18 16 -12 46q21 91 127 588t174 758q7 39 56 56q48 17 77 -4q22 -16 15 -48q-78 -319 -105 -453q195 143 363 146q50 3 92.5 -5.5t79 -38t49.5 -77.5z" />
    <glyph glyph-name="i" unicode="i" horiz-adv-x="401" 
d="M203 1032q8 37 49 41t76.5 -22.5t27.5 -63.5q-28 -128 -95.5 -463t-108.5 -518q-8 -36 -49.5 -39.5t-75.5 23t-25 63.5q39 183 107 519t94 460zM440 1456q44 -60 41 -121q0 -19 -11 -39t-28 -30q-76 -40 -161 10q-30 19 -43.5 60t0.5 75q15 29 34 43q22 14 56 25
q19 7 59 1.5t53 -24.5z" />
    <glyph glyph-name="j" unicode="j" horiz-adv-x="401" 
d="M238 999q10 53 50 49q35 -3 57 -42q17 -29 11 -60q-28 -128 -79 -383t-78 -383q-59 -279 -107 -407q-44 -119 -118.5 -172.5t-194.5 -38.5q-39 4 -57 53q-17 49 4 82q17 24 49 20q27 -4 78 -4q31 4 54.5 21t40.5 47.5t26 54t20 60.5q13 39 24 77.5t23 89.5t17.5 75
t19 90.5t16.5 78.5q25 115 72 345.5t72 346.5zM434 1354q-8 -8 -22 -15q8 4 12 4q1 1 2 3t3 4t5 4zM479 1376q11 -43 -18 -69q-2 -1 -8 -7t-11 -8q-22 -10 -43 -12q-23 -7 -47 0q-30 2 -53 18.5t-20 44.5q3 21 16 31q0 1 -2 3t-2 3q-3 10 0 25t10 22q38 28 82 25
q25 0 49 -14q38 -30 47 -62z" />
    <glyph glyph-name="k" unicode="k" horiz-adv-x="886" 
d="M874 918q-32 -35 -92.5 -107.5t-99.5 -117t-98.5 -98t-116.5 -87.5q57 -57 110.5 -146t81 -151.5t70.5 -167.5q17 -46 -14 -89q-27 -37 -58 -27q-21 6 -34 38q-19 51 -28 74.5t-31 75t-37.5 81t-41 74t-49.5 72.5t-55.5 57t-65.5 47h-2l-15 -4q-16 -3 -24 -4
q-49 -269 -73 -385q-8 -39 -60 -56t-83 4q-20 15 -15 42q43 199 127.5 644.5t136.5 680.5q9 39 61 57q51 17 80 -5q19 -14 13 -42q-68 -321 -154 -782q20 16 41 0h2q71 37 137 102t141.5 159.5t104.5 125.5q29 33 89 17q49 -14 61 -44q8 -20 -9 -38z" />
    <glyph glyph-name="l" unicode="l" horiz-adv-x="528" 
d="M328 1395q6 22 25.5 33.5t43 9.5t45.5 -11t35 -28t8 -41q-24 -110 -82.5 -347.5t-97 -420t-59.5 -352.5q0 -2 -3.5 -20.5t-4.5 -28.5t-2.5 -29.5t0.5 -31t6.5 -25t14.5 -20t24 -7.5q3 0 51 10q46 10 80 -26q32 -33 17 -64q-11 -22 -46 -31q-158 -33 -236 23
q-75 56 -63 202q2 30 5 60.5t8.5 66t9 58.5t12.5 66.5t12 58.5t14 65.5t13 59.5q19 85 54.5 242.5t63.5 285t52 242.5z" />
    <glyph glyph-name="m" unicode="m" horiz-adv-x="1581" 
d="M1473 854q4 -34 5 -69t-2.5 -73t-7 -69.5t-12 -74t-14 -68t-15.5 -70.5q-41 -177 -116 -393q-14 -40 -69 -45q-52 -5 -77 24q-17 19 -8 45q51 145 79.5 236.5t55.5 226.5t27 246q0 86 -23 133q-6 16 -18 29q-8 6 -16 6q-44 -2 -93.5 -23t-103 -60.5t-90 -70t-88.5 -77.5
q-4 -104 -23.5 -211.5t-61.5 -269t-52 -206.5q-8 -34 -50 -43t-77 13t-27 61q9 40 47 184.5t56.5 240.5t23.5 190q-20 15 -21.5 34.5t23.5 42.5l4 2v7q0 99 -24 153l-19 33q-9 6 -16 8q4 -1 5 -2t-1 -2q-9 0 -10 4q-72 -10 -148 -65q-101 -66 -221 -174q-15 -76 -38.5 -212
t-45 -248.5t-45.5 -211.5q-13 -53 -55 -50q-36 3 -57 38q-17 28 -9 59q19 83 36.5 169.5t41 215.5t31.5 170q-38 10 -50 37t19 59q19 19 59 55q4 17 21 99t26 125q9 25 35.5 32t46.5 -8q51 -39 33 -106v-8q17 14 98 67q140 78 226 74q165 -3 209 -189q213 176 372 181
q94 4 153 -51.5t71 -149.5z" />
    <glyph glyph-name="n" unicode="n" 
d="M918 926q24 -69 25.5 -155.5t-9.5 -155t-33 -158.5q-18 -70 -57.5 -209.5t-57.5 -208.5q-10 -41 -63 -53q-51 -11 -80 15q-20 18 -14 46q15 61 67 228t74.5 289t11.5 235q-6 104 -43 127q-41 25 -124 -16q-5 -2 -7 -3q-119 -62 -313 -229q-46 -327 -139 -649
q-6 -26 -32 -41.5t-50 -1.5q-46 25 -27 100q72 245 125 567q-29 12 -35.5 31.5t21.5 46.5q12 12 30 27q14 107 27 223q5 46 36 60t59 -9.5t24 -68.5q-4 -33 -12 -91q142 107 243 150q48 21 100 29t103 1t91.5 -39t58.5 -87z" />
    <glyph glyph-name="o" unicode="o" horiz-adv-x="1013" 
d="M530 156q127 101 183.5 245t34.5 306q-18 164 -99 215q-25 17 -60 13t-70 -18.5t-70.5 -38t-61.5 -44.5t-43 -39q-99 -103 -134.5 -236t-2.5 -264q33 -143 117 -191q24 -14 52.5 -14.5t56.5 10t51.5 24.5t45.5 32zM672 1042q64 -18 111.5 -61.5t73 -99.5t40.5 -122.5
t13.5 -131.5t-7.5 -125q-29 -191 -119 -305q-66 -81 -151.5 -143.5t-173.5 -78.5q-99 -11 -178 16.5t-127.5 82t-77 130.5t-33 160.5t10 173t47 167.5t84.5 145.5t116 105.5q198 134 371 86z" />
    <glyph glyph-name="p" unicode="p" horiz-adv-x="993" 
d="M786 606q5 38 1.5 82.5t-11 84t-29.5 71t-55 43.5q-26 9 -55 9.5t-57.5 -8t-56.5 -21t-57 -32.5t-53.5 -39t-51 -44t-45 -43t-40.5 -41q-18 -82 -49.5 -246t-48.5 -246q80 -32 154.5 -38.5t149.5 17.5t134 83q72 68 116.5 167.5t53.5 200.5zM821 977q128 -142 76 -434
q-26 -136 -88.5 -256t-159.5 -199q-108 -88 -242.5 -104.5t-261.5 36.5q-59 -278 -108 -458q-14 -50 -54 -37q-34 11 -54 52q-16 34 -7 63q71 265 172 773.5t121 598.5q6 26 32 34t46 -8q53 -35 39 -106q-10 -35 -13 -43q45 39 84 63q51 34 101.5 57t108.5 35.5t112.5 -4
t95.5 -63.5z" />
    <glyph glyph-name="q" unicode="q" horiz-adv-x="1062" 
d="M309 123q99 -4 199.5 61t181.5 158q0 4 4 8q17 75 55.5 248.5t59.5 265.5q-148 73 -275.5 18t-216 -182.5t-106.5 -267.5q-4 -28 -6 -46.5t-3.5 -54t0 -60t8 -54.5t18 -48.5t32.5 -32t49 -13.5zM889 967q39 3 68 -15.5t22 -50.5q-98 -430 -143 -647q-8 -37 -26 -122
t-27.5 -133t-23 -119t-22 -134t-14.5 -123q-2 -23 -20 -37.5t-42 -16.5t-47 3.5t-38 22.5t-13 40q18 160 80 476q-203 -140 -381 -101q-59 11 -103 41t-67 71.5t-37 92.5t-12.5 104.5t6.5 106.5q21 154 90.5 281.5t188.5 210.5q129 92 276 106t285 -57z" />
    <glyph glyph-name="r" unicode="r" horiz-adv-x="737" 
d="M737 1026q51 -18 37 -62q-12 -36 -52 -54q-30 -14 -58 -5q-26 8 -52 8.5t-48 -5t-46 -17.5t-42.5 -25.5t-41 -33t-38.5 -35t-38 -36.5t-36 -34q-1 -1 -7 -6t-10 -6q-95 -513 -147 -723q-6 -26 -32 -41.5t-50 -3.5q-47 23 -29 100q27 104 49 209t54 272t40 207q-7 17 5 41
q5 24 14 69t16.5 82t12.5 70q12 49 53 61q37 10 57 -18q17 -22 8 -59q-3 -13 -7 -37.5t-5 -30.5q38 30 69.5 51.5t72 41t78 28t82.5 7.5t91 -15z" />
    <glyph glyph-name="s" unicode="s" horiz-adv-x="722" 
d="M690 1006q47 -25 26 -67q-17 -34 -58 -46q-31 -8 -56 6q-110 58 -229 27q-65 -20 -109 -71t-20 -110q20 -46 61.5 -84.5t88 -66t92 -57t81 -72.5t47.5 -98q25 -101 -26.5 -192.5t-149.5 -145.5q-111 -61 -241 -62t-244 53q-48 21 -30 61q16 34 59 48q33 10 59 -2
q53 -23 114.5 -31.5t121.5 -1t109.5 42.5t70.5 94q12 42 11 74t-21.5 64t-45 55.5t-60 49t-66 44t-63.5 41.5t-52 41q-96 99 -68.5 216t146.5 181q104 57 226 61t226 -52z" />
    <glyph glyph-name="t" unicode="t" horiz-adv-x="612" 
d="M563 1026q51 5 78 -34q24 -35 2 -62q-15 -19 -49 -23q-82 -8 -250 -8q-70 -279 -102 -493q-23 -142 -19 -202q2 -54 19 -93q17 -42 34 -39q34 0 105 41q69 40 106 6q19 -21 12 -49.5t-30 -42.5q-43 -26 -78.5 -42.5t-84 -31.5t-92.5 -7.5t-77 38.5q-35 33 -51 87.5
t-13.5 105.5t5.5 102q7 98 28.5 216.5t39 192.5t51.5 211q-68 0 -101 -2q-82 0 -94 51q-6 25 14.5 46.5t46.5 21.5q53 2 160 2q37 156 45 203q7 38 56.5 55.5t78.5 -4.5q22 -16 15 -49q-7 -37 -23 -105.5t-22 -99.5q102 0 190 8z" />
    <glyph glyph-name="u" unicode="u" horiz-adv-x="997" 
d="M801 1012q12 52 48 53q32 1 52 -34q17 -30 10 -66q-49 -227 -92 -488q-4 -24 -13 -78.5t-13 -83.5q22 -29 -7 -55q0 -6 -4 -6q-14 -107 -14 -182q-1 -46 -31 -63.5t-60 3t-30 66.5q2 20 2 61q-64 -50 -125.5 -86.5t-130.5 -62t-135.5 -21t-120.5 42.5q-26 19 -45 47
t-29.5 54.5t-15 66.5t-5.5 66t2.5 71t6 64t8.5 61q12 86 29.5 172t51 226t40.5 172q8 36 49 37.5t75 -26.5t26 -65q-9 -41 -47.5 -203t-55.5 -251q-24 -148 -24 -228q-5 -32 -3 -87t21 -83q6 -9 18.5 -12t30 1t34 9.5t37 16t33.5 17.5t30.5 17t19.5 11q122 71 231 174
q11 11 23 14q21 117 29 172q63 352 94 486z" />
    <glyph glyph-name="v" unicode="v" horiz-adv-x="878" 
d="M901 1038q34 -37 0 -108q-159 -279 -553 -897q-20 -33 -57 -34t-47 40q-118 565 -160 909q-5 32 6.5 60.5t38.5 42.5q23 13 49 4t27 -37q37 -290 133 -778q122 192 170.5 269.5t140.5 229.5t160 275q14 23 41 31.5t51 -7.5z" />
    <glyph glyph-name="w" unicode="w" horiz-adv-x="1404" 
d="M1323 997q23 49 67 51q38 2 51 -29q10 -25 -5 -58q-82 -190 -267 -533.5t-219 -411.5q-13 -26 -37 -33.5t-44.5 6.5t-24.5 44q-13 124 -58 368.5t-59 368.5q-44 -74 -202 -337.5t-242 -407.5q-13 -24 -39.5 -33.5t-48.5 3.5t-23 46q0 173 -40.5 488t-47.5 427
q-3 47 37 80q36 30 64 12q19 -13 22 -49q9 -129 41 -372.5t41 -354.5q84 141 239 399.5t199 332.5q13 23 38.5 32.5t47 -3t23.5 -46.5q3 -87 15 -189.5t24 -173t33.5 -191t31.5 -177.5q32 60 99 181.5t106 195t90.5 176.5t87.5 188z" />
    <glyph glyph-name="x" unicode="x" horiz-adv-x="905" 
d="M791 1030q18 21 39.5 27.5t38 -1t27.5 -22t8 -37t-21 -43.5q-68 -75 -192.5 -216t-174.5 -197q182 -363 240 -486q20 -46 -25 -69q-40 -21 -84 -5q-27 12 -37 33q-143 297 -200 410q-140 -161 -375 -414q-39 -40 -82 -24q-33 12 -34 45q-1 27 26 53q242 265 409 453
q-115 225 -204 430q-21 45 22 67q40 21 84 4q28 -11 39 -34q68 -153 164 -347q55 61 165.5 186t166.5 187z" />
    <glyph glyph-name="y" unicode="y" horiz-adv-x="911" 
d="M801 1022q18 38 73 38q50 1 70 -29q14 -23 0 -52q-229 -471 -399 -795q-6 -12 -34.5 -66.5t-38.5 -73t-35.5 -64.5t-41 -72.5t-39 -63t-45.5 -67.5q-28 -42 -55.5 -73.5t-63 -60t-72 -42t-81.5 -11.5t-92 23q-25 10 -27.5 37t17.5 45q17 17 37 20.5t38.5 0t37.5 -5
t40.5 11t40.5 42.5q18 29 81 127.5t101 163.5q-147 547 -188 901q-5 35 31.5 58.5t77 16t45.5 -47.5q28 -259 143 -729q47 88 101 195.5t90.5 183t97.5 202.5t90 187z" />
    <glyph glyph-name="z" unicode="z" horiz-adv-x="872" 
d="M809 1038q37 3 53.5 -34t3.5 -77t-49 -44q-133 -140 -360 -409.5t-316 -367.5h480q46 0 68 -29.5t5.5 -59t-63.5 -29.5h-633q-43 1 -65.5 28.5t-10.5 56.5t53 33q6 3 9 11q124 132 343.5 392t317.5 368q-67 -1 -141 -1t-164 0.5t-139 0.5q-29 -1 -46 23.5t-17.5 54
t14.5 55t43 26.5q60 0 191.5 -1.5t231 -1t191.5 4.5z" />
    <glyph glyph-name="braceleft" unicode="{" horiz-adv-x="690" 
d="M772 1563q52 -15 38 -56q-12 -35 -53 -55q-30 -15 -57 -8q-34 9 -55 6q-4 0 -16 -12q-34 -32 -66 -113q-22 -70 -50 -200.5t-34 -157.5q-71 -289 -211 -379q17 -36 24.5 -85t4 -111.5t-7 -93t-10.5 -87.5q-2 -16 -10 -76t-11 -89.5t-3 -77.5t7 -85q23 -108 180 -59
q47 15 66 -31q16 -42 -5 -82q-13 -27 -38 -33q-210 -65 -287 60q-62 104 -37 317q3 35 19.5 157t17.5 191q0 77 -12 89q-14 21 -74 12q-49 -14 -53 49q-49 10 -36 49q11 35 52 58q31 16 58 12q66 -13 104 22.5t64 110.5q15 40 29 89.5t22.5 85t22 95t20.5 88.5q8 37 16.5 70
t21 71t26.5 69.5t33 64t40.5 56.5t49.5 43t59 28.5t69.5 9.5t81.5 -12z" />
    <glyph glyph-name="bar" unicode="|" horiz-adv-x="522" 
d="M322 1403q7 42 61 57q51 14 82 -8q20 -16 14 -43q-188 -912 -274 -1616q-6 -43 -58 -59q-50 -16 -84 7q-24 16 -20 46q93 696 279 1616z" />
    <glyph glyph-name="braceright" unicode="}" horiz-adv-x="606" 
d="M438 758q35 12 61.5 -20.5t24.5 -75t-37 -54.5q-66 -21 -114 0q-17 -7 -19 -12q-20 -26 -28 -51q-25 -66 -35 -146q-6 -39 -21 -163.5t-28 -192.5q-12 -67 -32.5 -125.5t-54.5 -113t-79 -87t-105.5 -46t-134.5 9.5q-39 17 -40 50.5t31 64.5t67 22q70 -22 110.5 -6.5
t63.5 79.5q12 29 21 59.5t15.5 67t10 60t9 68.5t7.5 61q2 14 6.5 62.5t7.5 71.5t10 69.5t14.5 73t21 65.5t29 65t38.5 52.5t51 44.5q-27 111 15 325q3 18 12 62.5t13.5 70t10 63t7.5 70.5t0 64q-7 53 -11 64q-1 3 -7 10q-3 3 -1 2q-34 24 -102 6q-36 -8 -63 25.5t-25 74
t37 49.5q86 20 154.5 -2t103.5 -94q32 -67 34 -160t-12 -163q-6 -42 -26 -159.5t-27 -182.5q-6 -60 -6 -64q0 -12 4 -18q3 0 9 2t9 2z" />
    <glyph glyph-name="asciitilde" unicode="~" horiz-adv-x="1175" 
d="M174 573q-35 -26 -85 -4q-43 18 -46 50q-2 26 27 47q8 6 60.5 43t72 49t60.5 32t77 29q43 7 76.5 8.5t75 -7.5t73.5 -20t72 -28q14 -6 49 -22.5t54.5 -25t48.5 -16.5t53 -8q17 -1 33.5 7t28 18.5t25 30.5t19.5 31.5t17.5 35t13.5 27.5q15 32 59 36.5t75 -19t15 -60.5
q-63 -135 -163 -192.5t-234 -10.5q-23 8 -118 50.5t-150 52.5q-18 6 -40.5 3t-39 -6.5t-38 -14t-37 -19.5t-35.5 -23.5t-34.5 -25.5t-33 -25t-31.5 -23z" />
    <glyph glyph-name="exclamdown" unicode="&#xa1;" horiz-adv-x="589" 
d="M190 -358q-8 -39 -57 -51t-77 13q-20 18 -11 50q34 141 97 475t110 510q10 38 58 50q48 11 75 -14q20 -19 12 -52q-45 -172 -107.5 -501.5t-99.5 -479.5zM393 905q-57 7 -84.5 46t-5 77t89.5 41q32 2 64 -18t45 -52q19 -49 -20 -75t-89 -19z" />
    <glyph glyph-name="cent" unicode="&#xa2;" horiz-adv-x="845" 
d="M522 1047l56 184q14 38 62 53q48 16 68 -9q13 -16 5 -46l-54 -174q59 0 123 -15q49 -11 42 -54q-6 -37 -42 -59q-26 -15 -51 -9q-65 12 -106 14q-78 -290 -189 -826q91 -9 178 60q40 22 67.5 10.5t27.5 -46.5t-35 -60q-117 -91 -262 -88q-39 -204 -41 -218
q-5 -38 -49 -55t-69 5q-19 16 -11 50l43 240q-55 22 -107 68q-97 89 -135 212t-10 255q41 202 172.5 337.5t316.5 170.5zM371 874q-73 -48 -122.5 -125.5t-72.5 -168.5q-48 -257 86 -383q18 -20 53 -45q79 414 174 768q-70 -16 -118 -46z" />
    <glyph glyph-name="sterling" unicode="&#xa3;" horiz-adv-x="1128" 
d="M195 715q-49 -23 -67 14q-15 32 6 69q13 22 36 31q72 28 156 41v4q4 152 43 267t143 192q76 53 169 78.5t181.5 23.5t179.5 -24q50 -14 45 -52q-5 -31 -40 -48q-27 -13 -56 -4q-66 16 -131.5 17t-129 -14.5t-118 -57t-88.5 -105.5q-55 -105 -55 -273q34 -1 114.5 -4.5
t113 -3.5t110.5 6q50 8 57 -31q6 -37 -24 -72q-19 -22 -43 -26q-37 -6 -81.5 -8.5t-73.5 -2.5t-83 0.5t-74 0.5h-14q0 -27 -2 -39q-16 -350 -129 -522q65 -6 135 -22q11 -3 51 -14t57 -15.5t55 -11.5t59 -6.5t53 3.5t53.5 14t45 31t40.5 48q20 35 75 33q49 -2 65 -30
q9 -17 -3 -38q-130 -214 -453 -156q-25 5 -93.5 24.5t-125 30.5t-106.5 9q-87 -67 -199 -78q-35 -2 -72 25.5t-2 58.5q83 72 201 92q148 139 148 567q-71 0 -129 -22z" />
    <glyph glyph-name="currency" unicode="&#xa4;" horiz-adv-x="1210" 
d="M362 647q6 -70 66 -108t140 -36t147 38q17 14 41 26q49 38 69 93.5t12 109t-38 96.5q-25 11 -31 33q-41 36 -94 41.5t-123 -27.5q-9 -6 -23 -6q-77 -45 -124.5 -115t-41.5 -145zM1065 362q27 -25 4 -64t-63 -54t-70 4q-9 10 -34 36l-37.5 39t-34 33t-41.5 36t-41 30
q-91 -31 -194 -33.5t-194 31.5q-68 -63 -208 -162q-76 -46 -105 -4q-11 22 3.5 52t39.5 46q95 60 174 127q-59 56 -59 146q-3 92 41 175.5t121 149.5q-18 20 -66.5 77t-75.5 87q-13 24 0 47.5t41 36.5q25 16 57.5 14t51.5 -24q18 -23 61.5 -75.5t65.5 -82.5q60 27 133 37
q31 0 41 -2q109 0 186 -51q75 73 160 151q34 35 90 25q46 -8 55 -37q7 -23 -18 -49q-28 -27 -94 -89t-101 -95q9 -13 19 -37q37 -89 19 -190t-89 -173q32 -28 91.5 -87.5z" />
    <glyph glyph-name="yen" unicode="&#xa5;" horiz-adv-x="1089" 
d="M205 295q-49 -1 -73 38q-21 35 2 60q16 18 50 19q84 4 246 -4q4 23 29 135q-185 10 -213 10q-38 0 -47 36.5t11.5 73.5t53.5 37q63 0 195 -8q-5 7 -8 17q-30 67 -107 260q-52 135 -96 276q-1 4 -10 27t-12.5 33.5t-9.5 30t-7.5 35t0.5 28.5q5 35 44.5 48t75 -3t29.5 -51
q0 -22 41 -136q31 -103 88 -251q55 -145 95 -240q3 -9 10.5 -25t9.5 -20q16 19 40.5 55t31.5 45q98 152 153 254q120 199 144 234q3 5 16 24t18 26.5t16.5 23t19.5 25t19.5 21.5t22.5 21q35 27 84 6q42 -17 45 -48q3 -25 -24 -46q-45 -31 -125 -172l-164 -281
q-8 -12 -28 -45t-30.5 -49.5t-27.5 -42t-33 -47t-32 -41.5q52 2 118 16q41 7 57 -25.5t1.5 -72t-47.5 -49.5q-88 -18 -267 -18q-11 -49 -26 -134q84 -3 164 0q51 2 75 -36q21 -34 -2 -59q-17 -17 -49 -19q-71 -4 -205 0l-45 -256q-4 -21 -22 -33t-40.5 -13t-44 5t-34.5 22
t-10 37q43 244 43 246h-209z" />
    <glyph glyph-name="brokenbar" unicode="&#xa6;" horiz-adv-x="499" 
d="M379 858q-1 -41 -50 -70q-48 -28 -80 -12q-21 10 -20 41q0 96 12.5 213.5t24.5 190t37 215.5q7 41 60 70q51 28 80 12q19 -11 14 -41q-69 -390 -78 -619zM166 449q23 53 66 57q35 4 48 -27q10 -25 -6 -61q-31 -74 -48.5 -155t-32 -191.5t-23.5 -157.5q-9 -50 -53 -71
q-40 -19 -62 6q-17 18 -12 55q7 41 22 133t24.5 144.5t30 129t46.5 138.5z" />
    <glyph glyph-name="section" unicode="&#xa7;" horiz-adv-x="1024" 
d="M772 831q-23 21 -54.5 33.5t-80.5 22.5t-62 14q-22 -18 -43 -18q-66 -3 -133.5 -35.5t-111.5 -83.5q-16 -19 -27.5 -45.5t-11.5 -57t22 -45.5q19 -14 42.5 -24t55 -20.5t46.5 -16.5q46 -22 67 -39l4 2q7 4 30 16.5l46 25t54 31t56.5 37t52 39.5t43 42t26 42t4.5 41.5
t-25 38.5zM879 1294q-60 14 -125 10.5t-130.5 -30.5t-105.5 -70q-21 -24 -23 -45.5t12 -38.5t35 -31t51.5 -25.5t55.5 -19.5t53 -16t39 -12q56 -19 97 -61.5t60.5 -94.5t16.5 -111t-32 -110q-22 -40 -53 -74t-77 -66t-73.5 -48t-87.5 -50q41 -61 50.5 -127t-17.5 -127.5
t-90 -103.5q-68 -47 -151 -61.5t-161 -2t-155 45.5q-31 21 -25 57.5t43 65t72 12.5q154 -69 274 -27q111 43 70 127q-52 107 -166 156q-9 4 -60.5 23t-76.5 32q-55 32 -73 92t-4.5 121t46.5 115q42 68 114 123.5t152 83.5q-5 7 -13 20.5t-13 20.5q-34 58 -37.5 114.5
t20 100.5t64.5 83t95.5 63t112.5 40.5t116 15t106 -13.5q41 -11 53 -66q12 -52 -13 -80q-17 -19 -46 -10z" />
    <glyph glyph-name="dieresis" unicode="&#xa8;" horiz-adv-x="636" 
d="M291 1458q17 -14 17 -37.5t-17 -40.5q-23 -23 -56.5 -26.5t-60.5 12.5q-32 20 -45 57t6 70q17 26 49.5 35.5t61.5 -0.5q22 -7 37 -27.5t8 -42.5zM659 1458q17 -14 17 -37.5t-17 -40.5q-23 -23 -56 -26.5t-60 12.5q-32 20 -45 57t6 70q17 26 49 35.5t61 -0.5
q22 -7 37 -27.5t8 -42.5z" />
    <glyph glyph-name="copyright" unicode="&#xa9;" horiz-adv-x="1546" 
d="M971 184q170 81 279.5 242t123.5 340q19 192 -77 326.5t-279 169.5q-145 23 -338.5 -48t-321.5 -196q-112 -111 -164 -253t-16 -269q33 -112 114.5 -199t188.5 -132t237.5 -42.5t252.5 61.5zM1503 907q6 -187 -69 -374.5t-220 -329.5q-172 -169 -395.5 -218.5
t-412.5 33.5q-154 66 -249.5 196t-110.5 294t63 346q60 130 159.5 239t225.5 177q219 125 497 131q220 6 362.5 -130.5t149.5 -363.5zM922 596q30 50 68 29q31 -17 36 -60q4 -31 -10 -55q-58 -97 -145.5 -153.5t-182.5 -34.5q-89 21 -155 83t-87 150q-25 111 12.5 223
t133.5 197q39 33 83 48.5t80.5 17t83 -9.5t76.5 -22.5t75 -30.5q4 -2 6 -2.5t5 -2l5 -2.5q35 -15 34 -69q-1 -52 -31 -74q-20 -15 -46 -3q-4 2 -40.5 19t-50 22.5t-47.5 15.5t-54 9.5t-47.5 -7.5t-49.5 -24q-66 -47 -99.5 -117t-11.5 -133q16 -45 47 -77.5t71 -45.5
t82.5 -8.5t84.5 34.5t74 83z" />
    <glyph glyph-name="guillemotleft" unicode="&#xab;" horiz-adv-x="927" 
d="M193 524q165 -154 221 -305q17 -40 -23 -81q-36 -37 -72 -31q-24 3 -34 30q-32 84 -89 155t-141 150q-24 21 -8 62q18 45 49.5 85.5t77.5 89t66 73.5q9 11 68 95t100 118q66 44 96 10q18 -21 12 -49.5t-27 -44.5q-37 -31 -87 -105t-64 -90q-19 -25 -71 -77.5t-74 -84.5z
M805 1008q36 31 63 -8q25 -38 16 -88q-6 -27 -22 -42q-37 -33 -88 -109t-78 -104q-89 -93 -127 -137q89 -126 150 -270q18 -43 -11 -85q-25 -37 -56 -29q-22 8 -36 38q-77 170 -174 291q-19 27 -17 55.5t19 54.5q32 48 106 124.5t99 107.5q12 16 44.5 63t58 79t53.5 59z" />
    <glyph glyph-name="logicalnot" unicode="&#xac;" horiz-adv-x="1011" 
d="M94 643q-37 0 -48.5 39.5t9.5 79t62 39.5q84 0 368 11.5t437 2.5q25 0 38.5 -27t8.5 -60.5t-27 -51.5q-83 -64 -86 -197q-1 -56 -43 -80q-37 -20 -61 3q-18 16 -17 49q0 122 39 213q-118 1 -346 -10t-334 -11z" />
    <glyph glyph-name="uni00AD" unicode="&#xad;" horiz-adv-x="667" 
d="M106 578q-53 0 -63 38q-9 35 23 62q26 20 63 20h430q54 0 65 -38q10 -34 -22 -61q-25 -21 -61 -21h-435z" />
    <glyph glyph-name="registered" unicode="&#xae;" horiz-adv-x="1288" 
d="M1057 614q25 63 30.5 135.5t-7 141.5t-41.5 135t-69.5 119.5t-95.5 91t-116 53t-133 2t-144 -58.5q-95 -47 -152.5 -143t-78.5 -213q-17 -78 -8 -161t34.5 -153t82.5 -121.5t135 -66.5q57 -9 120 -10t131 16.5t127.5 45t109 76.5t75.5 111zM1225 836q-6 -163 -89 -304
t-233 -223q-111 -62 -237.5 -84.5t-246 4t-192.5 105.5q-64 69 -95 174t-28 220t40.5 233.5t102.5 215t166.5 163.5t223.5 81q105 24 196 5t165 -77t126 -138t78.5 -178t22.5 -197zM739 942q-26 71 -131 78q-6 -70 -30 -215q30 6 60 17t57.5 28t40.5 41t3 51zM895 969
q-8 -134 -154 -215q44 -50 72 -131q11 -37 -24 -67t-72.5 -29t-52.5 32q-33 83 -74 129q-7 -1 -19 -4l-16 -4q-4 -14 -7 -29.5t-6 -34.5t-5 -30q-7 -40 -55 -67q-47 -26 -74 -7q-19 14 -13 49q2 10 12 58.5t13 62t11 56t11 62t9 56t8.5 61t5.5 55.5t4 60q-11 16 -4 37
q7 19 16 29q21 40 67 59t62 -10q72 4 135.5 -9t110 -56.5t39.5 -112.5z" />
    <glyph glyph-name="macron" unicode="&#xaf;" horiz-adv-x="735" 
d="M199 1440q-29 -5 -44 22t-8 57.5t33 36.5q65 12 144.5 17.5t126 6t150 -2t132.5 -2.5q17 0 28 -12t13 -29.5t-1.5 -34.5t-16 -29t-29.5 -12q-40 0 -129.5 1.5t-140 1.5t-124 -5t-134.5 -16z" />
    <glyph glyph-name="degree" unicode="&#xb0;" horiz-adv-x="686" 
d="M328 817h-13h-4q-132 4 -172 120q-37 105 13 245q50 139 151 214q106 79 225 46q101 -27 148.5 -125.5t17.5 -210.5q-36 -128 -134.5 -204.5t-231.5 -84.5zM508 1284q-89 31 -172 -45q-66 -59 -83 -140q-18 -82 35 -112q19 -10 46 -12q80 3 146.5 39t92.5 108
q19 52 0 97.5t-65 64.5z" />
    <glyph glyph-name="plusminus" unicode="&#xb1;" horiz-adv-x="970" 
d="M453 635q-163 7 -293 35q-52 14 -41 56q10 36 51 57q31 16 61 8q122 -25 240 -31q7 41 25 143t28 156q7 44 58 76q48 31 74 14q17 -11 12 -43q-10 -57 -31 -172.5t-31 -173.5q82 4 262 16q56 3 60 -35q3 -34 -34 -64q-27 -22 -60 -24q-37 -2 -118.5 -7t-125.5 -7
q-15 -95 -29 -221q-5 -45 -54 -77q-45 -30 -72 -13q-18 11 -15 45q7 73 33 262zM827 262q47 4 49 -37q1 -41 -35 -81q-27 -30 -57 -33q-422 -29 -694 -29q-47 0 -48 42t34 78q26 27 55 27q291 5 696 33z" />
    <glyph glyph-name="acute" unicode="&#xb4;" horiz-adv-x="552" 
d="M229 1264q-48 -21 -84 9q-31 26 -18 59q11 24 43 38q18 8 38 23t31.5 25t34.5 33t29 28q11 9 38 32.5t41 35t36.5 29t42.5 30.5q79 24 114 -4q21 -19 16 -46.5t-30 -39.5q-39 -22 -84 -60.5t-78.5 -71.5t-79.5 -67.5t-90 -52.5z" />
    <glyph glyph-name="mu" unicode="&#xb5;" horiz-adv-x="1171" 
d="M971 963q8 52 47 59q35 6 56 -26q18 -27 11 -64q-21 -118 -94 -457q9 -24 -14 -63q-4 -5 -4 -9q-8 -35 -80 -352q-9 -45 -42 -55.5t-57.5 17t-15.5 73.5q5 21 14 64.5t13 62.5q-85 -80 -182.5 -129t-190.5 -49q-147 -5 -209 125q-21 -91 -45 -209q-4 -26 -9.5 -52
t-16 -68.5t-23 -77t-29.5 -73t-38.5 -61.5t-46 -37t-56 -5.5t-65.5 38.5q-22 26 -12 54.5t43 49t63 13.5q2 4 2 10q7 18 28 104q14 81 43 203q15 74 62.5 268t71 334.5t24.5 274.5q0 42 48 72q47 29 78 12q19 -10 20 -37q19 -7 28 -27.5t2 -50.5q-22 -86 -30 -117
t-24.5 -112.5t-20.5 -129.5t-3 -114t13 -121q16 -58 51 -90t84 -25q60 4 117 33t123 78q65 54 100 94q17 12 45 49q3 2 5.5 4.5t4 4.5t2.5 2q11 53 35.5 160.5t42 191t31.5 160.5z" />
    <glyph glyph-name="mu" unicode="&#x3bc;" horiz-adv-x="1171" 
d="M971 963q8 52 47 59q35 6 56 -26q18 -27 11 -64q-21 -118 -94 -457q9 -24 -14 -63q-4 -5 -4 -9q-8 -35 -80 -352q-9 -45 -42 -55.5t-57.5 17t-15.5 73.5q5 21 14 64.5t13 62.5q-85 -80 -182.5 -129t-190.5 -49q-147 -5 -209 125q-21 -91 -45 -209q-4 -26 -9.5 -52
t-16 -68.5t-23 -77t-29.5 -73t-38.5 -61.5t-46 -37t-56 -5.5t-65.5 38.5q-22 26 -12 54.5t43 49t63 13.5q2 4 2 10q7 18 28 104q14 81 43 203q15 74 62.5 268t71 334.5t24.5 274.5q0 42 48 72q47 29 78 12q19 -10 20 -37q19 -7 28 -27.5t2 -50.5q-22 -86 -30 -117
t-24.5 -112.5t-20.5 -129.5t-3 -114t13 -121q16 -58 51 -90t84 -25q60 4 117 33t123 78q65 54 100 94q17 12 45 49q3 2 5.5 4.5t4 4.5t2.5 2q11 53 35.5 160.5t42 191t31.5 160.5z" />
    <glyph glyph-name="paragraph" unicode="&#xb6;" horiz-adv-x="985" 
d="M786 1401q8 42 61 68q52 24 81 6q19 -11 14 -39q-46 -263 -138 -787.5t-138 -787.5q-8 -42 -62 -68q-52 -24 -80 -6q-19 11 -14 39q46 263 138 787.5t138 787.5zM535 909q12 -9 6 -30.5t-25 -42.5q-24 -133 -86 -467t-94 -514q-10 -54 -51 -65q-37 -11 -59 18
q-17 22 -11 55q31 182 95.5 522t76.5 403q-51 9 -100 37q-88 50 -123.5 152.5t-3.5 220.5q33 132 135 210.5t219 64.5q9 47 42 61t59 -8.5t18 -65.5q-7 -42 -42 -242.5t-56 -308.5z" />
    <glyph glyph-name="middot" unicode="&#xb7;" horiz-adv-x="677" 
d="M414 709q17 -13 17 -37t-17 -41q-23 -23 -56.5 -26.5t-60.5 11.5q-32 20 -45 57t6 70q17 26 49.5 35.5t61.5 -0.5q22 -7 37 -27t8 -42z" />
    <glyph glyph-name="cedilla" unicode="&#xb8;" horiz-adv-x="468" 
d="M129 121l123 -19l-41 -161q65 -10 100 -54q27 -36 33 -80t-12 -86q-42 -84 -130.5 -140t-185.5 -62q-40 -4 -64 41q-23 43 -6 74q9 18 31 20q10 1 40.5 3t39.5 3.5t31.5 6t34 11.5t28 19t31.5 29q40 51 12 73.5t-85 10.5q-39 -4 -54 44.5t6 73.5q10 15 36.5 98.5
t31.5 94.5z" />
    <glyph glyph-name="guillemotright" unicode="&#xbb;" horiz-adv-x="917" 
d="M510 586q9 -17 4.5 -33.5t-16.5 -28.5q-65 -79 -206.5 -214t-160.5 -154q-20 -23 -48.5 -33t-55.5 0q-24 12 -26.5 40t15.5 46q38 40 157.5 154t178.5 182q-39 66 -99 190.5t-81 163.5q-9 21 -3 42t26 35t42 21t43.5 0.5t32.5 -26.5q20 -37 86 -176t111 -209zM823 719
q1 -1 13.5 -22t14.5 -26t11.5 -23t10 -27t3 -23.5t-1.5 -26.5t-12 -24q-40 -67 -95.5 -132t-141 -151.5t-113.5 -116.5q-18 -21 -39.5 -27.5t-37 1t-25.5 22t-6.5 37t22.5 43.5q30 34 96.5 104.5t117 127t91.5 110.5q0 4 -2 8q-8 15 -27 49t-28 52q-51 88 -133 219
q-19 31 4.5 69.5t58 46.5t60.5 -24q89 -142 159 -266z" />
    <glyph glyph-name="questiondown" unicode="&#xbf;" horiz-adv-x="739" 
d="M219 -449q-76 3 -142.5 34t-111 90.5t-45.5 136.5q-6 108 43 214t131 199q30 33 93.5 94.5t104 103.5t79.5 106t49 126q12 53 54 50q35 -3 57 -40q15 -29 10 -59q-14 -76 -52.5 -146t-90.5 -128.5t-105 -112t-109 -118.5t-90 -126q-23 -42 -35.5 -80.5t-14 -79t25.5 -69
t82 -37.5q153 -18 290 58q3 19 16.5 28.5t33.5 5.5q10 0 14 -2q28 -6 46.5 -30.5t18.5 -53.5q0 -45 -41 -79.5t-100.5 -52t-115 -26t-95.5 -6.5zM627 952q-19 -42 -64 -59t-80 16q-31 40 -18 84q6 28 31.5 48t54.5 22q32 0 43 -16q1 -1 8 -15q23 -10 31 -26q6 -19 -6 -54z
" />
    <glyph glyph-name="Agrave" unicode="&#xc0;" horiz-adv-x="1118" 
d="M336 530q64 5 128.5 7.5t170 3t129.5 0.5q-57 312 -80 608q-142 -258 -348 -619zM907 426q27 -132 76 -334q13 -44 -10.5 -71t-57 -17t-45.5 55q-47 182 -82 361q-28 0 -128 -0.5t-145 -1.5t-120.5 -7t-136.5 -18q-39 -67 -109 -190.5t-100 -175.5q-27 -49 -67 -38
q-31 9 -40 45q-9 31 9 62q33 59 98 175.5t98 174.5q-11 47 35 60q376 659 490 872q1 28 15 42t34 14q28 9 51.5 -15t20.5 -59v-4q14 -384 92 -809h6q33 2 60.5 -10t37.5 -39q12 -25 -4 -46.5t-43 -23.5q-6 0 -17.5 -1t-17.5 -1zM461 1802q-22 20 -26 52.5t11 60.5
q14 23 37.5 31.5t48.5 -11.5q18 -18 54 -55.5t58 -60.5t55.5 -51.5t64.5 -47.5q27 -14 36.5 -42t2.5 -56q-9 -28 -33.5 -47.5t-48.5 -5.5q-24 15 -49 33.5t-43.5 34t-44.5 40.5t-39.5 39t-43 44.5t-40.5 41.5z" />
    <glyph glyph-name="Aacute" unicode="&#xc1;" horiz-adv-x="1118" 
d="M336 530q64 5 128.5 7.5t170 3t129.5 0.5q-57 312 -80 608q-142 -258 -348 -619zM907 426q27 -132 76 -334q13 -44 -10.5 -71t-57 -17t-45.5 55q-47 182 -82 361q-28 0 -128 -0.5t-145 -1.5t-120.5 -7t-136.5 -18q-39 -67 -109 -190.5t-100 -175.5q-27 -49 -67 -38
q-31 9 -40 45q-9 31 9 62q33 59 98 175.5t98 174.5q-11 47 35 60q376 659 490 872q1 28 15 42t34 14q28 9 51.5 -15t20.5 -59v-4q14 -384 92 -809h6q33 2 60.5 -10t37.5 -39q12 -25 -4 -46.5t-43 -23.5q-6 0 -17.5 -1t-17.5 -1zM840 1579q-48 -21 -84 9q-31 26 -19 59
q9 25 43 39q18 8 38.5 23t30.5 24t35.5 33.5t28.5 27.5q11 9 38 32.5t41 35t36.5 29t42.5 30.5q80 25 115 -4q21 -19 15.5 -46.5t-30.5 -39.5q-49 -27 -106 -80.5t-113 -101t-112 -70.5z" />
    <glyph glyph-name="Acircumflex" unicode="&#xc2;" horiz-adv-x="1118" 
d="M336 530q64 5 128.5 7.5t170 3t129.5 0.5q-57 312 -80 608q-142 -258 -348 -619zM907 426q27 -132 76 -334q13 -44 -10.5 -71t-57 -17t-45.5 55q-47 182 -82 361q-28 0 -128 -0.5t-145 -1.5t-120.5 -7t-136.5 -18q-39 -67 -109 -190.5t-100 -175.5q-27 -49 -67 -38
q-31 9 -40 45q-9 31 9 62q33 59 98 175.5t98 174.5q-11 47 35 60q376 659 490 872q1 28 15 42t34 14q28 9 51.5 -15t20.5 -59v-4q14 -384 92 -809h6q33 2 60.5 -10t37.5 -39q12 -25 -4 -46.5t-43 -23.5q-6 0 -17.5 -1t-17.5 -1zM590 1569q-27 -29 -81 -13q-46 13 -56 42
q-7 22 14 42q23 20 87 81t110 94q44 36 82.5 48t69.5 1t52 -26.5t43 -41.5q8 -10 37 -48t52 -63t47 -43q20 -16 23.5 -38.5t-15.5 -38.5q-23 -19 -52 -17.5t-51 17.5q-109 78 -170 186q-5 -13 -24 -29q-89 -73 -168 -153z" />
    <glyph glyph-name="Atilde" unicode="&#xc3;" horiz-adv-x="1118" 
d="M336 530q64 5 128.5 7.5t170 3t129.5 0.5q-57 312 -80 608q-142 -258 -348 -619zM907 426q27 -132 76 -334q13 -44 -10.5 -71t-57 -17t-45.5 55q-47 182 -82 361q-28 0 -128 -0.5t-145 -1.5t-120.5 -7t-136.5 -18q-39 -67 -109 -190.5t-100 -175.5q-27 -49 -67 -38
q-31 9 -40 45q-9 31 9 62q33 59 98 175.5t98 174.5q-11 47 35 60q376 659 490 872q1 28 15 42t34 14q28 9 51.5 -15t20.5 -59v-4q14 -384 92 -809h6q33 2 60.5 -10t37.5 -39q12 -25 -4 -46.5t-43 -23.5q-6 0 -17.5 -1t-17.5 -1zM537 1624q-33 -44 -73 -29q-32 13 -34 51
q-1 29 21 58q4 5 17.5 23t19 24.5t18.5 21.5t21 21l22 16.5t26.5 15t29 8.5t34.5 5q37 1 72.5 -15.5t59 -37t54 -38t58.5 -17.5q16 0 28 10t31.5 35.5t30.5 38.5q18 20 39.5 26.5t37.5 -1.5t26.5 -22t7 -37t-22.5 -46q-3 -4 -16.5 -20t-17.5 -20.5t-16.5 -18.5t-18.5 -18.5
t-18 -15t-21 -14t-21 -9t-24.5 -7.5t-26.5 -2q-39 0 -72 15.5t-52.5 34t-46 35.5t-53.5 19q-9 1 -17 0t-16 -4.5t-14 -6t-14 -9.5l-12 -10.5t-12 -14t-11 -14t-12.5 -16t-11.5 -15.5z" />
    <glyph glyph-name="Adieresis" unicode="&#xc4;" horiz-adv-x="1118" 
d="M336 530q64 5 128.5 7.5t170 3t129.5 0.5q-57 312 -80 608q-142 -258 -348 -619zM907 426q27 -132 76 -334q13 -44 -10.5 -71t-57 -17t-45.5 55q-47 182 -82 361q-28 0 -128 -0.5t-145 -1.5t-120.5 -7t-136.5 -18q-39 -67 -109 -190.5t-100 -175.5q-27 -49 -67 -38
q-31 9 -40 45q-9 31 9 62q33 59 98 175.5t98 174.5q-11 47 35 60q376 659 490 872q1 28 15 42t34 14q28 9 51.5 -15t20.5 -59v-4q14 -384 92 -809h6q33 2 60.5 -10t37.5 -39q12 -25 -4 -46.5t-43 -23.5q-6 0 -17.5 -1t-17.5 -1zM635 1671q17 -13 17 -37t-17 -41
q-23 -23 -56.5 -26.5t-60.5 12.5q-32 20 -45 57t6 70q17 26 49.5 35.5t61.5 -0.5q22 -7 37 -27.5t8 -42.5zM1004 1671q17 -13 17 -37t-17 -41q-23 -23 -56.5 -26.5t-60.5 12.5q-32 20 -45 57t6 70q17 26 49 35.5t61 -0.5q22 -7 37.5 -27.5t8.5 -42.5z" />
    <glyph glyph-name="Aring" unicode="&#xc5;" horiz-adv-x="1118" 
d="M907 426q27 -132 76 -334q13 -44 -10.5 -71t-57 -17t-45.5 55q-47 182 -82 361q-28 0 -128 -0.5t-145 -1.5t-120.5 -7t-136.5 -18q-39 -67 -109 -190.5t-100 -175.5q-27 -49 -67 -38q-31 9 -40 45q-9 31 9 62l196 350q-11 47 35 60q351 615 457 813q-62 52 -82.5 135
t18.5 162q3 41 33 65q62 51 128.5 77t131.5 15t101 -69q32 -47 40 -108t-15 -127t-76 -115q-59 -56 -121 -72q17 -351 88 -735h6q33 2 60.5 -10t37.5 -39q12 -25 -4 -46.5t-43 -23.5q-6 0 -17.5 -1t-17.5 -1zM336 530q64 5 128.5 7.5t170 3t129.5 0.5q-57 312 -80 608
q-142 -258 -348 -619zM715 1606q-60 -25 -56 -62q7 -57 41 -84q10 -12 33 -24q20 0 35 -15q71 -15 113 41q27 43 19.5 84t-38.5 66q-46 40 -117 16q-6 -10 -30 -22z" />
    <glyph glyph-name="AE" unicode="&#xc6;" horiz-adv-x="1658" 
d="M1012 717h-11q-114 -466 -139 -561q67 1 288.5 10t342.5 4q36 0 53.5 -36.5t5 -72.5t-50.5 -36q-130 3 -388 -9.5t-388 -9.5q-21 1 -36.5 16.5t-20.5 38t-2.5 44.5t17.5 37.5t38 15.5q3 0 10.5 -1t11.5 -1q42 155 80 319q-108 0 -158 -1t-138 -12t-158 -34q-2 -2 -9 -2
q-11 -14 -59.5 -80t-68.5 -91.5t-59.5 -76t-73 -89t-68.5 -75.5q-28 -29 -64.5 -22.5t-45 35t21.5 63.5q48 50 102 116.5t82.5 103.5t98 131.5t83.5 113.5q3 9 8 14q73 90 154 195q4 5 32.5 38.5t35 41t32 37t35 41.5t31 38.5t33.5 42.5t29.5 39t32 43t28.5 41
q25 30 105 146.5t134 163.5q35 21 68 18l14 16q33 30 59 10.5t29 -61.5q267 0 484 19q55 6 66 -33q9 -33 -22 -62q-19 -19 -48 -22q-196 -18 -521 -18q-2 -7 -4 -24t-4 -22q-4 -39 -22 -124q-20 -124 -68 -304q237 -15 385 15q45 10 83 -27q32 -32 18 -57q-10 -17 -39 -21
q-103 -24 -232.5 -27t-232.5 5zM860 618l62 259q57 190 86 370l4 23l-49 -80q-13 -16 -59.5 -80t-76.5 -96q-99 -133 -278 -340l-49 -62q90 11 342 11q3 0 18 -5z" />
    <glyph glyph-name="Ccedilla" unicode="&#xc7;" horiz-adv-x="966" 
d="M1026 1405q15 -11 19.5 -31t-1.5 -40t-18.5 -37.5t-31 -22t-38.5 5.5q-59 41 -131.5 44.5t-143 -24t-130 -65t-113.5 -84.5q-206 -174 -241 -444q-5 -53 -5.5 -105t6.5 -116t22.5 -117t47 -101t76.5 -75q65 -41 153 -53.5t174.5 8.5t141.5 75q24 14 46 6t32 -28
q14 -56 -29 -99q-57 -54 -145 -83t-185 -29l-20 -49q65 -10 100 -54q27 -36 33 -80t-12 -86q-42 -84 -130.5 -140t-185.5 -62q-40 -4 -64 41q-22 43 -6 74q10 18 32 20q153 14 233 121q18 5 18 20q-35 19 -120 15q-39 -4 -54 44.5t6 73.5q34 51 48 80q-83 16 -142 66
q-63 49 -105.5 126.5t-58.5 160.5t-20.5 173t8.5 164q46 375 316 580q69 54 139.5 94t153 67.5t167.5 20t158 -54.5z" />
    <glyph glyph-name="Egrave" unicode="&#xc8;" horiz-adv-x="1015" 
d="M1047 1448q49 2 51 -37q1 -38 -35 -71q-27 -24 -55 -25q-267 -6 -535 -6q-49 -320 -82 -500q127 -1 151.5 -1t151 6t150.5 7q51 1 73 -39q21 -35 -3 -62q-17 -19 -52 -20q-52 -1 -164 -6.5t-163.5 -6.5t-163.5 3q-53 -282 -117 -561q-2 -2 -2 -6q88 -11 192 -11t181 5
t196 16q47 4 65.5 -25.5t-0.5 -61.5t-63 -36q-137 -13 -238 -19t-225.5 -2.5t-236.5 21.5q-28 4 -37 30.5t4 49.5q5 8 16 16q32 93 133 661.5t99 598.5q3 25 27 45.5t53 26.5q12 6 28 6q400 0 601 4zM502 1837q-22 20 -26 52.5t11 60.5q14 23 37.5 31.5t48.5 -11.5
q18 -18 54 -55.5t58 -60.5t55.5 -51.5t64.5 -47.5q27 -14 36.5 -42t2.5 -56q-9 -28 -33.5 -47.5t-48.5 -5.5q-24 15 -49 33.5t-43.5 34t-44.5 40.5t-39.5 39t-43 44.5t-40.5 41.5z" />
    <glyph glyph-name="Eacute" unicode="&#xc9;" horiz-adv-x="1015" 
d="M1047 1448q49 2 51 -37q1 -38 -35 -71q-27 -24 -55 -25q-267 -6 -535 -6q-49 -320 -82 -500q127 -1 151.5 -1t151 6t150.5 7q51 1 73 -39q21 -35 -3 -62q-17 -19 -52 -20q-52 -1 -164 -6.5t-163.5 -6.5t-163.5 3q-53 -282 -117 -561q-2 -2 -2 -6q88 -11 192 -11t181 5
t196 16q47 4 65.5 -25.5t-0.5 -61.5t-63 -36q-137 -13 -238 -19t-225.5 -2.5t-236.5 21.5q-28 4 -37 30.5t4 49.5q5 8 16 16q32 93 133 661.5t99 598.5q3 25 27 45.5t53 26.5q12 6 28 6q400 0 601 4zM653 1604q-48 -21 -84 9q-31 26 -18 59q11 24 43 38q18 8 38 23t31.5 25
t34.5 33t29 28q11 9 38 32.5t41 35t36.5 29t42.5 30.5q79 24 114 -4q21 -19 16 -47t-30 -40q-48 -27 -105.5 -80t-114 -100.5t-112.5 -70.5z" />
    <glyph glyph-name="Ecircumflex" unicode="&#xca;" horiz-adv-x="1015" 
d="M1047 1448q49 2 51 -37q1 -38 -35 -71q-27 -24 -55 -25q-267 -6 -535 -6q-49 -320 -82 -500q127 -1 151.5 -1t151 6t150.5 7q51 1 73 -39q21 -35 -3 -62q-17 -19 -52 -20q-52 -1 -164 -6.5t-163.5 -6.5t-163.5 3q-53 -282 -117 -561q-2 -2 -2 -6q88 -11 192 -11t181 5
t196 16q47 4 65.5 -25.5t-0.5 -61.5t-63 -36q-137 -13 -238 -19t-225.5 -2.5t-236.5 21.5q-28 4 -37 30.5t4 49.5q5 8 16 16q32 93 133 661.5t99 598.5q3 25 27 45.5t53 26.5q12 6 28 6q400 0 601 4zM598 1622q-27 -29 -81 -13q-46 14 -56 43q-5 22 14 42q22 19 86.5 80
t110.5 94q44 36 83 48t70 1t52 -26.5t43 -41.5q9 -10 37.5 -47.5t51 -62.5t46.5 -43q20 -16 23.5 -39t-15.5 -39q-23 -19 -51.5 -17.5t-50.5 17.5q-109 78 -170 186q-4 -11 -25 -28q-83 -69 -168 -154z" />
    <glyph glyph-name="Edieresis" unicode="&#xcb;" horiz-adv-x="1015" 
d="M1047 1448q49 2 51 -37q1 -38 -35 -71q-27 -24 -55 -25q-267 -6 -535 -6q-49 -320 -82 -500q127 -1 151.5 -1t151 6t150.5 7q51 1 73 -39q21 -35 -3 -62q-17 -19 -52 -20q-52 -1 -164 -6.5t-163.5 -6.5t-163.5 3q-53 -282 -117 -561q-2 -2 -2 -6q88 -11 192 -11t181 5
t196 16q47 4 65.5 -25.5t-0.5 -61.5t-63 -36q-137 -13 -238 -19t-225.5 -2.5t-236.5 21.5q-28 4 -37 30.5t4 49.5q5 8 16 16q32 93 133 661.5t99 598.5q3 25 27 45.5t53 26.5q12 6 28 6q400 0 601 4zM631 1710q17 -13 17 -37t-17 -41q-23 -23 -56.5 -26.5t-60.5 12.5
q-32 20 -45 57t6 70q17 26 49.5 35.5t61.5 -0.5q22 -7 37 -27.5t8 -42.5zM999 1710q17 -13 17 -37t-17 -41q-23 -23 -56 -26.5t-60 12.5q-32 20 -45 57t6 70q17 26 49 35.5t61 -0.5q22 -7 37 -27.5t8 -42.5z" />
    <glyph glyph-name="Igrave" unicode="&#xcc;" horiz-adv-x="540" 
d="M342 1376q6 35 47 49t78 -2t31 -55q-118 -716 -260 -1307q-8 -39 -60 -50q-50 -11 -80 14q-21 18 -14 47q129 544 258 1304zM186 1823q-22 20 -25.5 52t11.5 60q14 24 37.5 32.5t48.5 -11.5q13 -13 66 -69.5t89 -88.5t76 -57q27 -14 36.5 -42.5t2.5 -56.5
q-9 -28 -33.5 -47.5t-48.5 -5.5q-29 17 -55.5 37t-57 49t-46.5 44t-53.5 54.5t-47.5 49.5z" />
    <glyph glyph-name="Iacute" unicode="&#xcd;" horiz-adv-x="540" 
d="M342 1376q6 35 47 49t78 -2t31 -55q-118 -716 -260 -1307q-8 -39 -60 -50q-50 -11 -80 14q-21 18 -14 47q129 544 258 1304zM481 1604q-48 -21 -84 9q-31 26 -18 59q11 24 43 38q18 8 38 23t31.5 25t34.5 33t29 28q11 9 38 32.5t41 35t36.5 29t42.5 30.5q79 24 114 -4
q21 -19 16 -47t-30 -40q-48 -27 -105.5 -80t-114 -100.5t-112.5 -70.5z" />
    <glyph glyph-name="Icircumflex" unicode="&#xce;" horiz-adv-x="540" 
d="M342 1376q6 35 47 49t78 -2t31 -55q-118 -716 -260 -1307q-8 -39 -60 -50q-50 -11 -80 14q-21 18 -14 47q129 544 258 1304zM297 1602q-27 -29 -81 -13q-46 13 -56 42q-7 22 14 42q22 19 86.5 80t110.5 94q44 36 82.5 48t69.5 1.5t52 -26t43 -41.5q8 -10 37 -48t52 -63
t47 -43q20 -16 23.5 -39t-15.5 -39q-23 -19 -52 -17.5t-51 17.5q-108 78 -170 187q-5 -13 -24 -29q-89 -74 -168 -153z" />
    <glyph glyph-name="Idieresis" unicode="&#xcf;" horiz-adv-x="540" 
d="M342 1376q6 35 47 49t78 -2t31 -55q-118 -716 -260 -1307q-8 -39 -60 -50q-50 -11 -80 14q-21 18 -14 47q129 544 258 1304zM350 1686q17 -14 17 -37.5t-17 -40.5q-23 -23 -56.5 -26.5t-60.5 11.5q-32 20 -44.5 57t6.5 70q17 26 49 35.5t61 -0.5q22 -7 37 -27t8 -42z
M719 1686q17 -14 17 -37.5t-17 -40.5q-23 -23 -56.5 -26.5t-60.5 11.5q-32 20 -45 57t6 70q17 26 49.5 35.5t61.5 -0.5q22 -7 37 -27t8 -42z" />
    <glyph glyph-name="Eth" unicode="&#xd0;" horiz-adv-x="1357" 
d="M109 682q-55 -8 -64 36q-9 40 21 77q21 23 47 28q91 14 192 17l92 454q-23 12 -37.5 29.5t-13 37.5t24.5 34q54 33 126.5 49.5t122.5 19t136 2.5q233 -4 366 -94q73 -53 119 -133t62 -170.5t12.5 -181.5t-25.5 -180q-105 -411 -366 -580q-284 -189 -713 -121
q-50 7 -69 49q-17 38 9 60q15 11 37 12q-7 21 -4 47q35 211 97 522q-95 -3 -172 -14zM516 1290l-86 -448q184 -4 279 -4q45 -1 47 -45q3 -42 -31 -78q-24 -25 -51 -25q-3 0 -273 6q-17 -90 -50 -270t-50 -270q-3 -25 -12 -37q317 -31 522 110q217 152 303 451
q22 71 34 142.5t13.5 152.5t-22.5 154.5t-74 123.5q-49 48 -113.5 66t-152.5 22q-8 0 -43.5 0.5t-50 0t-46 -2t-51 -5t-44 -10t-44.5 -15.5q0 -7 -4 -19z" />
    <glyph glyph-name="Ntilde" unicode="&#xd1;" horiz-adv-x="1353" 
d="M1192 1370q9 52 47 51q34 -1 58 -38q20 -30 14 -62q-82 -481 -279 -1290q-13 -53 -55 -50q-36 4 -57 40q-16 28 -9 57q1 3 2 8.5t2 7.5q-108 202 -283.5 590t-221.5 483q-129 -587 -203 -1071q-5 -31 -21.5 -55t-44.5 -27q-28 -1 -44 23t-13 51q112 686 256 1315
q12 45 45 56t57 -16t15 -73q-4 -12 -4 -16v-4q87 -172 250 -535.5t255 -544.5q160 662 234 1100zM684 1577q-33 -44 -73 -29q-32 13 -34 51q-1 29 21 58q4 5 17.5 23t19 24.5t18.5 21.5t21 21l22 16.5t26.5 15t29 8.5t34.5 5q37 1 72.5 -15.5t59 -37.5t54 -38.5t58.5 -17.5
q16 0 28 10t31.5 35.5t30.5 38.5q18 20 39.5 26.5t37.5 -1t26.5 -22t7 -37t-22.5 -45.5q-3 -4 -16.5 -20t-17.5 -20.5t-16.5 -18.5t-18.5 -18.5t-18 -15t-21 -14t-21 -9t-24.5 -7.5t-26.5 -2q-39 0 -72 15.5t-52 34t-45.5 35.5t-53.5 19q-26 2 -50 -13.5t-33.5 -27
t-37.5 -49.5z" />
    <glyph glyph-name="Ograve" unicode="&#xd2;" horiz-adv-x="1251" 
d="M82 610q0 76 7.5 150.5t24 156t47.5 155t73.5 139.5t106.5 117.5t142 80.5q64 28 126.5 46.5t134 25.5t133 -3t120 -46t97.5 -97q56 -87 85.5 -201t29 -224t-18.5 -220q-30 -152 -118 -293t-212 -247q-41 -36 -84 -66.5t-97 -60t-105.5 -43.5t-109.5 -17t-108 19
q-269 104 -274 610v18zM516 1264q-92 -51 -149.5 -105t-94.5 -131t-55 -188q-23 -118 -18 -259.5t43 -256.5q51 -160 155 -191q49 -18 104.5 -10.5t102.5 24.5t97 50.5t88.5 66.5t76.5 72q236 254 215 600q-13 262 -137 346q-47 31 -102 42.5t-113 3t-107 -24t-106 -39.5z
M537 1835q-22 20 -26 52.5t11 60.5q14 23 37.5 31.5t48.5 -11.5q18 -18 54 -55.5t58 -60.5t55.5 -51.5t64.5 -47.5q27 -14 36.5 -42t2.5 -56q-9 -28 -33.5 -47.5t-48.5 -5.5q-24 15 -49 33.5t-43.5 34t-44.5 40.5t-39.5 39t-43 44.5t-40.5 41.5z" />
    <glyph glyph-name="Oacute" unicode="&#xd3;" horiz-adv-x="1251" 
d="M82 610q0 76 7.5 150.5t24 156t47.5 155t73.5 139.5t106.5 117.5t142 80.5q64 28 126.5 46.5t134 25.5t133 -3t120 -46t97.5 -97q56 -87 85.5 -201t29 -224t-18.5 -220q-30 -152 -118 -293t-212 -247q-41 -36 -84 -66.5t-97 -60t-105.5 -43.5t-109.5 -17t-108 19
q-269 104 -274 610v18zM516 1264q-92 -51 -149.5 -105t-94.5 -131t-55 -188q-23 -118 -18 -259.5t43 -256.5q51 -160 155 -191q49 -18 104.5 -10.5t102.5 24.5t97 50.5t88.5 66.5t76.5 72q236 254 215 600q-13 262 -137 346q-47 31 -102 42.5t-113 3t-107 -24t-106 -39.5z
M748 1606q-48 -21 -84 9q-32 26 -18 59q10 24 42 38q18 8 38 23t31.5 25t34.5 33t29 28q11 9 38 32.5t41 35t36.5 29t42.5 30.5q80 25 115 -4q21 -19 15.5 -46.5t-30.5 -39.5q-49 -27 -106 -80.5t-113 -101t-112 -70.5z" />
    <glyph glyph-name="Ocircumflex" unicode="&#xd4;" horiz-adv-x="1251" 
d="M82 610q0 76 7.5 150.5t24 156t47.5 155t73.5 139.5t106.5 117.5t142 80.5q64 28 126.5 46.5t134 25.5t133 -3t120 -46t97.5 -97q56 -87 85.5 -201t29 -224t-18.5 -220q-30 -152 -118 -293t-212 -247q-41 -36 -84 -66.5t-97 -60t-105.5 -43.5t-109.5 -17t-108 19
q-269 104 -274 610v18zM516 1264q-92 -51 -149.5 -105t-94.5 -131t-55 -188q-23 -118 -18 -259.5t43 -256.5q51 -160 155 -191q49 -18 104.5 -10.5t102.5 24.5t97 50.5t88.5 66.5t76.5 72q236 254 215 600q-13 262 -137 346q-47 31 -102 42.5t-113 3t-107 -24t-106 -39.5z
M688 1624q-27 -29 -81 -13q-46 14 -56 43q-5 22 14 42q22 19 86.5 80t110.5 94q44 36 83 48t70 1t52 -26.5t43 -41.5q9 -10 37.5 -47.5t51 -62.5t46.5 -43q20 -16 23.5 -39t-15.5 -39q-23 -19 -51.5 -17.5t-50.5 17.5q-109 78 -170 186q-4 -11 -25 -28q-83 -69 -168 -154z
" />
    <glyph glyph-name="Otilde" unicode="&#xd5;" horiz-adv-x="1251" 
d="M82 610q0 76 7.5 150.5t24 156t47.5 155t73.5 139.5t106.5 117.5t142 80.5q64 28 126.5 46.5t134 25.5t133 -3t120 -46t97.5 -97q56 -87 85.5 -201t29 -224t-18.5 -220q-30 -152 -118 -293t-212 -247q-41 -36 -84 -66.5t-97 -60t-105.5 -43.5t-109.5 -17t-108 19
q-269 104 -274 610v18zM516 1264q-92 -51 -149.5 -105t-94.5 -131t-55 -188q-23 -118 -18 -259.5t43 -256.5q51 -160 155 -191q49 -18 104.5 -10.5t102.5 24.5t97 50.5t88.5 66.5t76.5 72q236 254 215 600q-13 262 -137 346q-47 31 -102 42.5t-113 3t-107 -24t-106 -39.5z
M629 1642q-33 -44 -73 -29q-32 13 -34 51q-1 29 21 58q5 6 18 23.5t18.5 24.5t18.5 21.5t21 21t22 17t26.5 15t29 8.5t34.5 5q37 1 72.5 -15.5t59 -37.5t54 -38.5t58.5 -17.5q16 0 28 10t31.5 35.5t30.5 38.5q18 20 39.5 26.5t37.5 -1.5t26.5 -22t7 -37t-22.5 -46
q-3 -4 -16.5 -20t-17.5 -20.5t-16.5 -18.5t-18.5 -18.5t-18 -15t-21 -14t-21 -9t-24.5 -7.5t-26.5 -2q-39 0 -72 15.5t-52 34.5t-45.5 36t-53.5 19q-9 1 -17 0t-16.5 -4.5t-14 -6t-13.5 -10t-12 -10.5t-12.5 -14t-11 -14t-12.5 -16t-12 -16z" />
    <glyph glyph-name="Odieresis" unicode="&#xd6;" horiz-adv-x="1251" 
d="M82 610q0 76 7.5 150.5t24 156t47.5 155t73.5 139.5t106.5 117.5t142 80.5q64 28 126.5 46.5t134 25.5t133 -3t120 -46t97.5 -97q56 -87 85.5 -201t29 -224t-18.5 -220q-30 -152 -118 -293t-212 -247q-41 -36 -84 -66.5t-97 -60t-105.5 -43.5t-109.5 -17t-108 19
q-269 104 -274 610v18zM516 1264q-92 -51 -149.5 -105t-94.5 -131t-55 -188q-23 -118 -18 -259.5t43 -256.5q51 -160 155 -191q49 -18 104.5 -10.5t102.5 24.5t97 50.5t88.5 66.5t76.5 72q236 254 215 600q-13 262 -137 346q-47 31 -102 42.5t-113 3t-107 -24t-106 -39.5z
M711 1737q17 -13 17 -37t-17 -41q-23 -23 -56.5 -26.5t-60.5 12.5q-32 20 -45 57t6 70q17 25 49.5 34.5t61.5 -0.5q22 -7 37 -27t8 -42zM1079 1737q17 -13 17 -37t-17 -41q-23 -23 -56 -26.5t-60 12.5q-32 20 -45 57t6 70q17 25 49 34.5t61 -0.5q22 -7 37 -27t8 -42z" />
    <glyph glyph-name="multiply" unicode="&#xd7;" horiz-adv-x="997" 
d="M172 965q-27 24 -10 60t52 48.5t65 -6.5q91 -87 251 -283q120 120 349 277q50 33 80 -1q26 -29 12 -73q-9 -29 -35 -47q-21 -15 -70 -49t-72 -50.5t-60 -44t-66 -53t-58 -53.5q28 -35 107 -142t127 -163q12 -17 11.5 -38t-14.5 -39t-32 -29.5t-38.5 -10t-35.5 18.5
q-49 57 -127 165t-100 136q-126 -126 -309 -275q-56 -32 -84 3q-23 31 -3 76q11 24 33 42q199 164 283 246q-144 181 -256 285z" />
    <glyph glyph-name="Oslash" unicode="&#xd8;" horiz-adv-x="1388" 
d="M504 1395q22 8 43 -2q6 6 22 14q75 32 148.5 50.5t154 23.5t154 -21.5t125.5 -85.5q16 23 44.5 67t39.5 60q30 49 69 29q33 -17 40 -61q6 -33 -11 -60q-9 -13 -45.5 -69t-58.5 -85q39 -83 57 -183.5t16.5 -196t-18.5 -187.5q-24 -154 -113 -298.5t-217 -256.5
q-41 -37 -85 -69t-99 -62.5t-108 -45.5t-111.5 -19.5t-110.5 16.5q-92 31 -159 119q-49 -70 -91 -146q-29 -50 -66 -31q-32 16 -39 59q-6 34 11 62q57 103 115 189q-53 147 -57 350q-4 349 116 580q23 44 42.5 76t50 74t66.5 70.5t75 39.5zM367 201q54 -76 112 -90
q47 -11 89 -12t88 14.5t85 35t79.5 49.5t71.5 57.5t62 59.5q238 253 220 611q-8 120 -37 204q-98 -125 -247 -295.5t-285.5 -331.5t-237.5 -302zM1061 1253l-29 25q-47 33 -103 44t-116 1.5t-107.5 -24t-107.5 -39.5q-29 -12 -47 0q-8 -8 -21 -11q-59 -19 -122 -116
q-84 -138 -115 -308q-46 -274 14 -485q122 168 383 468t371 445z" />
    <glyph glyph-name="Ugrave" unicode="&#xd9;" horiz-adv-x="1157" 
d="M1047 1378q9 35 50 49t74.5 -4.5t24.5 -60.5q-35 -151 -113 -580q-1 -4 -7.5 -41t-8 -44t-7.5 -40.5t-8.5 -44.5t-9 -40.5t-10 -44t-10.5 -40t-12.5 -43t-13 -39t-15.5 -40.5q-74 -185 -232 -285t-356 -80q-78 8 -136.5 43t-92.5 85.5t-53.5 117t-24.5 133t0 139.5
q7 104 24 208t51.5 237t52 193t65.5 222q11 39 61 50q48 11 75 -14q21 -19 11 -52q-7 -25 -30.5 -104.5t-32.5 -112.5t-28 -102.5t-29 -113t-23.5 -104t-22 -115t-14.5 -108.5q-4 -44 -6 -77t-1.5 -85t6 -90.5t19.5 -82.5t35.5 -73t57.5 -49.5t83 -23.5q183 -11 287 90
q86 83 137 262q48 166 102 477.5t81 427.5zM510 1737q-22 20 -25.5 52t11.5 60q14 24 37.5 32.5t48.5 -11.5q13 -13 66 -69.5t89 -88.5t76 -57q27 -14 36.5 -42.5t2.5 -56.5q-9 -28 -33.5 -47.5t-48.5 -5.5q-29 17 -55.5 37t-57 49t-46.5 44t-53.5 54.5t-47.5 49.5z" />
    <glyph glyph-name="Uacute" unicode="&#xda;" horiz-adv-x="1157" 
d="M1047 1378q9 35 50 49t74.5 -4.5t24.5 -60.5q-35 -151 -113 -580q-1 -4 -7.5 -41t-8 -44t-7.5 -40.5t-8.5 -44.5t-9 -40.5t-10 -44t-10.5 -40t-12.5 -43t-13 -39t-15.5 -40.5q-74 -185 -232 -285t-356 -80q-78 8 -136.5 43t-92.5 85.5t-53.5 117t-24.5 133t0 139.5
q7 104 24 208t51.5 237t52 193t65.5 222q11 39 61 50q48 11 75 -14q21 -19 11 -52q-7 -25 -30.5 -104.5t-32.5 -112.5t-28 -102.5t-29 -113t-23.5 -104t-22 -115t-14.5 -108.5q-4 -44 -6 -77t-1.5 -85t6 -90.5t19.5 -82.5t35.5 -73t57.5 -49.5t83 -23.5q183 -11 287 90
q86 83 137 262q48 166 102 477.5t81 427.5zM725 1497q-48 -21 -84 9q-31 26 -18 59q9 25 43 39q18 8 38.5 23t30.5 24t35.5 33.5t28.5 27.5q13 11 38 33t40 34.5t37 29.5t42 30q80 25 115 -4q21 -19 16 -46.5t-30 -39.5q-39 -22 -84 -60.5t-78.5 -71.5t-79.5 -67.5
t-90 -52.5z" />
    <glyph glyph-name="Ucircumflex" unicode="&#xdb;" horiz-adv-x="1157" 
d="M1047 1378q9 35 50 49t74.5 -4.5t24.5 -60.5q-35 -151 -113 -580q-1 -4 -7.5 -41t-8 -44t-7.5 -40.5t-8.5 -44.5t-9 -40.5t-10 -44t-10.5 -40t-12.5 -43t-13 -39t-15.5 -40.5q-74 -185 -232 -285t-356 -80q-78 8 -136.5 43t-92.5 85.5t-53.5 117t-24.5 133t0 139.5
q7 104 24 208t51.5 237t52 193t65.5 222q11 39 61 50q48 11 75 -14q21 -19 11 -52q-7 -25 -30.5 -104.5t-32.5 -112.5t-28 -102.5t-29 -113t-23.5 -104t-22 -115t-14.5 -108.5q-4 -44 -6 -77t-1.5 -85t6 -90.5t19.5 -82.5t35.5 -73t57.5 -49.5t83 -23.5q183 -11 287 90
q86 83 137 262q48 166 102 477.5t81 427.5zM614 1589q-28 -29 -81 -13q-45 14 -55 44q-7 21 14 41q23 20 86.5 80.5t109.5 93.5q44 36 83 48t70 1.5t52 -26.5t43 -41q9 -11 37 -48.5t51 -62.5t47 -43q20 -16 23.5 -39t-15.5 -39q-23 -19 -51.5 -17.5t-50.5 17.5
q-108 78 -170 187q-5 -12 -25 -29q-83 -69 -168 -154z" />
    <glyph glyph-name="Udieresis" unicode="&#xdc;" horiz-adv-x="1157" 
d="M1047 1378q9 35 50 49t74.5 -4.5t24.5 -60.5q-35 -151 -113 -580q-1 -4 -7.5 -41t-8 -44t-7.5 -40.5t-8.5 -44.5t-9 -40.5t-10 -44t-10.5 -40t-12.5 -43t-13 -39t-15.5 -40.5q-74 -185 -232 -285t-356 -80q-78 8 -136.5 43t-92.5 85.5t-53.5 117t-24.5 133t0 139.5
q7 104 24 208t51.5 237t52 193t65.5 222q11 39 61 50q48 11 75 -14q21 -19 11 -52q-7 -25 -30.5 -104.5t-32.5 -112.5t-28 -102.5t-29 -113t-23.5 -104t-22 -115t-14.5 -108.5q-4 -44 -6 -77t-1.5 -85t6 -90.5t19.5 -82.5t35.5 -73t57.5 -49.5t83 -23.5q183 -11 287 90
q86 83 137 262q48 166 102 477.5t81 427.5zM678 1673q17 -13 17 -37t-17 -41q-23 -23 -56.5 -26.5t-60.5 12.5q-32 20 -45 57t6 70q17 26 49.5 35.5t61.5 -0.5q22 -7 37 -27.5t8 -42.5zM1047 1673q17 -13 17 -37t-17 -41q-23 -23 -56.5 -26.5t-60.5 12.5q-32 20 -45 57t6 70
q17 26 49 35.5t61 -0.5q22 -7 37.5 -27.5t8.5 -42.5z" />
    <glyph glyph-name="Yacute" unicode="&#xdd;" horiz-adv-x="929" 
d="M958 1442q37 44 69 16q28 -25 24 -74q-2 -29 -19 -51q-108 -132 -294.5 -389t-270.5 -364q-8 -46 -23.5 -135t-25 -144.5t-25 -131.5t-31.5 -140q-8 -34 -48.5 -46t-74 6.5t-24.5 59.5q21 83 38 174.5t37 214t29 174.5q-45 136 -119.5 391t-109.5 365q-10 23 -5 56t30 49
q22 11 47 -3.5t35 -39.5q31 -99 102 -342.5t113 -374.5q78 100 258.5 349.5t287.5 379.5zM610 1540q-48 -21 -84 9q-31 26 -18 59q9 25 43 39q18 8 38.5 23t30.5 24t35.5 33.5t28.5 27.5q11 9 38 32.5t41 35t36.5 29t42.5 30.5q79 24 114 -4q21 -19 16 -46.5t-30 -39.5
q-39 -22 -84 -60.5t-78.5 -71.5t-79.5 -67.5t-90 -52.5z" />
    <glyph glyph-name="Thorn" unicode="&#xde;" horiz-adv-x="1185" 
d="M391 1569q6 42 54 62q46 20 74 -2q20 -16 13 -52l-69 -320q75 18 155.5 20.5t160.5 -9t149.5 -44t120.5 -80.5t76.5 -122.5t15.5 -165.5q-15 -126 -73 -228t-144 -168.5t-195.5 -109t-226 -57.5t-236.5 -6q-11 -62 -13.5 -77t-4.5 -28.5t-2 -21.5t-6.5 -61t-18.5 -142
q-5 -43 -51 -63q-45 -20 -72 3q-20 17 -14 52q27 211 65.5 435t68.5 369t87 411.5t86 404.5zM295 440q63 -5 131 -5.5t137 12.5t133 32t120.5 55.5t98 81.5t65.5 109.5t24 140.5q0 80 -39.5 137.5t-101 86t-139.5 39.5t-152.5 5t-141.5 -24q-14 -71 -62 -307t-73 -363z" />
    <glyph glyph-name="germandbls" unicode="&#xdf;" horiz-adv-x="1323" 
d="M184 47q8 55 41 315t56 398q15 88 36 180q-143 6 -159 4q-54 -15 -71 25q-14 36 12 74q16 24 44 32q55 16 207 4q19 68 40.5 127t51 117.5t62.5 104t75 81t88.5 53.5t104 16t119.5 -26q74 -29 127.5 -80t77.5 -114.5t22 -131t-40 -135t-107 -120.5q-9 -7 -26 -18.5
t-28.5 -19.5t-27 -20t-25.5 -22.5t-19.5 -24t-13.5 -26.5t-3.5 -29t6.5 -33q15 -32 45.5 -62.5t58.5 -48.5t70.5 -44.5t62.5 -40.5q116 -85 141 -187q24 -101 -28 -195t-152 -145q-229 -109 -493 6q-24 11 -30.5 37t11.5 47q38 43 111 11q53 -23 116 -29t123 5t109 48t70 96
q12 44 10.5 77t-22 65t-46 55t-61 48t-66.5 44t-63 42.5t-51 43.5q-47 57 -67 108t-7 111q4 19 14.5 38t18.5 31.5t28.5 32t27.5 26t34 28.5t30 25q66 56 98.5 112.5t29.5 103.5t-29.5 85t-73.5 61q-48 26 -91.5 22.5t-79.5 -21.5t-67 -53.5t-53.5 -74t-40.5 -82.5
q-98 -253 -160 -710q-8 -58 -20 -159.5t-23 -184t-24 -158.5q-6 -26 -32 -41.5t-50 -3.5q-47 23 -29 100z" />
    <glyph glyph-name="agrave" unicode="&#xe0;" 
d="M532 260q107 183 162 412q5 32 15 73q15 78 26 183q-87 39 -171 26.5t-155.5 -62t-123.5 -128.5q-39 -57 -69 -118t-52 -134t-21 -139.5t23 -134.5q24 -57 68.5 -95.5t99.5 -38.5q62 -1 109.5 43t88.5 113zM1042 188q11 -25 -4.5 -51.5t-40.5 -42.5q-41 -27 -83.5 -46.5
t-88.5 -28t-83.5 -1t-65.5 41t-37 92.5q-1 2 -6 28q-59 -82 -119 -127q-66 -54 -147.5 -70t-153 4.5t-127.5 80t-74 147.5q-12 73 -10 152t26 157t58 154t85 141.5t108.5 120t127.5 90.5t142 51.5t152.5 4t158.5 -51.5q31 -18 21 -51v-12q-4 -58 -11 -94q3 -12 0 -31
q-3 -8 -7 -26.5t-7 -26.5q-20 -127 -51 -232q-31 -162 -31 -280v-15.5v-20.5t0.5 -21.5t2.5 -23t5 -20t8.5 -17.5t12.5 -11q11 -6 25 -6t26.5 4.5t28.5 12.5t27 15t25 16.5t19 12.5q21 15 50 10.5t38 -29.5zM438 1489q-22 20 -25.5 52.5t11.5 60.5q14 23 37.5 31.5
t48.5 -11.5q13 -13 66 -69.5t89 -88.5t76 -57q27 -14 36.5 -42t2.5 -56q-9 -29 -33.5 -48.5t-48.5 -5.5q-29 17 -55.5 37t-57 49t-46.5 44t-53.5 54.5t-47.5 49.5z" />
    <glyph glyph-name="aacute" unicode="&#xe1;" 
d="M532 260q107 183 162 412q5 32 15 73q15 78 26 183q-87 39 -171 26.5t-155.5 -62t-123.5 -128.5q-39 -57 -69 -118t-52 -134t-21 -139.5t23 -134.5q24 -57 68.5 -95.5t99.5 -38.5q62 -1 109.5 43t88.5 113zM1042 188q11 -25 -4.5 -51.5t-40.5 -42.5q-41 -27 -83.5 -46.5
t-88.5 -28t-83.5 -1t-65.5 41t-37 92.5q-1 2 -6 28q-59 -82 -119 -127q-66 -54 -147.5 -70t-153 4.5t-127.5 80t-74 147.5q-12 73 -10 152t26 157t58 154t85 141.5t108.5 120t127.5 90.5t142 51.5t152.5 4t158.5 -51.5q31 -18 21 -51v-12q-4 -58 -11 -94q3 -12 0 -31
q-3 -8 -7 -26.5t-7 -26.5q-20 -127 -51 -232q-31 -162 -31 -280v-15.5v-20.5t0.5 -21.5t2.5 -23t5 -20t8.5 -17.5t12.5 -11q11 -6 25 -6t26.5 4.5t28.5 12.5t27 15t25 16.5t19 12.5q21 15 50 10.5t38 -29.5zM700 1264q-48 -21 -84 9q-31 26 -18 59q11 24 43 38q18 8 38 23
t31.5 25t34.5 33t29 28q11 9 38 32.5t41 35t36.5 29t42.5 30.5q80 25 115 -4q21 -19 15.5 -46.5t-30.5 -39.5q-39 -22 -84 -60.5t-78.5 -71.5t-79.5 -67.5t-90 -52.5z" />
    <glyph glyph-name="acircumflex" unicode="&#xe2;" 
d="M532 260q107 183 162 412q5 32 15 73q15 78 26 183q-87 39 -171 26.5t-155.5 -62t-123.5 -128.5q-39 -57 -69 -118t-52 -134t-21 -139.5t23 -134.5q24 -57 68.5 -95.5t99.5 -38.5q62 -1 109.5 43t88.5 113zM1042 188q11 -25 -4.5 -51.5t-40.5 -42.5q-41 -27 -83.5 -46.5
t-88.5 -28t-83.5 -1t-65.5 41t-37 92.5q-1 2 -6 28q-59 -82 -119 -127q-66 -54 -147.5 -70t-153 4.5t-127.5 80t-74 147.5q-12 73 -10 152t26 157t58 154t85 141.5t108.5 120t127.5 90.5t142 51.5t152.5 4t158.5 -51.5q31 -18 21 -51v-12q-4 -58 -11 -94q3 -12 0 -31
q-3 -8 -7 -26.5t-7 -26.5q-20 -127 -51 -232q-31 -162 -31 -280v-15.5v-20.5t0.5 -21.5t2.5 -23t5 -20t8.5 -17.5t12.5 -11q11 -6 25 -6t26.5 4.5t28.5 12.5t27 15t25 16.5t19 12.5q21 15 50 10.5t38 -29.5zM483 1257q-27 -29 -81 -13q-46 14 -56 43q-5 22 14 42
q22 19 86.5 80t110.5 94q44 36 83 48t70 1.5t52 -26.5t43 -41q9 -11 37 -48.5t51 -62.5t47 -43q20 -16 23.5 -39t-15.5 -39q-23 -19 -51.5 -17.5t-50.5 17.5q-108 78 -170 187q-5 -12 -25 -29q-83 -69 -168 -154z" />
    <glyph glyph-name="atilde" unicode="&#xe3;" 
d="M532 260q107 183 162 412q5 32 15 73q15 78 26 183q-87 39 -171 26.5t-155.5 -62t-123.5 -128.5q-39 -57 -69 -118t-52 -134t-21 -139.5t23 -134.5q24 -57 68.5 -95.5t99.5 -38.5q62 -1 109.5 43t88.5 113zM1042 188q11 -25 -4.5 -51.5t-40.5 -42.5q-41 -27 -83.5 -46.5
t-88.5 -28t-83.5 -1t-65.5 41t-37 92.5q-1 2 -6 28q-59 -82 -119 -127q-66 -54 -147.5 -70t-153 4.5t-127.5 80t-74 147.5q-12 73 -10 152t26 157t58 154t85 141.5t108.5 120t127.5 90.5t142 51.5t152.5 4t158.5 -51.5q31 -18 21 -51v-12q-4 -58 -11 -94q3 -12 0 -31
q-3 -8 -7 -26.5t-7 -26.5q-20 -127 -51 -232q-31 -162 -31 -280v-15.5v-20.5t0.5 -21.5t2.5 -23t5 -20t8.5 -17.5t12.5 -11q11 -6 25 -6t26.5 4.5t28.5 12.5t27 15t25 16.5t19 12.5q21 15 50 10.5t38 -29.5zM451 1284q-33 -44 -73 -29q-32 13 -34 51q-1 29 21 58
q4 5 17.5 23t19 24.5t18.5 21.5t21 21l22 16.5t26.5 15t29 8.5t34.5 5q37 1 72.5 -15.5t59 -37t54 -38t58.5 -17.5q16 0 28 10t31.5 35.5t30.5 38.5q18 20 39.5 26.5t37.5 -1.5t26.5 -22t7 -37t-22.5 -46q-3 -4 -16.5 -20t-17.5 -20.5t-16.5 -18.5t-18.5 -18.5t-18 -15
t-21 -14t-21 -9t-24.5 -7.5t-26.5 -2q-39 0 -72 15.5t-52.5 34t-46 35.5t-53.5 19q-9 1 -17 0t-16 -4.5t-14 -6t-14 -9.5l-12 -10.5t-12 -14t-11 -14t-12.5 -16t-11.5 -15.5z" />
    <glyph glyph-name="adieresis" unicode="&#xe4;" 
d="M532 260q107 183 162 412q5 32 15 73q15 78 26 183q-87 39 -171 26.5t-155.5 -62t-123.5 -128.5q-39 -57 -69 -118t-52 -134t-21 -139.5t23 -134.5q24 -57 68.5 -95.5t99.5 -38.5q62 -1 109.5 43t88.5 113zM1042 188q11 -25 -4.5 -51.5t-40.5 -42.5q-41 -27 -83.5 -46.5
t-88.5 -28t-83.5 -1t-65.5 41t-37 92.5q-1 2 -6 28q-59 -82 -119 -127q-66 -54 -147.5 -70t-153 4.5t-127.5 80t-74 147.5q-12 73 -10 152t26 157t58 154t85 141.5t108.5 120t127.5 90.5t142 51.5t152.5 4t158.5 -51.5q31 -18 21 -51v-12q-4 -58 -11 -94q3 -12 0 -31
q-3 -8 -7 -26.5t-7 -26.5q-20 -127 -51 -232q-31 -162 -31 -280v-15.5v-20.5t0.5 -21.5t2.5 -23t5 -20t8.5 -17.5t12.5 -11q11 -6 25 -6t26.5 4.5t28.5 12.5t27 15t25 16.5t19 12.5q21 15 50 10.5t38 -29.5zM567 1389q17 -14 17 -37.5t-17 -40.5q-23 -23 -56 -26.5t-60 11.5
q-32 20 -45 57t6 70q17 26 49 35.5t61 -0.5q22 -7 37 -27t8 -42zM936 1389q17 -14 17 -37.5t-17 -40.5q-23 -23 -56.5 -26.5t-60.5 11.5q-32 20 -45 57t6 70q17 26 49.5 35.5t61.5 -0.5q22 -7 37 -27t8 -42z" />
    <glyph glyph-name="aring" unicode="&#xe5;" 
d="M532 260q107 183 162 412q5 32 15 73q15 78 26 183q-87 39 -171 26.5t-155.5 -62t-123.5 -128.5q-39 -57 -69 -118t-52 -134t-21 -139.5t23 -134.5q24 -57 68.5 -95.5t99.5 -38.5q62 -1 109.5 43t88.5 113zM1042 188q11 -25 -4.5 -51.5t-40.5 -42.5q-41 -27 -83.5 -46.5
t-88.5 -28t-83.5 -1t-65.5 41t-37 92.5q-1 2 -6 28q-59 -82 -119 -127q-66 -54 -147.5 -70t-153 4.5t-127.5 80t-74 147.5q-12 73 -10 152t26 157t58 154t85 141.5t108.5 120t127.5 90.5t142 51.5t152.5 4t158.5 -51.5q31 -18 21 -51v-12q-4 -58 -11 -94q3 -12 0 -31
q-3 -8 -7 -26.5t-7 -26.5q-20 -127 -51 -232q-31 -162 -31 -280v-15.5v-20.5t0.5 -21.5t2.5 -23t5 -20t8.5 -17.5t12.5 -11q11 -6 25 -6t26.5 4.5t28.5 12.5t27 15t25 16.5t19 12.5q21 15 50 10.5t38 -29.5zM578 1540q60 49 128 71t132 6t100 -75q33 -48 43 -96t-10.5 -101
t-75.5 -100q-114 -97 -230 -56q-82 29 -126 110q-48 90 -14 171q16 41 53 70zM639 1382q6 -49 29.5 -69t70.5 -15q43 5 82.5 31t46.5 60q6 32 -5 54.5t-33.5 32t-46 13t-46.5 0.5q-43 -5 -72.5 -36.5t-25.5 -70.5z" />
    <glyph glyph-name="ae" unicode="&#xe6;" horiz-adv-x="1562" 
d="M250 877q-33 -38 -66 -2q-30 32 -28 79q2 27 16 43q41 58 134 84.5t190 30.5q203 13 262 -106q16 -31 30 -78q74 86 182 137t223.5 52.5t219.5 -60.5q84 -51 114.5 -136.5t-2 -170t-118.5 -132.5q-66 -37 -142.5 -61t-167 -35t-156 -14.5t-167.5 -5.5q-13 -71 -35 -127
l-6 -17q4 -135 80 -170q115 -50 257.5 -11t219.5 134q30 39 63 6q31 -30 30 -80q0 -29 -15 -49q-39 -51 -106.5 -93.5t-147.5 -65t-160 -24.5t-152 29t-114 93q-21 32 -33 53q-126 -217 -329 -217q-190 -7 -260 137q-34 72 -41.5 154.5t16.5 157.5q17 49 48 87.5t65.5 63.5
t85.5 42.5t92.5 26.5t103 13.5t101.5 5.5t102 2h10q8 48 33 103v20q0 2 1 38.5t0 51.5t-10 39t-26 37q-22 17 -63.5 20.5t-67 0.5t-70.5 -11q-153 -22 -196 -75zM623 500q-76 -1 -118 -3t-106.5 -11t-113.5 -25q-124 -40 -140 -142q-16 -111 29 -163q37 -48 107 -47.5
t133.5 32t99.5 72.5q62 71 104 184q0 15 5 103zM797 682q0 -19 -2 -27q179 3 323 31q6 1 32 6t36.5 7.5t36.5 8t40 10.5t36.5 12.5t36.5 15.5t30.5 18t28.5 22.5t20 26.5q16 30 12.5 52.5t-26 38.5t-51 27t-63.5 17t-62.5 8.5t-48.5 1.5q-124 -7 -225.5 -78t-151.5 -182
q0 -3 -1 -8.5t-1 -7.5z" />
    <glyph glyph-name="ccedilla" unicode="&#xe7;" horiz-adv-x="823" 
d="M770 1047q34 -21 31 -57.5t-37.5 -67t-67.5 -17.5q-103 38 -190.5 17t-156.5 -89t-114.5 -155t-64.5 -180q-45 -225 55 -320q121 -121 383 -16q53 21 74 -19q17 -35 -5 -74q-14 -25 -40 -36q-148 -59 -268 -64l-23 -90q66 -10 100 -53q27 -36 33 -80t-12 -86
q-43 -84 -130.5 -140.5t-184.5 -62.5q-40 -4 -64 41q-23 43 -6 74q9 18 31 20q10 1 40.5 3t39 3.5t31 6t34 11.5t28 19t31.5 29q40 51 12 73.5t-85 10.5q-39 -4 -53.5 45t6.5 74q12 19 41 117q-74 20 -121 75q-50 58 -73.5 135t-22.5 152t20 154q27 123 92 239.5t162 206.5
t217 120.5t258 -19.5z" />
    <glyph glyph-name="egrave" unicode="&#xe8;" horiz-adv-x="933" 
d="M700 713q61 59 45 124t-98 93q-125 46 -244 -32.5t-174 -207.5q-11 -25 -26 -80q72 -8 131.5 -9t129.5 6t130.5 34t105.5 72zM866 952q35 -67 23.5 -136t-51 -126.5t-99.5 -99.5q-217 -154 -559 -123q-3 -133 56 -234q44 -74 113.5 -101.5t140.5 -16.5t149 49q25 13 50 3
t28 -38q4 -29 -14 -55t-46 -39q-85 -38 -139 -51q-161 -40 -287.5 36t-167.5 236q-42 162 -1 332t149 297q120 142 297 188q102 26 206 -3.5t152 -117.5zM383 1454q-22 20 -25.5 52.5t11.5 60.5q14 23 37.5 31.5t48.5 -11.5q13 -13 66 -69.5t89 -88.5t76 -57
q27 -14 36.5 -42t2.5 -56q-9 -28 -33.5 -47.5t-48.5 -5.5q-24 15 -49 33.5t-43.5 34t-44.5 40.5t-39.5 39t-43 44.5t-40.5 41.5z" />
    <glyph glyph-name="eacute" unicode="&#xe9;" horiz-adv-x="933" 
d="M700 713q61 59 45 124t-98 93q-125 46 -244 -32.5t-174 -207.5q-11 -25 -26 -80q72 -8 131.5 -9t129.5 6t130.5 34t105.5 72zM866 952q35 -67 23.5 -136t-51 -126.5t-99.5 -99.5q-217 -154 -559 -123q-3 -133 56 -234q44 -74 113.5 -101.5t140.5 -16.5t149 49q25 13 50 3
t28 -38q4 -29 -14 -55t-46 -39q-85 -38 -139 -51q-161 -40 -287.5 36t-167.5 236q-42 162 -1 332t149 297q120 142 297 188q102 26 206 -3.5t152 -117.5zM584 1204q-48 -21 -84 9q-31 26 -19 59q9 25 43 39q18 8 38.5 23t30.5 24t35.5 33.5t28.5 27.5q11 9 38 32.5t41 35
t36.5 29t42.5 30.5q80 25 115 -4q21 -19 15.5 -46.5t-30.5 -39.5q-49 -27 -106 -80.5t-113 -101t-112 -70.5z" />
    <glyph glyph-name="ecircumflex" unicode="&#xea;" horiz-adv-x="933" 
d="M700 713q61 59 45 124t-98 93q-125 46 -244 -32.5t-174 -207.5q-11 -25 -26 -80q72 -8 131.5 -9t129.5 6t130.5 34t105.5 72zM866 952q35 -67 23.5 -136t-51 -126.5t-99.5 -99.5q-217 -154 -559 -123q-3 -133 56 -234q44 -74 113.5 -101.5t140.5 -16.5t149 49q25 13 50 3
t28 -38q4 -29 -14 -55t-46 -39q-85 -38 -139 -51q-161 -40 -287.5 36t-167.5 236q-42 162 -1 332t149 297q120 142 297 188q102 26 206 -3.5t152 -117.5zM426 1212q-27 -29 -81 -13q-46 14 -56 43q-5 22 14 42q22 19 86.5 80t110.5 94q44 36 83 48t70 1.5t52 -26.5t43 -41
q9 -11 37 -48.5t51 -62.5t47 -43q20 -16 23.5 -39t-15.5 -39q-23 -19 -52 -17.5t-51 17.5q-108 78 -170 187q-5 -13 -24 -29q-83 -69 -168 -154z" />
    <glyph glyph-name="edieresis" unicode="&#xeb;" horiz-adv-x="933" 
d="M700 713q61 59 45 124t-98 93q-125 46 -244 -32.5t-174 -207.5q-11 -25 -26 -80q72 -8 131.5 -9t129.5 6t130.5 34t105.5 72zM866 952q35 -67 23.5 -136t-51 -126.5t-99.5 -99.5q-217 -154 -559 -123q-3 -133 56 -234q44 -74 113.5 -101.5t140.5 -16.5t149 49q25 13 50 3
t28 -38q4 -29 -14 -55t-46 -39q-85 -38 -139 -51q-161 -40 -287.5 36t-167.5 236q-42 162 -1 332t149 297q120 142 297 188q102 26 206 -3.5t152 -117.5zM530 1360q17 -14 17 -37.5t-17 -40.5q-23 -23 -56 -26.5t-60 12.5q-32 20 -45 57t6 70q17 26 49 35.5t61 -0.5
q22 -7 37 -27.5t8 -42.5zM899 1360q17 -14 17 -37.5t-17 -40.5q-23 -23 -56.5 -26.5t-60.5 12.5q-32 20 -45 57t6 70q17 26 49.5 35.5t61.5 -0.5q22 -7 37 -27.5t8 -42.5z" />
    <glyph glyph-name="igrave" unicode="&#xec;" horiz-adv-x="401" 
d="M203 1032q8 37 49 41t76.5 -22.5t27.5 -63.5q-28 -128 -95.5 -463t-108.5 -518q-8 -36 -49.5 -39.5t-75.5 23t-25 63.5q39 183 107 519t94 460zM49 1473q-22 20 -25.5 52t11.5 60q14 24 37.5 32.5t48.5 -11.5q13 -13 66 -69.5t89 -88.5t76 -57q27 -14 36.5 -42.5
t2.5 -56.5q-9 -28 -33.5 -47.5t-48.5 -5.5q-29 17 -55.5 37t-57 49t-46.5 44t-53.5 54.5t-47.5 49.5z" />
    <glyph glyph-name="iacute" unicode="&#xed;" horiz-adv-x="401" 
d="M203 1032q8 37 49 41t76.5 -22.5t27.5 -63.5q-28 -128 -95.5 -463t-108.5 -518q-8 -36 -49.5 -39.5t-75.5 23t-25 63.5q39 183 107 519t94 460zM319 1190q-48 -21 -84 9q-31 26 -18 59q11 24 43 38q18 8 38 23t31.5 25t34.5 33t29 28q11 9 38 32.5t41 35t36.5 29
t42.5 30.5q80 25 115 -4q21 -19 15.5 -46.5t-30.5 -39.5q-39 -22 -84 -60.5t-78.5 -71.5t-79.5 -67.5t-90 -52.5z" />
    <glyph glyph-name="icircumflex" unicode="&#xee;" horiz-adv-x="401" 
d="M203 1032q8 37 49 41t76.5 -22.5t27.5 -63.5q-28 -128 -95.5 -463t-108.5 -518q-8 -36 -49.5 -39.5t-75.5 23t-25 63.5q39 183 107 519t94 460zM131 1204q-27 -29 -81 -13q-46 14 -56 43q-5 22 14 42q22 19 86.5 80t110.5 94q44 36 83 48t70 1.5t52 -26.5t43 -41
q9 -11 37 -48.5t51 -62.5t47 -43q20 -16 23.5 -39t-15.5 -39q-23 -19 -51.5 -17.5t-50.5 17.5q-109 78 -170 186q-4 -11 -25 -28q-83 -69 -168 -154z" />
    <glyph glyph-name="idieresis" unicode="&#xef;" horiz-adv-x="401" 
d="M203 1032q8 37 49 41t76.5 -22.5t27.5 -63.5q-28 -128 -95.5 -463t-108.5 -518q-8 -36 -49.5 -39.5t-75.5 23t-25 63.5q39 183 107 519t94 460zM199 1376q17 -14 17 -37.5t-17 -40.5q-23 -23 -56.5 -26.5t-60.5 12.5q-32 20 -45 57t6 70q17 26 49.5 35.5t61.5 -0.5
q22 -7 37 -27.5t8 -42.5zM567 1376q17 -14 17 -37.5t-17 -40.5q-23 -23 -56 -26.5t-60 12.5q-32 20 -45 57t6 70q17 26 49 35.5t61 -0.5q22 -7 37 -27.5t8 -42.5z" />
    <glyph glyph-name="eth" unicode="&#xf0;" horiz-adv-x="937" 
d="M502 1128q-30 -29 -62.5 -23t-37.5 33t22 58q13 13 65 74q-61 22 -135 22q-40 -2 -43 38q-2 38 27 69q19 20 41 20q106 3 201 -39q76 92 125 133q17 16 42.5 14.5t38.5 -24.5q16 -34 -34 -84q-52 -49 -90 -92q77 -65 124 -172q74 -185 69 -379.5t-77 -380.5
q-100 -264 -260 -362q-59 -35 -119 -50.5t-124 -4t-113 58.5q-64 56 -92.5 147.5t-28.5 192.5q0 116 38 229.5t109 204.5q164 186 349 205q103 9 176 -37q-41 153 -135 235q-55 -64 -76 -86zM692 766q-9 47 -36.5 77t-64.5 39t-78 4.5t-81 -22.5q-93 -37 -161 -121.5
t-95 -187.5q-26 -80 -20 -183.5t51 -178.5q33 -53 83 -75t105 -12.5t107 46.5q114 88 173 249t64 336q-44 -4 -47 29z" />
    <glyph glyph-name="ntilde" unicode="&#xf1;" 
d="M918 926q24 -69 25.5 -155.5t-9.5 -155t-33 -158.5q-18 -70 -57.5 -209.5t-57.5 -208.5q-10 -41 -63 -53q-51 -11 -80 15q-20 18 -14 46q15 61 67 228t74.5 289t11.5 235q-6 104 -43 127q-41 25 -124 -16q-5 -2 -7 -3q-119 -62 -313 -229q-46 -327 -139 -649
q-6 -26 -32 -41.5t-50 -1.5q-46 25 -27 100q72 245 125 567q-29 12 -35.5 31.5t21.5 46.5q12 12 30 27q14 107 27 223q5 46 36 60t59 -9.5t24 -68.5q-4 -33 -12 -91q142 107 243 150q48 21 100 29t103 1t91.5 -39t58.5 -87zM508 1225q-33 -44 -73 -29q-32 13 -34 51
q-1 29 21 58q4 5 17.5 23t19 24.5t18.5 21.5t21 21l22 16.5t26.5 15t29 8.5t34.5 5q37 1 72.5 -15.5t59 -37.5t54 -38.5t58.5 -17.5q16 0 28 10t31.5 35.5t30.5 38.5q18 20 39.5 26.5t37.5 -1.5t26.5 -22t7 -37t-22.5 -46q-3 -4 -16.5 -20t-17.5 -20.5t-16.5 -18.5
t-18.5 -18.5t-18 -15t-21 -14t-21 -9t-24.5 -7.5t-26.5 -2q-39 0 -72 15.5t-52 34.5t-45.5 36t-53.5 19q-26 2 -50 -13.5t-33.5 -27t-37.5 -49.5z" />
    <glyph glyph-name="ograve" unicode="&#xf2;" horiz-adv-x="1013" 
d="M530 156q127 101 183.5 245t34.5 306q-18 164 -99 215q-25 17 -60 13t-70 -18.5t-70.5 -38t-61.5 -44.5t-43 -39q-99 -103 -134.5 -236t-2.5 -264q33 -143 117 -191q24 -14 52.5 -14.5t56.5 10t51.5 24.5t45.5 32zM672 1042q64 -18 111.5 -61.5t73 -99.5t40.5 -122.5
t13.5 -131.5t-7.5 -125q-29 -191 -119 -305q-66 -81 -151.5 -143.5t-173.5 -78.5q-99 -11 -178 16.5t-127.5 82t-77 130.5t-33 160.5t10 173t47 167.5t84.5 145.5t116 105.5q198 134 371 86zM430 1397q-22 20 -25.5 52t11.5 60q14 24 37.5 32.5t48.5 -11.5q13 -13 66 -69.5
t89 -88.5t76 -57q27 -14 36.5 -42t2.5 -56q-9 -29 -33.5 -48.5t-48.5 -5.5q-29 17 -55.5 37t-57 49t-46.5 44t-53.5 54.5t-47.5 49.5z" />
    <glyph glyph-name="oacute" unicode="&#xf3;" horiz-adv-x="1013" 
d="M530 156q127 101 183.5 245t34.5 306q-18 164 -99 215q-25 17 -60 13t-70 -18.5t-70.5 -38t-61.5 -44.5t-43 -39q-99 -103 -134.5 -236t-2.5 -264q33 -143 117 -191q24 -14 52.5 -14.5t56.5 10t51.5 24.5t45.5 32zM672 1042q64 -18 111.5 -61.5t73 -99.5t40.5 -122.5
t13.5 -131.5t-7.5 -125q-29 -191 -119 -305q-66 -81 -151.5 -143.5t-173.5 -78.5q-99 -11 -178 16.5t-127.5 82t-77 130.5t-33 160.5t10 173t47 167.5t84.5 145.5t116 105.5q198 134 371 86zM588 1155q-48 -21 -84 9q-31 26 -19 59q9 25 43 39q15 7 29 16t29.5 22t25 21.5
t27.5 26t23 22.5q13 11 38 33t40 34.5t37 29.5t42 30q80 25 115 -4q21 -19 16 -46.5t-30 -39.5q-39 -22 -84 -60.5t-78.5 -71.5t-79.5 -67.5t-90 -52.5z" />
    <glyph glyph-name="ocircumflex" unicode="&#xf4;" horiz-adv-x="1013" 
d="M530 156q127 101 183.5 245t34.5 306q-18 164 -99 215q-25 17 -60 13t-70 -18.5t-70.5 -38t-61.5 -44.5t-43 -39q-99 -103 -134.5 -236t-2.5 -264q33 -143 117 -191q24 -14 52.5 -14.5t56.5 10t51.5 24.5t45.5 32zM672 1042q64 -18 111.5 -61.5t73 -99.5t40.5 -122.5
t13.5 -131.5t-7.5 -125q-29 -191 -119 -305q-66 -81 -151.5 -143.5t-173.5 -78.5q-99 -11 -178 16.5t-127.5 82t-77 130.5t-33 160.5t10 173t47 167.5t84.5 145.5t116 105.5q198 134 371 86zM459 1184q-27 -29 -81 -13q-46 13 -56 42q-7 22 14 42q24 21 87 81.5t109 93.5
q44 36 83 48t70 1t52 -26.5t43 -41.5q9 -11 37 -48.5t51 -62.5t47 -43q20 -16 24 -38.5t-15 -38.5q-23 -19 -52 -17.5t-51 17.5q-109 78 -170 186q-5 -14 -24 -29q-88 -73 -168 -153z" />
    <glyph glyph-name="otilde" unicode="&#xf5;" horiz-adv-x="1013" 
d="M530 156q127 101 183.5 245t34.5 306q-18 164 -99 215q-25 17 -60 13t-70 -18.5t-70.5 -38t-61.5 -44.5t-43 -39q-99 -103 -134.5 -236t-2.5 -264q33 -143 117 -191q24 -14 52.5 -14.5t56.5 10t51.5 24.5t45.5 32zM672 1042q64 -18 111.5 -61.5t73 -99.5t40.5 -122.5
t13.5 -131.5t-7.5 -125q-29 -191 -119 -305q-66 -81 -151.5 -143.5t-173.5 -78.5q-99 -11 -178 16.5t-127.5 82t-77 130.5t-33 160.5t10 173t47 167.5t84.5 145.5t116 105.5q198 134 371 86zM387 1231q-33 -44 -73 -29q-32 13 -34 51q-1 29 21 58q4 5 17.5 23t19 24.5
t18.5 21.5t21 21l22 16.5t26.5 15t29 8.5t34.5 5q37 1 72.5 -15.5t59 -37.5t54 -38.5t58.5 -17.5q16 0 28 10t31.5 35.5t30.5 38.5q18 20 39.5 26.5t37.5 -1.5t26.5 -22t7 -37t-22.5 -46q-3 -4 -15 -18t-15.5 -18.5t-14.5 -17t-16.5 -17t-16 -14t-17.5 -13.5t-18.5 -10.5
t-21 -9t-21.5 -4.5t-24 -2q-39 0 -72 15.5t-52 34t-45.5 35.5t-53.5 19q-26 2 -50 -13.5t-33.5 -27t-37.5 -49.5z" />
    <glyph glyph-name="odieresis" unicode="&#xf6;" horiz-adv-x="1013" 
d="M530 156q127 101 183.5 245t34.5 306q-18 164 -99 215q-25 17 -60 13t-70 -18.5t-70.5 -38t-61.5 -44.5t-43 -39q-99 -103 -134.5 -236t-2.5 -264q33 -143 117 -191q24 -14 52.5 -14.5t56.5 10t51.5 24.5t45.5 32zM672 1042q64 -18 111.5 -61.5t73 -99.5t40.5 -122.5
t13.5 -131.5t-7.5 -125q-29 -191 -119 -305q-66 -81 -151.5 -143.5t-173.5 -78.5q-99 -11 -178 16.5t-127.5 82t-77 130.5t-33 160.5t10 173t47 167.5t84.5 145.5t116 105.5q198 134 371 86zM524 1327q17 -13 17 -37t-17 -41q-23 -23 -56 -26.5t-60 12.5q-32 20 -45 57t6 70
q17 26 49 35.5t61 -0.5q22 -7 37 -27.5t8 -42.5zM893 1327q17 -13 17 -37t-17 -41q-23 -23 -56.5 -26.5t-60.5 12.5q-32 20 -45 57t6 70q17 26 49.5 35.5t61.5 -0.5q22 -7 37 -27.5t8 -42.5z" />
    <glyph glyph-name="divide" unicode="&#xf7;" horiz-adv-x="880" 
d="M141 584q74 12 162 17t140.5 5t164 -3.5t144.5 -4.5q43 0 59.5 29t-0.5 58t-55 28q-49 0 -154.5 3.5t-167.5 4t-153 -5.5t-168 -21q-42 -8 -49.5 -38.5t17 -54.5t60.5 -17zM473 340q14 -15 8.5 -39t-26.5 -39q-27 -23 -61 -26.5t-58 10.5q-28 20 -33 57.5t21 69.5
q23 26 56.5 36t61.5 1q20 -6 30.5 -27.5t0.5 -42.5zM625 1042q13 -14 8 -37t-25 -40q-27 -22 -61 -25.5t-58 10.5q-29 19 -34 56.5t20 70.5q23 25 58 35t61 0q22 -6 32 -26t-1 -44z" />
    <glyph glyph-name="oslash" unicode="&#xf8;" horiz-adv-x="1021" 
d="M117 -4q-54 -34 -99 -8q-18 14 -16 37t21 41q71 48 127 104q-42 72 -56 149q-25 158 37 325.5t180 293.5q48 51 107 88t124 54.5t131.5 -1t119.5 -75.5q5 -5 8 -23q15 -8 20 -20l53 51q18 22 44.5 31.5t52.5 0.5q20 -10 27 -31t-9 -42l-110 -121l10 -49q37 -184 -23 -379
q-19 -70 -46 -134t-67.5 -128.5t-98 -109.5t-124.5 -60q-84 -18 -164 7t-143 85q-74 -61 -106 -86zM582 969q-52 4 -104.5 -27.5t-92.5 -79.5q-112 -121 -154 -284q-49 -166 13 -299q40 43 108 129.5t82 103.5q58 62 160.5 183t136.5 159q-34 43 -86 43q-35 0 -47 22.5
t0 47.5q-3 0 -8 1t-8 1zM485 104q48 -4 91 21t72 64.5t53 93t37 97.5t22 87q29 164 16 264q-42 -47 -121 -141.5t-118 -138.5q-13 -16 -94 -118t-126 -153q76 -73 168 -76z" />
    <glyph glyph-name="ugrave" unicode="&#xf9;" horiz-adv-x="997" 
d="M801 1012q12 52 48 53q32 1 52 -34q17 -30 10 -66q-49 -227 -92 -488q-4 -24 -13 -78.5t-13 -83.5q22 -29 -7 -55q0 -6 -4 -6q-14 -107 -14 -182q-1 -46 -31 -63.5t-60 3t-30 66.5q2 20 2 61q-64 -50 -125.5 -86.5t-130.5 -62t-135.5 -21t-120.5 42.5q-26 19 -45 47
t-29.5 54.5t-15 66.5t-5.5 66t2.5 71t6 64t8.5 61q12 86 29.5 172t51 226t40.5 172q8 36 49 37.5t75 -26.5t26 -65q-9 -41 -47.5 -203t-55.5 -251q-24 -148 -24 -228q-5 -32 -3 -87t21 -83q6 -9 18.5 -12t30 1t34 9.5t37 16t33.5 17.5t30.5 17t19.5 11q122 71 231 174
q11 11 23 14q21 117 29 172q63 352 94 486zM328 1366q-22 20 -26 52.5t11 60.5q14 23 37.5 31.5t48.5 -11.5q18 -18 54 -55.5t58 -60.5t55.5 -51.5t64.5 -47.5q27 -14 36.5 -42t2.5 -56q-9 -28 -33.5 -47.5t-48.5 -5.5q-24 15 -49 33.5t-43.5 34t-44.5 40.5t-39.5 39
t-43 44.5t-40.5 41.5z" />
    <glyph glyph-name="uacute" unicode="&#xfa;" horiz-adv-x="997" 
d="M801 1012q12 52 48 53q32 1 52 -34q17 -30 10 -66q-49 -227 -92 -488q-4 -24 -13 -78.5t-13 -83.5q22 -29 -7 -55q0 -6 -4 -6q-14 -107 -14 -182q-1 -46 -31 -63.5t-60 3t-30 66.5q2 20 2 61q-64 -50 -125.5 -86.5t-130.5 -62t-135.5 -21t-120.5 42.5q-26 19 -45 47
t-29.5 54.5t-15 66.5t-5.5 66t2.5 71t6 64t8.5 61q12 86 29.5 172t51 226t40.5 172q8 36 49 37.5t75 -26.5t26 -65q-9 -41 -47.5 -203t-55.5 -251q-24 -148 -24 -228q-5 -32 -3 -87t21 -83q6 -9 18.5 -12t30 1t34 9.5t37 16t33.5 17.5t30.5 17t19.5 11q122 71 231 174
q11 11 23 14q21 117 29 172q63 352 94 486zM571 1165q-48 -21 -84 9q-31 26 -18 59q9 25 43 39q18 8 38.5 23t30.5 24t35.5 33.5t28.5 27.5q11 9 38 32.5t41 35t36.5 29t42.5 30.5q80 25 115 -4q21 -19 15.5 -46.5t-30.5 -39.5q-39 -22 -84 -60.5t-78.5 -71.5t-79.5 -67.5
t-90 -52.5z" />
    <glyph glyph-name="ucircumflex" unicode="&#xfb;" horiz-adv-x="997" 
d="M801 1012q12 52 48 53q32 1 52 -34q17 -30 10 -66q-49 -227 -92 -488q-4 -24 -13 -78.5t-13 -83.5q22 -29 -7 -55q0 -6 -4 -6q-14 -107 -14 -182q-1 -46 -31 -63.5t-60 3t-30 66.5q2 20 2 61q-64 -50 -125.5 -86.5t-130.5 -62t-135.5 -21t-120.5 42.5q-26 19 -45 47
t-29.5 54.5t-15 66.5t-5.5 66t2.5 71t6 64t8.5 61q12 86 29.5 172t51 226t40.5 172q8 36 49 37.5t75 -26.5t26 -65q-9 -41 -47.5 -203t-55.5 -251q-24 -148 -24 -228q-5 -32 -3 -87t21 -83q6 -9 18.5 -12t30 1t34 9.5t37 16t33.5 17.5t30.5 17t19.5 11q122 71 231 174
q11 11 23 14q21 117 29 172q63 352 94 486zM416 1204q-27 -29 -81 -13q-46 14 -56 43q-5 22 14 42q23 20 86.5 80.5t109.5 93.5q44 36 83 48t70 1.5t52 -26.5t43 -41q9 -11 37 -48.5t51 -62.5t47 -43q20 -16 24 -39t-15 -39q-23 -19 -52 -17.5t-51 17.5q-109 78 -170 186
q-5 -12 -24 -28q-83 -69 -168 -154z" />
    <glyph glyph-name="udieresis" unicode="&#xfc;" horiz-adv-x="997" 
d="M801 1012q12 52 48 53q32 1 52 -34q17 -30 10 -66q-49 -227 -92 -488q-4 -24 -13 -78.5t-13 -83.5q22 -29 -7 -55q0 -6 -4 -6q-14 -107 -14 -182q-1 -46 -31 -63.5t-60 3t-30 66.5q2 20 2 61q-64 -50 -125.5 -86.5t-130.5 -62t-135.5 -21t-120.5 42.5q-26 19 -45 47
t-29.5 54.5t-15 66.5t-5.5 66t2.5 71t6 64t8.5 61q12 86 29.5 172t51 226t40.5 172q8 36 49 37.5t75 -26.5t26 -65q-9 -41 -47.5 -203t-55.5 -251q-24 -148 -24 -228q-5 -32 -3 -87t21 -83q6 -9 18.5 -12t30 1t34 9.5t37 16t33.5 17.5t30.5 17t19.5 11q122 71 231 174
q11 11 23 14q21 117 29 172q63 352 94 486zM502 1303q17 -13 17 -37t-17 -41q-23 -23 -56.5 -26.5t-60.5 11.5q-32 20 -45 57t6 70q17 26 49.5 35.5t61.5 -0.5q22 -7 37 -27t8 -42zM870 1303q17 -13 17 -37t-17 -41q-23 -23 -56 -26.5t-60 11.5q-32 20 -45 57t6 70
q17 26 49 35.5t61 -0.5q22 -7 37 -27t8 -42z" />
    <glyph glyph-name="yacute" unicode="&#xfd;" horiz-adv-x="911" 
d="M801 1022q18 38 73 38q50 1 70 -29q14 -23 0 -52q-229 -471 -399 -795q-6 -12 -34.5 -66.5t-38.5 -73t-35.5 -64.5t-41 -72.5t-39 -63t-45.5 -67.5q-28 -42 -55.5 -73.5t-63 -60t-72 -42t-81.5 -11.5t-92 23q-25 10 -27.5 37t17.5 45q17 17 37 20.5t38.5 0t37.5 -5
t40.5 11t40.5 42.5q18 29 81 127.5t101 163.5q-147 547 -188 901q-5 35 31.5 58.5t77 16t45.5 -47.5q28 -259 143 -729q47 88 101 195.5t90.5 183t97.5 202.5t90 187zM555 1159q-48 -21 -84 9q-31 26 -18 59q9 25 43 39q18 8 38.5 23t30.5 24t35.5 33.5t28.5 27.5
q13 11 38 33t40 34.5t37 29.5t42 30q80 25 115 -4q21 -19 16 -46.5t-30 -39.5q-39 -22 -84 -60.5t-78.5 -71.5t-79.5 -67.5t-90 -52.5z" />
    <glyph glyph-name="thorn" unicode="&#xfe;" horiz-adv-x="995" 
d="M346 1423q7 35 46 38.5t73 -22.5t27 -63q-31 -133 -89 -403q52 34 107 53.5t115 22t114 -20.5q64 -27 105 -77.5t55 -113.5t13 -126t-15 -129q-16 -81 -44.5 -159t-71 -154t-103.5 -138t-133 -98q-59 -32 -118.5 -49.5t-121.5 -14t-102 36.5q-16 -70 -36.5 -199
t-27.5 -165q-4 -37 -48 -36t-73 33q-20 24 -16 52q39 262 91 530t140.5 677t112.5 525zM238 205l8 -19q9 -54 50.5 -70t95 0.5t100 40t77.5 48.5q91 73 148.5 184.5t75.5 233.5q9 44 5.5 90t-15.5 84t-44.5 65t-81.5 33q-155 22 -299 -115q-24 -121 -120 -575z" />
    <glyph glyph-name="ydieresis" unicode="&#xff;" horiz-adv-x="911" 
d="M801 1022q18 38 73 38q50 1 70 -29q14 -23 0 -52q-229 -471 -399 -795q-6 -12 -34.5 -66.5t-38.5 -73t-35.5 -64.5t-41 -72.5t-39 -63t-45.5 -67.5q-28 -42 -55.5 -73.5t-63 -60t-72 -42t-81.5 -11.5t-92 23q-25 10 -27.5 37t17.5 45q17 17 37 20.5t38.5 0t37.5 -5
t40.5 11t40.5 42.5q18 29 81 127.5t101 163.5q-147 547 -188 901q-5 35 31.5 58.5t77 16t45.5 -47.5q28 -259 143 -729q47 88 101 195.5t90.5 183t97.5 202.5t90 187zM469 1303q17 -13 17 -37t-17 -41q-23 -23 -56.5 -26.5t-60.5 11.5q-32 20 -45 57t6 70q17 26 49.5 35.5
t61.5 -0.5q22 -7 37 -27t8 -42zM838 1303q17 -13 17 -37t-17 -41q-23 -23 -56.5 -26.5t-60.5 11.5q-32 20 -45 57t6 70q17 26 49.5 35.5t61.5 -0.5q22 -7 37 -27t8 -42z" />
    <glyph glyph-name="Amacron" unicode="&#x100;" horiz-adv-x="1118" 
d="M336 530q64 5 128.5 7.5t170 3t129.5 0.5q-57 312 -80 608q-142 -258 -348 -619zM907 426q27 -132 76 -334q13 -44 -10.5 -71t-57 -17t-45.5 55q-47 182 -82 361q-28 0 -128 -0.5t-145 -1.5t-120.5 -7t-136.5 -18q-39 -67 -109 -190.5t-100 -175.5q-27 -49 -67 -38
q-31 9 -40 45q-9 31 9 62q33 59 98 175.5t98 174.5q-11 47 35 60q376 659 490 872q1 28 15 42t34 14q28 9 51.5 -15t20.5 -59v-4q14 -384 92 -809h6q33 2 60.5 -10t37.5 -39q12 -25 -4 -46.5t-43 -23.5q-6 0 -17.5 -1t-17.5 -1zM512 1575q-29 -5 -44 22t-7.5 58t33.5 37
q65 12 143.5 17.5t128 5.5t148.5 -2.5t133 -2.5q28 0 38 -29t-3 -58.5t-42 -29.5q-40 0 -129.5 1.5t-140 1.5t-124 -5t-134.5 -16z" />
    <glyph glyph-name="amacron" unicode="&#x101;" 
d="M532 260q107 183 162 412q5 32 15 73q15 78 26 183q-87 39 -171 26.5t-155.5 -62t-123.5 -128.5q-39 -57 -69 -118t-52 -134t-21 -139.5t23 -134.5q24 -57 68.5 -95.5t99.5 -38.5q62 -1 109.5 43t88.5 113zM1042 188q11 -25 -4.5 -51.5t-40.5 -42.5q-41 -27 -83.5 -46.5
t-88.5 -28t-83.5 -1t-65.5 41t-37 92.5q-1 2 -6 28q-59 -82 -119 -127q-66 -54 -147.5 -70t-153 4.5t-127.5 80t-74 147.5q-12 73 -10 152t26 157t58 154t85 141.5t108.5 120t127.5 90.5t142 51.5t152.5 4t158.5 -51.5q31 -18 21 -51v-12q-4 -58 -11 -94q3 -12 0 -31
q-3 -8 -7 -26.5t-7 -26.5q-20 -127 -51 -232q-31 -162 -31 -280v-15.5v-20.5t0.5 -21.5t2.5 -23t5 -20t8.5 -17.5t12.5 -11q11 -6 25 -6t26.5 4.5t28.5 12.5t27 15t25 16.5t19 12.5q21 15 50 10.5t38 -29.5zM416 1251q-29 -5 -44 22t-8 58t33 37q65 12 143.5 17.5t128 5.5
t148.5 -2.5t133 -2.5q17 0 28 -12t13 -29t-1.5 -34t-16 -29t-29.5 -12q-37 0 -129 1.5t-141 1t-123 -5.5t-135 -16z" />
    <glyph glyph-name="Abreve" unicode="&#x102;" horiz-adv-x="1118" 
d="M336 530q64 5 128.5 7.5t170 3t129.5 0.5q-57 312 -80 608q-142 -258 -348 -619zM907 426q27 -132 76 -334q13 -44 -10.5 -71t-57 -17t-45.5 55q-47 182 -82 361q-28 0 -128 -0.5t-145 -1.5t-120.5 -7t-136.5 -18q-39 -67 -109 -190.5t-100 -175.5q-27 -49 -67 -38
q-31 9 -40 45q-9 31 9 62q33 59 98 175.5t98 174.5q-11 47 35 60q376 659 490 872q1 28 15 42t34 14q28 9 51.5 -15t20.5 -59v-4q14 -384 92 -809h6q33 2 60.5 -10t37.5 -39q12 -25 -4 -46.5t-43 -23.5q-6 0 -17.5 -1t-17.5 -1zM442 1784q-14 35 18.5 68.5t70 35.5t55.5 -30
q38 -84 128 -111t180 7t132 110q21 39 75 48q50 7 66 -19q13 -20 -6 -52q-37 -71 -109.5 -128t-159.5 -83.5t-173.5 -25.5t-162 47.5t-114.5 132.5z" />
    <glyph glyph-name="abreve" unicode="&#x103;" 
d="M532 260q107 183 162 412q5 32 15 73q15 78 26 183q-87 39 -171 26.5t-155.5 -62t-123.5 -128.5q-39 -57 -69 -118t-52 -134t-21 -139.5t23 -134.5q24 -57 68.5 -95.5t99.5 -38.5q62 -1 109.5 43t88.5 113zM1042 188q11 -25 -4.5 -51.5t-40.5 -42.5q-41 -27 -83.5 -46.5
t-88.5 -28t-83.5 -1t-65.5 41t-37 92.5q-1 2 -6 28q-59 -82 -119 -127q-66 -54 -147.5 -70t-153 4.5t-127.5 80t-74 147.5q-12 73 -10 152t26 157t58 154t85 141.5t108.5 120t127.5 90.5t142 51.5t152.5 4t158.5 -51.5q31 -18 21 -51v-12q-4 -58 -11 -94q3 -12 0 -31
q-3 -8 -7 -26.5t-7 -26.5q-20 -127 -51 -232q-31 -162 -31 -280v-15.5v-20.5t0.5 -21.5t2.5 -23t5 -20t8.5 -17.5t12.5 -11q11 -6 25 -6t26.5 4.5t28.5 12.5t27 15t25 16.5t19 12.5q21 15 50 10.5t38 -29.5zM334 1442q-14 35 18 68.5t69.5 35.5t55.5 -30q38 -84 128 -111
t180.5 7t132.5 110q21 39 75 48q50 7 66 -19q13 -20 -6 -52q-37 -71 -109.5 -128t-159.5 -83.5t-173.5 -25.5t-162 47.5t-114.5 132.5z" />
    <glyph glyph-name="Aogonek" unicode="&#x104;" horiz-adv-x="1118" 
d="M336 530q64 5 128.5 7.5t170 3t129.5 0.5q-57 312 -80 608q-142 -258 -348 -619zM907 426q27 -132 76 -334q13 -44 -10.5 -71t-57 -17t-45.5 55q-47 182 -82 361q-28 0 -128 -0.5t-145 -1.5t-120.5 -7t-136.5 -18q-39 -67 -109 -190.5t-100 -175.5q-27 -49 -67 -38
q-31 9 -40 45q-9 31 9 62q33 59 98 175.5t98 174.5q-11 47 35 60q376 659 490 872q1 28 15 42t34 14q28 9 51.5 -15t20.5 -59v-4q14 -384 92 -809h6q33 2 60.5 -10t37.5 -39q12 -25 -4 -46.5t-43 -23.5q-6 0 -17.5 -1t-17.5 -1zM594 -258q1 72 84 157t192 142h111
q-111 -69 -186.5 -147.5t-75.5 -153.5q0 -48 36.5 -69.5t112.5 1.5q40 13 63.5 -4.5t14.5 -45t-49 -38.5q-126 -27 -215 16.5t-88 141.5z" />
    <glyph glyph-name="aogonek" unicode="&#x105;" 
d="M1042 188q11 -25 -4.5 -51.5t-40.5 -42.5q-37 -26 -67 -39q-162 -129 -162 -231q0 -48 37 -69.5t113 1.5q40 13 63 -4.5t14 -45t-49 -38.5q-126 -27 -215 16.5t-88 141.5q0 86 117 188q-104 11 -121 138q-1 2 -6 28q-59 -82 -119 -127q-66 -54 -147.5 -70t-153 4.5
t-127.5 80t-74 147.5q-12 73 -10 152t26 157t58 154t85 141.5t108.5 120t127.5 90.5t142 51.5t152.5 4t158.5 -51.5q31 -18 21 -51v-12q-4 -58 -11 -94q3 -12 0 -31q-3 -8 -7 -26.5t-7 -26.5q-20 -127 -51 -232q-31 -162 -31 -280v-15.5v-20.5t0.5 -21.5t2.5 -23t5 -20
t8.5 -17.5t12.5 -11q11 -6 25 -6t26.5 4.5t28.5 12.5t27 15t25 16.5t19 12.5q21 15 50 10.5t38 -29.5zM532 260q107 183 162 412q5 32 15 73q15 78 26 183q-87 39 -171 26.5t-155.5 -62t-123.5 -128.5q-39 -57 -69 -118t-52 -134t-21 -139.5t23 -134.5q24 -57 68.5 -95.5
t99.5 -38.5q62 -1 109.5 43t88.5 113z" />
    <glyph glyph-name="Cacute" unicode="&#x106;" horiz-adv-x="1044" 
d="M1092 1401q47 -14 30 -58q-14 -37 -56 -58q-31 -16 -58 -7q-81 23 -157.5 30t-154.5 -2.5t-147.5 -47.5t-120.5 -103q-78 -97 -126 -223.5t-62 -257.5q-34 -255 69 -406q142 -209 537 -123q27 5 48.5 -11.5t18.5 -43.5q-3 -29 -25.5 -48t-53.5 -26q-94 -20 -181 -25
t-179.5 7.5t-171 59.5t-128.5 126q-66 105 -84.5 246t6.5 262q74 391 275 580q97 91 219.5 132.5t245 38.5t256.5 -42zM745 1595q-48 -21 -84 9q-31 26 -18 59q9 25 43 39q18 8 38.5 23t30.5 24t35.5 33.5t28.5 27.5q11 9 38 32.5t41 35t36.5 29t42.5 30.5q80 25 115 -4
q21 -19 15.5 -46.5t-30.5 -39.5q-39 -22 -84 -60.5t-78.5 -71.5t-79.5 -67.5t-90 -52.5z" />
    <glyph glyph-name="cacute" unicode="&#x107;" horiz-adv-x="823" 
d="M770 1047q34 -21 31 -57.5t-37.5 -67t-67.5 -17.5q-103 38 -190.5 17t-156.5 -89t-114.5 -155t-64.5 -180q-45 -225 55 -320q121 -121 383 -16q53 21 74 -19q17 -35 -5 -74q-14 -25 -40 -36q-373 -141 -520 26q-50 58 -73.5 135t-22.5 152t20 154q27 123 92 239.5
t162 206.5t217 120.5t258 -19.5zM573 1225q-48 -21 -84 9q-31 26 -18 59q11 24 43 38q18 8 38 23t31.5 25t34.5 33t29 28q11 9 38 32.5t41 35t36.5 29t42.5 30.5q80 25 115 -4q21 -19 15.5 -46.5t-30.5 -39.5q-39 -22 -84 -60.5t-78.5 -71.5t-79.5 -67.5t-90 -52.5z" />
    <glyph glyph-name="Ccircumflex" unicode="&#x108;" horiz-adv-x="1044" 
d="M1092 1401q47 -14 30 -58q-14 -37 -56 -58q-31 -16 -58 -7q-81 23 -157.5 30t-154.5 -2.5t-147.5 -47.5t-120.5 -103q-78 -97 -126 -223.5t-62 -257.5q-34 -255 69 -406q142 -209 537 -123q27 5 48.5 -11.5t18.5 -43.5q-3 -29 -25.5 -48t-53.5 -26q-94 -20 -181 -25
t-179.5 7.5t-171 59.5t-128.5 126q-66 105 -84.5 246t6.5 262q74 391 275 580q97 91 219.5 132.5t245 38.5t256.5 -42zM655 1604q-27 -29 -81 -13q-46 13 -56 42q-7 22 14 42q22 19 86.5 80t110.5 94q44 36 83 48t70 1.5t52 -26.5t43 -41q9 -11 37 -48.5t51 -62.5t47 -43
q20 -16 23.5 -39t-15.5 -39q-23 -19 -51.5 -17.5t-50.5 17.5q-108 78 -170 187q-5 -12 -25 -29q-88 -74 -168 -153z" />
    <glyph glyph-name="ccircumflex" unicode="&#x109;" horiz-adv-x="823" 
d="M770 1047q34 -21 31 -57.5t-37.5 -67t-67.5 -17.5q-103 38 -190.5 17t-156.5 -89t-114.5 -155t-64.5 -180q-45 -225 55 -320q121 -121 383 -16q53 21 74 -19q17 -35 -5 -74q-14 -25 -40 -36q-373 -141 -520 26q-50 58 -73.5 135t-22.5 152t20 154q27 123 92 239.5
t162 206.5t217 120.5t258 -19.5zM455 1284q-27 -29 -81 -13q-46 14 -56 43q-5 22 14 42q23 20 86.5 80.5t109.5 93.5q44 36 83 48t70 1t52 -26.5t43 -41.5q9 -10 37.5 -47.5t51 -62.5t46.5 -43q20 -16 24 -39t-15 -39q-23 -19 -52 -17.5t-51 17.5q-109 78 -170 186
q-5 -12 -24 -28q-83 -69 -168 -154z" />
    <glyph glyph-name="Cdotaccent" unicode="&#x10a;" horiz-adv-x="1044" 
d="M1092 1401q47 -14 30 -58q-14 -37 -56 -58q-31 -16 -58 -7q-81 23 -157.5 30t-154.5 -2.5t-147.5 -47.5t-120.5 -103q-78 -97 -126 -223.5t-62 -257.5q-34 -255 69 -406q142 -209 537 -123q27 5 48.5 -11.5t18.5 -43.5q-3 -29 -25.5 -48t-53.5 -26q-94 -20 -181 -25
t-179.5 7.5t-171 59.5t-128.5 126q-66 105 -84.5 246t6.5 262q74 391 275 580q97 91 219.5 132.5t245 38.5t256.5 -42zM899 1731q20 -15 20 -43t-20 -48q-26 -27 -65.5 -31t-71.5 15q-37 23 -52 66.5t7 81.5q20 30 58 40.5t71 -0.5q27 -8 44 -31.5t9 -49.5z" />
    <glyph glyph-name="cdotaccent" unicode="&#x10b;" horiz-adv-x="823" 
d="M770 1047q34 -21 31 -57.5t-37.5 -67t-67.5 -17.5q-103 38 -190.5 17t-156.5 -89t-114.5 -155t-64.5 -180q-45 -225 55 -320q121 -121 383 -16q53 21 74 -19q17 -35 -5 -74q-14 -25 -40 -36q-373 -141 -520 26q-50 58 -73.5 135t-22.5 152t20 154q27 123 92 239.5
t162 206.5t217 120.5t258 -19.5zM727 1386q20 -15 20 -42.5t-20 -47.5q-26 -27 -65.5 -31t-71.5 15q-37 23 -52 66t7 81q20 30 58 41t71 0q27 -8 44 -32t9 -50z" />
    <glyph glyph-name="Ccaron" unicode="&#x10c;" horiz-adv-x="1044" 
d="M1092 1401q47 -14 30 -58q-14 -37 -56 -58q-31 -16 -58 -7q-81 23 -157.5 30t-154.5 -2.5t-147.5 -47.5t-120.5 -103q-78 -97 -126 -223.5t-62 -257.5q-34 -255 69 -406q142 -209 537 -123q27 5 48.5 -11.5t18.5 -43.5q-3 -29 -25.5 -48t-53.5 -26q-94 -20 -181 -25
t-179.5 7.5t-171 59.5t-128.5 126q-66 105 -84.5 246t6.5 262q74 391 275 580q97 91 219.5 132.5t245 38.5t256.5 -42zM666 1882q71 -89 133 -151q15 -18 18 -29q84 106 211 184q24 16 51.5 17.5t48.5 -17.5q15 -15 7.5 -39t-31.5 -39q-27 -17 -55.5 -42.5t-63 -60.5
t-49.5 -48q-137 -132 -250 -19q-30 25 -55 52t-54.5 63t-48.5 57q-27 34 16 66q41 29 87 23q24 -2 35 -17z" />
    <glyph glyph-name="ccaron" unicode="&#x10d;" horiz-adv-x="823" 
d="M770 1047q34 -21 31 -57.5t-37.5 -67t-67.5 -17.5q-103 38 -190.5 17t-156.5 -89t-114.5 -155t-64.5 -180q-45 -225 55 -320q121 -121 383 -16q53 21 74 -19q17 -35 -5 -74q-14 -25 -40 -36q-373 -141 -520 26q-50 58 -73.5 135t-22.5 152t20 154q27 123 92 239.5
t162 206.5t217 120.5t258 -19.5zM457 1487q74 -93 133 -152q16 -19 18 -28q84 106 211 184q24 16 52 17.5t49 -17.5q15 -15 7 -39t-32 -39q-27 -17 -55.5 -42.5t-63 -60.5t-49.5 -48q-137 -132 -250 -19q-30 25 -55 52t-54.5 63t-48.5 57q-27 34 16 66q41 29 87 23
q24 -3 35 -17z" />
    <glyph glyph-name="Dcaron" unicode="&#x10e;" horiz-adv-x="1189" 
d="M1022 686q19 70 27 140.5t4.5 147.5t-33.5 146t-86 113q-56 45 -125 61.5t-160 18.5h-31h-34.5t-32.5 -0.5t-36.5 -1.5t-33.5 -3t-36 -5t-33 -7q2 -15 -2 -36q-125 -600 -205 -1098q-6 -15 -12 -27q331 -41 544 109q203 141 285 442zM1026 1360q67 -59 106.5 -141.5
t49.5 -173t2 -179.5t-33 -176q-119 -401 -377 -571q-276 -185 -696 -117q-43 8 -35.5 52.5t47.5 74.5q-10 17 -4 47q76 461 203 1081q-30 11 -25.5 60.5t41.5 73.5q73 44 164.5 56.5t212.5 10.5q116 -4 199 -23t145 -75zM592 1888q70 -89 133 -151q15 -18 18 -29
q84 106 211 184q24 16 52 17.5t49 -17.5q15 -15 7 -38.5t-32 -38.5q-27 -17 -56 -43t-63 -60.5t-49 -48.5q-136 -132 -250 -18q-30 25 -55 52t-54 63t-48 57q-28 34 17 66q40 28 85 23q24 -3 35 -18z" />
    <glyph glyph-name="dcaron" unicode="&#x10f;" horiz-adv-x="1187" 
d="M401 125q88 38 209 168q52 365 101 602q-78 24 -149 27.5t-142.5 -20t-124.5 -77.5q-68 -71 -104 -174t-41 -215q-2 -102 25.5 -191t96.5 -126q52 -27 129 6zM823 1427q9 37 51.5 42t77 -20.5t25.5 -62.5q-178 -767 -236 -1359q-4 -37 -43.5 -42.5t-76.5 19.5t-33 62
q0 6 1 19t1 19q-61 -45 -90 -61q-70 -42 -140.5 -58t-144 4.5t-125.5 84.5q-43 55 -66 130.5t-23.5 148.5t9.5 147q21 136 84.5 254.5t165.5 197.5q102 77 230 96.5t247 -14.5q11 54 86 393zM1124 1354q-27 6 -37.5 29.5t3.5 46.5q13 26 42.5 38.5t59.5 6.5q22 -5 38.5 -15
t25.5 -26.5t15.5 -30.5t5.5 -39t-1 -38.5t-6.5 -43t-8.5 -39t-10.5 -39.5t-9.5 -33q-11 -38 -63 -53t-76 9q-16 15 -8 44q3 12 10 35t12 42t8 36q4 44 2 62l-2 8v0z" />
    <glyph glyph-name="Dcroat" unicode="&#x110;" horiz-adv-x="1357" 
d="M109 682q-55 -8 -64 36q-9 40 21 77q21 23 47 28q91 14 192 17l92 454q-23 12 -37.5 29.5t-13 37.5t24.5 34q54 33 126.5 49.5t122.5 19t136 2.5q233 -4 366 -94q73 -53 119 -133t62 -170.5t12.5 -181.5t-25.5 -180q-105 -411 -366 -580q-284 -189 -713 -121
q-50 7 -69 49q-17 38 9 60q15 11 37 12q-7 21 -4 47q35 211 97 522q-95 -3 -172 -14zM516 1290l-86 -448q184 -4 279 -4q45 -1 47 -45q3 -42 -31 -78q-24 -25 -51 -25q-3 0 -273 6q-17 -90 -50 -270t-50 -270q-3 -25 -12 -37q317 -31 522 110q217 152 303 451
q22 71 34 142.5t13.5 152.5t-22.5 154.5t-74 123.5q-49 48 -113.5 66t-152.5 22q-8 0 -43.5 0.5t-50 0t-46 -2t-51 -5t-44 -10t-44.5 -15.5q0 -7 -4 -19z" />
    <glyph glyph-name="dcroat" unicode="&#x111;" horiz-adv-x="1064" 
d="M604 1200q-57 -1 -67 38q-8 35 24 63q24 20 57 22q84 2 246 -2l19 84q8 38 58 54q51 17 80 -5q21 -17 13 -51q-4 -19 -22 -90q139 -8 211 -10q58 0 65 -39q6 -34 -27 -62q-25 -20 -57 -20q-108 0 -219 6q-137 -598 -192 -1149q-3 -42 -55 -67q-50 -24 -81 -7
q-21 11 -18 39q4 30 8 78q-46 -39 -88 -62q-70 -42 -144 -57.5t-149.5 6t-126.5 84.5q-46 58 -70.5 135t-25.5 151t10 150q22 138 82.5 256.5t161.5 192.5q211 154 502 82l37 176q-126 7 -232 4zM352 815q-71 -74 -107 -180.5t-38 -220.5q-5 -100 20 -190.5t90 -129.5
q53 -29 111 -2q110 47 231 182l15 11q36 290 100 602q-269 89 -422 -72z" />
    <glyph glyph-name="Emacron" unicode="&#x112;" horiz-adv-x="1015" 
d="M1047 1448q49 2 51 -37q1 -38 -35 -71q-27 -24 -55 -25q-267 -6 -535 -6q-49 -320 -82 -500q127 -1 151.5 -1t151 6t150.5 7q51 1 73 -39q21 -35 -3 -62q-17 -19 -52 -20q-52 -1 -164 -6.5t-163.5 -6.5t-163.5 3q-53 -282 -117 -561q-2 -2 -2 -6q88 -11 192 -11t181 5
t196 16q47 4 65.5 -25.5t-0.5 -61.5t-63 -36q-137 -13 -238 -19t-225.5 -2.5t-236.5 21.5q-28 4 -37 30.5t4 49.5q5 8 16 16q32 93 133 661.5t99 598.5q3 25 27 45.5t53 26.5q12 6 28 6q400 0 601 4zM494 1630q-29 -5 -44 22t-8 58t33 37q65 12 143.5 17.5t128 5.5
t148.5 -2.5t133 -2.5q17 0 28 -12t13 -29t-1.5 -34t-16 -29t-29.5 -12q-37 0 -129 1.5t-141 1t-123 -5.5t-135 -16z" />
    <glyph glyph-name="emacron" unicode="&#x113;" horiz-adv-x="933" 
d="M700 713q61 59 45 124t-98 93q-125 46 -244 -32.5t-174 -207.5q-11 -25 -26 -80q72 -8 131.5 -9t129.5 6t130.5 34t105.5 72zM866 952q35 -67 23.5 -136t-51 -126.5t-99.5 -99.5q-217 -154 -559 -123q-3 -133 56 -234q44 -74 113.5 -101.5t140.5 -16.5t149 49q25 13 50 3
t28 -38q4 -29 -14 -55t-46 -39q-85 -38 -139 -51q-161 -40 -287.5 36t-167.5 236q-42 162 -1 332t149 297q120 142 297 188q102 26 206 -3.5t152 -117.5zM375 1245q-29 -5 -44 22t-8 58t33 37q65 12 143.5 17.5t128 5.5t148.5 -2.5t133 -2.5q17 0 28 -12t13 -29t-1.5 -34
t-16 -29t-29.5 -12q-37 0 -129 1.5t-141 1t-123 -5.5t-135 -16z" />
    <glyph glyph-name="Ebreve" unicode="&#x114;" horiz-adv-x="1015" 
d="M1047 1448q49 2 51 -37q1 -38 -35 -71q-27 -24 -55 -25q-267 -6 -535 -6q-49 -320 -82 -500q127 -1 151.5 -1t151 6t150.5 7q51 1 73 -39q21 -35 -3 -62q-17 -19 -52 -20q-52 -1 -164 -6.5t-163.5 -6.5t-163.5 3q-53 -282 -117 -561q-2 -2 -2 -6q88 -11 192 -11t181 5
t196 16q47 4 65.5 -25.5t-0.5 -61.5t-63 -36q-137 -13 -238 -19t-225.5 -2.5t-236.5 21.5q-28 4 -37 30.5t4 49.5q5 8 16 16q32 93 133 661.5t99 598.5q3 25 27 45.5t53 26.5q12 6 28 6q400 0 601 4zM446 1802q-14 35 18.5 68.5t70 35.5t55.5 -30q38 -84 128 -111t180 7
t132 110q21 39 75 48q49 8 66 -18q13 -20 -6 -52q-37 -71 -109.5 -128t-159.5 -83.5t-173.5 -26t-162 47t-114.5 132.5z" />
    <glyph glyph-name="ebreve" unicode="&#x115;" horiz-adv-x="933" 
d="M700 713q61 59 45 124t-98 93q-125 46 -244 -32.5t-174 -207.5q-11 -25 -26 -80q72 -8 131.5 -9t129.5 6t130.5 34t105.5 72zM866 952q35 -67 23.5 -136t-51 -126.5t-99.5 -99.5q-217 -154 -559 -123q-3 -133 56 -234q44 -74 113.5 -101.5t140.5 -16.5t149 49q25 13 50 3
t28 -38q4 -29 -14 -55t-46 -39q-85 -38 -139 -51q-161 -40 -287.5 36t-167.5 236q-42 162 -1 332t149 297q120 142 297 188q102 26 206 -3.5t152 -117.5zM311 1436q-14 35 18.5 68.5t70 35t55.5 -30.5q29 -63 90.5 -94.5t127.5 -27.5t128.5 38t93.5 91q21 39 75 48
q50 7 66 -19q13 -20 -6 -52q-37 -71 -109.5 -128t-159.5 -83.5t-173.5 -25.5t-162 47.5t-114.5 132.5z" />
    <glyph glyph-name="Edotaccent" unicode="&#x116;" horiz-adv-x="1015" 
d="M1047 1448q49 2 51 -37q1 -38 -35 -71q-27 -24 -55 -25q-267 -6 -535 -6q-49 -320 -82 -500q127 -1 151.5 -1t151 6t150.5 7q51 1 73 -39q21 -35 -3 -62q-17 -19 -52 -20q-52 -1 -164 -6.5t-163.5 -6.5t-163.5 3q-53 -282 -117 -561q-2 -2 -2 -6q88 -11 192 -11t181 5
t196 16q47 4 65.5 -25.5t-0.5 -61.5t-63 -36q-137 -13 -238 -19t-225.5 -2.5t-236.5 21.5q-28 4 -37 30.5t4 49.5q5 8 16 16q32 93 133 661.5t99 598.5q3 25 27 45.5t53 26.5q12 6 28 6q400 0 601 4zM823 1712q20 -15 20 -42.5t-20 -47.5q-26 -27 -65.5 -31t-71.5 15
q-37 23 -52 66t7 81q20 30 58 41t71 0q27 -8 44 -32t9 -50z" />
    <glyph glyph-name="edotaccent" unicode="&#x117;" horiz-adv-x="933" 
d="M700 713q61 59 45 124t-98 93q-125 46 -244 -32.5t-174 -207.5q-11 -25 -26 -80q72 -8 131.5 -9t129.5 6t130.5 34t105.5 72zM866 952q35 -67 23.5 -136t-51 -126.5t-99.5 -99.5q-217 -154 -559 -123q-3 -133 56 -234q44 -74 113.5 -101.5t140.5 -16.5t149 49q25 13 50 3
t28 -38q4 -29 -14 -55t-46 -39q-85 -38 -139 -51q-161 -40 -287.5 36t-167.5 236q-42 162 -1 332t149 297q120 142 297 188q102 26 206 -3.5t152 -117.5zM698 1368q20 -15 20 -42.5t-20 -47.5q-26 -27 -65.5 -31t-71.5 15q-37 23 -52 66t7 81q20 30 58 41t71 0q27 -8 44 -32
t9 -50z" />
    <glyph glyph-name="Eogonek" unicode="&#x118;" horiz-adv-x="1015" 
d="M1047 1448q49 2 51 -37q1 -38 -35 -71q-27 -24 -55 -25q-267 -6 -535 -6q-49 -320 -82 -500q127 -1 151.5 -1t151 6t150.5 7q51 1 73 -39q21 -35 -3 -62q-17 -19 -52 -20q-52 -1 -164 -6.5t-163.5 -6.5t-163.5 3q-53 -282 -117 -561q-2 -2 -2 -6q88 -11 192 -11t181 5
t196 16q47 4 65.5 -25.5t-0.5 -61.5t-63 -36q-73 -8 -211 -16q-108 -68 -181 -146t-73 -151q0 -48 37 -69.5t113 1.5q40 13 63.5 -4.5t14.5 -45t-49 -38.5q-126 -27 -215.5 16.5t-88.5 141.5q1 70 78 151.5t181 139.5q-190 -6 -369 20q-28 4 -37 30.5t4 49.5q5 8 16 16
q32 93 133 661.5t99 598.5q3 25 27 45.5t53 26.5q12 6 28 6q400 0 601 4z" />
    <glyph glyph-name="eogonek" unicode="&#x119;" horiz-adv-x="933" 
d="M866 952q35 -67 23.5 -136t-51 -126.5t-99.5 -99.5q-217 -154 -559 -123q-3 -133 56 -234q44 -74 113.5 -101.5t140.5 -16.5t149 49q25 13 50 3t28 -38q4 -29 -14 -55t-46 -39q-70 -32 -92 -37q-178 -133 -178 -246q0 -48 36.5 -69t113.5 2q40 13 63 -4.5t14 -45
t-49 -38.5q-126 -27 -215 16t-88 141q0 94 148 217q-125 0 -219 77t-128 208q-42 162 -1 332t149 297q120 142 297 188q102 26 206 -3.5t152 -117.5zM700 713q61 59 45 124t-98 93q-125 46 -244 -32.5t-174 -207.5q-11 -25 -26 -80q72 -8 131.5 -9t129.5 6t130.5 34
t105.5 72z" />
    <glyph glyph-name="Ecaron" unicode="&#x11a;" horiz-adv-x="1015" 
d="M1047 1448q49 2 51 -37q1 -38 -35 -71q-27 -24 -55 -25q-267 -6 -535 -6q-49 -320 -82 -500q127 -1 151.5 -1t151 6t150.5 7q51 1 73 -39q21 -35 -3 -62q-17 -19 -52 -20q-52 -1 -164 -6.5t-163.5 -6.5t-163.5 3q-53 -282 -117 -561q-2 -2 -2 -6q88 -11 192 -11t181 5
t196 16q47 4 65.5 -25.5t-0.5 -61.5t-63 -36q-137 -13 -238 -19t-225.5 -2.5t-236.5 21.5q-28 4 -37 30.5t4 49.5q5 8 16 16q32 93 133 661.5t99 598.5q3 25 27 45.5t53 26.5q12 6 28 6q400 0 601 4zM608 1886q71 -89 133 -151q17 -20 19 -29q84 106 211 184
q24 16 51.5 17.5t48.5 -17.5q15 -15 7.5 -39t-31.5 -39q-27 -17 -55.5 -42.5t-63 -60.5t-49.5 -48q-137 -132 -250 -19q-30 25 -55.5 52t-54.5 63.5t-48 57.5q-28 34 17 66q40 28 85 23q24 -3 35 -18z" />
    <glyph glyph-name="ecaron" unicode="&#x11b;" horiz-adv-x="933" 
d="M700 713q61 59 45 124t-98 93q-125 46 -244 -32.5t-174 -207.5q-11 -25 -26 -80q72 -8 131.5 -9t129.5 6t130.5 34t105.5 72zM866 952q35 -67 23.5 -136t-51 -126.5t-99.5 -99.5q-217 -154 -559 -123q-3 -133 56 -234q44 -74 113.5 -101.5t140.5 -16.5t149 49q25 13 50 3
t28 -38q4 -29 -14 -55t-46 -39q-85 -38 -139 -51q-161 -40 -287.5 36t-167.5 236q-42 162 -1 332t149 297q120 142 297 188q102 26 206 -3.5t152 -117.5zM479 1528q74 -93 133 -152q17 -21 19 -28q84 106 211 184q24 16 51.5 17.5t48.5 -17.5q15 -15 7.5 -39t-31.5 -39
q-27 -17 -55.5 -42.5t-63 -60.5t-49.5 -48q-137 -132 -250 -19q-30 25 -55 52t-54.5 63t-48.5 57q-28 34 17 66q40 29 85 23q24 -2 35 -17z" />
    <glyph glyph-name="Gcircumflex" unicode="&#x11c;" horiz-adv-x="1183" 
d="M455 1188q-163 -141 -219 -363q-16 -71 -23.5 -139t-5.5 -143t23 -145t61 -124q80 -101 225 -139q183 -44 340 103q24 140 84 358q-22 -4 -100.5 -2.5t-102.5 0.5q-42 -2 -49 43t23 83q22 27 51 28q28 1 81 -1t96.5 -1t80.5 8q41 8 55 -23t4 -72q-92 -332 -127 -565
q-5 -34 -30 -54t-51.5 -15.5t-36.5 32.5q-147 -103 -324 -80q-76 9 -154.5 48.5t-128.5 95.5q-76 86 -111.5 208t-34 238.5t27.5 237.5q33 146 103 276t173 215q286 238 721 131q35 -8 36 -47.5t-27.5 -73.5t-65.5 -26q-107 26 -207 30t-205 -25.5t-182 -96.5zM610 1632
q-27 -29 -81 -13q-46 14 -56 43q-5 22 14 42q22 19 86.5 80t110.5 94q44 36 83 48t70 1.5t52 -26.5t43 -41q9 -11 37 -48.5t51 -62.5t47 -43q20 -16 23.5 -39t-15.5 -39q-23 -19 -51.5 -17.5t-50.5 17.5q-108 78 -170 187q-5 -12 -25 -29q-83 -69 -168 -154z" />
    <glyph glyph-name="gcircumflex" unicode="&#x11d;" horiz-adv-x="942" 
d="M401 182q115 67 230 189q7 40 35 230t47 267q-218 86 -371 -41q-144 -124 -188 -360q-39 -224 32 -303q20 -22 61 -23.5t81 10.5t73 31zM795 997q44 6 80 -18t20 -59q-13 -31 -23.5 -67t-17.5 -63.5t-14.5 -73.5t-10.5 -66.5t-9.5 -74t-8.5 -67.5q-2 -11 -9.5 -63
t-9.5 -68t-9.5 -62t-11.5 -68t-12 -62t-14.5 -67t-16 -61t-19.5 -65q-92 -281 -250 -365q-207 -110 -496 11q-26 8 -38.5 33.5t3.5 49.5q33 43 105 13q99 -39 180.5 -38t139 32.5t104 94.5t76 136.5t53.5 171.5q-74 -62 -170 -108q-48 -23 -97.5 -34.5t-104 -4t-89.5 42.5
q-141 138 -92 444q22 142 82 270t157 213q76 64 166.5 88t179.5 11.5t177 -56.5zM438 1251q-27 -29 -81 -13q-46 14 -56 43q-5 22 14 42q22 19 86.5 80t110.5 94q44 36 83 48t70 1.5t52 -26.5t43 -41q9 -11 37 -48.5t51 -62.5t47 -43q20 -16 23.5 -39t-15.5 -39
q-23 -19 -51.5 -17.5t-50.5 17.5q-108 78 -170 187q-5 -12 -25 -29q-83 -69 -168 -154z" />
    <glyph glyph-name="Gbreve" unicode="&#x11e;" horiz-adv-x="1183" 
d="M455 1188q-163 -141 -219 -363q-16 -71 -23.5 -139t-5.5 -143t23 -145t61 -124q80 -101 225 -139q183 -44 340 103q24 140 84 358q-22 -4 -100.5 -2.5t-102.5 0.5q-42 -2 -49 43t23 83q22 27 51 28q28 1 81 -1t96.5 -1t80.5 8q41 8 55 -23t4 -72q-92 -332 -127 -565
q-5 -34 -30 -54t-51.5 -15.5t-36.5 32.5q-147 -103 -324 -80q-76 9 -154.5 48.5t-128.5 95.5q-76 86 -111.5 208t-34 238.5t27.5 237.5q33 146 103 276t173 215q286 238 721 131q35 -8 36 -47.5t-27.5 -73.5t-65.5 -26q-107 26 -207 30t-205 -25.5t-182 -96.5zM506 1780
q-14 35 18 68.5t69.5 35t55.5 -30.5q29 -63 90.5 -94.5t127.5 -27.5t129 38t94 91q21 39 75 48q50 7 66 -19q13 -20 -6 -52q-37 -71 -109.5 -128t-159.5 -83.5t-173.5 -25.5t-162 47.5t-114.5 132.5z" />
    <glyph glyph-name="gbreve" unicode="&#x11f;" horiz-adv-x="942" 
d="M401 182q115 67 230 189q7 40 35 230t47 267q-218 86 -371 -41q-144 -124 -188 -360q-39 -224 32 -303q20 -22 61 -23.5t81 10.5t73 31zM795 997q44 6 80 -18t20 -59q-13 -31 -23.5 -67t-17.5 -63.5t-14.5 -73.5t-10.5 -66.5t-9.5 -74t-8.5 -67.5q-2 -11 -9.5 -63
t-9.5 -68t-9.5 -62t-11.5 -68t-12 -62t-14.5 -67t-16 -61t-19.5 -65q-92 -281 -250 -365q-207 -110 -496 11q-26 8 -38.5 33.5t3.5 49.5q33 43 105 13q99 -39 180.5 -38t139 32.5t104 94.5t76 136.5t53.5 171.5q-74 -62 -170 -108q-48 -23 -97.5 -34.5t-104 -4t-89.5 42.5
q-141 138 -92 444q22 142 82 270t157 213q76 64 166.5 88t179.5 11.5t177 -56.5zM276 1346q-14 35 18.5 68.5t70 35t55.5 -30.5q38 -84 128 -111t180 7t132 110q21 39 75 48q49 8 66 -18q13 -20 -6 -52q-37 -71 -109.5 -128t-159.5 -83.5t-173.5 -25.5t-162 47.5
t-114.5 132.5z" />
    <glyph glyph-name="Gdotaccent" unicode="&#x120;" horiz-adv-x="1183" 
d="M455 1188q-163 -141 -219 -363q-16 -71 -23.5 -139t-5.5 -143t23 -145t61 -124q80 -101 225 -139q183 -44 340 103q24 140 84 358q-22 -4 -100.5 -2.5t-102.5 0.5q-42 -2 -49 43t23 83q22 27 51 28q28 1 81 -1t96.5 -1t80.5 8q41 8 55 -23t4 -72q-92 -332 -127 -565
q-5 -34 -30 -54t-51.5 -15.5t-36.5 32.5q-147 -103 -324 -80q-76 9 -154.5 48.5t-128.5 95.5q-76 86 -111.5 208t-34 238.5t27.5 237.5q33 146 103 276t173 215q286 238 721 131q35 -8 36 -47.5t-27.5 -73.5t-65.5 -26q-107 26 -207 30t-205 -25.5t-182 -96.5zM948 1726
q20 -15 20 -42.5t-20 -47.5q-26 -27 -65.5 -31t-71.5 15q-37 23 -52 66t7 81q20 30 58 41t71 0q27 -8 44 -32t9 -50z" />
    <glyph glyph-name="gdotaccent" unicode="&#x121;" horiz-adv-x="942" 
d="M401 182q115 67 230 189q7 40 35 230t47 267q-218 86 -371 -41q-144 -124 -188 -360q-39 -224 32 -303q20 -22 61 -23.5t81 10.5t73 31zM795 997q44 6 80 -18t20 -59q-13 -31 -23.5 -67t-17.5 -63.5t-14.5 -73.5t-10.5 -66.5t-9.5 -74t-8.5 -67.5q-2 -11 -9.5 -63
t-9.5 -68t-9.5 -62t-11.5 -68t-12 -62t-14.5 -67t-16 -61t-19.5 -65q-92 -281 -250 -365q-207 -110 -496 11q-26 8 -38.5 33.5t3.5 49.5q33 43 105 13q99 -39 180.5 -38t139 32.5t104 94.5t76 136.5t53.5 171.5q-74 -62 -170 -108q-48 -23 -97.5 -34.5t-104 -4t-89.5 42.5
q-141 138 -92 444q22 142 82 270t157 213q76 64 166.5 88t179.5 11.5t177 -56.5zM674 1358q20 -15 20 -42.5t-20 -47.5q-26 -27 -65.5 -31.5t-71.5 14.5q-37 23 -52 66.5t7 81.5q20 30 58 41t71 0q27 -8 44 -32t9 -50z" />
    <glyph glyph-name="Gcommaaccent" unicode="&#x122;" horiz-adv-x="1183" 
d="M455 1188q-163 -141 -219 -363q-16 -71 -23.5 -139t-5.5 -143t23 -145t61 -124q80 -101 225 -139q183 -44 340 103q24 140 84 358q-22 -4 -100.5 -2.5t-102.5 0.5q-42 -2 -49 43t23 83q22 27 51 28q28 1 81 -1t96.5 -1t80.5 8q41 8 55 -23t4 -72q-92 -332 -127 -565
q-5 -34 -30 -54t-51.5 -15.5t-36.5 32.5q-147 -103 -324 -80q-76 9 -154.5 48.5t-128.5 95.5q-76 86 -111.5 208t-34 238.5t27.5 237.5q33 146 103 276t173 215q286 238 721 131q35 -8 36 -47.5t-27.5 -73.5t-65.5 -26q-107 26 -207 30t-205 -25.5t-182 -96.5zM537 -303v4
q-27 -14 -61 -1.5t-44 44.5q-19 53 25.5 86.5t95.5 19.5q65 -17 93 -60t21.5 -94.5t-31.5 -102t-63 -89.5q-33 -30 -80 -19q-37 9 -39 36q-1 19 19 41q28 28 48 65.5t16 69.5z" />
    <glyph glyph-name="gcommaaccent" unicode="&#x123;" horiz-adv-x="942" 
d="M401 182q115 67 230 189q7 40 35 230t47 267q-218 86 -371 -41q-144 -124 -188 -360q-39 -224 32 -303q20 -22 61 -23.5t81 10.5t73 31zM795 997q44 6 80 -18t20 -59q-13 -31 -23.5 -67t-17.5 -63.5t-14.5 -73.5t-10.5 -66.5t-9.5 -74t-8.5 -67.5q-2 -11 -9.5 -63
t-9.5 -68t-9.5 -62t-11.5 -68t-12 -62t-14.5 -67t-16 -61t-19.5 -65q-92 -281 -250 -365q-207 -110 -496 11q-26 8 -38.5 33.5t3.5 49.5q33 43 105 13q99 -39 180.5 -38t139 32.5t104 94.5t76 136.5t53.5 171.5q-74 -62 -170 -108q-48 -23 -97.5 -34.5t-104 -4t-89.5 42.5
q-141 138 -92 444q22 142 82 270t157 213q76 64 166.5 88t179.5 11.5t177 -56.5zM637 1339q28 -6 38.5 -29t-3.5 -46q-13 -26 -43 -38.5t-60 -6.5q-22 5 -38.5 15t-25.5 26.5t-15.5 30.5t-5.5 38.5t1 38.5t6.5 42.5t8.5 39t10.5 39.5t9.5 33q11 37 63 53q51 15 76 -8
q17 -17 9 -45q-1 -3 -14 -46.5t-17 -66.5q-4 -43 -2 -61q1 -3 2 -8v-1z" />
    <glyph glyph-name="Hcircumflex" unicode="&#x124;" horiz-adv-x="1343" 
d="M1237 1421q27 5 47 -11.5t16 -43.5q-85 -478 -249 -1303q-10 -43 -53 -60q-42 -15 -66 10q-20 19 -12 57q81 405 118 610q-174 -4 -704 0q-83 -420 -135 -645q-8 -26 -31 -42.5t-47 -6.5q-49 25 -35 100q67 291 131 606q-22 19 -29 53t8 61.5t48 27.5h2q57 308 114 565
q5 25 29 42t49 7q27 -14 34.5 -45.5t-1.5 -54.5q-26 -121 -106 -514q464 -4 694 0h10q59 298 94 501q5 32 24.5 56t49.5 30zM702 1608q-28 -29 -81 -13q-45 13 -55 42q-7 22 14 42q23 20 86.5 80.5t109.5 93.5q44 36 83 48t70 1.5t52 -26.5t43 -41q9 -11 37 -48.5t51 -62.5
t47 -43q20 -16 23.5 -38.5t-15.5 -38.5q-23 -19 -51.5 -17.5t-50.5 17.5q-109 78 -170 186q-5 -12 -25 -29q-89 -73 -168 -153z" />
    <glyph glyph-name="hcircumflex" unicode="&#x125;" horiz-adv-x="1028" 
d="M930 973q12 -40 15 -82t-4.5 -94t-12.5 -79.5t-19 -88.5q-12 -57 -60 -265.5t-71 -322.5q-5 -31 -23 -55t-46 -25q-27 0 -43 24t-11 50q27 140 119 534q3 16 15.5 70t18 81.5t10 70t1.5 75.5q-3 44 -30.5 60.5t-81.5 13.5q-105 -3 -203.5 -54t-200.5 -136
q-98 -466 -149 -697q-10 -39 -61 -55q-51 -17 -79 7q-18 16 -12 46q21 91 127 588t174 758q7 39 56 56q48 17 77 -4q22 -16 15 -48q-78 -319 -105 -453q195 143 363 146q50 3 92.5 -5.5t79 -38t49.5 -77.5zM236 1550q-27 -29 -81 -13q-46 14 -56 43q-5 22 14 42
q23 20 86.5 80.5t109.5 93.5q44 36 83 48t70 1.5t52 -26.5t43 -41q9 -11 37 -48.5t51 -62.5t47 -43q20 -16 23.5 -39t-15.5 -39q-23 -19 -51.5 -17.5t-50.5 17.5q-108 78 -170 187q-5 -12 -25 -29q-77 -64 -167 -154z" />
    <glyph glyph-name="Itilde" unicode="&#x128;" horiz-adv-x="540" 
d="M342 1376q6 35 47 49t78 -2t31 -55q-118 -716 -260 -1307q-8 -39 -60 -50q-50 -11 -80 14q-21 18 -14 47q129 544 258 1304zM238 1614q-33 -44 -73 -29q-32 13 -34 51q-1 29 21 58q4 5 17.5 23t19 24.5t18.5 21.5t21 21l22 16.5t26.5 15t29 8.5t34.5 5q37 1 72.5 -15.5
t59 -37.5t54 -38.5t58.5 -17.5q16 0 28 10t31.5 35.5t30.5 38.5q18 20 39.5 26.5t37.5 -1.5t26.5 -22t7 -37t-22.5 -46q-3 -4 -16.5 -20t-17.5 -20.5t-16.5 -18.5t-18.5 -18.5t-18 -15t-21 -14t-21 -9t-24.5 -7.5t-26.5 -2q-39 0 -72 15.5t-52.5 34.5t-46 36t-53.5 19
q-9 1 -17 0t-16 -4.5t-14 -6t-14 -9.5l-12 -10.5t-12 -14t-11 -14t-12.5 -16t-11.5 -15.5z" />
    <glyph glyph-name="itilde" unicode="&#x129;" horiz-adv-x="401" 
d="M203 1032q8 37 49 41t76.5 -22.5t27.5 -63.5q-28 -128 -95.5 -463t-108.5 -518q-8 -36 -49.5 -39.5t-75.5 23t-25 63.5q39 183 107 519t94 460zM111 1255q-33 -44 -73 -29q-32 13 -34 51q-1 29 21 58q4 5 17.5 23t19 24.5t18.5 21.5t21 21l22 16.5t26.5 15t29 8.5t34.5 5
q37 1 72.5 -15.5t59 -37t54 -38t58.5 -17.5q16 0 28 10t31.5 35.5t30.5 38.5q18 20 39.5 26.5t37.5 -1.5t26.5 -22t7 -37t-22.5 -46q-3 -4 -16.5 -20t-17.5 -20.5t-16.5 -18.5t-18.5 -18.5t-18 -15t-21 -14t-21 -9t-24.5 -7.5t-26.5 -2q-39 0 -72 15.5t-52.5 34.5t-46 36
t-53.5 19q-10 1 -19.5 -1t-17 -4t-16.5 -9.5t-13.5 -11t-14 -14.5t-12.5 -15t-13.5 -18.5t-13.5 -17.5z" />
    <glyph glyph-name="Imacron" unicode="&#x12a;" horiz-adv-x="540" 
d="M342 1376q6 35 47 49t78 -2t31 -55q-118 -716 -260 -1307q-8 -39 -60 -50q-50 -11 -80 14q-21 18 -14 47q129 544 258 1304zM211 1593q-29 -5 -44 22t-7.5 58t33.5 37q65 12 144 17.5t126 6t150 -2t132 -2.5q17 0 28 -12t13 -29.5t-1.5 -34.5t-16 -29t-29.5 -12
q-37 0 -129 1.5t-141 1t-123 -5.5t-135 -16z" />
    <glyph glyph-name="imacron" unicode="&#x12b;" horiz-adv-x="401" 
d="M203 1032q8 37 49 41t76.5 -22.5t27.5 -63.5q-28 -128 -95.5 -463t-108.5 -518q-8 -36 -49.5 -39.5t-75.5 23t-25 63.5q39 183 107 519t94 460zM51 1286q-29 -5 -44 22t-7.5 58t33.5 37q65 12 143.5 17.5t128 5.5t148.5 -2.5t133 -2.5q17 0 28 -12t13 -29t-1.5 -34
t-16 -29t-29.5 -12q-37 0 -129 1.5t-141.5 1t-123.5 -5.5t-135 -16z" />
    <glyph glyph-name="Ibreve" unicode="&#x12c;" horiz-adv-x="540" 
d="M342 1376q6 35 47 49t78 -2t31 -55q-118 -716 -260 -1307q-8 -39 -60 -50q-50 -11 -80 14q-21 18 -14 47q129 544 258 1304zM147 1784q-14 35 18.5 68.5t70 35.5t55.5 -30q38 -84 128 -111t180 7t132 110q21 39 75 48q50 7 66 -19q13 -20 -6 -52q-37 -71 -109.5 -128
t-159.5 -83.5t-173.5 -25.5t-162 47.5t-114.5 132.5z" />
    <glyph glyph-name="ibreve" unicode="&#x12d;" horiz-adv-x="401" 
d="M203 1032q8 37 49 41t76.5 -22.5t27.5 -63.5q-28 -128 -95.5 -463t-108.5 -518q-8 -36 -49.5 -39.5t-75.5 23t-25 63.5q39 183 107 519t94 460zM2 1440q-14 35 18 68.5t69.5 35t55.5 -30.5q29 -63 90.5 -94.5t127.5 -27.5t129 38t94 91q21 39 75 48q50 7 66 -19
q13 -20 -6 -52q-37 -71 -109.5 -128t-159.5 -83.5t-173.5 -25.5t-162 47.5t-114.5 132.5z" />
    <glyph glyph-name="Iogonek" unicode="&#x12e;" horiz-adv-x="540" 
d="M342 1376q6 35 47 49t78 -2t31 -55q-118 -716 -260 -1307q-6 -24 -27 -37.5t-49 -15.5q-195 -141 -195 -256q0 -48 36.5 -69t113.5 2q40 13 63 -4.5t14 -45t-49 -38.5q-126 -27 -215 16t-88 141q1 67 73.5 146t172.5 137q-10 14 -4 35q129 544 258 1304z" />
    <glyph glyph-name="iogonek" unicode="&#x12f;" horiz-adv-x="401" 
d="M203 1032q8 37 49 41t76.5 -22.5t27.5 -63.5q-27 -125 -92.5 -449.5t-105.5 -500.5h4l-4 -2l-6 -29q-6 -25 -30.5 -34t-53.5 -1q-158 -129 -158 -235q0 -48 36 -69.5t113 1.5q40 13 63.5 -4.5t14.5 -45t-49 -38.5q-126 -27 -215 16.5t-88 141.5q1 64 66 138t159 132
q-15 18 -8 45q39 183 107 519t94 460zM440 1456q44 -60 41 -121q0 -19 -11 -39t-28 -30q-76 -40 -161 10q-30 19 -43.5 60t0.5 75q15 29 34 43q22 14 56 25q19 7 59 1.5t53 -24.5z" />
    <glyph glyph-name="Idotaccent" unicode="&#x130;" horiz-adv-x="540" 
d="M342 1376q6 35 47 49t78 -2t31 -55q-118 -716 -260 -1307q-8 -39 -60 -50q-50 -11 -80 14q-21 18 -14 47q129 544 258 1304zM551 1706q20 -15 20 -42.5t-20 -47.5q-26 -27 -65.5 -31.5t-71.5 14.5q-37 23 -52 66.5t7 81.5q20 30 58 41t71 0q27 -8 44 -32t9 -50z" />
    <glyph glyph-name="dotlessi" unicode="&#x131;" horiz-adv-x="401" 
d="M203 1032q8 37 49 41t76.5 -22.5t27.5 -63.5q-28 -128 -95.5 -463t-108.5 -518q-8 -36 -49.5 -39.5t-75.5 23t-25 63.5q39 183 107 519t94 460z" />
    <glyph glyph-name="IJ" unicode="&#x132;" horiz-adv-x="1167" 
d="M342 1376q6 35 47 49t78 -2t31 -55q-118 -716 -260 -1307q-8 -39 -60 -50q-50 -11 -80 14q-21 18 -14 47q129 544 258 1304zM1012 1427q5 27 29 39.5t49 -0.5q24 -17 32.5 -48t-0.5 -58q-6 -27 -24 -144q-81 -515 -162 -785q-185 -618 -438 -425q-24 19 -33.5 47t0.5 58
q7 26 29.5 39.5t46.5 -3.5q135 -103 239 191q29 83 64 235q41 159 93.5 454.5t74.5 399.5z" />
    <glyph glyph-name="ij" unicode="&#x133;" horiz-adv-x="802" 
d="M203 1032q8 37 49 41t76.5 -22.5t27.5 -63.5q-28 -128 -95.5 -463t-108.5 -518q-8 -36 -49.5 -39.5t-75.5 23t-25 63.5q39 183 107 519t94 460zM440 1456q44 -60 41 -121q0 -19 -11 -39t-28 -30q-76 -40 -161 10q-30 19 -43.5 60t0.5 75q15 29 34 43q22 14 56 25
q19 7 59 1.5t53 -24.5zM639 999q10 53 50 49q34 -3 57 -40q18 -30 12 -62q-28 -128 -79 -383t-79 -383q-60 -285 -106 -407q-44 -119 -119 -172.5t-195 -38.5q-39 4 -57 53q-17 49 4 82q17 24 49 20q27 -4 78 -4q31 4 54.5 21t40.5 47.5t26 54t20 60.5q9 28 18 56.5t17 61.5
t14 56t14.5 61.5t12.5 56t13 62t12 57.5q24 116 71 346t72 346zM836 1354q-7 -7 -23 -15q8 4 12 4l2 3l4 4t5 4zM881 1376q5 -18 -0.5 -37.5t-18.5 -31.5q-2 -1 -8 -7t-10 -8q-22 -10 -43 -12q-23 -7 -47 0q-30 2 -53.5 18.5t-20.5 44.5q3 21 16 31q0 1 -2 3t-2 3
q-3 10 0 25t10 22q38 28 82 25q26 0 50 -14q38 -30 47 -62z" />
    <glyph glyph-name="Jcircumflex" unicode="&#x134;" horiz-adv-x="626" 
d="M471 1427q5 27 29 39.5t49 -0.5q24 -17 32.5 -47t0.5 -59q-6 -27 -24 -143q-82 -515 -163 -786q-185 -618 -438 -425q-24 19 -33.5 47t0.5 58q7 26 29.5 39.5t46.5 -3.5q135 -103 239 191q29 84 64 235q41 159 93.5 454.5t74.5 399.5zM389 1593q-27 -29 -81 -13
q-46 14 -56 43q-5 22 14 42q22 19 86.5 80t110.5 94q44 36 83 48t70 1.5t52 -26.5t43 -41q9 -11 37 -48.5t51 -62.5t47 -43q20 -16 23.5 -39t-15.5 -39q-23 -19 -51.5 -17.5t-50.5 17.5q-108 78 -170 187q-5 -12 -25 -29q-83 -69 -168 -154z" />
    <glyph glyph-name="jcircumflex" unicode="&#x135;" horiz-adv-x="401" 
d="M238 999q10 53 50 49q35 -3 57 -42q17 -29 11 -60q-28 -128 -79 -383t-78 -383q-59 -279 -107 -407q-44 -119 -118.5 -172.5t-194.5 -38.5q-39 4 -57 53q-17 49 4 82q17 24 49 20q27 -4 78 -4q31 4 54.5 21t40.5 47.5t26 54t20 60.5q13 39 24 77.5t23 89.5t17.5 75
t19 90.5t16.5 78.5q25 115 72 345.5t72 346.5zM178 1198q-27 -29 -81 -13q-46 14 -56 43q-5 22 14 42q22 19 86.5 80t110.5 94q44 36 83 48t70 1t52 -26.5t43 -41.5q9 -10 37.5 -47.5t51 -62.5t46.5 -43q20 -16 23.5 -39t-15.5 -39q-23 -19 -51.5 -17.5t-50.5 17.5
q-109 78 -170 186q-4 -11 -25 -28q-83 -69 -168 -154z" />
    <glyph glyph-name="Kcommaaccent" unicode="&#x136;" horiz-adv-x="1114" 
d="M1141 1358q-269 -381 -596 -606q42 -36 86.5 -95.5t62.5 -90.5t64 -109q91 -155 203 -371q24 -45 -19 -71q-39 -24 -82 -9q-27 10 -39 31q-20 37 -59 110.5t-70.5 132t-60.5 109.5q-10 16 -34.5 58t-39.5 64.5t-37.5 56.5t-45.5 60t-48 48q-17 -8 -72 -39q-8 -4 -12 -4
q-55 -253 -143 -592q-9 -35 -52 -45.5t-78 8.5t-26 57q114 435 172 723q6 32 29 137.5t32.5 155.5t22 133t16.5 152q3 38 43.5 55.5t79 5t35.5 -48.5q-3 -53 -9 -108t-17.5 -119t-19 -103.5t-24 -118.5t-22.5 -106q192 110 365 280.5t315 373.5q30 44 63 13q30 -28 31 -78
q-1 -30 -14 -50zM498 -195v5q-27 -14 -61 -1.5t-44 44.5q-19 53 25.5 86.5t95.5 19.5q65 -17 93.5 -60t21.5 -94.5t-31.5 -102t-62.5 -89.5q-33 -29 -80 -19q-37 8 -40 35q-1 19 19 41q28 28 48 65.5t16 69.5z" />
    <glyph glyph-name="kcommaaccent" unicode="&#x137;" horiz-adv-x="886" 
d="M874 918q-32 -35 -92.5 -107.5t-99.5 -117t-98.5 -98t-116.5 -87.5q57 -57 110.5 -146t81 -151.5t70.5 -167.5q17 -46 -14 -89q-27 -37 -58 -27q-21 6 -34 38q-19 51 -28 74.5t-31 75t-37.5 81t-41 74t-49.5 72.5t-55.5 57t-65.5 47h-2l-15 -4q-16 -3 -24 -4
q-49 -269 -73 -385q-8 -39 -60 -56t-83 4q-20 15 -15 42q43 199 127.5 644.5t136.5 680.5q9 39 61 57q51 17 80 -5q19 -14 13 -42q-68 -321 -154 -782q20 16 41 0h2q71 37 137 102t141.5 159.5t104.5 125.5q29 33 89 17q49 -14 61 -44q8 -20 -9 -38zM348 -238v5
q-27 -13 -60.5 -1t-43.5 44q-19 53 25.5 86.5t95.5 19.5q65 -17 93 -60t21.5 -94.5t-31.5 -102t-63 -89.5q-33 -30 -80 -19q-37 8 -39 35q-1 19 19 41q27 27 47 65t16 70z" />
    <glyph glyph-name="Lacute" unicode="&#x139;" horiz-adv-x="974" 
d="M879 123q27 0 43.5 -21t7.5 -47q-8 -29 -35 -43t-59 -12q0 3 -369 2l-369 -2q-27 0 -44.5 21t-8.5 47q7 27 47 47q53 141 98 315t70 299t63 334t58 309q9 40 55 58q46 20 72 -3q19 -17 12 -51q-20 -101 -58 -308t-63 -332.5t-70 -299t-96 -313.5q72 0 203.5 1t239 1
t203.5 -2zM522 1581q-48 -21 -84 9q-31 26 -18 59q9 25 43 39q18 8 38.5 23t30.5 24t35.5 33.5t28.5 27.5q11 9 38 32.5t41 35t36.5 29t42.5 30.5q79 24 114 -4q21 -19 16 -46.5t-30 -39.5q-39 -22 -84 -60.5t-78.5 -71.5t-79.5 -67.5t-90 -52.5z" />
    <glyph glyph-name="lacute" unicode="&#x13a;" horiz-adv-x="528" 
d="M328 1395q6 22 25.5 33.5t43 9.5t45.5 -11t35 -28t8 -41q-24 -110 -82.5 -347.5t-97 -420t-59.5 -352.5q0 -2 -3.5 -20.5t-4.5 -28.5t-2.5 -29.5t0.5 -31t6.5 -25t14.5 -20t24 -7.5q3 0 51 10q46 10 80 -26q32 -33 17 -64q-11 -22 -46 -31q-158 -33 -236 23
q-75 56 -63 202q2 30 5 60.5t8.5 66t9 58.5t12.5 66.5t12 58.5t14 65.5t13 59.5q19 85 54.5 242.5t63.5 285t52 242.5zM500 1591q-48 -21 -84 9q-31 26 -19 59q9 25 43 39q18 8 38.5 23t30.5 24t35.5 33.5t28.5 27.5q11 9 38 32.5t41 35t36.5 29t42.5 30.5q80 25 115 -4
q21 -19 15.5 -46.5t-30.5 -39.5q-49 -27 -106 -80.5t-113 -101t-112 -70.5z" />
    <glyph glyph-name="Lcommaaccent" unicode="&#x13b;" horiz-adv-x="974" 
d="M879 123q27 0 43.5 -21t7.5 -47q-8 -29 -35 -43t-59 -12q0 3 -369 2l-369 -2q-27 0 -44.5 21t-8.5 47q7 27 47 47q53 141 98 315t70 299t63 334t58 309q9 40 55 58q46 20 72 -3q19 -17 12 -51q-20 -101 -58 -308t-63 -332.5t-70 -299t-96 -313.5q72 0 203.5 1t239 1
t203.5 -2zM453 -303v4q-27 -14 -61 -1.5t-44 44.5q-19 53 25.5 86.5t95.5 19.5q65 -17 93 -60t21.5 -94.5t-31.5 -102t-63 -89.5q-33 -30 -80 -19q-37 9 -39 36q-1 19 19 41q28 28 48 65.5t16 69.5z" />
    <glyph glyph-name="lcommaaccent" unicode="&#x13c;" horiz-adv-x="528" 
d="M328 1395q6 22 25.5 33.5t43 9.5t45.5 -11t35 -28t8 -41q-24 -110 -82.5 -347.5t-97 -420t-59.5 -352.5q0 -2 -3.5 -20.5t-4.5 -28.5t-2.5 -29.5t0.5 -31t6.5 -25t14.5 -20t24 -7.5q3 0 51 10q46 10 80 -26q32 -33 17 -64q-11 -22 -46 -31q-158 -33 -236 23
q-75 56 -63 202q2 30 5 60.5t8.5 66t9 58.5t12.5 66.5t12 58.5t14 65.5t13 59.5q19 85 54.5 242.5t63.5 285t52 242.5zM168 -324v5q-27 -14 -61 -1.5t-44 44.5q-19 53 25.5 86.5t95.5 19.5q65 -17 93.5 -60t21.5 -94.5t-31.5 -102t-62.5 -89.5q-33 -29 -80 -19q-37 8 -40 35
q-1 19 19 41q28 28 48 65.5t16 69.5z" />
    <glyph glyph-name="Lcaron" unicode="&#x13d;" horiz-adv-x="974" 
d="M879 123q27 0 43.5 -21t7.5 -47q-8 -29 -35 -43t-59 -12q0 3 -369 2l-369 -2q-27 0 -44.5 21t-8.5 47q7 27 47 47q53 141 98 315t70 299t63 334t58 309q9 40 55 58q46 20 72 -3q19 -17 12 -51q-20 -101 -58 -308t-63 -332.5t-70 -299t-96 -313.5q72 0 203.5 1t239 1
t203.5 -2zM682 1303q-28 6 -38.5 29t3.5 46q13 26 43 38.5t60 6.5q22 -5 38.5 -15t25.5 -26.5t15.5 -30.5t5.5 -38.5t-1 -38.5t-6.5 -42.5t-8.5 -39t-10.5 -39.5t-9.5 -33q-11 -37 -63 -53q-51 -15 -76 8q-17 17 -9 45q1 3 14 46.5t17 66.5q4 43 2 61q-1 3 -2 8v1z" />
    <glyph glyph-name="lcaron" unicode="&#x13e;" horiz-adv-x="757" 
d="M328 1395q6 22 25.5 33.5t43 9.5t45.5 -11t35 -28t8 -41q-24 -110 -82.5 -347.5t-97 -420t-59.5 -352.5q0 -2 -3.5 -20.5t-4.5 -28.5t-2.5 -29.5t0.5 -31t6.5 -25t14.5 -20t24 -7.5q3 0 51 10q46 10 80 -26q32 -33 17 -64q-11 -22 -46 -31q-158 -33 -236 23
q-75 56 -63 202q2 30 5 60.5t8.5 66t9 58.5t12.5 66.5t12 58.5t14 65.5t13 59.5q19 85 54.5 242.5t63.5 285t52 242.5zM645 1315q-28 6 -38.5 29.5t3.5 46.5q13 26 43 38.5t60 6.5q22 -5 38.5 -15t25.5 -26.5t15.5 -30.5t5.5 -38.5t-1 -38.5t-6.5 -42.5t-8.5 -39
t-10.5 -39.5t-9.5 -33q-11 -37 -63 -53q-51 -15 -76 8q-17 17 -9 45q1 4 14 46.5t17 65.5q4 44 2 62q-1 4 -3 8h1z" />
    <glyph glyph-name="Ldot" unicode="&#x13f;" horiz-adv-x="974" 
d="M737 766q20 -15 20 -42.5t-20 -47.5q-26 -27 -65.5 -31.5t-71.5 14.5q-37 23 -52 66.5t7 81.5q20 30 58 41t71 0q27 -8 44 -32t9 -50zM879 123q27 0 43.5 -21t7.5 -47q-8 -29 -35 -43t-59 -12q0 3 -369 2l-369 -2q-27 0 -44.5 21t-8.5 47q7 27 47 47q53 141 98 315
t70 299t63 334t58 309q9 40 55 58q46 20 72 -3q19 -17 12 -51q-20 -101 -58 -308t-63 -332.5t-70 -299t-96 -313.5q72 0 203.5 1t239 1t203.5 -2z" />
    <glyph glyph-name="ldot" unicode="&#x140;" horiz-adv-x="749" 
d="M676 766q20 -15 20 -42.5t-20 -47.5q-26 -27 -65.5 -31.5t-71.5 14.5q-37 23 -52 66.5t7 81.5q20 30 58 41t71 0q27 -8 44 -32t9 -50zM328 1395q6 22 25.5 33.5t43 9.5t45.5 -11t35 -28t8 -41q-24 -110 -82.5 -347.5t-97 -420t-59.5 -352.5q0 -2 -3.5 -20.5t-4.5 -28.5
t-2.5 -29.5t0.5 -31t6.5 -25t14.5 -20t24 -7.5q3 0 51 10q46 10 80 -26q32 -33 17 -64q-11 -22 -46 -31q-158 -33 -236 23q-75 56 -63 202q2 30 5 60.5t8.5 66t9 58.5t12.5 66.5t12 58.5t14 65.5t13 59.5q19 85 54.5 242.5t63.5 285t52 242.5z" />
    <glyph glyph-name="Lslash" unicode="&#x141;" horiz-adv-x="1056" 
d="M98 436q-47 -27 -67 14q-20 37 0 85q12 28 35 43q81 47 268 172q16 81 55.5 298t63.5 334q7 39 57 59q50 19 78 -3q21 -15 14 -47q-18 -88 -48.5 -262t-47.5 -259l141 99q46 30 68 -11q19 -38 2 -87q-10 -28 -29 -42l-221 -153q-65 -316 -154 -559h627q44 -2 64 -34
t3 -63t-65 -30q0 4 -364 2t-367 -2q-31 0 -57.5 14t-36.5 43q-9 23 6.5 45t40.5 25v2q77 212 127 436q-147 -94 -193 -119z" />
    <glyph glyph-name="lslash" unicode="&#x142;" horiz-adv-x="671" 
d="M63 496q-24 -14 -46.5 -14.5t-36 12.5t-19 29.5t4.5 37t34 35.5q127 77 256 164q19 84 70.5 314t79.5 356q9 37 51.5 46.5t78 -12t27.5 -59.5q-37 -183 -121 -518l146 100q39 28 71.5 13t31 -48.5t-37.5 -64.5q-206 -143 -250 -172q-52 -228 -81 -439l-6 -72t0.5 -59.5
t11.5 -52.5h6q22 1 26 2q14 6 41 10q47 8 88 -28q35 -32 21 -59q-9 -19 -41 -25q-51 -12 -82.5 -17t-78 -1t-79.5 26q-48 33 -62.5 87t-10.5 126q9 136 65 379q-95 -59 -158 -96zM332 88q-4 2 -2 2z" />
    <glyph glyph-name="Nacute" unicode="&#x143;" horiz-adv-x="1353" 
d="M1192 1370q9 52 47 51q34 -1 58 -38q20 -30 14 -62q-82 -481 -279 -1290q-13 -53 -55 -50q-36 4 -57 40q-16 28 -9 57q1 3 2 8.5t2 7.5q-108 202 -283.5 590t-221.5 483q-129 -587 -203 -1071q-5 -31 -21.5 -55t-44.5 -27q-28 -1 -44 23t-13 51q112 686 256 1315
q12 45 45 56t57 -16t15 -73q-4 -12 -4 -16v-4q87 -172 250 -535.5t255 -544.5q160 662 234 1100zM831 1577q-48 -21 -84 9q-31 26 -18 59q11 24 43 38q18 8 38 23t31.5 25t34.5 33t29 28q11 9 38 32.5t41 35t36.5 29t42.5 30.5q80 25 115 -4q21 -19 15.5 -46.5t-30.5 -39.5
q-39 -22 -84 -60.5t-78.5 -71.5t-79.5 -67.5t-90 -52.5z" />
    <glyph glyph-name="nacute" unicode="&#x144;" 
d="M918 926q24 -69 25.5 -155.5t-9.5 -155t-33 -158.5q-18 -70 -57.5 -209.5t-57.5 -208.5q-10 -41 -63 -53q-51 -11 -80 15q-20 18 -14 46q15 61 67 228t74.5 289t11.5 235q-6 104 -43 127q-41 25 -124 -16q-5 -2 -7 -3q-119 -62 -313 -229q-46 -327 -139 -649
q-6 -26 -32 -41.5t-50 -1.5q-46 25 -27 100q72 245 125 567q-29 12 -35.5 31.5t21.5 46.5q12 12 30 27q14 107 27 223q5 46 36 60t59 -9.5t24 -68.5q-4 -33 -12 -91q142 107 243 150q48 21 100 29t103 1t91.5 -39t58.5 -87zM616 1214q-48 -21 -84 9q-31 26 -18 59
q9 25 43 39q18 8 38 23t31.5 25t34.5 33t29 28q117 100 158 126q80 25 115 -4q21 -19 15.5 -46.5t-30.5 -39.5q-39 -22 -84 -60.5t-78.5 -71.5t-79.5 -67.5t-90 -52.5z" />
    <glyph glyph-name="Ncommaaccent" unicode="&#x145;" horiz-adv-x="1353" 
d="M1192 1370q9 52 47 51q34 -1 58 -38q20 -30 14 -62q-82 -481 -279 -1290q-13 -53 -55 -50q-36 4 -57 40q-16 28 -9 57q1 3 2 8.5t2 7.5q-108 202 -283.5 590t-221.5 483q-129 -587 -203 -1071q-5 -31 -21.5 -55t-44.5 -27q-28 -1 -44 23t-13 51q112 686 256 1315
q12 45 45 56t57 -16t15 -73q-4 -12 -4 -16v-4q87 -172 250 -535.5t255 -544.5q160 662 234 1100zM578 -145v4q-27 -14 -61 -1.5t-44 44.5q-19 53 25.5 86.5t95.5 19.5q65 -17 93 -60t21.5 -94.5t-31.5 -102t-63 -89.5q-33 -30 -80 -19q-37 8 -39 35q-1 19 19 41q28 28 48 66
t16 70z" />
    <glyph glyph-name="ncommaaccent" unicode="&#x146;" 
d="M918 926q24 -69 25.5 -155.5t-9.5 -155t-33 -158.5q-18 -70 -57.5 -209.5t-57.5 -208.5q-10 -41 -63 -53q-51 -11 -80 15q-20 18 -14 46q15 61 67 228t74.5 289t11.5 235q-6 104 -43 127q-41 25 -124 -16q-5 -2 -7 -3q-119 -62 -313 -229q-46 -327 -139 -649
q-6 -26 -32 -41.5t-50 -1.5q-46 25 -27 100q72 245 125 567q-29 12 -35.5 31.5t21.5 46.5q12 12 30 27q14 107 27 223q5 46 36 60t59 -9.5t24 -68.5q-4 -33 -12 -91q142 107 243 150q48 21 100 29t103 1t91.5 -39t58.5 -87zM367 -262v4q-27 -14 -61 -1.5t-44 44.5
q-19 53 25.5 86.5t95.5 19.5q65 -17 93 -60t21.5 -94.5t-31.5 -102t-63 -89.5q-33 -30 -80 -19q-37 9 -39 36q-1 19 19 41q28 28 48 65.5t16 69.5z" />
    <glyph glyph-name="Ncaron" unicode="&#x147;" horiz-adv-x="1353" 
d="M1192 1370q9 52 47 51q34 -1 58 -38q20 -30 14 -62q-82 -481 -279 -1290q-13 -53 -55 -50q-36 4 -57 40q-16 28 -9 57q1 3 2 8.5t2 7.5q-108 202 -283.5 590t-221.5 483q-129 -587 -203 -1071q-5 -31 -21.5 -55t-44.5 -27q-28 -1 -44 23t-13 51q112 686 256 1315
q12 45 45 56t57 -16t15 -73q-4 -12 -4 -16v-4q87 -172 250 -535.5t255 -544.5q160 662 234 1100zM705 1835q74 -93 133 -152q16 -19 18 -28q84 106 211 184q24 16 51.5 17.5t48.5 -17.5q15 -15 7.5 -39t-31.5 -39q-27 -17 -55.5 -42.5t-63 -60.5t-49.5 -48
q-137 -132 -250 -19q-30 25 -55 52t-54.5 63t-48.5 57q-27 34 16 66q41 29 87 23q24 -2 35 -17z" />
    <glyph glyph-name="ncaron" unicode="&#x148;" 
d="M918 926q24 -69 25.5 -155.5t-9.5 -155t-33 -158.5q-18 -70 -57.5 -209.5t-57.5 -208.5q-10 -41 -63 -53q-51 -11 -80 15q-20 18 -14 46q15 61 67 228t74.5 289t11.5 235q-6 104 -43 127q-41 25 -124 -16q-5 -2 -7 -3q-119 -62 -313 -229q-46 -327 -139 -649
q-6 -26 -32 -41.5t-50 -1.5q-46 25 -27 100q72 245 125 567q-29 12 -35.5 31.5t21.5 46.5q12 12 30 27q14 107 27 223q5 46 36 60t59 -9.5t24 -68.5q-4 -33 -12 -91q142 107 243 150q48 21 100 29t103 1t91.5 -39t58.5 -87zM518 1499q70 -89 133 -151q17 -20 19 -29
q84 106 211 184q24 16 51.5 17.5t48.5 -17.5q15 -15 7 -39t-32 -39q-27 -17 -55.5 -42.5t-63 -60.5t-49.5 -48q-136 -132 -249 -19q-30 25 -55 52t-54.5 63t-48.5 57q-28 34 17 66q40 29 85 23q24 -2 35 -17z" />
    <glyph glyph-name="Omacron" unicode="&#x14c;" horiz-adv-x="1251" 
d="M82 610q0 76 7.5 150.5t24 156t47.5 155t73.5 139.5t106.5 117.5t142 80.5q64 28 126.5 46.5t134 25.5t133 -3t120 -46t97.5 -97q56 -87 85.5 -201t29 -224t-18.5 -220q-30 -152 -118 -293t-212 -247q-41 -36 -84 -66.5t-97 -60t-105.5 -43.5t-109.5 -17t-108 19
q-269 104 -274 610v18zM516 1264q-92 -51 -149.5 -105t-94.5 -131t-55 -188q-23 -118 -18 -259.5t43 -256.5q51 -160 155 -191q49 -18 104.5 -10.5t102.5 24.5t97 50.5t88.5 66.5t76.5 72q236 254 215 600q-13 262 -137 346q-47 31 -102 42.5t-113 3t-107 -24t-106 -39.5z
M602 1661q-29 -5 -44 22t-7.5 58t33.5 37q65 12 143.5 17.5t128 5.5t148.5 -2.5t133 -2.5q28 0 38 -29t-3 -58.5t-42 -29.5q-40 0 -129.5 1.5t-140 1.5t-124 -5t-134.5 -16z" />
    <glyph glyph-name="omacron" unicode="&#x14d;" horiz-adv-x="1013" 
d="M530 156q127 101 183.5 245t34.5 306q-18 164 -99 215q-25 17 -60 13t-70 -18.5t-70.5 -38t-61.5 -44.5t-43 -39q-99 -103 -134.5 -236t-2.5 -264q33 -143 117 -191q24 -14 52.5 -14.5t56.5 10t51.5 24.5t45.5 32zM672 1042q64 -18 111.5 -61.5t73 -99.5t40.5 -122.5
t13.5 -131.5t-7.5 -125q-29 -191 -119 -305q-66 -81 -151.5 -143.5t-173.5 -78.5q-99 -11 -178 16.5t-127.5 82t-77 130.5t-33 160.5t10 173t47 167.5t84.5 145.5t116 105.5q198 134 371 86zM348 1227q-29 -5 -44 22t-7.5 57.5t33.5 36.5q65 12 144.5 17.5t126 6t150 -2
t132.5 -2.5q17 0 28 -12t13 -29.5t-1.5 -34.5t-16 -29t-29.5 -12q-40 0 -129.5 1.5t-140 1.5t-124.5 -5t-135 -16z" />
    <glyph glyph-name="Obreve" unicode="&#x14e;" horiz-adv-x="1251" 
d="M82 610q0 76 7.5 150.5t24 156t47.5 155t73.5 139.5t106.5 117.5t142 80.5q64 28 126.5 46.5t134 25.5t133 -3t120 -46t97.5 -97q56 -87 85.5 -201t29 -224t-18.5 -220q-30 -152 -118 -293t-212 -247q-41 -36 -84 -66.5t-97 -60t-105.5 -43.5t-109.5 -17t-108 19
q-269 104 -274 610v18zM516 1264q-92 -51 -149.5 -105t-94.5 -131t-55 -188q-23 -118 -18 -259.5t43 -256.5q51 -160 155 -191q49 -18 104.5 -10.5t102.5 24.5t97 50.5t88.5 66.5t76.5 72q236 254 215 600q-13 262 -137 346q-47 31 -102 42.5t-113 3t-107 -24t-106 -39.5z
M504 1806q-14 35 18 68.5t69.5 35.5t55.5 -30q38 -84 128 -111t180 7t132 110q21 39 75 48q49 8 67 -18q13 -20 -6 -52q-37 -71 -109.5 -128t-159.5 -83.5t-173.5 -26t-162 47t-114.5 132.5z" />
    <glyph glyph-name="obreve" unicode="&#x14f;" horiz-adv-x="1013" 
d="M530 156q127 101 183.5 245t34.5 306q-18 164 -99 215q-25 17 -60 13t-70 -18.5t-70.5 -38t-61.5 -44.5t-43 -39q-99 -103 -134.5 -236t-2.5 -264q33 -143 117 -191q24 -14 52.5 -14.5t56.5 10t51.5 24.5t45.5 32zM672 1042q64 -18 111.5 -61.5t73 -99.5t40.5 -122.5
t13.5 -131.5t-7.5 -125q-29 -191 -119 -305q-66 -81 -151.5 -143.5t-173.5 -78.5q-99 -11 -178 16.5t-127.5 82t-77 130.5t-33 160.5t10 173t47 167.5t84.5 145.5t116 105.5q198 134 371 86zM250 1391q-14 35 18 68.5t69.5 35t55.5 -30.5q38 -84 128 -111t180.5 7t132.5 110
q21 39 75 48q49 8 66 -18q13 -20 -6 -52q-37 -71 -109.5 -128t-159.5 -83.5t-173.5 -25.5t-162 47.5t-114.5 132.5z" />
    <glyph glyph-name="Ohungarumlaut" unicode="&#x150;" horiz-adv-x="1251" 
d="M82 610q0 76 7.5 150.5t24 156t47.5 155t73.5 139.5t106.5 117.5t142 80.5q64 28 126.5 46.5t134 25.5t133 -3t120 -46t97.5 -97q56 -87 85.5 -201t29 -224t-18.5 -220q-30 -152 -118 -293t-212 -247q-41 -36 -84 -66.5t-97 -60t-105.5 -43.5t-109.5 -17t-108 19
q-269 104 -274 610v18zM516 1264q-92 -51 -149.5 -105t-94.5 -131t-55 -188q-23 -118 -18 -259.5t43 -256.5q51 -160 155 -191q49 -18 104.5 -10.5t102.5 24.5t97 50.5t88.5 66.5t76.5 72q236 254 215 600q-13 262 -137 346q-47 31 -102 42.5t-113 3t-107 -24t-106 -39.5z
M1075 1911q13 27 35.5 42t46.5 -1q24 -12 30 -47.5t-5 -59.5q-18 -38 -55 -105.5t-52 -99.5q-17 -29 -40 -45t-44 0q-25 14 -31 47.5t7 57.5q24 44 108 211zM760 1917q16 22 40 29.5t48 -11.5q16 -12 20 -31t-1.5 -36.5t-16.5 -34.5q-16 -30 -54 -90.5t-55 -95.5
q-12 -28 -35 -45t-51 -9q-23 12 -28 43t4 58q20 43 67.5 120t61.5 103z" />
    <glyph glyph-name="ohungarumlaut" unicode="&#x151;" horiz-adv-x="1013" 
d="M530 156q127 101 183.5 245t34.5 306q-18 164 -99 215q-25 17 -60 13t-70 -18.5t-70.5 -38t-61.5 -44.5t-43 -39q-99 -103 -134.5 -236t-2.5 -264q33 -143 117 -191q24 -14 52.5 -14.5t56.5 10t51.5 24.5t45.5 32zM672 1042q64 -18 111.5 -61.5t73 -99.5t40.5 -122.5
t13.5 -131.5t-7.5 -125q-29 -191 -119 -305q-66 -81 -151.5 -143.5t-173.5 -78.5q-99 -11 -178 16.5t-127.5 82t-77 130.5t-33 160.5t10 173t47 167.5t84.5 145.5t116 105.5q198 134 371 86zM809 1491q13 27 35.5 42t46.5 -1q24 -12 29.5 -47.5t-5.5 -59.5
q-18 -38 -54.5 -105t-51.5 -99q-17 -29 -40 -45t-44 0q-25 14 -31.5 47t6.5 57q34 61 109 211zM494 1497q16 22 40 30t48 -11q16 -12 20 -31t-1.5 -37t-16.5 -35q-16 -30 -53.5 -90.5t-55.5 -95.5q-12 -27 -35 -44t-51 -9q-44 24 -24 100q20 43 67.5 120t61.5 103z" />
    <glyph glyph-name="OE" unicode="&#x152;" horiz-adv-x="1765" 
d="M1155 1434l8 -4q22 3 37 0q379 0 565 6q50 1 73 -38q20 -35 -4 -61q-17 -19 -54 -20q-182 -8 -549 -8q-42 -292 -76 -482q103 -3 152 -2t152.5 6.5t152.5 6.5q35 2 46 -36.5t-7.5 -78.5t-55.5 -41q-36 -1 -157 -7.5t-156.5 -6.5t-157.5 2q-33 -185 -112 -543v-4
q196 -22 542 12q51 3 78 -35q24 -34 3 -61q-14 -19 -48 -23q-386 -41 -647 -6q-16 -19 -31 -22q-522 -100 -716 172q-74 109 -98.5 256t1.5 278q68 390 275 594q287 276 784 146zM436 1159q-165 -175 -223 -493q-23 -92 -7.5 -203t68.5 -191q48 -64 118.5 -102t151.5 -48
t158 -5.5t158 22.5q126 558 217 1155q-89 20 -172.5 25t-169 -6.5t-163 -50.5t-136.5 -103z" />
    <glyph glyph-name="oe" unicode="&#x153;" horiz-adv-x="1611" 
d="M618 1124q17 0 25 -8q26 15 51 -2q148 -106 187 -278q56 74 102 120q87 83 196.5 117t221.5 4q104 -28 155.5 -113t24.5 -188q-17 -63 -72.5 -118.5t-117.5 -88t-129 -53.5q-209 -59 -385 -10q-31 -150 47 -254q45 -65 117.5 -104.5t152.5 -32.5t133 73q32 43 66 12
q30 -27 30 -74q0 -28 -14 -46q-61 -80 -149.5 -106.5t-173.5 -3.5t-160.5 83t-116.5 142q-25 49 -39 100q-52 -95 -145 -172q-83 -67 -176 -103.5t-175 -11.5q-97 29 -154 102.5t-70 167t-1 188.5t45 181q29 73 63 137t83 128.5t103.5 110t126 74t148.5 27.5zM571 975
q-66 1 -126.5 -32.5t-105.5 -90.5t-77 -116.5t-55 -123.5q-20 -59 -28.5 -129t-2 -143t48 -127t115.5 -66q67 -9 133.5 21t117 84t88.5 116.5t58 123.5q31 94 31.5 180.5t-37 168t-115.5 134.5q-4 2 -12 10q-17 -10 -33 -10zM1454 795q28 41 13.5 70t-54.5 45t-82.5 22
t-70.5 2q-151 -20 -259 -154q-55 -74 -77 -129q138 -31 295 6.5t235 137.5z" />
    <glyph glyph-name="Racute" unicode="&#x154;" horiz-adv-x="1116" 
d="M991 1049q15 207 -137 251q-131 36 -307 5q-51 -190 -141 -576q65 0 123.5 5t125.5 16.5t122 35t102.5 57.5t76.5 86.5t35 119.5zM926 1430q101 -55 149 -158.5t39 -224.5q-12 -141 -83 -248t-197 -158q-77 -29 -115 -37q29 -43 82 -164q23 -52 72 -175.5t79 -188.5
q18 -40 -9 -90q-24 -43 -55 -41q-22 2 -36 32q-27 62 -74.5 180.5t-58.5 145.5q-5 11 -25.5 61t-33 76t-36.5 61t-49 52q-14 8 -20 27q-113 -7 -186 -5q-83 -355 -136 -552q-9 -35 -50 -37.5t-74.5 24t-22.5 62.5q51 198 143.5 596t143.5 596q-24 -1 -40.5 21t-21 49.5
t7 53.5t37.5 33q78 22 141.5 35t143 21.5t152.5 -3.5t133 -44zM729 1618q-48 -21 -84 9q-31 26 -18 59q11 24 43 38q18 8 38 23t31.5 25t34.5 33t29 28q11 9 38 32.5t41 35t36.5 29t42.5 30.5q79 24 114 -4q21 -19 16 -46.5t-30 -39.5q-39 -22 -84 -60.5t-78.5 -71.5
t-79.5 -67.5t-90 -52.5z" />
    <glyph glyph-name="racute" unicode="&#x155;" horiz-adv-x="737" 
d="M737 1026q51 -18 37 -62q-12 -36 -52 -54q-30 -14 -58 -5q-26 8 -52 8.5t-48 -5t-46 -17.5t-42.5 -25.5t-41 -33t-38.5 -35t-38 -36.5t-36 -34q-1 -1 -7 -6t-10 -6q-95 -513 -147 -723q-6 -26 -32 -41.5t-50 -3.5q-47 23 -29 100q27 104 49 209t54 272t40 207q-7 17 5 41
q5 24 14 69t16.5 82t12.5 70q12 49 53 61q37 10 57 -18q17 -22 8 -59q-3 -13 -7 -37.5t-5 -30.5q38 30 69.5 51.5t72 41t78 28t82.5 7.5t91 -15zM522 1235q-48 -21 -84 9q-31 26 -18 59q11 24 43 38q18 8 38 23t31.5 25t34.5 33t29 28q11 9 38 32.5t41 35t36.5 29t42.5 30.5
q79 24 114 -4q21 -19 16 -46.5t-30 -39.5q-39 -22 -84 -60.5t-78.5 -71.5t-79.5 -67.5t-90 -52.5z" />
    <glyph glyph-name="Rcommaaccent" unicode="&#x156;" horiz-adv-x="1116" 
d="M991 1049q15 207 -137 251q-131 36 -307 5q-51 -190 -141 -576q65 0 123.5 5t125.5 16.5t122 35t102.5 57.5t76.5 86.5t35 119.5zM926 1430q101 -55 149 -158.5t39 -224.5q-12 -141 -83 -248t-197 -158q-77 -29 -115 -37q29 -43 82 -164q23 -52 72 -175.5t79 -188.5
q18 -40 -9 -90q-24 -43 -55 -41q-22 2 -36 32q-27 62 -74.5 180.5t-58.5 145.5q-5 11 -25.5 61t-33 76t-36.5 61t-49 52q-14 8 -20 27q-113 -7 -186 -5q-83 -355 -136 -552q-9 -35 -50 -37.5t-74.5 24t-22.5 62.5q51 198 143.5 596t143.5 596q-24 -1 -40.5 21t-21 49.5
t7 53.5t37.5 33q78 22 141.5 35t143 21.5t152.5 -3.5t133 -44zM518 -188v4q-27 -13 -60.5 -1t-43.5 44q-19 53 25.5 86.5t95.5 19.5q65 -17 93 -60t21.5 -94.5t-31.5 -102t-63 -89.5q-33 -30 -80 -19q-37 8 -39 35q-1 19 19 41q27 27 47 65.5t16 70.5z" />
    <glyph glyph-name="rcommaaccent" unicode="&#x157;" horiz-adv-x="737" 
d="M737 1026q51 -18 37 -62q-12 -36 -52 -54q-30 -14 -58 -5q-26 8 -52 8.5t-48 -5t-46 -17.5t-42.5 -25.5t-41 -33t-38.5 -35t-38 -36.5t-36 -34q-1 -1 -7 -6t-10 -6q-95 -513 -147 -723q-6 -26 -32 -41.5t-50 -3.5q-47 23 -29 100q27 104 49 209t54 272t40 207q-7 17 5 41
q5 24 14 69t16.5 82t12.5 70q12 49 53 61q37 10 57 -18q17 -22 8 -59q-3 -13 -7 -37.5t-5 -30.5q38 30 69.5 51.5t72 41t78 28t82.5 7.5t91 -15zM76 -317v4q-27 -14 -61 -1.5t-44 44.5q-19 53 25.5 86.5t95.5 19.5q65 -17 93.5 -60t21.5 -94.5t-31.5 -102t-62.5 -89.5
q-33 -29 -80 -19q-37 8 -40 35q-1 19 19 41q28 28 48 66t16 70z" />
    <glyph glyph-name="Rcaron" unicode="&#x158;" horiz-adv-x="1116" 
d="M991 1049q15 207 -137 251q-131 36 -307 5q-51 -190 -141 -576q65 0 123.5 5t125.5 16.5t122 35t102.5 57.5t76.5 86.5t35 119.5zM926 1430q101 -55 149 -158.5t39 -224.5q-12 -141 -83 -248t-197 -158q-77 -29 -115 -37q29 -43 82 -164q23 -52 72 -175.5t79 -188.5
q18 -40 -9 -90q-24 -43 -55 -41q-22 2 -36 32q-27 62 -74.5 180.5t-58.5 145.5q-5 11 -25.5 61t-33 76t-36.5 61t-49 52q-14 8 -20 27q-113 -7 -186 -5q-83 -355 -136 -552q-9 -35 -50 -37.5t-74.5 24t-22.5 62.5q51 198 143.5 596t143.5 596q-24 -1 -40.5 21t-21 49.5
t7 53.5t37.5 33q78 22 141.5 35t143 21.5t152.5 -3.5t133 -44zM645 1884q71 -89 133 -151q17 -20 19 -29q84 106 211 184q24 16 51.5 17.5t48.5 -17.5q15 -15 7 -39t-32 -39q-27 -17 -55.5 -42.5t-63 -60.5t-49.5 -48q-136 -132 -249 -19q-30 25 -55 52t-54.5 63t-48.5 57
q-28 34 17 66q40 29 85 23q24 -2 35 -17z" />
    <glyph glyph-name="rcaron" unicode="&#x159;" horiz-adv-x="737" 
d="M737 1026q51 -18 37 -62q-12 -36 -52 -54q-30 -14 -58 -5q-26 8 -52 8.5t-48 -5t-46 -17.5t-42.5 -25.5t-41 -33t-38.5 -35t-38 -36.5t-36 -34q-1 -1 -7 -6t-10 -6q-95 -513 -147 -723q-6 -26 -32 -41.5t-50 -3.5q-47 23 -29 100q27 104 49 209t54 272t40 207q-7 17 5 41
q5 24 14 69t16.5 82t12.5 70q12 49 53 61q37 10 57 -18q17 -22 8 -59q-3 -13 -7 -37.5t-5 -30.5q38 30 69.5 51.5t72 41t78 28t82.5 7.5t91 -15zM381 1497q71 -89 133 -151q15 -18 18 -29q84 106 211 184q24 16 52 17.5t49 -17.5q15 -15 7 -39t-32 -39q-27 -17 -55.5 -42.5
t-63 -60.5t-49.5 -48q-137 -132 -250 -19q-30 25 -55 52t-54 63t-48 57q-28 34 17 66q40 29 85 23q24 -2 35 -17z" />
    <glyph glyph-name="Sacute" unicode="&#x15a;" horiz-adv-x="901" 
d="M956 1413q29 -25 26 -63.5t-34 -67t-63 -10.5q-73 44 -179.5 47t-206 -28.5t-165.5 -84.5q-51 -42 -58.5 -91t17.5 -92t72.5 -91.5t96 -84.5t99 -75.5t70.5 -60.5q57 -60 97.5 -129.5t62 -146.5t7.5 -156.5t-67 -145.5q-211 -261 -770 -133q-38 8 -41.5 49t22.5 75t60 26
q314 -72 504 -15q64 18 113.5 56.5t54.5 95.5q8 79 -23.5 149.5t-89.5 127t-119.5 104.5t-128.5 105t-102 106q-61 85 -68 169.5t32.5 150.5t106.5 122.5t157 90t181.5 49t181 3.5t154.5 -51zM643 1604q-48 -21 -84 9q-31 26 -18 59q11 24 43 38q18 8 38 23t31.5 25t34.5 33
t29 28q13 11 38 33t40 34.5t37 29.5t42 30q80 25 115 -4q21 -19 16 -47t-30 -40q-48 -27 -105.5 -80t-114 -100.5t-112.5 -70.5z" />
    <glyph glyph-name="sacute" unicode="&#x15b;" horiz-adv-x="722" 
d="M690 1006q47 -25 26 -67q-17 -34 -58 -46q-31 -8 -56 6q-110 58 -229 27q-65 -20 -109 -71t-20 -110q20 -46 61.5 -84.5t88 -66t92 -57t81 -72.5t47.5 -98q25 -101 -26.5 -192.5t-149.5 -145.5q-111 -61 -241 -62t-244 53q-48 21 -30 61q16 34 59 48q33 10 59 -2
q53 -23 114.5 -31.5t121.5 -1t109.5 42.5t70.5 94q12 42 11 74t-21.5 64t-45 55.5t-60 49t-66 44t-63.5 41.5t-52 41q-96 99 -68.5 216t146.5 181q104 57 226 61t226 -52zM487 1171q-48 -21 -84 9q-31 26 -18 59q9 25 43 39q18 8 38.5 23t30.5 24t35.5 33.5t28.5 27.5
q11 9 38 32.5t41 35t36.5 29t42.5 30.5q80 25 115 -4q21 -19 15.5 -46.5t-30.5 -39.5q-39 -22 -84 -60.5t-78.5 -71.5t-79.5 -67.5t-90 -52.5z" />
    <glyph glyph-name="Scircumflex" unicode="&#x15c;" horiz-adv-x="901" 
d="M956 1413q29 -25 26 -63.5t-34 -67t-63 -10.5q-73 44 -179.5 47t-206 -28.5t-165.5 -84.5q-51 -42 -58.5 -91t17.5 -92t72.5 -91.5t96 -84.5t99 -75.5t70.5 -60.5q57 -60 97.5 -129.5t62 -146.5t7.5 -156.5t-67 -145.5q-211 -261 -770 -133q-38 8 -41.5 49t22.5 75t60 26
q314 -72 504 -15q64 18 113.5 56.5t54.5 95.5q8 79 -23.5 149.5t-89.5 127t-119.5 104.5t-128.5 105t-102 106q-61 85 -68 169.5t32.5 150.5t106.5 122.5t157 90t181.5 49t181 3.5t154.5 -51zM520 1647q-27 -29 -81 -13q-46 13 -56 42q-7 22 14 42q22 19 86.5 80t110.5 94
q44 36 83 48t70 1.5t52 -26.5t43 -41q9 -11 37 -48.5t51 -62.5t47 -43q20 -16 23.5 -39t-15.5 -39q-23 -19 -51.5 -17.5t-50.5 17.5q-108 78 -170 187q-5 -12 -25 -29q-88 -73 -168 -153z" />
    <glyph glyph-name="scircumflex" unicode="&#x15d;" horiz-adv-x="722" 
d="M690 1006q47 -25 26 -67q-17 -34 -58 -46q-31 -8 -56 6q-110 58 -229 27q-65 -20 -109 -71t-20 -110q20 -46 61.5 -84.5t88 -66t92 -57t81 -72.5t47.5 -98q25 -101 -26.5 -192.5t-149.5 -145.5q-111 -61 -241 -62t-244 53q-48 21 -30 61q16 34 59 48q33 10 59 -2
q53 -23 114.5 -31.5t121.5 -1t109.5 42.5t70.5 94q12 42 11 74t-21.5 64t-45 55.5t-60 49t-66 44t-63.5 41.5t-52 41q-96 99 -68.5 216t146.5 181q104 57 226 61t226 -52zM328 1223q-27 -29 -81 -13q-46 13 -56 42q-7 22 14 42q23 20 86.5 80.5t109.5 93.5q44 36 83 48
t70 1.5t52 -26.5t43 -41q9 -11 37 -48.5t51 -62.5t47 -43q20 -16 24 -38.5t-15 -38.5q-23 -19 -52 -17.5t-51 17.5q-109 78 -170 186q-5 -13 -24 -29q-89 -73 -168 -153z" />
    <glyph glyph-name="Scedilla" unicode="&#x15e;" horiz-adv-x="901" 
d="M956 1413q29 -25 26 -63.5t-34 -67t-63 -10.5q-73 44 -179.5 47t-206 -28.5t-165.5 -84.5q-51 -42 -58.5 -91t17.5 -92t72.5 -91.5t96 -84.5t99 -75.5t70.5 -60.5q57 -60 97.5 -129.5t62 -146.5t7.5 -156.5t-67 -145.5q-119 -150 -352 -170l-17 -69q66 -10 101 -54
q27 -36 32.5 -80t-12.5 -86q-43 -84 -130.5 -140t-184.5 -62q-40 -4 -64 41q-23 43 -6 74q9 18 31 20q12 1 40.5 3t39 3.5t32 6t33.5 11t28.5 18.5t31.5 29q29 35 23 56t-34 28t-63 0q-39 -4 -53.5 45t6.5 74q12 18 29 78q-106 4 -281 41q-38 8 -41.5 49t22.5 75t60 26
q314 -72 504 -15q64 18 113.5 56.5t54.5 95.5q8 79 -23.5 149.5t-89.5 127t-119.5 104.5t-128.5 105t-102 106q-61 85 -68 169.5t32.5 150.5t106.5 122.5t157 90t181.5 49t181 3.5t154.5 -51z" />
    <glyph glyph-name="scedilla" unicode="&#x15f;" horiz-adv-x="722" 
d="M690 1006q47 -25 26 -67q-17 -34 -58 -46q-31 -8 -56 6q-110 58 -229 27q-65 -20 -109 -71t-20 -110q20 -46 61.5 -84.5t88 -66t92 -57t81 -72.5t47.5 -98q25 -101 -26.5 -192.5t-149.5 -145.5q-65 -38 -149 -54l-21 -86q67 -10 101 -53q27 -36 32.5 -80t-12.5 -86
q-43 -84 -130.5 -140t-184.5 -62q-40 -4 -64 41q-23 43 -6 74q9 18 31 20q12 1 40.5 3t39 3.5t32 6t33.5 11t28.5 18.5t31.5 29q29 35 23 56t-34 28t-63 0q-39 -4 -53.5 45t6.5 74q15 25 35 92q-111 10 -201 51q-48 21 -30 61q16 34 59 48q33 10 59 -2q53 -23 114.5 -31.5
t121.5 -1t109.5 42.5t70.5 94q12 42 11 74t-21.5 64t-45 55.5t-60 49t-66 44t-63.5 41.5t-52 41q-96 99 -68.5 216t146.5 181q104 57 226 61t226 -52z" />
    <glyph glyph-name="Scaron" unicode="&#x160;" horiz-adv-x="901" 
d="M956 1413q29 -25 26 -63.5t-34 -67t-63 -10.5q-73 44 -179.5 47t-206 -28.5t-165.5 -84.5q-51 -42 -58.5 -91t17.5 -92t72.5 -91.5t96 -84.5t99 -75.5t70.5 -60.5q57 -60 97.5 -129.5t62 -146.5t7.5 -156.5t-67 -145.5q-211 -261 -770 -133q-38 8 -41.5 49t22.5 75t60 26
q314 -72 504 -15q64 18 113.5 56.5t54.5 95.5q8 79 -23.5 149.5t-89.5 127t-119.5 104.5t-128.5 105t-102 106q-61 85 -68 169.5t32.5 150.5t106.5 122.5t157 90t181.5 49t181 3.5t154.5 -51zM526 1890q70 -88 133 -151q17 -20 19 -29q84 106 211 184q24 16 51.5 17.5
t48.5 -17.5q15 -15 7.5 -38.5t-31.5 -38.5q-27 -17 -56 -43t-63 -60.5t-49 -48.5q-136 -132 -250 -18q-30 25 -55 52t-54.5 63t-48.5 57q-28 34 17 66q40 28 85 23q24 -3 35 -18z" />
    <glyph glyph-name="scaron" unicode="&#x161;" horiz-adv-x="722" 
d="M690 1006q47 -25 26 -67q-17 -34 -58 -46q-31 -8 -56 6q-110 58 -229 27q-65 -20 -109 -71t-20 -110q20 -46 61.5 -84.5t88 -66t92 -57t81 -72.5t47.5 -98q25 -101 -26.5 -192.5t-149.5 -145.5q-111 -61 -241 -62t-244 53q-48 21 -30 61q16 34 59 48q33 10 59 -2
q53 -23 114.5 -31.5t121.5 -1t109.5 42.5t70.5 94q12 42 11 74t-21.5 64t-45 55.5t-60 49t-66 44t-63.5 41.5t-52 41q-96 99 -68.5 216t146.5 181q104 57 226 61t226 -52zM315 1473q70 -89 134 -152q15 -18 18 -29q86 108 211 185q24 16 51.5 17.5t48.5 -17.5
q15 -15 7.5 -39t-31.5 -39q-27 -17 -56 -43t-63 -60.5t-49 -48.5q-136 -132 -250 -18q-30 25 -55 52t-54.5 63t-48.5 57q-28 34 17 66q40 29 85 23q24 -2 35 -17z" />
    <glyph glyph-name="Tcommaaccent" unicode="&#x162;" horiz-adv-x="995" 
d="M1049 1434q36 0 56 -38.5t8.5 -77t-50.5 -38.5q-67 -1 -202.5 -2t-203.5 -2q-36 -217 -123 -632.5t-122 -616.5q-6 -36 -47.5 -48.5t-78 6.5t-28.5 58q36 216 122 627t120 606q-117 -4 -350 -4q-35 0 -54.5 39t-8 77.5t51.5 38.5q152 0 456 3.5t454 3.5zM279 -303v4
q-27 -14 -61 -1.5t-44 44.5q-19 53 25.5 86.5t95.5 19.5q65 -17 93 -60t21.5 -94.5t-31.5 -102t-63 -89.5q-33 -30 -80 -19q-37 9 -39 36q-1 19 19 41q28 28 48 65.5t16 69.5z" />
    <glyph glyph-name="tcommaaccent" unicode="&#x163;" horiz-adv-x="612" 
d="M563 1026q51 5 78 -34q24 -35 2 -62q-15 -19 -49 -23q-82 -8 -250 -8q-70 -279 -102 -493q-23 -142 -19 -202q2 -54 19 -93q17 -42 34 -39q34 0 105 41q69 40 106 6q19 -21 12 -49.5t-30 -42.5q-43 -26 -78.5 -42.5t-84 -31.5t-92.5 -7.5t-77 38.5q-35 33 -51 87.5
t-13.5 105.5t5.5 102q7 98 28.5 216.5t39 192.5t51.5 211q-68 0 -101 -2q-82 0 -94 51q-6 25 14.5 46.5t46.5 21.5q53 2 160 2q37 156 45 203q7 38 56.5 55.5t78.5 -4.5q22 -16 15 -49q-7 -37 -23 -105.5t-22 -99.5q102 0 190 8zM193 -344v4q-27 -14 -61 -1.5t-44 44.5
q-19 53 25.5 87t95.5 20q65 -17 93 -60t21.5 -94.5t-31.5 -102.5t-63 -90q-33 -30 -80 -19q-37 9 -39 36q-1 19 19 41q28 28 48 65.5t16 69.5z" />
    <glyph glyph-name="Tcaron" unicode="&#x164;" horiz-adv-x="995" 
d="M1049 1434q36 0 56 -38.5t8.5 -77t-50.5 -38.5q-67 -1 -202.5 -2t-203.5 -2q-36 -217 -123 -632.5t-122 -616.5q-6 -36 -47.5 -48.5t-78 6.5t-28.5 58q36 216 122 627t120 606q-117 -4 -350 -4q-35 0 -54.5 39t-8 77.5t51.5 38.5q152 0 456 3.5t454 3.5zM492 1880
q70 -89 133 -151q15 -18 18 -29q84 106 211 184q24 16 51.5 17.5t48.5 -17.5q15 -15 7.5 -39t-31.5 -39q-27 -17 -55.5 -42.5t-63 -60.5t-49.5 -48q-137 -132 -250 -19q-30 25 -55 52t-54.5 63t-48.5 57q-27 34 16 66q41 29 87 23q24 -3 35 -17z" />
    <glyph glyph-name="tcaron" unicode="&#x165;" horiz-adv-x="901" 
d="M584 1026q51 5 77 -34q24 -35 2 -62q-15 -19 -49 -23q-82 -8 -249 -8q-72 -289 -103 -493q-23 -142 -19 -202q2 -54 19 -93q7 -19 17 -30t18 -9q33 0 104 41q70 41 107 6q19 -21 11.5 -49.5t-30.5 -42.5q-44 -26 -78.5 -42.5t-83.5 -31.5t-92.5 -7.5t-76.5 38.5
q-35 33 -51 87.5t-14 105.5t5 102q7 98 28.5 216.5t39 192.5t51.5 211q-67 0 -100 -2q-82 0 -94 51q-6 25 14.5 46.5t46.5 21.5q53 2 160 2q37 156 45 203q7 38 55 55q49 18 79 -4q22 -16 15 -49q-7 -37 -23 -105.5t-22 -99.5q103 0 191 8zM799 1155q-28 6 -38.5 29.5
t3.5 46.5q13 26 42.5 38.5t59.5 6.5q22 -5 38.5 -15t25.5 -26.5t15.5 -30.5t5.5 -38.5t-1 -38.5t-6.5 -42.5t-8.5 -39t-10.5 -39.5t-9.5 -33q-11 -38 -63 -53t-76 9q-16 15 -8 44q1 4 14 46.5t17 65.5q4 44 2 62q-1 4 -3 8h1z" />
    <glyph glyph-name="Utilde" unicode="&#x168;" horiz-adv-x="1157" 
d="M1047 1378q9 35 50 49t74.5 -4.5t24.5 -60.5q-35 -151 -113 -580q-1 -4 -7.5 -41t-8 -44t-7.5 -40.5t-8.5 -44.5t-9 -40.5t-10 -44t-10.5 -40t-12.5 -43t-13 -39t-15.5 -40.5q-74 -185 -232 -285t-356 -80q-78 8 -136.5 43t-92.5 85.5t-53.5 117t-24.5 133t0 139.5
q7 104 24 208t51.5 237t52 193t65.5 222q11 39 61 50q48 11 75 -14q21 -19 11 -52q-7 -25 -30.5 -104.5t-32.5 -112.5t-28 -102.5t-29 -113t-23.5 -104t-22 -115t-14.5 -108.5q-4 -44 -6 -77t-1.5 -85t6 -90.5t19.5 -82.5t35.5 -73t57.5 -49.5t83 -23.5q183 -11 287 90
q86 83 137 262q48 166 102 477.5t81 427.5zM608 1630q-33 -44 -73 -29q-32 13 -34 51q-1 29 21 58q3 4 18 23t19 24.5t18 21.5t21.5 21.5t22 16t27 15t29 8.5t34.5 5q37 1 72 -15.5t58.5 -37t54 -38t58.5 -17.5q16 0 28 10t31.5 35.5t30.5 38.5q18 20 39.5 26.5t38 -1.5
t27 -22t7 -37t-22.5 -46q-3 -3 -15 -18t-15.5 -19t-15 -16.5t-16.5 -17t-16 -14.5t-18 -14t-18.5 -10.5t-21 -9t-21.5 -4.5t-24 -2q-39 0 -72 15.5t-52 34t-45.5 35.5t-53.5 19q-26 2 -50 -13.5t-33.5 -27t-37.5 -49.5z" />
    <glyph glyph-name="utilde" unicode="&#x169;" horiz-adv-x="997" 
d="M801 1012q12 52 48 53q32 1 52 -34q17 -30 10 -66q-49 -227 -92 -488q-4 -24 -13 -78.5t-13 -83.5q22 -29 -7 -55q0 -6 -4 -6q-14 -107 -14 -182q-1 -46 -31 -63.5t-60 3t-30 66.5q2 20 2 61q-64 -50 -125.5 -86.5t-130.5 -62t-135.5 -21t-120.5 42.5q-26 19 -45 47
t-29.5 54.5t-15 66.5t-5.5 66t2.5 71t6 64t8.5 61q12 86 29.5 172t51 226t40.5 172q8 36 49 37.5t75 -26.5t26 -65q-9 -41 -47.5 -203t-55.5 -251q-24 -148 -24 -228q-5 -32 -3 -87t21 -83q6 -9 18.5 -12t30 1t34 9.5t37 16t33.5 17.5t30.5 17t19.5 11q122 71 231 174
q11 11 23 14q21 117 29 172q63 352 94 486zM367 1262q-33 -44 -73 -29q-31 12 -34 49q0 30 21 59q5 6 18 23.5t18.5 24.5t18.5 21.5t21 21t22 17t26.5 15t29 8.5t34.5 5q37 1 72.5 -15.5t59 -37.5t54 -38.5t58.5 -17.5q16 0 28 10t31.5 35.5t30.5 38.5q18 20 39.5 26.5
t37.5 -1.5t26.5 -22t7 -37t-22.5 -46q-3 -4 -16.5 -20t-17.5 -20.5t-16.5 -18.5t-18.5 -18.5t-18 -15t-21 -14t-21 -9t-24.5 -7.5t-26.5 -2q-39 0 -72 15.5t-52.5 34.5t-46 36t-53.5 19q-9 1 -17 0t-16 -4.5t-14 -6t-14 -9.5l-12 -10.5t-12 -14t-11 -14t-12.5 -16
t-11.5 -15.5z" />
    <glyph glyph-name="Umacron" unicode="&#x16a;" horiz-adv-x="1157" 
d="M1047 1378q9 35 50 49t74.5 -4.5t24.5 -60.5q-35 -151 -113 -580q-1 -4 -7.5 -41t-8 -44t-7.5 -40.5t-8.5 -44.5t-9 -40.5t-10 -44t-10.5 -40t-12.5 -43t-13 -39t-15.5 -40.5q-74 -185 -232 -285t-356 -80q-78 8 -136.5 43t-92.5 85.5t-53.5 117t-24.5 133t0 139.5
q7 104 24 208t51.5 237t52 193t65.5 222q11 39 61 50q48 11 75 -14q21 -19 11 -52q-7 -25 -30.5 -104.5t-32.5 -112.5t-28 -102.5t-29 -113t-23.5 -104t-22 -115t-14.5 -108.5q-4 -44 -6 -77t-1.5 -85t6 -90.5t19.5 -82.5t35.5 -73t57.5 -49.5t83 -23.5q183 -11 287 90
q86 83 137 262q48 166 102 477.5t81 427.5zM524 1616q-29 -5 -44 22t-7.5 58t33.5 37q65 12 143.5 17.5t128 5.5t148.5 -2.5t133 -2.5q17 0 28 -12t13 -29.5t-1.5 -34.5t-16 -29t-29.5 -12q-40 0 -129.5 1.5t-140 1.5t-124.5 -5t-135 -16z" />
    <glyph glyph-name="umacron" unicode="&#x16b;" horiz-adv-x="997" 
d="M801 1012q12 52 48 53q32 1 52 -34q17 -30 10 -66q-49 -227 -92 -488q-4 -24 -13 -78.5t-13 -83.5q22 -29 -7 -55q0 -6 -4 -6q-14 -107 -14 -182q-1 -46 -31 -63.5t-60 3t-30 66.5q2 20 2 61q-64 -50 -125.5 -86.5t-130.5 -62t-135.5 -21t-120.5 42.5q-26 19 -45 47
t-29.5 54.5t-15 66.5t-5.5 66t2.5 71t6 64t8.5 61q12 86 29.5 172t51 226t40.5 172q8 36 49 37.5t75 -26.5t26 -65q-9 -41 -47.5 -203t-55.5 -251q-24 -148 -24 -228q-5 -32 -3 -87t21 -83q6 -9 18.5 -12t30 1t34 9.5t37 16t33.5 17.5t30.5 17t19.5 11q122 71 231 174
q11 11 23 14q21 117 29 172q63 352 94 486zM336 1292q-29 -5 -44 22t-8 58t33 37q65 12 143.5 17.5t128 5.5t148.5 -2.5t133 -2.5q17 0 28 -12t13 -29t-1.5 -34t-16 -29t-29.5 -12q-37 0 -129 1.5t-141 1t-123 -5.5t-135 -16z" />
    <glyph glyph-name="Ubreve" unicode="&#x16c;" horiz-adv-x="1157" 
d="M1047 1378q9 35 50 49t74.5 -4.5t24.5 -60.5q-35 -151 -113 -580q-1 -4 -7.5 -41t-8 -44t-7.5 -40.5t-8.5 -44.5t-9 -40.5t-10 -44t-10.5 -40t-12.5 -43t-13 -39t-15.5 -40.5q-74 -185 -232 -285t-356 -80q-78 8 -136.5 43t-92.5 85.5t-53.5 117t-24.5 133t0 139.5
q7 104 24 208t51.5 237t52 193t65.5 222q11 39 61 50q48 11 75 -14q21 -19 11 -52q-7 -25 -30.5 -104.5t-32.5 -112.5t-28 -102.5t-29 -113t-23.5 -104t-22 -115t-14.5 -108.5q-4 -44 -6 -77t-1.5 -85t6 -90.5t19.5 -82.5t35.5 -73t57.5 -49.5t83 -23.5q183 -11 287 90
q86 83 137 262q48 166 102 477.5t81 427.5zM457 1765q-14 35 18 68.5t69.5 35.5t55.5 -30q38 -84 128 -111t180 7t132 110q21 39 75 48q49 8 67 -18q13 -20 -6 -52q-37 -71 -109.5 -128t-159.5 -83.5t-173.5 -26t-162 47t-114.5 132.5z" />
    <glyph glyph-name="ubreve" unicode="&#x16d;" horiz-adv-x="997" 
d="M801 1012q12 52 48 53q32 1 52 -34q17 -30 10 -66q-49 -227 -92 -488q-4 -24 -13 -78.5t-13 -83.5q22 -29 -7 -55q0 -6 -4 -6q-14 -107 -14 -182q-1 -46 -31 -63.5t-60 3t-30 66.5q2 20 2 61q-64 -50 -125.5 -86.5t-130.5 -62t-135.5 -21t-120.5 42.5q-26 19 -45 47
t-29.5 54.5t-15 66.5t-5.5 66t2.5 71t6 64t8.5 61q12 86 29.5 172t51 226t40.5 172q8 36 49 37.5t75 -26.5t26 -65q-9 -41 -47.5 -203t-55.5 -251q-24 -148 -24 -228q-5 -32 -3 -87t21 -83q6 -9 18.5 -12t30 1t34 9.5t37 16t33.5 17.5t30.5 17t19.5 11q122 71 231 174
q11 11 23 14q21 117 29 172q63 352 94 486zM254 1382q-14 35 18 68.5t69.5 35.5t55.5 -30q38 -84 128 -111t180.5 7t132.5 110q21 39 75 48q49 8 66 -18q13 -20 -6 -52q-37 -71 -109.5 -128t-159.5 -83.5t-173.5 -26t-162 47t-114.5 132.5z" />
    <glyph glyph-name="Uring" unicode="&#x16e;" horiz-adv-x="1157" 
d="M1047 1378q9 35 50 49t74.5 -4.5t24.5 -60.5q-35 -151 -113 -580q-1 -4 -7.5 -41t-8 -44t-7.5 -40.5t-8.5 -44.5t-9 -40.5t-10 -44t-10.5 -40t-12.5 -43t-13 -39t-15.5 -40.5q-74 -185 -232 -285t-356 -80q-78 8 -136.5 43t-92.5 85.5t-53.5 117t-24.5 133t0 139.5
q7 104 24 208t51.5 237t52 193t65.5 222q11 39 61 50q48 11 75 -14q21 -19 11 -52q-7 -25 -30.5 -104.5t-32.5 -112.5t-28 -102.5t-29 -113t-23.5 -104t-22 -115t-14.5 -108.5q-4 -44 -6 -77t-1.5 -85t6 -90.5t19.5 -82.5t35.5 -73t57.5 -49.5t83 -23.5q183 -11 287 90
q86 83 137 262q48 166 102 477.5t81 427.5zM614 1837q60 49 128 71t132.5 6t100.5 -75q33 -48 43 -96t-10.5 -101t-75.5 -100q-114 -97 -230 -57q-82 29 -127 111q-48 90 -14 171q17 41 53 70zM676 1679q6 -49 29.5 -69t70.5 -15q43 5 82.5 31t46.5 60q6 32 -5 54.5
t-33.5 32t-46 13t-46.5 0.5q-43 -5 -72.5 -36.5t-25.5 -70.5z" />
    <glyph glyph-name="uring" unicode="&#x16f;" horiz-adv-x="997" 
d="M801 1012q12 52 48 53q32 1 52 -34q17 -30 10 -66q-49 -227 -92 -488q-4 -24 -13 -78.5t-13 -83.5q22 -29 -7 -55q0 -6 -4 -6q-14 -107 -14 -182q-1 -46 -31 -63.5t-60 3t-30 66.5q2 20 2 61q-64 -50 -125.5 -86.5t-130.5 -62t-135.5 -21t-120.5 42.5q-26 19 -45 47
t-29.5 54.5t-15 66.5t-5.5 66t2.5 71t6 64t8.5 61q12 86 29.5 172t51 226t40.5 172q8 36 49 37.5t75 -26.5t26 -65q-9 -41 -47.5 -203t-55.5 -251q-24 -148 -24 -228q-5 -32 -3 -87t21 -83q6 -9 18.5 -12t30 1t34 9.5t37 16t33.5 17.5t30.5 17t19.5 11q122 71 231 174
q11 11 23 14q21 117 29 172q63 352 94 486zM422 1526q60 49 128 71t132 6t100 -75q33 -48 43 -96t-10.5 -101t-75.5 -100q-114 -97 -230 -56q-82 29 -126 110q-48 90 -14 171q16 41 53 70zM483 1368q6 -49 30 -69t71 -15q44 5 83 30.5t46 59.5q8 42 -14.5 67t-53.5 31.5
t-63 2.5q-43 -5 -73 -36.5t-26 -70.5z" />
    <glyph glyph-name="Uhungarumlaut" unicode="&#x170;" horiz-adv-x="1157" 
d="M1047 1378q9 35 50 49t74.5 -4.5t24.5 -60.5q-35 -151 -113 -580q-1 -4 -7.5 -41t-8 -44t-7.5 -40.5t-8.5 -44.5t-9 -40.5t-10 -44t-10.5 -40t-12.5 -43t-13 -39t-15.5 -40.5q-74 -185 -232 -285t-356 -80q-78 8 -136.5 43t-92.5 85.5t-53.5 117t-24.5 133t0 139.5
q7 104 24 208t51.5 237t52 193t65.5 222q11 39 61 50q48 11 75 -14q21 -19 11 -52q-7 -25 -30.5 -104.5t-32.5 -112.5t-28 -102.5t-29 -113t-23.5 -104t-22 -115t-14.5 -108.5q-4 -44 -6 -77t-1.5 -85t6 -90.5t19.5 -82.5t35.5 -73t57.5 -49.5t83 -23.5q183 -11 287 90
q86 83 137 262q48 166 102 477.5t81 427.5zM967 1839q13 27 35.5 42t46.5 -1q24 -12 29.5 -47t-5.5 -59q-18 -38 -54.5 -105.5t-51.5 -99.5q-17 -29 -40 -45t-44 0q-25 14 -31.5 47t6.5 57q34 61 109 211zM651 1845q16 22 40 30t48 -11q16 -12 20 -31t-1.5 -37t-16.5 -35
q-16 -30 -53 -90.5t-55 -95.5q-12 -27 -35 -44t-51 -9q-45 25 -25 100q20 43 67.5 120t61.5 103z" />
    <glyph glyph-name="uhungarumlaut" unicode="&#x171;" horiz-adv-x="997" 
d="M801 1012q12 52 48 53q32 1 52 -34q17 -30 10 -66q-49 -227 -92 -488q-4 -24 -13 -78.5t-13 -83.5q22 -29 -7 -55q0 -6 -4 -6q-14 -107 -14 -182q-1 -46 -31 -63.5t-60 3t-30 66.5q2 20 2 61q-64 -50 -125.5 -86.5t-130.5 -62t-135.5 -21t-120.5 42.5q-26 19 -45 47
t-29.5 54.5t-15 66.5t-5.5 66t2.5 71t6 64t8.5 61q12 86 29.5 172t51 226t40.5 172q8 36 49 37.5t75 -26.5t26 -65q-9 -41 -47.5 -203t-55.5 -251q-24 -148 -24 -228q-5 -32 -3 -87t21 -83q6 -9 18.5 -12t30 1t34 9.5t37 16t33.5 17.5t30.5 17t19.5 11q122 71 231 174
q11 11 23 14q21 117 29 172q63 352 94 486zM823 1520q13 27 35.5 42t46.5 -1q24 -12 30 -47.5t-5 -59.5q-18 -38 -55 -105.5t-52 -99.5q-17 -29 -40 -45t-44 0q-25 14 -31 47.5t7 57.5q24 44 108 211zM508 1526q16 22 40 29.5t48 -11.5q16 -12 20 -31t-1.5 -36.5
t-16.5 -34.5q-16 -30 -53.5 -91t-55.5 -96q-12 -27 -35 -44t-51 -9q-23 12 -28 43t4 58q20 43 67.5 120t61.5 103z" />
    <glyph glyph-name="Uogonek" unicode="&#x172;" horiz-adv-x="1157" 
d="M1047 1378q9 35 50 49t74.5 -4.5t24.5 -60.5q-35 -151 -113 -580q-1 -4 -7.5 -41t-8 -44t-7.5 -40.5t-8.5 -44.5t-9 -40.5t-10 -44t-10.5 -40t-12.5 -43t-13 -39t-15.5 -40.5q-59 -144 -169 -238.5t-251 -120.5q-172 -128 -172 -239q0 -48 36.5 -69.5t113.5 1.5
q40 13 63 -4.5t14 -45t-49 -38.5q-126 -27 -215 16.5t-88 141.5q0 101 164 229q-6 0 -17.5 1t-17.5 1q-78 8 -136.5 43t-92.5 85.5t-53.5 117t-24.5 133t0 139.5q7 104 24 208t51.5 237t52 193t65.5 222q11 39 61 50q48 11 75 -14q21 -19 11 -52q-7 -25 -30.5 -104.5
t-32.5 -112.5t-28 -102.5t-29 -113t-23.5 -104t-22 -115t-14.5 -108.5q-4 -44 -6 -77t-1.5 -85t6 -90.5t19.5 -82.5t35.5 -73t57.5 -49.5t83 -23.5q183 -11 287 90q86 83 137 262q48 166 102 477.5t81 427.5z" />
    <glyph glyph-name="uogonek" unicode="&#x173;" horiz-adv-x="997" 
d="M801 1012q12 52 48 53q32 1 52 -34q17 -30 10 -66q-49 -227 -92 -488l-26 -162q22 -29 -7 -55q0 -6 -4 -6q-14 -107 -14 -182q-1 -39 -22 -57t-48 -13q-172 -119 -172 -240q0 -48 37 -69t113 2q40 13 63.5 -4.5t14.5 -45t-49 -38.5q-126 -27 -215.5 16t-88.5 141
q1 68 74.5 147.5t175.5 137.5q-4 16 -4 29q2 20 2 61q-64 -50 -125.5 -86.5t-130.5 -62t-135.5 -21t-120.5 42.5q-26 19 -45 47t-29.5 54.5t-15 66.5t-5.5 66t2.5 71t6 64t8.5 61q12 86 29.5 172t51 226t40.5 172q8 36 49 37.5t75 -26.5t26 -65q-9 -41 -47.5 -203
t-55.5 -251q-24 -148 -24 -228q-5 -32 -3 -87t21 -83q6 -9 18.5 -12t30 1t34 9.5t37 16t33.5 17.5t30.5 17t19.5 11q122 71 231 174q11 11 23 14q21 117 29 172q63 352 94 486z" />
    <glyph glyph-name="Wcircumflex" unicode="&#x174;" horiz-adv-x="1511" 
d="M1513 1411q5 49 46 65q37 15 60 -11q18 -20 13 -58q-5 -43 -21 -95t-28.5 -83.5t-38.5 -89.5q-67 -158 -180 -385q-22 -44 -153 -297.5t-195 -390.5q-13 -31 -39.5 -45t-50 -1.5t-27.5 50.5q-22 195 -46.5 566t-41.5 540q-342 -668 -532 -1153q-12 -30 -39.5 -44
t-51.5 -2t-26 50q-9 166 -37 624.5t-41 708.5q-3 47 38 76q37 27 64 8q20 -13 21 -49q29 -523 65 -1080q191 450 525 1090q16 30 41.5 44t47.5 2.5t27 -50.5q21 -161 36 -339.5t30.5 -410t24.5 -340.5q44 89 129.5 252.5t121.5 235.5q148 307 175 370q3 8 23 55t27 66t18 55
t15 66zM707 1589q-27 -29 -81 -13q-46 14 -56 43q-5 22 14 42q23 20 86.5 80.5t109.5 93.5q44 36 83 48t70 1.5t52 -26.5t43 -41q9 -11 37 -48.5t51 -62.5t47 -43q20 -16 23.5 -39t-15.5 -39q-23 -19 -51.5 -17.5t-50.5 17.5q-108 78 -170 187q-5 -12 -25 -29
q-77 -64 -167 -154z" />
    <glyph glyph-name="wcircumflex" unicode="&#x175;" horiz-adv-x="1404" 
d="M1323 997q23 49 67 51q38 2 51 -29q10 -25 -5 -58q-82 -190 -267 -533.5t-219 -411.5q-13 -26 -37 -33.5t-44.5 6.5t-24.5 44q-13 124 -58 368.5t-59 368.5q-44 -74 -202 -337.5t-242 -407.5q-13 -24 -39.5 -33.5t-48.5 3.5t-23 46q0 173 -40.5 488t-47.5 427
q-3 47 37 80q36 30 64 12q19 -13 22 -49q9 -129 41 -372.5t41 -354.5q84 141 239 399.5t199 332.5q13 23 38.5 32.5t47 -3t23.5 -46.5q3 -87 15 -189.5t24 -173t33.5 -191t31.5 -177.5q32 60 99 181.5t106 195t90.5 176.5t87.5 188zM653 1227q-27 -29 -81 -13q-46 13 -56 42
q-7 22 14 42q23 20 87 81t110 94q44 36 83 48t70 1t52 -26.5t43 -41.5q9 -11 37 -48.5t51 -62.5t47 -43q20 -16 23.5 -38.5t-15.5 -38.5q-23 -19 -51.5 -17.5t-50.5 17.5q-109 78 -170 186q-5 -12 -25 -29q-88 -73 -168 -153z" />
    <glyph glyph-name="Ycircumflex" unicode="&#x176;" horiz-adv-x="929" 
d="M958 1442q37 44 69 16q28 -25 24 -74q-2 -29 -19 -51q-108 -132 -294.5 -389t-270.5 -364q-8 -46 -23.5 -135t-25 -144.5t-25 -131.5t-31.5 -140q-8 -34 -48.5 -46t-74 6.5t-24.5 59.5q21 83 38 174.5t37 214t29 174.5q-45 136 -119.5 391t-109.5 365q-10 23 -5 56t30 49
q22 11 47 -3.5t35 -39.5q31 -99 102 -342.5t113 -374.5q78 100 258.5 349.5t287.5 379.5zM438 1593q-27 -29 -81 -13q-46 14 -56 43q-5 22 14 42q22 19 86.5 80t110.5 94q44 36 83 48t70 1.5t52 -26.5t43 -41q9 -11 37 -48.5t51 -62.5t47 -43q20 -16 23.5 -39t-15.5 -39
q-23 -19 -51.5 -17.5t-50.5 17.5q-108 78 -170 187q-5 -12 -25 -29q-83 -69 -168 -154z" />
    <glyph glyph-name="ycircumflex" unicode="&#x177;" horiz-adv-x="911" 
d="M801 1022q18 38 73 38q50 1 70 -29q14 -23 0 -52q-229 -471 -399 -795q-6 -12 -34.5 -66.5t-38.5 -73t-35.5 -64.5t-41 -72.5t-39 -63t-45.5 -67.5q-28 -42 -55.5 -73.5t-63 -60t-72 -42t-81.5 -11.5t-92 23q-25 10 -27.5 37t17.5 45q17 17 37 20.5t38.5 0t37.5 -5
t40.5 11t40.5 42.5q18 29 81 127.5t101 163.5q-147 547 -188 901q-5 35 31.5 58.5t77 16t45.5 -47.5q28 -259 143 -729q47 88 101 195.5t90.5 183t97.5 202.5t90 187zM395 1237q-27 -29 -81 -13q-46 14 -56 43q-5 22 14 42q22 19 86.5 80t110.5 94q44 36 83 48t70 1
t52 -26.5t43 -41.5q9 -10 37.5 -47.5t51 -62.5t46.5 -43q20 -16 23.5 -39t-15.5 -39q-23 -19 -51.5 -17.5t-50.5 17.5q-109 78 -170 186q-4 -11 -25 -28q-83 -69 -168 -154z" />
    <glyph glyph-name="Ydieresis" unicode="&#x178;" horiz-adv-x="929" 
d="M958 1442q37 44 69 16q28 -25 24 -74q-2 -29 -19 -51q-108 -132 -294.5 -389t-270.5 -364q-8 -46 -23.5 -135t-25 -144.5t-25 -131.5t-31.5 -140q-8 -34 -48.5 -46t-74 6.5t-24.5 59.5q21 83 38 174.5t37 214t29 174.5q-45 136 -119.5 391t-109.5 365q-10 23 -5 56t30 49
q22 11 47 -3.5t35 -39.5q31 -99 102 -342.5t113 -374.5q78 100 258.5 349.5t287.5 379.5zM483 1694q17 -14 17 -37.5t-17 -40.5q-23 -23 -56 -26.5t-60 12.5q-32 20 -45 57t6 70q17 25 49 34.5t61 -0.5q22 -7 37 -27t8 -42zM852 1694q17 -14 17 -37.5t-17 -40.5
q-23 -23 -56.5 -26.5t-60.5 12.5q-32 20 -45 57t6 70q17 25 49.5 34.5t61.5 -0.5q22 -7 37 -27t8 -42z" />
    <glyph glyph-name="Zacute" unicode="&#x179;" horiz-adv-x="991" 
d="M1071 1425q39 0 55.5 -23t-10.5 -63q-178 -219 -530.5 -624.5t-509.5 -595.5q132 3 375.5 -1.5t320.5 -4.5q49 0 64 -30.5t-8 -61.5t-66 -31q-93 0 -263.5 4.5t-310 4.5t-264.5 -9q-42 -3 -58.5 19t-4.5 50.5t41 42.5v2q177 218 523 617t495 579q-681 -6 -687 -6
q-37 0 -56.5 39.5t-9 79t47.5 39.5q134 0 402.5 2t402.5 2q34 0 51 -31zM676 1591q-48 -21 -84 9q-31 26 -19 59q9 25 43 39q15 7 29 16t29.5 22t25 21.5t27.5 26t23 22.5q13 11 38 33t40 34.5t37 29.5t42 30q80 25 115 -4q21 -19 16 -46.5t-30 -39.5q-39 -22 -84 -60.5
t-78.5 -71.5t-79.5 -67.5t-90 -52.5z" />
    <glyph glyph-name="zacute" unicode="&#x17a;" horiz-adv-x="872" 
d="M809 1038q37 3 53.5 -34t3.5 -77t-49 -44q-133 -140 -360 -409.5t-316 -367.5h480q46 0 68 -29.5t5.5 -59t-63.5 -29.5h-633q-43 1 -65.5 28.5t-10.5 56.5t53 33q6 3 9 11q124 132 343.5 392t317.5 368q-67 -1 -141 -1t-164 0.5t-139 0.5q-29 -1 -46 23.5t-17.5 54
t14.5 55t43 26.5q60 0 191.5 -1.5t231 -1t191.5 4.5zM547 1190q-48 -21 -84 9q-32 26 -18 59q10 24 42 38q18 8 38.5 23t31 24.5t36 34t28.5 27.5q13 11 38 33t40 34.5t37 29.5t42 30q80 25 115 -4q21 -19 16 -46.5t-30 -39.5q-39 -22 -84 -60.5t-78.5 -71.5t-79.5 -67.5
t-90 -52.5z" />
    <glyph glyph-name="Zdotaccent" unicode="&#x17b;" horiz-adv-x="991" 
d="M1071 1425q39 0 55.5 -23t-10.5 -63q-178 -219 -530.5 -624.5t-509.5 -595.5q132 3 375.5 -1.5t320.5 -4.5q49 0 64 -30.5t-8 -61.5t-66 -31q-93 0 -263.5 4.5t-310 4.5t-264.5 -9q-42 -3 -58.5 19t-4.5 50.5t41 42.5v2q177 218 523 617t495 579q-681 -6 -687 -6
q-37 0 -56.5 39.5t-9 79t47.5 39.5q134 0 402.5 2t402.5 2q34 0 51 -31zM748 1737q20 -15 20 -42.5t-20 -47.5q-26 -27 -66 -31.5t-72 14.5q-37 23 -52 66.5t7 81.5q20 30 58 41t71 0q27 -8 44.5 -32t9.5 -50z" />
    <glyph glyph-name="zdotaccent" unicode="&#x17c;" horiz-adv-x="872" 
d="M809 1038q37 3 53.5 -34t3.5 -77t-49 -44q-133 -140 -360 -409.5t-316 -367.5h480q46 0 68 -29.5t5.5 -59t-63.5 -29.5h-633q-43 1 -65.5 28.5t-10.5 56.5t53 33q6 3 9 11q124 132 343.5 392t317.5 368q-67 -1 -141 -1t-164 0.5t-139 0.5q-29 -1 -46 23.5t-17.5 54
t14.5 55t43 26.5q60 0 191.5 -1.5t231 -1t191.5 4.5zM651 1317q20 -15 20 -42.5t-20 -47.5q-26 -27 -65.5 -31.5t-71.5 14.5q-37 23 -52 66.5t7 81.5q20 30 58 41t71 0q27 -8 44 -32t9 -50z" />
    <glyph glyph-name="Zcaron" unicode="&#x17d;" horiz-adv-x="991" 
d="M1071 1425q39 0 55.5 -23t-10.5 -63q-178 -219 -530.5 -624.5t-509.5 -595.5q132 3 375.5 -1.5t320.5 -4.5q49 0 64 -30.5t-8 -61.5t-66 -31q-93 0 -263.5 4.5t-310 4.5t-264.5 -9q-42 -3 -58.5 19t-4.5 50.5t41 42.5v2q177 218 523 617t495 579q-681 -6 -687 -6
q-37 0 -56.5 39.5t-9 79t47.5 39.5q134 0 402.5 2t402.5 2q34 0 51 -31zM530 1890q67 -84 134 -151q15 -18 18 -29q84 106 211 184q24 16 51.5 17.5t48.5 -17.5q15 -15 7.5 -38.5t-31.5 -38.5q-27 -17 -56 -43t-63 -60.5t-49 -48.5q-136 -132 -250 -18q-30 25 -55 52
t-54.5 63t-48.5 57q-28 34 17 66q40 28 85 23q24 -3 35 -18z" />
    <glyph glyph-name="zcaron" unicode="&#x17e;" horiz-adv-x="872" 
d="M809 1038q37 3 53.5 -34t3.5 -77t-49 -44q-133 -140 -360 -409.5t-316 -367.5h480q46 0 68 -29.5t5.5 -59t-63.5 -29.5h-633q-43 1 -65.5 28.5t-10.5 56.5t53 33q6 3 9 11q124 132 343.5 392t317.5 368q-67 -1 -141 -1t-164 0.5t-139 0.5q-29 -1 -46 23.5t-17.5 54
t14.5 55t43 26.5q60 0 191.5 -1.5t231 -1t191.5 4.5zM389 1473q74 -93 133 -152q17 -20 19 -29q86 108 211 185q24 16 51.5 17.5t48.5 -17.5q15 -15 7 -39t-32 -39q-27 -17 -56 -43t-63 -60.5t-49 -48.5q-136 -131 -249 -18q-30 25 -55 52t-54.5 63t-48.5 57q-28 34 17 66
q40 29 85 23q24 -2 35 -17z" />
    <glyph glyph-name="florin" unicode="&#x192;" horiz-adv-x="636" 
d="M805 1395q36 -25 35 -79q-1 -49 -30 -62q-22 -10 -50 10q-260 171 -361 -258q34 0 100.5 -2.5t100.5 -2.5q45 0 44 -40q0 -39 -36 -73q-27 -26 -57 -26q-119 0 -178 4q-28 -188 -35 -299q-10 -89 -59 -475q-15 -127 -33.5 -219.5t-52.5 -173.5q-71 -170 -181 -201
q-74 -21 -145 -2t-154 64q-38 21 -39 73q-1 48 30 65q23 12 54 -3q46 -27 89.5 -41.5t93.5 -8t84 43.5q21 23 38.5 56.5t27 57.5t21 73.5t14 63.5t11.5 68q18 112 33 228.5t34 292.5t25 231q8 63 15 106q-21 0 -59.5 -2t-57.5 -2q-28 -1 -39 25t-2 51q20 60 90 63q36 5 88 5
q38 189 111 313q50 84 121 120t149.5 23.5t159.5 -67.5z" />
    <glyph glyph-name="AEacute" unicode="&#x1fc;" horiz-adv-x="1658" 
d="M1012 717h-11q-114 -466 -139 -561q67 1 288.5 10t342.5 4q36 0 53.5 -36.5t5 -72.5t-50.5 -36q-130 3 -388 -9.5t-388 -9.5q-21 1 -36.5 16.5t-20.5 38t-2.5 44.5t17.5 37.5t38 15.5q3 0 10.5 -1t11.5 -1q42 155 80 319q-108 0 -158 -1t-138 -12t-158 -34q-2 -2 -9 -2
q-11 -14 -59.5 -80t-68.5 -91.5t-59.5 -76t-73 -89t-68.5 -75.5q-28 -29 -64.5 -22.5t-45 35t21.5 63.5q48 50 102 116.5t82.5 103.5t98 131.5t83.5 113.5q3 9 8 14q73 90 154 195q4 5 32.5 38.5t35 41t32 37t35 41.5t31 38.5t33.5 42.5t29.5 39t32 43t28.5 41
q25 30 105 146.5t134 163.5q35 21 68 18l14 16q33 30 59 10.5t29 -61.5q267 0 484 19q55 6 66 -33q9 -33 -22 -62q-19 -19 -48 -22q-196 -18 -521 -18q-2 -7 -4 -24t-4 -22q-4 -39 -22 -124q-20 -124 -68 -304q237 -15 385 15q45 10 83 -27q32 -32 18 -57q-10 -17 -39 -21
q-103 -24 -232.5 -27t-232.5 5zM860 618l62 259q57 190 86 370l4 23l-49 -80q-13 -16 -59.5 -80t-76.5 -96q-99 -133 -278 -340l-49 -62q90 11 342 11q3 0 18 -5zM1290 1608q-48 -21 -84 9q-31 26 -18 59q11 24 43 38q18 8 38 23t31.5 25t34.5 33t29 28q11 9 38 32.5t41 35
t36.5 29t42.5 30.5q79 24 114 -4q21 -19 16 -46.5t-30 -39.5q-39 -22 -84 -60.5t-78.5 -71.5t-79.5 -67.5t-90 -52.5z" />
    <glyph glyph-name="aeacute" unicode="&#x1fd;" horiz-adv-x="1562" 
d="M250 877q-33 -38 -66 -2q-30 32 -28 79q2 27 16 43q41 58 134 84.5t190 30.5q203 13 262 -106q16 -31 30 -78q74 86 182 137t223.5 52.5t219.5 -60.5q84 -51 114.5 -136.5t-2 -170t-118.5 -132.5q-66 -37 -142.5 -61t-167 -35t-156 -14.5t-167.5 -5.5q-13 -71 -35 -127
l-6 -17q4 -135 80 -170q115 -50 257.5 -11t219.5 134q30 39 63 6q31 -30 30 -80q0 -29 -15 -49q-39 -51 -106.5 -93.5t-147.5 -65t-160 -24.5t-152 29t-114 93q-21 32 -33 53q-126 -217 -329 -217q-190 -7 -260 137q-34 72 -41.5 154.5t16.5 157.5q17 49 48 87.5t65.5 63.5
t85.5 42.5t92.5 26.5t103 13.5t101.5 5.5t102 2h10q8 48 33 103v20q0 2 1 38.5t0 51.5t-10 39t-26 37q-22 17 -63.5 20.5t-67 0.5t-70.5 -11q-153 -22 -196 -75zM623 500q-76 -1 -118 -3t-106.5 -11t-113.5 -25q-124 -40 -140 -142q-16 -111 29 -163q37 -48 107 -47.5
t133.5 32t99.5 72.5q62 71 104 184q0 15 5 103zM797 682q0 -19 -2 -27q179 3 323 31q6 1 32 6t36.5 7.5t36.5 8t40 10.5t36.5 12.5t36.5 15.5t30.5 18t28.5 22.5t20 26.5q16 30 12.5 52.5t-26 38.5t-51 27t-63.5 17t-62.5 8.5t-48.5 1.5q-124 -7 -225.5 -78t-151.5 -182
q0 -3 -1 -8.5t-1 -7.5zM872 1253q-48 -21 -84 9q-31 26 -18 59q9 25 43 39q18 8 38.5 23t30.5 24t35.5 33.5t28.5 27.5q11 9 38 32.5t41 35t36.5 29t42.5 30.5q80 25 115 -4q21 -19 15.5 -46.5t-30.5 -39.5q-39 -22 -84 -60.5t-78.5 -71.5t-79.5 -67.5t-90 -52.5z" />
    <glyph glyph-name="Oslashacute" unicode="&#x1fe;" horiz-adv-x="1251" 
d="M82 610q0 76 7.5 150.5t24 156t47.5 155t73.5 139.5t106.5 117.5t142 80.5q68 29 135 47.5t140.5 26t142 -9.5t121.5 -60l6 8q30 41 76 34q37 -5 46 -36q7 -26 -15 -57l-31 -43q76 -129 96.5 -306t-10.5 -323q-30 -152 -118 -293t-212 -247q-41 -36 -84 -66.5t-97 -60
t-105.5 -43.5t-109.5 -17t-108 19q-42 17 -65 32l-88 -147q-44 -63 -97 -55q-27 7 -35.5 32t5.5 50l123 210q-117 162 -117 488v18zM516 1264q-92 -51 -149.5 -105t-94.5 -131t-55 -188q-23 -118 -18 -259.5t43 -256.5q10 -38 37 -86q134 229 216 365.5t205.5 331.5
t233.5 353q-46 29 -100 38t-110.5 0t-104 -23.5t-103.5 -38.5zM1018 1198q-38 -55 -76 -111t-79 -120.5t-70.5 -111t-75.5 -122t-68.5 -112t-74 -123.5t-67 -113t-72.5 -124t-68 -116q11 -8 30 -12q49 -18 104.5 -10.5t102.5 24.5t97 50.5t88.5 66.5t76.5 72
q236 254 215 600q-8 167 -63 262zM799 1653q-48 -21 -84 9q-32 26 -18 59q10 24 42 38q18 8 38 23t31.5 25t34.5 33t29 28q11 9 38 32.5t41 35t36.5 29t42.5 30.5q80 25 115 -4q21 -19 15.5 -46.5t-30.5 -39.5q-49 -27 -106 -80.5t-113 -101t-112 -70.5z" />
    <glyph glyph-name="oslashacute" unicode="&#x1ff;" horiz-adv-x="1013" 
d="M117 -4q-54 -34 -99 -8q-18 14 -16 37t21 41q71 48 127 104q-42 72 -56 149q-25 158 37 325.5t180 293.5q48 51 107 88t124 54.5t131.5 -1t119.5 -75.5q5 -5 8 -23q15 -8 20 -20l53 51q18 22 44.5 31.5t52.5 0.5q20 -10 27 -31t-9 -42l-110 -121l10 -49q37 -184 -23 -379
q-19 -70 -46 -134t-67.5 -128.5t-98 -109.5t-124.5 -60q-84 -18 -164 7t-143 85q-74 -61 -106 -86zM582 969q-52 4 -104.5 -27.5t-92.5 -79.5q-112 -121 -154 -284q-49 -166 13 -299q40 43 108 129.5t82 103.5q58 62 160.5 183t136.5 159q-34 43 -86 43q-35 0 -47 22.5
t0 47.5q-3 0 -8 1t-8 1zM485 104q48 -4 91 21t72 64.5t53 93t37 97.5t22 87q29 164 16 264q-42 -47 -121 -141.5t-118 -138.5q-13 -16 -94 -118t-126 -153q76 -73 168 -76zM397 1264q-48 -21 -84 9q-31 26 -18 59q11 24 43 38q18 8 38 23t31.5 25t34.5 33t29 28
q11 9 38 32.5t41 35t36.5 29t42.5 30.5q79 24 114 -4q21 -19 16 -46.5t-30 -39.5q-39 -22 -84 -60.5t-78.5 -71.5t-79.5 -67.5t-90 -52.5z" />
    <glyph glyph-name="Scommaaccent" unicode="&#x218;" horiz-adv-x="901" 
d="M956 1413q29 -25 26 -63.5t-34 -67t-63 -10.5q-73 44 -179.5 47t-206 -28.5t-165.5 -84.5q-51 -42 -58.5 -91t17.5 -92t72.5 -91.5t96 -84.5t99 -75.5t70.5 -60.5q57 -60 97.5 -129.5t62 -146.5t7.5 -156.5t-67 -145.5q-211 -261 -770 -133q-38 8 -41.5 49t22.5 75t60 26
q314 -72 504 -15q64 18 113.5 56.5t54.5 95.5q8 79 -23.5 149.5t-89.5 127t-119.5 104.5t-128.5 105t-102 106q-61 85 -68 169.5t32.5 150.5t106.5 122.5t157 90t181.5 49t181 3.5t154.5 -51zM252 -350v4q-27 -14 -61 -1.5t-44 44.5q-19 53 25.5 86.5t95.5 19.5
q65 -17 93.5 -60t21.5 -94.5t-31.5 -102t-62.5 -89.5q-33 -29 -80 -19q-37 9 -40 36q-1 19 19 41q28 28 48 65.5t16 69.5z" />
    <glyph glyph-name="scommaaccent" unicode="&#x219;" horiz-adv-x="722" 
d="M690 1006q47 -25 26 -67q-17 -34 -58 -46q-31 -8 -56 6q-110 58 -229 27q-65 -20 -109 -71t-20 -110q20 -46 61.5 -84.5t88 -66t92 -57t81 -72.5t47.5 -98q25 -101 -26.5 -192.5t-149.5 -145.5q-111 -61 -241 -62t-244 53q-48 21 -30 61q16 34 59 48q33 10 59 -2
q53 -23 114.5 -31.5t121.5 -1t109.5 42.5t70.5 94q12 42 11 74t-21.5 64t-45 55.5t-60 49t-66 44t-63.5 41.5t-52 41q-96 99 -68.5 216t146.5 181q104 57 226 61t226 -52zM190 -309v4q-27 -13 -60.5 -1t-43.5 44q-19 53 25.5 86.5t95.5 19.5q65 -17 93 -60t21.5 -94.5
t-31.5 -102t-63 -89.5q-33 -30 -80 -19q-37 9 -39 36q-1 19 19 41q27 27 47 65t16 70z" />
    <glyph glyph-name="circumflex" unicode="&#x2c6;" horiz-adv-x="702" 
d="M262 1319q-27 -29 -81 -13q-46 14 -56 43q-5 22 14 42q22 19 86.5 80t110.5 94q44 36 83 48t70 1t52 -26.5t43 -41.5q9 -10 37.5 -47.5t51 -62.5t46.5 -43q20 -16 23.5 -39t-15.5 -39q-23 -19 -51.5 -17.5t-50.5 17.5q-109 78 -170 186q-4 -11 -25 -28q-83 -69 -168 -154
z" />
    <glyph glyph-name="caron" unicode="&#x2c7;" horiz-adv-x="702" 
d="M270 1595q71 -88 133 -151q17 -20 19 -29q84 106 211 184q24 16 51.5 17.5t48.5 -17.5q15 -15 7.5 -38.5t-31.5 -38.5q-27 -17 -56 -43t-63 -60.5t-49 -48.5q-136 -132 -250 -18q-30 25 -55 52t-54.5 63t-48.5 57q-28 34 17 66q40 28 85 23q24 -3 35 -18z" />
    <glyph glyph-name="breve" unicode="&#x2d8;" horiz-adv-x="817" 
d="M127 1497q-14 35 18 68.5t69.5 35.5t55.5 -30q38 -84 128 -111t180.5 7t132.5 110q21 39 75 48q50 7 66 -19q13 -20 -6 -52q-37 -71 -109.5 -128t-159.5 -83.5t-173.5 -25.5t-162 47.5t-114.5 132.5z" />
    <glyph glyph-name="dotaccent" unicode="&#x2d9;" horiz-adv-x="350" 
d="M403 1464q20 -15 20 -42.5t-20 -47.5q-26 -27 -65.5 -31t-71.5 15q-37 23 -52 66t7 81q20 30 58 41t71 0q27 -8 44 -32t9 -50z" />
    <glyph glyph-name="ring" unicode="&#x2da;" horiz-adv-x="544" 
d="M182 1597q60 49 128 71t132.5 6t100.5 -75q112 -164 -43 -296q-114 -97 -230 -57q-83 29 -127 111q-48 90 -14 171q17 40 53 69zM244 1440q6 -49 29.5 -69t70.5 -15q44 5 83 30.5t46 59.5q6 32 -5 54.5t-33.5 32t-46 13t-46.5 0.5q-43 -5 -72.5 -36t-25.5 -70z" />
    <glyph glyph-name="ogonek" unicode="&#x2db;" horiz-adv-x="503" 
d="M-39 -258q1 72 84.5 157t192.5 142h110q-111 -69 -186.5 -147.5t-75.5 -153.5q0 -48 37 -69.5t113 1.5q40 13 63 -4.5t14 -45t-49 -38.5q-126 -27 -215 16.5t-88 141.5z" />
    <glyph glyph-name="tilde" unicode="&#x2dc;" horiz-adv-x="727" 
d="M256 1356q-33 -44 -73 -29q-32 13 -34 51q-1 29 21 58q4 5 17.5 23t19 24.5t18.5 21.5t21 21l22 16.5t26.5 15t29 8.5t34.5 5q37 1 72.5 -15.5t59 -37.5t54 -38.5t58.5 -17.5q16 0 28 10t31.5 35.5t30.5 38.5q18 20 39.5 26.5t37.5 -1.5t26.5 -22t7 -37t-22.5 -46
q-3 -4 -16.5 -20t-17.5 -20.5t-16.5 -18.5t-18.5 -18.5t-18 -15t-21 -14t-21 -9t-24.5 -7.5t-26.5 -2q-39 0 -72 15.5t-52 34.5t-45.5 36t-53.5 19q-26 2 -50 -13.5t-33.5 -27t-37.5 -49.5z" />
    <glyph glyph-name="hungarumlaut" unicode="&#x2dd;" horiz-adv-x="667" 
d="M594 1577q13 27 35.5 42t46.5 -1q24 -12 29.5 -47.5t-5.5 -59.5q-18 -38 -54.5 -105t-51.5 -99q-17 -29 -40 -45t-44 0q-25 14 -31.5 47t6.5 57q34 61 109 211zM279 1583q16 22 40 30t48 -11q16 -12 20 -31t-1.5 -37t-16.5 -35q-16 -30 -53.5 -90.5t-55.5 -95.5
q-12 -27 -35 -44t-51 -9q-44 24 -24 100q20 43 67.5 120t61.5 103z" />
    </font>
</defs>
</svg>
